<svg width="1920" height="1207" viewBox="0 0 1920 1207" fill="none" xmlns="http://www.w3.org/2000/svg">
<path d="M-1237.27 106.952C-1140.91 41.4484 -1001.87 -7.47424 -829.052 -36.6831C-684.131 -61.1567 -477.271 -15.5567 -472.504 -14.4982C-472.356 -14.4654 -472.343 -14.4976 -472.196 -14.5325L-471.097 -14.7926C-415.377 -27.833 -343.662 -30.9602 -264.948 -23.782C-186.235 -16.6038 -104.028 0.560162 -28.642 25.5565C-9.03949 32.0171 6.19047 36.2712 13.7391 36.854C151.383 47.4512 153.66 5.81814 276.042 -2.0979C490.325 -15.9585 1147.17 191.709 1219.51 316.403C1278.14 417.465 1611.55 531.277 1725.6 623.289C1743.43 637.677 1760.86 652.102 1777.89 666.564C1785.88 673.3 1793.77 680.051 1801.54 686.817C1881.48 756.051 1951.61 825.665 2011.39 895.147C2050.62 940.579 2083.49 985.834 2109.79 1030.63C2211.53 1207.48 2250.83 1256.76 1889.06 1151.29C1846.24 1138.8 1712.94 1131.66 1672.06 1120.29C1612.88 1103.81 1504.85 1063.05 1449.56 1048.79C1375.12 1029.57 1312.18 1046.05 1244.56 1030.63C1221.83 1025.43 1137.51 996.082 1115.56 991.293C791.086 920.529 632.907 955.438 441.653 952.59C409.235 952.092 378.372 952.294 349.062 953.197C304.307 954.518 261.239 957.353 220.165 961.679C163.303 967.767 110.206 976.491 61.4942 987.751L58.8181 988.369C-177.16 1042.82 -271.372 1138.61 -424.868 1126.37C-1081.03 1074.08 -1420.54 685.885 -1399.08 381.301C-1398 365.952 -1395.99 350.845 -1393.06 335.979C-1391.78 329.327 -1390.29 322.739 -1388.59 316.214C-1384.29 299.163 -1378.67 282.507 -1371.75 266.343C-1369.14 260.156 -1366.33 254.046 -1363.33 248.012C-1360.06 241.514 -1356.64 235.091 -1352.92 228.775C-1326.08 182.39 -1287.59 141.013 -1237.27 106.952Z" fill="#D3D63F" fill-opacity="0.4"/>
</svg>
