<svg width="1920" height="`904" viewBox="0 0 1920 1254" fill="none" xmlns="http://www.w3.org/2000/svg">
<path d="M-511.229 436.08C-418.477 340.238 -277.142 255.735 -96.2745 187.984C55.3934 131.195 285.118 145.142 290.43 145.473C290.594 145.483 290.602 145.443 290.752 145.375L291.894 144.855C349.613 118.736 426.146 101.232 511.892 94.5375C597.638 87.8432 688.779 92.257 773.879 107.225C796.001 111.071 813.062 113.156 821.268 112.39C970.888 98.3771 966.49 48.8203 1096.67 15.9058C1324.61 -41.7256 2064.43 76.7459 2162.65 209.923C2242.25 317.861 2619.16 387.908 2756.81 474.494C2778.33 488.033 2799.43 501.693 2820.1 515.475C2829.8 521.883 2839.38 528.329 2848.85 534.813C2946.11 601.095 3032.89 669.718 3108.54 740.175C3158.15 786.218 3200.91 833.278 3236.52 881.056C3374.9 1070.11 3317.25 1202.54 2911.25 1147.8C2863.19 1141.31 2816.27 1135.3 2770.49 1129.76C2704.19 1121.72 2640.17 1114.62 2578.43 1108.44C2495.29 1100.1 2416.13 1093.34 2340.95 1088.16C2315.68 1086.41 2290.86 1084.82 2266.49 1083.4C1906.26 1062.42 1637.47 1076.85 1431.53 1110.33C1396.62 1115.99 1363.5 1122.18 1332.16 1128.89C1284.29 1139.07 1240.86 1137.16 1197.44 1150.18C1137.35 1168.31 1086.85 1175.02 1036.37 1197.69L915.916 1237.34C915.841 1237.36 915.764 1237.38 915.686 1237.38L721.768 1253.55C369.764 1238.13 280.802 1205.25 136.347 1164.55C-474.934 992.311 -769.052 1041.76 -796.063 678.282C-797.429 659.965 -641.666 754.399 -640.962 736.295C-640.681 728.202 -640.164 720.142 -639.409 712.116C-637.583 691.17 -634.284 670.437 -629.511 650.034C-627.719 642.232 -625.708 634.482 -623.479 626.786C-621.033 618.489 -618.412 610.252 -615.455 602.084C-594.251 542.19 -559.7 485.959 -511.229 436.08Z" fill="#3ACEAA" fill-opacity="0.31"/>
</svg>
