<svg width="1920" height="262" viewBox="0 0 1920 262" fill="none" xmlns="http://www.w3.org/2000/svg">
<path d="M-183.662 226.543C-81.0851 144.379 68.5162 78.7578 255.562 33.8813C412.45 -3.7364 639.208 36.1095 644.33 37.0179C644.489 37.046 644.499 37.0085 644.652 36.9604L645.847 36.5862C706.028 17.911 783.959 9.73028 869.864 13.0703C955.77 16.4104 1045.82 31.1225 1128.73 55.3609C1150.28 61.6181 1167 65.5909 1175.24 65.7886C1325.39 69.3594 1326.42 20.8782 1459.32 3.923C1692.02 -25.7645 2414.01 173.668 2497.07 313.85C2564.38 427.465 2931.15 538.45 3058.45 638.043C3078.36 653.616 3097.83 669.257 3116.86 684.968C3125.8 692.281 3134.61 699.619 3143.31 706.981C3232.7 782.291 3311.43 858.666 3378.9 935.543C3423.17 985.801 3460.51 1036.26 3490.69 1086.59C3607.54 1285.47 3535.85 1407.08 3138.52 1307.58C3091.48 1295.79 3045.53 1284.6 3000.65 1274C2935.67 1258.62 2872.85 1244.4 2812.2 1231.36C2730.52 1213.76 2652.62 1198.14 2578.51 1184.52C2553.59 1179.93 2529.11 1175.55 2505.06 1171.38C2149.51 1109.81 1880.94 1093 1672.72 1101.83C1637.43 1103.31 1603.85 1105.5 1571.98 1108.41C1523.33 1112.78 1476.56 1118.8 1432.01 1126.43C1370.35 1137.11 1312.87 1150.6 1260.26 1166.77L1257.37 1167.66C1002.47 1245.85 903.276 1363.03 735.817 1358.56C19.9715 1339.48 -362.974 910.323 -350.206 555.334C-349.567 537.445 -347.911 519.778 -345.239 502.332C-344.079 494.528 -342.686 486.785 -341.062 479.101C-336.966 459.032 -331.431 439.338 -324.467 420.132C-321.836 412.783 -318.995 405.511 -315.942 398.315C-312.608 390.563 -309.108 382.888 -305.28 375.32C-277.691 319.763 -237.244 269.282 -183.662 226.543Z" fill="#FF4848" fill-opacity="0.26"/>
</svg>
