<svg width="355" height="164" viewBox="0 0 355 164" fill="none" xmlns="http://www.w3.org/2000/svg">
<path d="M128.19 53.9206H0V100.036H4.85583V112.097L15.8619 100.036H128.19V53.9206Z" fill="#F0F0F0"/>
<path d="M124.629 58.4114H3.56104V95.3035H124.629V58.4114Z" fill="white"/>
<path d="M72.5589 69.5371H14.2676V71.4756H72.5589V69.5371Z" fill="#F0F0F0"/>
<path d="M115.864 76.243H14.2676V78.1815H115.864V76.243Z" fill="#F0F0F0"/>
<path d="M115.765 82.949H14.2676V84.8875H115.765V82.949Z" fill="#F0F0F0"/>
<path d="M215.334 158.085C215.334 158.085 215.946 144.054 228.472 145.685L215.334 158.085Z" fill="#F0F0F0"/>
<path d="M211.795 144.733C215.258 144.733 218.065 141.657 218.065 137.863C218.065 134.068 215.258 130.993 211.795 130.993C208.333 130.993 205.526 134.068 205.526 137.863C205.526 141.657 208.333 144.733 211.795 144.733Z" fill="#F0F0F0"/>
<path d="M212.545 149.432H210.775V163.007H212.545V149.432Z" fill="#F0F0F0"/>
<path d="M274.054 136.606C302.036 136.606 324.719 111.749 324.719 81.0862C324.719 50.4234 302.036 25.5663 274.054 25.5663C246.073 25.5663 223.389 50.4234 223.389 81.0862C223.389 111.749 246.073 136.606 274.054 136.606Z" fill="#3F3D56"/>
<path d="M242.157 85.543C243.416 83.8923 244.989 82.5644 246.767 81.6532C248.545 80.742 250.484 80.2697 252.447 80.2697C254.41 80.2697 256.349 80.742 258.126 81.6532C259.904 82.5644 261.478 83.8923 262.736 85.543C264.868 83.3129 266.349 80.4402 266.991 77.288C267.632 74.1359 267.407 70.846 266.343 67.8343C265.278 64.8226 263.423 62.2245 261.011 60.3684C258.599 58.5122 255.739 57.4816 252.793 57.4066C249.846 57.3317 246.946 58.2159 244.458 59.9474C241.97 61.6789 240.006 64.18 238.816 67.1343C237.625 70.0886 237.26 73.3635 237.768 76.5449C238.276 79.7262 239.633 82.6711 241.668 85.0072C241.827 85.1899 241.99 85.3685 242.157 85.543Z" fill="white"/>
<path d="M282.391 85.543C283.649 83.8923 285.223 82.5644 287.001 81.6532C288.779 80.7421 290.718 80.2698 292.681 80.2698C294.644 80.2698 296.582 80.7421 298.36 81.6532C300.138 82.5644 301.712 83.8923 302.97 85.543C305.102 83.3129 306.583 80.4402 307.225 77.288C307.866 74.1359 307.641 70.846 306.576 67.8343C305.512 64.8226 303.657 62.2245 301.245 60.3684C298.833 58.5122 295.973 57.4816 293.026 57.4066C290.08 57.3317 287.18 58.2159 284.692 59.9474C282.204 61.6789 280.24 64.18 279.05 67.1343C277.859 70.0886 277.494 73.3635 278.002 76.5449C278.51 79.7262 279.867 82.6711 281.902 85.0072C282.061 85.1899 282.224 85.3685 282.391 85.543Z" fill="white"/>
<path d="M247.364 73.7883C250.195 73.7883 252.49 71.2735 252.49 68.1712C252.49 65.069 250.195 62.5541 247.364 62.5541C244.533 62.5541 242.238 65.069 242.238 68.1712C242.238 71.2735 244.533 73.7883 247.364 73.7883Z" fill="#3F3D56"/>
<path d="M287.596 73.7883C290.427 73.7883 292.722 71.2735 292.722 68.1712C292.722 65.069 290.427 62.5541 287.596 62.5541C284.765 62.5541 282.47 65.069 282.47 68.1712C282.47 71.2735 284.765 73.7883 287.596 73.7883Z" fill="#3F3D56"/>
<path d="M237.546 101.498C240.837 101.498 243.506 98.5735 243.506 94.9661C243.506 91.3587 240.837 88.4343 237.546 88.4343C234.254 88.4343 231.585 91.3587 231.585 94.9661C231.585 98.5735 234.254 101.498 237.546 101.498Z" fill="#3ACEAA"/>
<path d="M306.092 101.498C309.384 101.498 312.052 98.5734 312.052 94.966C312.052 91.3586 309.384 88.4343 306.092 88.4343C302.8 88.4343 300.131 91.3586 300.131 94.966C300.131 98.5734 302.8 101.498 306.092 101.498Z" fill="#3ACEAA"/>
<path d="M271.819 81.9023L267.349 103.131L274.799 94.9663L271.819 81.9023Z" fill="#3ACEAA"/>
<path d="M294.789 163.55L289.713 158.882L289.832 163.55H288.255L288.129 158.614L281.277 163.55H278.408L288.078 156.584L287.704 141.959L287.424 130.913L288.996 130.866L289.28 141.959L289.654 156.571L297.24 163.55H294.789Z" fill="#3F3D56"/>
<path d="M270.945 163.55L265.869 158.882L265.988 163.55H264.416L264.289 158.614L257.437 163.55H254.568L264.234 156.584L263.86 141.959L263.58 130.913L265.156 130.866L265.44 141.959L265.81 156.571L273.396 163.55H270.945Z" fill="#3F3D56"/>
<path d="M274.799 21.484C273.409 21.484 272.183 22.6674 271.363 24.485C270.64 21.7518 269.122 19.8511 267.349 19.8511C267.228 19.8642 267.109 19.8862 266.991 19.917C266.309 16.9988 264.725 14.9523 262.878 14.9523C260.409 14.9523 258.408 18.6078 258.408 23.117C258.408 27.6262 260.409 31.2817 262.878 31.2817C262.999 31.2685 263.118 31.2465 263.236 31.2158C263.918 34.1339 265.502 36.1805 267.349 36.1805C268.739 36.1805 269.965 34.9971 270.785 33.1795C271.508 35.9127 273.026 37.8134 274.799 37.8134C277.268 37.8134 279.27 34.1579 279.27 29.6487C279.27 25.1395 277.268 21.484 274.799 21.484Z" fill="#3F3D56"/>
<path d="M226.286 82.8137L198.376 77.853C196.969 77.603 195.537 77.3525 194.126 77.5701C192.716 77.7877 191.303 78.5489 190.584 79.8967C190.238 80.5445 190.071 81.2879 190.101 82.0375C190.132 82.7871 190.359 83.5111 190.757 84.1224C191.154 84.7337 191.703 85.2063 192.34 85.4834C192.976 85.7605 193.672 85.8303 194.344 85.6844C192.82 85.6302 191.219 85.5944 189.867 86.366C188.515 87.1375 187.558 89.0117 188.217 90.5178C188.415 90.9335 188.682 91.3046 189.006 91.6115C190.023 92.6108 191.278 93.274 192.625 93.5243C193.972 93.7747 195.356 93.6019 196.617 93.026C195.59 94.6407 193.551 94.8805 191.787 95.2544C190.024 95.6283 187.985 96.7215 187.919 98.6886C187.845 100.899 190.246 102.074 192.222 102.524C202.775 104.903 213.728 103.925 223.789 99.7043C224.92 99.2779 225.99 98.6791 226.969 97.9254C228.065 97.013 228.898 95.7736 229.369 94.3557C229.839 92.9377 229.927 91.4012 229.621 89.9302C229.315 88.4591 228.629 87.1158 227.644 86.061C226.66 85.0062 225.419 84.2847 224.07 83.9827" fill="#3F3D56"/>
<path d="M346.753 107.883C342.147 97.2103 334.851 88.2049 325.726 81.929C324.735 81.1949 323.655 80.6174 322.517 80.2135C321.193 79.8015 319.788 79.8165 318.471 80.2567C317.154 80.6969 315.981 81.5436 315.092 82.6955C314.203 83.8474 313.635 85.2557 313.458 86.7518C313.28 88.248 313.499 89.7685 314.09 91.1314L311.906 89.8935C316.291 99.0355 320.676 108.178 325.061 117.32C325.724 118.702 326.402 120.107 327.408 121.211C328.415 122.316 329.819 123.096 331.234 122.916C331.796 122.847 332.335 122.631 332.805 122.287C333.275 121.942 333.662 121.479 333.935 120.937C334.208 120.394 334.358 119.788 334.373 119.168C334.388 118.549 334.267 117.935 334.02 117.377C334.636 118.328 335.445 119.108 336.384 119.656C337.759 120.376 339.701 120.088 340.403 118.606C340.588 118.183 340.698 117.725 340.727 117.258C340.845 115.766 340.574 114.269 339.947 112.938C339.32 111.608 338.363 110.5 337.185 109.741C338.98 109.671 340.38 111.312 341.713 112.632C343.045 113.952 345.068 115.081 346.542 113.956C348.199 112.692 347.613 109.884 346.753 107.883Z" fill="#3F3D56"/>
<path d="M22.9116 0H207.925V66.5568H200.917V83.9634L185.032 66.5568H22.9116V0Z" fill="#CACACA"/>
<path d="M202.786 6.48126H28.0508V59.7267H202.786V6.48126Z" fill="white"/>
<path d="M126.232 22.0266H42.1021V24.8244H126.232V22.0266Z" fill="#3ACEAA"/>
<path d="M188.734 31.7051H42.1021V34.5029H188.734V31.7051Z" fill="#3ACEAA"/>
<path d="M188.591 41.3836H42.1021V44.1814H188.591V41.3836Z" fill="#3ACEAA"/>
<path d="M354.589 164H198.029C197.92 164 197.816 163.953 197.739 163.868C197.661 163.784 197.618 163.669 197.618 163.55C197.618 163.43 197.661 163.316 197.739 163.231C197.816 163.147 197.92 163.099 198.029 163.099H354.589C354.698 163.099 354.803 163.147 354.88 163.231C354.957 163.316 355 163.43 355 163.55C355 163.669 354.957 163.784 354.88 163.868C354.803 163.953 354.698 164 354.589 164Z" fill="#CACACA"/>
</svg>
