<svg width="565" height="471" viewBox="0 0 565 471" fill="none" xmlns="http://www.w3.org/2000/svg">
<g clip-path="url(#clip0_225_1138)">
<path d="M533.75 150.671C533.75 170.275 529.104 186.411 521.045 200.235C518.385 204.788 515.366 209.122 512.015 213.194C482.389 249.409 427.307 269.23 377.524 301.336C230.572 396.105 214.654 244.247 221.291 150.671C223.969 112.913 238.682 78.3259 262.056 51.8438C266.965 46.2742 272.268 41.0639 277.924 36.2533C304.461 13.6674 338.744 0 377.524 0C444.056 0 500.872 40.1049 523.399 96.6197C530.247 113.818 533.76 132.161 533.75 150.671Z" fill="#3ACEAA"/>
<path d="M410.809 33.9568L262.056 51.8438C266.965 46.2741 272.268 41.0639 277.923 36.2533L410.809 33.9568Z" fill="#D0CDE1"/>
<path d="M521.045 200.235C518.385 204.788 515.366 209.122 512.015 213.194L384.596 197.877L521.045 200.235Z" fill="#D0CDE1"/>
<path d="M528.596 112.16L312.647 84.1675L523.398 96.6198C525.422 101.698 527.157 106.886 528.596 112.16Z" fill="#D0CDE1"/>
<path d="M235.94 40.134C235.94 40.5186 235.929 40.8977 235.895 41.2711C235.727 43.5859 235.043 45.8338 233.895 47.8513C232.747 49.8687 231.163 51.6048 229.259 52.9331C227.354 54.2614 225.178 55.1485 222.887 55.5297C220.596 55.9109 218.249 55.7767 216.017 55.1368C213.784 54.4969 211.723 53.3675 209.983 51.8307C208.243 50.294 206.867 48.3886 205.957 46.2535C205.046 44.1183 204.624 41.8071 204.72 39.4882C204.817 37.1693 205.43 34.9011 206.514 32.8488C206.85 32.2057 207.234 31.5889 207.663 31.0038C209.531 28.4151 212.148 26.4611 215.161 25.4053C218.175 24.3495 221.44 24.2428 224.516 25.0994C227.592 25.9561 230.331 27.735 232.364 30.1961C234.397 32.6573 235.625 35.6823 235.884 38.8632C235.923 39.2812 235.94 39.7048 235.94 40.134Z" fill="#3ACEAA"/>
<path d="M235.939 40.1339C235.939 40.5185 235.928 40.8975 235.895 41.271L212.515 38.4617L235.884 38.863C235.923 39.281 235.939 39.7047 235.939 40.1339Z" fill="#D0CDE1"/>
<path d="M230.363 47.999L208.734 50.6021C208.12 49.9181 207.568 49.1813 207.083 48.4004L230.363 47.999Z" fill="#D0CDE1"/>
<path d="M224.227 30.7195L206.514 32.8487C206.849 32.2056 207.234 31.5888 207.663 31.0038L224.227 30.7195Z" fill="#D0CDE1"/>
<path d="M449.961 321.134C449.78 321.473 449.592 321.803 449.388 322.117C448.153 324.083 446.495 325.748 444.534 326.992C442.574 328.236 440.36 329.028 438.055 329.309C435.75 329.59 433.411 329.354 431.209 328.617C429.007 327.881 426.996 326.663 425.325 325.052C423.653 323.441 422.362 321.477 421.546 319.305C420.729 317.132 420.408 314.804 420.605 312.492C420.803 310.179 421.514 307.94 422.687 305.937C423.859 303.934 425.465 302.217 427.385 300.912C427.983 300.502 428.612 300.137 429.265 299.821C432.129 298.409 435.357 297.909 438.515 298.389C441.672 298.868 444.606 300.303 446.921 302.501C449.236 304.699 450.822 307.553 451.463 310.68C452.104 313.806 451.771 317.054 450.507 319.985C450.346 320.372 450.162 320.754 449.961 321.134Z" fill="#3ACEAA"/>
<path d="M449.96 321.134C449.779 321.474 449.592 321.803 449.387 322.117L430.053 308.682L450.507 319.985C450.345 320.373 450.161 320.755 449.96 321.134Z" fill="#D0CDE1"/>
<path d="M441.344 325.468L421.018 317.634C420.797 316.742 420.654 315.833 420.593 314.916L441.344 325.468Z" fill="#D0CDE1"/>
<path d="M444.03 307.33L427.385 300.913C427.983 300.502 428.612 300.137 429.265 299.821L444.03 307.33Z" fill="#D0CDE1"/>
<path d="M560.566 52.0904C560.834 52.3657 561.091 52.6449 561.328 52.9356C562.824 54.7106 563.906 56.7967 564.493 59.0422C565.081 61.2876 565.159 63.6357 564.724 65.9154C564.289 68.1952 563.35 70.3492 561.976 72.2206C560.603 74.092 558.829 75.6336 556.784 76.7331C554.739 77.8327 552.474 78.4625 550.154 78.5766C547.835 78.6908 545.519 78.2865 543.376 77.3932C541.232 76.4998 539.315 75.1399 537.764 73.4126C536.213 71.6852 535.067 69.6338 534.41 67.4078C534.201 66.7131 534.045 66.0036 533.944 65.2853C533.472 62.1289 533.981 58.9039 535.4 56.0453C536.82 53.1867 539.083 50.832 541.884 49.2988C544.684 47.7657 547.888 47.1278 551.063 47.4712C554.237 47.8147 557.23 49.1229 559.638 51.2195C559.958 51.4915 560.266 51.7831 560.566 52.0904Z" fill="#3ACEAA"/>
<path d="M560.565 52.0904C560.834 52.3658 561.091 52.6449 561.327 52.9356L542.627 67.2387L559.637 51.2195C559.957 51.4915 560.265 51.7831 560.565 52.0904Z" fill="#D0CDE1"/>
<path d="M562.067 61.6128L548.402 78.5686C547.484 78.5073 546.574 78.3653 545.682 78.1443L562.067 61.6128Z" fill="#D0CDE1"/>
<path d="M545.604 53.5232L534.41 67.4078C534.201 66.7131 534.045 66.0035 533.943 65.2853L545.604 53.5232Z" fill="#D0CDE1"/>
<path d="M267.589 339.709C267.589 339.709 301.86 341.136 301.86 349.699C301.86 358.261 263.306 349.699 263.306 349.699L267.589 339.709Z" fill="#A0616A"/>
<path d="M216.184 471L151.928 466.719L149.072 432.469L134.793 462.438L71.9639 453.875C73.3918 399.646 96.2386 346.845 97.6665 339.709C99.0944 332.574 102.507 303.091 102.507 303.091C108.747 289.862 141.447 288.62 167.078 289.819C177.702 290.304 187.126 291.217 192.938 291.874C196.779 292.302 199.049 292.616 199.049 292.616C209.287 303.162 215.885 317.533 219.94 333.587C234.562 391.426 216.184 471 216.184 471Z" fill="#2F2E41"/>
<path d="M144.788 139.919C164.504 139.919 180.486 123.946 180.486 104.242C180.486 84.5383 164.504 68.5652 144.788 68.5652C125.072 68.5652 109.09 84.5383 109.09 104.242C109.09 123.946 125.072 139.919 144.788 139.919Z" fill="#A0616A"/>
<path d="M120.513 112.805C120.513 112.805 110.517 157.044 94.81 169.888C79.1028 182.731 156.211 169.888 156.211 169.888C156.211 169.888 139.076 141.346 151.927 128.502C164.778 115.659 120.513 112.805 120.513 112.805Z" fill="#A0616A"/>
<path d="M193.337 295.47L169.648 298.096L103.378 305.46C103.378 305.46 103.064 304.618 102.507 303.091C97.6945 289.976 74.5193 226.157 71.9633 206.991C69.1074 185.585 99.0938 159.898 99.0938 159.898C99.0938 159.898 127.652 154.19 136.22 154.19C144.787 154.19 179.058 167.033 179.058 167.033L191.838 281.927L192.937 291.874L193.337 295.47Z" fill="#D0CDE1"/>
<path opacity="0.15" d="M219.939 333.587L171.918 305.459C171.918 305.459 171.076 302.719 169.648 298.096C168.934 295.784 168.063 292.987 167.078 289.819C161.537 272.037 152.241 242.697 144.788 221.262C133.364 188.439 189.053 279.772 189.053 279.772L191.838 281.927L192.937 291.874C196.778 292.302 199.049 292.616 199.049 292.616C209.287 303.162 215.884 317.532 219.939 333.587Z" fill="black"/>
<path d="M156.211 169.887C156.211 169.887 141.932 188.439 153.355 221.262C164.779 254.085 180.486 305.459 180.486 305.459L263.306 353.98L274.729 339.709L197.621 279.772C197.621 279.772 194.765 171.314 180.486 167.033C166.207 162.752 156.211 169.887 156.211 169.887Z" fill="#D0CDE1"/>
<path d="M85.5293 294.756C85.5293 294.756 105.52 336.141 114.088 331.86C122.655 327.579 92.6689 284.767 92.6689 284.767L85.5293 294.756Z" fill="#A0616A"/>
<path d="M83.3869 181.304L7.7068 244.095C7.7068 244.095 -20.8517 264.074 31.9816 278.345C84.8148 292.616 89.0986 301.178 89.0986 301.178C89.0986 301.178 94.8103 282.626 101.95 285.48L40.5491 255.512L90.5265 225.543L83.3869 181.304Z" fill="#D0CDE1"/>
<path d="M52.9703 133.525C56.9423 131.559 65.7133 127.591 73.1844 122.811C72.6605 107.261 74.5765 93.1449 80.1852 85.6623C83.3333 78.5184 89.9443 71.3661 95.122 65.7335C107.837 51.9014 135.953 44.1805 140.94 51.0915C178.657 51.8356 182.628 81.3823 182.628 81.3823C182.431 93.7409 169.579 94.1319 158.321 93.6816C159.329 102.119 156.642 110.885 148.862 114.773C133.984 122.208 129.52 131.873 136.959 138.564C144.398 145.255 157.789 163.098 139.935 167.559C122.081 172.02 119.85 180.941 125.057 184.659C130.264 188.376 113.154 177.967 113.154 177.967C113.154 177.967 110.179 195.81 94.5568 191.35C93.1568 190.95 91.7575 189.926 90.3819 188.394C86.1628 193.027 82.3988 195.766 79.5621 195.781C63.3151 195.867 65.2634 177.883 65.2634 177.883C65.2634 177.883 45.9792 183.296 51.9966 181.119C58.014 178.943 58.2717 169.75 42.2826 160.644C26.2935 151.538 44.0015 137.963 52.9703 133.525Z" fill="#2F2E41"/>
<path d="M252.309 180.141L252.05 180.107L252.682 182.507C253.279 185.856 254.146 189.151 255.275 192.36L273.807 262.764C274.398 265.011 275.633 267.037 277.36 268.593C279.087 270.148 281.231 271.166 283.528 271.521L321.32 277.364C323.764 277.742 326.265 277.352 328.477 276.249C330.69 275.145 332.505 273.383 333.672 271.204L369.586 204.162C370.709 202.305 371.734 200.39 372.659 198.427L373.878 196.151L373.688 196.126C377.495 187.125 379.171 177.367 378.585 167.613C377.998 157.859 375.166 148.371 370.308 139.891C365.451 131.41 358.699 124.165 350.579 118.721C342.46 113.276 333.192 109.779 323.498 108.503C313.804 107.226 303.946 108.204 294.692 111.361C285.439 114.517 277.039 119.767 270.149 126.7C263.259 133.634 258.064 142.064 254.97 151.334C251.875 160.603 250.965 170.462 252.309 180.141H252.309Z" fill="#3F3D56"/>
<path d="M323.639 281.964C322.974 281.964 322.309 281.913 321.651 281.811L282.148 275.703C279.639 275.315 277.298 274.204 275.412 272.505C273.526 270.807 272.178 268.595 271.532 266.141L252.162 192.549C250.978 189.18 250.068 185.721 249.441 182.206L248.952 178.987C247.634 168.701 248.726 158.251 252.142 148.46C255.558 138.669 261.205 129.806 268.636 122.569C276.067 115.333 285.08 109.923 294.962 106.764C304.845 103.606 315.326 102.787 325.58 104.371L325.409 105.473C315.267 103.911 304.9 104.74 295.136 107.892C285.371 111.045 276.479 116.435 269.168 123.632C261.858 130.828 256.331 139.633 253.03 149.343C249.729 159.053 248.743 169.4 250.153 179.558L250.53 181.967C251.152 185.452 252.054 188.882 253.228 192.223L272.611 265.857C273.201 268.101 274.434 270.124 276.159 271.677C277.883 273.231 280.024 274.247 282.319 274.601L321.822 280.709C324.262 281.084 326.758 280.694 328.967 279.592C331.175 278.49 332.988 276.731 334.156 274.558L335.139 275.083C334.023 277.162 332.364 278.899 330.34 280.11C328.315 281.322 325.999 281.962 323.639 281.964Z" fill="#D0CDE1"/>
<path d="M333.66 196.144L309.624 261.733L310.979 262.229L335.015 196.64L333.66 196.144Z" fill="#D0CDE1"/>
<path d="M294.415 190.075L292.974 190.138L296.042 259.921L297.483 259.857L294.415 190.075Z" fill="#D0CDE1"/>
<path d="M320.301 315.327L269.683 307.501C269.306 307.441 268.969 307.234 268.745 306.926C268.521 306.618 268.427 306.233 268.486 305.857C268.544 305.48 268.749 305.142 269.056 304.916C269.363 304.69 269.747 304.595 270.124 304.651L320.742 312.477C320.93 312.505 321.111 312.57 321.274 312.668C321.437 312.766 321.579 312.895 321.692 313.048C321.805 313.201 321.886 313.375 321.931 313.56C321.977 313.744 321.985 313.936 321.956 314.124C321.927 314.312 321.861 314.492 321.762 314.654C321.663 314.816 321.533 314.958 321.379 315.069C321.225 315.181 321.051 315.262 320.866 315.306C320.681 315.35 320.489 315.357 320.301 315.327Z" fill="#3F3D56"/>
<path d="M321.598 304.585L270.98 296.758C270.791 296.73 270.611 296.666 270.448 296.568C270.285 296.47 270.143 296.34 270.03 296.187C269.917 296.034 269.836 295.86 269.791 295.676C269.745 295.491 269.737 295.299 269.766 295.112C269.795 294.924 269.861 294.744 269.96 294.581C270.059 294.419 270.189 294.278 270.343 294.166C270.497 294.054 270.671 293.974 270.856 293.93C271.041 293.885 271.233 293.878 271.421 293.908L322.039 301.735C322.227 301.762 322.408 301.827 322.571 301.925C322.734 302.023 322.876 302.153 322.989 302.306C323.101 302.459 323.183 302.632 323.228 302.817C323.273 303.002 323.282 303.193 323.253 303.381C323.224 303.569 323.158 303.749 323.059 303.912C322.96 304.074 322.83 304.215 322.676 304.327C322.522 304.439 322.348 304.519 322.163 304.563C321.978 304.607 321.786 304.615 321.598 304.585Z" fill="#3F3D56"/>
<path d="M322.897 293.842L272.278 286.015C271.902 285.955 271.565 285.748 271.341 285.44C271.116 285.132 271.023 284.748 271.081 284.371C271.14 283.995 271.345 283.657 271.652 283.431C271.959 283.205 272.343 283.109 272.72 283.165L323.338 290.991C323.714 291.052 324.051 291.259 324.276 291.567C324.5 291.875 324.593 292.259 324.535 292.636C324.477 293.012 324.272 293.35 323.965 293.576C323.658 293.802 323.274 293.898 322.897 293.842H322.897Z" fill="#3F3D56"/>
<path d="M293.418 321.579C303.458 323.131 312.463 318.797 313.531 311.898L277.171 306.277C276.104 313.175 283.377 320.026 293.418 321.579Z" fill="#3F3D56"/>
<path d="M311.613 182.325C309.453 181.992 307.666 180.286 306.686 179.142C306.365 178.767 306.053 178.378 305.739 177.989C304.598 176.569 303.521 175.229 302.021 174.53C298.71 172.986 294.808 175.143 291.43 177.456L290.614 176.267C294.328 173.722 298.659 171.372 302.631 173.223C304.435 174.064 305.67 175.6 306.864 177.085C307.168 177.463 307.471 177.841 307.782 178.204C308.801 179.393 310.832 181.319 313.009 180.875C313.927 180.608 314.78 180.157 315.516 179.549C316.078 179.13 316.671 178.756 317.291 178.43C318.548 177.827 319.955 177.61 321.335 177.805C322.715 178 324.007 178.598 325.047 179.525C325.418 179.877 325.769 180.248 326.1 180.638C326.749 181.377 327.361 182.075 328.159 182.329C329.338 182.706 330.585 182.032 331.905 181.32C333.267 180.586 334.675 179.826 336.272 180.013C336.324 180.02 336.376 180.027 336.428 180.035C339.27 180.474 340.58 183.615 341.322 185.959L339.945 186.393C338.938 183.207 337.711 181.622 336.103 181.446C334.959 181.311 333.809 181.932 332.591 182.589C331.064 183.413 329.483 184.265 327.721 183.703C326.542 183.328 325.765 182.444 325.015 181.589C324.719 181.239 324.405 180.905 324.073 180.589C323.244 179.864 322.222 179.396 321.132 179.242C320.041 179.088 318.929 179.254 317.931 179.722C317.379 180.015 316.85 180.351 316.349 180.726C315.454 181.456 314.414 181.988 313.299 182.288C312.744 182.401 312.172 182.414 311.613 182.325Z" fill="#D0CDE1"/>
</g>
<defs>
<clipPath id="clip0_225_1138">
<rect width="565" height="471" fill="white"/>
</clipPath>
</defs>
</svg>
