<svg width="30" height="30" viewBox="0 0 30 30" fill="none" xmlns="http://www.w3.org/2000/svg">
<path d="M28.6883 1.10093L28.6873 1.10248L11.4161 26.3711C11.4159 26.3714 11.4157 26.3717 11.4155 26.372C11.2318 26.6415 10.9945 26.8838 10.7027 27.0612C10.4073 27.2407 10.0664 27.3465 9.7039 27.3465C9.34143 27.3465 9.00049 27.2407 8.70509 27.0612C8.41323 26.8838 8.17587 26.6414 7.99223 26.3718L7.99251 26.3722L8.81835 25.8083L7.99172 26.3711L28.6883 1.10093ZM28.6883 1.10093C28.7106 1.06818 28.7308 1.04457 28.7473 1.02791L28.6883 1.10093ZM1.25338 16.5159C1.27273 16.4963 1.2869 16.4863 1.29328 16.4824C1.2954 16.4811 1.29646 16.4806 1.29646 16.4806C1.29646 16.4806 1.29532 16.4812 1.29301 16.482C1.29194 16.4824 1.29062 16.4828 1.28904 16.4833C1.28055 16.4857 1.26817 16.488 1.25338 16.488C1.23859 16.488 1.22621 16.4857 1.21772 16.4833C1.21614 16.4828 1.21481 16.4824 1.21374 16.482C1.21144 16.4812 1.2103 16.4806 1.2103 16.4806C1.21029 16.4806 1.21136 16.4811 1.21347 16.4824C1.21985 16.4863 1.23403 16.4963 1.25338 16.5159ZM7.87486 27.8274L7.04975 28.3924L7.8753 27.8281L7.87501 27.8277C7.87496 27.8276 7.87491 27.8275 7.87486 27.8274ZM11.5364 27.8278L11.5363 27.8281L12.3618 28.3924L11.5367 27.8274C11.5366 27.8276 11.5365 27.8277 11.5364 27.8278Z" stroke="#14DFAE" stroke-width="2"/>
</svg>
