<svg width="159" height="115" viewBox="0 0 159 115" fill="none" xmlns="http://www.w3.org/2000/svg">
<mask id="path-1-inside-1_128_241" fill="white">
<path d="M146.931 2.06132L55.9556 98.8481C55.3439 99.5014 54.617 100.02 53.8166 100.374C53.0162 100.727 52.158 100.909 51.2913 100.909C50.4246 100.909 49.5664 100.727 48.766 100.374C47.9655 100.02 47.2387 99.5014 46.627 98.8481L11.4457 61.3816C10.834 60.7282 10.1071 60.2098 9.30671 59.8561C8.50629 59.5023 7.6481 59.3202 6.78138 59.3202C5.91466 59.3202 5.05647 59.5023 4.25605 59.8561C3.45564 60.2098 2.72875 60.7282 2.11709 61.3816C1.50302 62.0323 1.01577 62.8057 0.683301 63.6573C0.350832 64.5089 0.179687 65.422 0.179688 66.3442C0.179687 67.2663 0.350832 68.1794 0.683301 69.031C1.01577 69.8826 1.50302 70.656 2.11709 71.3068L37.3116 108.745C41.0242 112.688 46.0556 114.902 51.3012 114.902C56.5468 114.902 61.5781 112.688 65.2908 108.745L156.259 11.9795C156.872 11.3289 157.359 10.556 157.691 9.70499C158.023 8.85402 158.193 7.94175 158.193 7.02043C158.193 6.09911 158.023 5.18684 157.691 4.33588C157.359 3.48491 156.872 2.71197 156.259 2.06132C155.648 1.40797 154.921 0.88956 154.12 0.535826C153.32 0.182092 152.462 0 151.595 0C150.728 0 149.87 0.182092 149.07 0.535826C148.269 0.88956 147.542 1.40797 146.931 2.06132Z"/>
</mask>
<path d="M146.931 2.06132L162.475 16.6724L162.49 16.6568L162.504 16.6412L146.931 2.06132ZM55.9556 98.8481L40.4112 84.2371L40.3965 84.2526L40.3819 84.2682L55.9556 98.8481ZM46.627 98.8481L62.2007 84.2682L62.1897 84.2565L62.1788 84.2449L46.627 98.8481ZM11.4457 61.3816L-4.128 75.9614L-4.11705 75.9731L-4.10609 75.9848L11.4457 61.3816ZM0.683301 63.6573L-19.1893 55.8991L0.683301 63.6573ZM0.179688 66.3442H21.513H0.179688ZM2.11709 71.3068L17.6607 56.6949L17.647 56.6803L17.6332 56.6658L2.11709 71.3068ZM37.3116 108.745L21.768 123.357L21.7741 123.364L21.7802 123.37L37.3116 108.745ZM65.2908 108.745L80.8221 123.37L80.8281 123.364L80.8341 123.357L65.2908 108.745ZM156.259 11.9795L140.733 -2.65052L140.724 -2.64157L140.716 -2.63261L156.259 11.9795ZM156.259 2.06132L140.686 16.6412L140.709 16.6663L140.733 16.6914L156.259 2.06132ZM151.595 0V-21.3333V0ZM131.386 -12.5497L40.4112 84.2371L71.5 113.459L162.475 16.6724L131.386 -12.5497ZM40.3819 84.2682C41.686 82.8753 43.3082 81.6939 45.1932 80.8608L62.44 119.886C65.9259 118.346 69.0019 116.128 71.5293 113.428L40.3819 84.2682ZM45.1932 80.8608C47.0822 80.026 49.1588 79.5761 51.2913 79.5761V122.243C55.1573 122.243 58.9502 121.429 62.44 119.886L45.1932 80.8608ZM51.2913 79.5761C53.4238 79.5761 55.5004 80.026 57.3894 80.8608L40.1426 119.886C43.6324 121.429 47.4253 122.243 51.2913 122.243V79.5761ZM57.3894 80.8608C59.2744 81.6939 60.8966 82.8753 62.2007 84.2682L31.0533 113.428C33.5807 116.128 36.6567 118.346 40.1426 119.886L57.3894 80.8608ZM62.1788 84.2449L26.9974 46.7783L-4.10609 75.9848L31.0752 113.451L62.1788 84.2449ZM27.0193 46.8017C24.492 44.1021 21.4159 41.8838 17.9301 40.3433L0.683316 79.3688C-1.20167 78.5358 -2.82394 77.3543 -4.128 75.9614L27.0193 46.8017ZM17.9301 40.3433C14.4403 38.801 10.6474 37.9869 6.78138 37.9869V80.6536C4.64883 80.6536 2.57227 80.2036 0.683316 79.3688L17.9301 40.3433ZM6.78138 37.9869C2.91539 37.9869 -0.877552 38.801 -4.36734 40.3433L12.8794 79.3688C10.9905 80.2036 8.91393 80.6536 6.78138 80.6536V37.9869ZM-4.36734 40.3433C-7.85316 41.8838 -10.9292 44.1021 -13.4566 46.8017L17.6908 75.9614C16.3867 77.3544 14.7644 78.5358 12.8794 79.3688L-4.36734 40.3433ZM-13.3991 46.7405C-15.9353 49.4284 -17.8824 52.5515 -19.1893 55.8991L20.5559 71.4156C19.914 73.0599 18.9413 74.6363 17.6332 76.0226L-13.3991 46.7405ZM-19.1893 55.8991C-20.4957 59.2453 -21.1536 62.7912 -21.1536 66.3442H21.513C21.513 68.0529 21.1973 69.7726 20.5559 71.4156L-19.1893 55.8991ZM-21.1536 66.3442C-21.1536 69.8971 -20.4957 73.4431 -19.1893 76.7893L20.5559 61.2728C21.1973 62.9158 21.513 64.6355 21.513 66.3442H-21.1536ZM-19.1893 76.7893C-17.8824 80.1368 -15.9353 83.26 -13.3991 85.9478L17.6332 56.6658C18.9413 58.052 19.914 59.6284 20.5559 61.2728L-19.1893 76.7893ZM-13.4265 85.9187L21.768 123.357L52.8552 94.1334L17.6607 56.6949L-13.4265 85.9187ZM21.7802 123.37C29.3767 131.437 39.9634 136.236 51.3012 136.236V93.5692C52.1477 93.5692 52.6718 93.9387 52.843 94.1204L21.7802 123.37ZM51.3012 136.236C62.639 136.236 73.2257 131.437 80.8221 123.37L49.7594 94.1204C49.9305 93.9387 50.4546 93.5692 51.3012 93.5692V136.236ZM80.8341 123.357L171.803 26.5917L140.716 -2.63261L49.7474 94.1331L80.8341 123.357ZM171.786 26.6096C174.318 23.9226 176.261 20.8015 177.566 17.4565L137.815 1.95346C138.456 0.310461 139.427 -1.2648 140.733 -2.65052L171.786 26.6096ZM177.566 17.4565C178.87 14.1129 179.527 10.5702 179.527 7.02043H136.86C136.86 5.3133 137.175 3.5951 137.815 1.95346L177.566 17.4565ZM179.527 7.02043C179.527 3.47066 178.87 -0.0720807 177.566 -3.41565L137.815 12.0874C137.175 10.4458 136.86 8.72756 136.86 7.02043H179.527ZM177.566 -3.41565C176.261 -6.76061 174.318 -9.88175 171.786 -12.5688L140.733 16.6914C139.427 15.3057 138.456 13.7304 137.815 12.0874L177.566 -3.41565ZM171.833 -12.5185C169.306 -15.2181 166.23 -17.4364 162.744 -18.9769L145.497 20.0486C143.612 19.2155 141.99 18.0341 140.686 16.6412L171.833 -12.5185ZM162.744 -18.9769C159.254 -20.5192 155.461 -21.3333 151.595 -21.3333V21.3333C149.462 21.3333 147.386 20.8834 145.497 20.0486L162.744 -18.9769ZM151.595 -21.3333C147.729 -21.3333 143.936 -20.5192 140.446 -18.9769L157.693 20.0486C155.804 20.8834 153.728 21.3333 151.595 21.3333V-21.3333ZM140.446 -18.9769C136.96 -17.4364 133.884 -15.2181 131.357 -12.5185L162.504 16.6412C161.2 18.0341 159.578 19.2155 157.693 20.0486L140.446 -18.9769Z" fill="#12FF0D" fill-opacity="0.5" mask="url(#path-1-inside-1_128_241)"/>
</svg>
