<svg width="90" height="95" viewBox="0 0 107 136" fill="none" xmlns="http://www.w3.org/2000/svg">
<path d="M71.1052 28.3661C71.2265 28.2496 71.3534 28.145 71.4731 28.0254C79.1463 20.3522 80.7016 9.46634 74.9463 3.71136C69.5078 -1.72733 59.4905 -0.629724 51.9292 5.98282C45.4459 -0.189464 36.7529 -1.91017 31.1261 2.35071C24.6376 7.264 24.6881 18.2602 31.2395 26.9114C31.688 27.5038 32.159 28.0639 32.6423 28.6028C23.9242 31.794 16.3968 37.5863 11.0788 45.196C5.76078 52.8057 2.90889 61.8655 2.90894 71.1493V114.269C2.90895 115.534 3.15796 116.786 3.64185 117.954C4.12574 119.122 4.83503 120.184 5.72913 121.078C6.62323 121.972 7.68465 122.681 8.85284 123.165C10.021 123.649 11.2731 123.898 12.5375 123.898H92.233C94.701 123.898 97.0679 122.917 98.813 121.172C100.558 119.427 101.538 117.06 101.539 114.592V71.1493C101.537 61.7406 98.606 52.5658 93.1523 44.899C87.6986 37.2321 79.9929 31.4537 71.1052 28.3661Z" fill="#2F2E41"/>
<path d="M80.2238 108.602C94.9926 93.8328 94.9926 69.8878 80.2238 55.1191C65.455 40.3503 41.5101 40.3503 26.7413 55.1191C11.9725 69.8879 11.9725 93.8328 26.7413 108.602C41.51 123.37 65.455 123.37 80.2238 108.602Z" fill="#FFB6B6"/>
<path d="M13.7449 58.0736C22.3868 64.0299 32.6441 67.1999 43.1397 67.1579C39.3958 69.7539 35.1336 71.5074 30.6468 72.2976C44.6015 75.291 59.0239 75.372 73.0114 72.5356C76.1206 72.0371 79.1207 71.0067 81.8801 69.4896C83.2551 68.7217 84.4531 67.673 85.3962 66.4117C86.3394 65.1503 87.0065 63.7046 87.3542 62.1686C88.2837 56.8587 84.1462 52.0345 79.8464 48.7834C73.2631 43.8815 65.6726 40.5043 57.6239 38.8959C49.5753 37.2876 41.2698 37.4884 33.3082 39.4838C28.1096 40.8276 22.9018 43.098 19.5251 47.2728C16.1485 51.4477 15.1483 57.884 18.3654 62.1831L13.7449 58.0736Z" fill="#2F2E41"/>
</svg>
