<svg width="772" height="535" viewBox="0 0 772 535" fill="none" xmlns="http://www.w3.org/2000/svg">
<g clip-path="url(#clip0_163_1535)">
<path d="M551.978 365.823C551.978 414.239 523.214 431.145 487.731 431.145C452.248 431.145 423.483 414.239 423.483 365.823C423.483 317.406 487.731 255.812 487.731 255.812C487.731 255.812 551.978 317.406 551.978 365.823Z" fill="#3ACEAA"/>
<path d="M486.048 383.218L513.432 333.088L486.151 376.861L486.447 358.642L505.32 322.374L486.526 353.82L487.057 321.051L507.267 292.178L487.141 315.899L487.473 255.812L485.474 331.949L465.009 300.603L485.227 338.374L483.312 374.97L483.256 373.999L459.568 340.881L483.183 377.431L482.944 382.007L482.901 382.077L482.921 382.452L478.063 431.289H484.553L485.332 427.344L508.889 390.883L485.391 423.738L486.048 383.218Z" fill="#3F3D56"/>
<path d="M772 210.147C772 302.635 717.053 334.928 649.272 334.928C581.49 334.928 526.543 302.635 526.543 210.147C526.543 117.659 649.272 0 649.272 0C649.272 0 772 117.659 772 210.147Z" fill="#F2F2F2"/>
<path d="M644.8 320.78L646.057 243.376L698.367 147.617L646.254 231.234L646.819 196.43L682.871 127.149L646.969 187.219V187.22L647.985 124.623L686.59 69.4668L648.145 114.78L648.78 0L644.789 151.948L645.117 145.68L605.867 85.5626L644.488 157.712L640.831 227.622L640.722 225.766L595.474 162.502L640.585 232.322L640.128 241.065L640.045 241.196L640.083 241.914L630.805 419.28H643.201L644.689 327.667L689.689 258.019L644.8 320.78Z" fill="#3F3D56"/>
<path d="M766.962 403.794C766.962 431.399 588.002 535 378.798 535C169.594 535 0 481.382 0 453.777C0 426.172 165.431 458.984 374.635 458.984C583.84 458.984 766.962 376.189 766.962 403.794Z" fill="#3F3D56"/>
<path opacity="0.1" d="M766.962 403.794C766.962 431.399 588.002 535 378.798 535C169.594 535 0 481.382 0 453.777C0 426.172 165.431 458.984 374.635 458.984C583.84 458.984 766.962 376.189 766.962 403.794Z" fill="black"/>
<path d="M766.962 403.794C766.962 431.399 588.002 503.76 378.798 503.76C169.594 503.76 0 481.382 0 453.777C0 426.172 165.431 427.744 374.635 427.744C583.84 427.744 766.962 376.189 766.962 403.794Z" fill="#3F3D56"/>
<path opacity="0.1" d="M383.036 471.471C471.875 471.471 543.894 465.897 543.894 459.021C543.894 452.146 471.875 446.572 383.036 446.572C294.197 446.572 222.179 452.146 222.179 459.021C222.179 465.897 294.197 471.471 383.036 471.471Z" fill="black"/>
<path d="M255.605 209.54C255.605 209.54 302.697 210.413 293.977 218.703C285.256 226.993 252.553 218.703 252.553 218.703L255.605 209.54Z" fill="#A0616A"/>
<path d="M157.487 108.847C157.487 108.847 176.501 105.45 183.112 120.808C189.723 136.167 203.3 179.97 203.3 179.97C203.3 179.97 239.635 204.036 246.243 203.246C252.852 202.455 264.15 204.068 262.078 211.283C260.005 218.497 260.925 226.678 256.154 227.681C251.383 228.684 243.795 219.113 237.988 223.723C232.181 228.333 180.426 211.495 177.104 208.006C173.781 204.517 146.169 128.971 146.169 128.971C146.169 128.971 147.273 108.601 157.487 108.847Z" fill="#3ACEAA"/>
<path d="M198.265 433.153L200.446 451.479L182.132 456.279L171.667 451.479V435.335L198.265 433.153Z" fill="#A0616A"/>
<path d="M148.993 444.934L151.173 463.259L132.86 468.059L122.395 463.259V447.116L148.993 444.934Z" fill="#A0616A"/>
<path d="M200.01 232.883L208.295 262.989L220.504 324.074C220.504 324.074 223.993 338.909 217.016 356.798C210.039 374.687 197.394 433.153 200.01 436.644C202.627 440.135 170.36 442.752 170.796 439.262C171.232 435.771 175.592 387.776 175.592 387.776C175.592 387.776 181.697 345.453 184.749 340.218C187.801 334.982 170.796 321.892 170.796 321.892C170.796 321.892 166.435 372.069 159.895 376.432C153.354 380.795 154.226 448.425 151.174 449.297C148.121 450.17 125.883 453.66 123.267 449.297C120.651 444.934 123.267 372.069 123.267 372.069C123.267 372.069 138.093 316.656 135.04 308.803C131.988 300.949 133.732 267.353 133.732 267.353C133.732 267.353 122.395 241.61 128.5 228.084L200.01 232.883Z" fill="#2F2E41"/>
<path d="M198.702 65.3371C198.702 65.3371 180.388 88.0257 181.26 98.061C182.132 108.096 152.481 79.7356 152.481 79.7356C152.481 79.7356 173.847 50.9386 173.847 44.8302C173.847 38.7217 198.702 65.3371 198.702 65.3371Z" fill="#A0616A"/>
<path d="M198.484 73.8454C214.378 73.8454 227.262 60.9525 227.262 45.0484C227.262 29.1442 214.378 16.2513 198.484 16.2513C182.59 16.2513 169.705 29.1442 169.705 45.0484C169.705 60.9525 182.59 73.8454 198.484 73.8454Z" fill="#A0616A"/>
<path d="M125.957 216.561C124.653 221.421 123.035 226.932 123.266 231.574C123.415 234.581 131.39 236.553 142.417 237.844C152.642 239.044 165.492 239.655 177.174 239.969C189.44 240.301 200.406 240.301 205.678 240.301C221.375 240.301 208.73 230.265 202.626 225.466C196.521 220.666 197.829 152.601 198.265 143.874C198.701 135.148 194.341 109.842 194.341 105.042C194.341 100.243 184.081 87.7159 184.081 87.7159C184.081 87.7159 181.696 94.5704 172.103 85.4078C162.51 76.2451 149.865 73.6272 149.865 73.6272C140.272 77.1177 124.138 115.514 123.266 122.059C122.913 124.716 123.205 138.324 123.798 153.862C124.657 176.572 126.157 203.419 127.191 206.268C128.006 208.515 127.103 212.285 125.957 216.561Z" fill="#3ACEAA"/>
<path d="M172.539 242.046L175.591 252.954L163.818 265.171L159.894 248.154L172.539 242.046Z" fill="#A0616A"/>
<path d="M176.463 446.679C176.463 446.679 185.62 457.151 192.597 450.17C199.573 443.189 199.137 438.826 200.446 438.826C201.754 438.826 221.375 456.278 221.375 456.278C221.375 456.278 254.951 464.132 236.637 469.804C218.323 475.476 166.434 471.55 166.434 469.804C166.434 468.059 165.126 444.934 169.923 444.934L176.463 446.679Z" fill="#2F2E41"/>
<path d="M127.191 458.46C127.191 458.46 136.348 468.932 143.324 461.95C150.301 454.969 149.865 450.606 151.173 450.606C152.481 450.606 172.103 468.059 172.103 468.059C172.103 468.059 205.678 475.913 187.364 481.585C169.051 487.257 117.162 483.33 117.162 481.585C117.162 479.84 115.854 456.715 120.65 456.715L127.191 458.46Z" fill="#2F2E41"/>
<path d="M166.174 68.0356C165.244 68.6366 164.034 69.2456 163.103 68.6464C159.642 60.0096 157.055 51.0473 155.381 41.8941C154.793 38.679 154.385 35.1048 156.17 32.3676C156.874 31.288 157.888 30.4052 158.403 29.2239C159.184 27.4349 158.67 25.3641 158.93 23.4293C159.473 19.3757 163.303 16.5485 167.153 15.1773C171.004 13.8062 175.186 13.3808 178.857 11.5816C182.342 9.87318 185.133 7.03984 188.365 4.88975C191.597 2.73967 195.737 1.26958 199.336 2.72245C202.52 4.00774 204.503 7.25516 207.512 8.90864C209.554 10.0307 211.924 10.3429 214.204 10.8246C220.54 12.1697 226.488 14.935 231.602 18.9126C232.846 19.8007 233.918 20.9073 234.768 22.1786C238.63 28.5409 231.715 37.1907 234.766 43.9799L228.171 38.7726C226.409 37.2311 224.423 35.968 222.281 35.0269C220.096 34.1989 217.509 34.0989 215.525 35.3323C212.74 37.0631 211.985 40.6793 211.012 43.8119C210.039 46.9446 207.888 50.4184 204.61 50.3381C200.153 50.229 198.595 44.0049 194.595 42.0344C191.987 40.7498 188.705 41.5958 186.482 43.4693C184.26 45.3427 182.926 48.0609 181.948 50.7992C181.336 52.5105 180.763 54.4395 179.677 55.9228C178.479 57.5588 176.948 57.6904 175.669 58.9121C172.339 62.0923 170.292 65.373 166.174 68.0356Z" fill="#2F2E41"/>
<path opacity="0.1" d="M125.957 216.561C131.377 224.428 137.486 232.543 142.418 237.844C152.643 239.044 165.493 239.655 177.175 239.969C175.088 237.138 172.478 234.733 169.487 232.883C163.819 229.393 150.301 187.943 150.301 187.943C150.301 187.943 166.871 145.183 171.231 129.04C175.592 112.896 158.586 103.733 158.586 103.733C150.737 97.1884 137.22 112.459 137.22 112.459C137.22 112.459 130.322 133.281 123.799 153.862C124.658 176.572 126.158 203.419 127.191 206.268C128.007 208.515 127.104 212.285 125.957 216.561Z" fill="black"/>
<path d="M157.278 100.243C157.278 100.243 174.283 109.405 169.923 125.549C165.562 141.693 148.993 184.452 148.993 184.452C148.993 184.452 162.51 225.902 168.179 229.393C173.847 232.883 181.696 241.173 175.591 245.537C169.487 249.9 165.126 256.881 160.766 254.699C156.406 252.518 156.406 240.301 148.993 240.301C141.58 240.301 111.493 194.924 111.057 190.124C110.621 185.325 135.912 108.969 135.912 108.969C135.912 108.969 149.429 93.6978 157.278 100.243Z" fill="#3ACEAA"/>
<path d="M510.888 219.501L505.982 214.592C503.121 211.729 499.24 210.121 495.194 210.121C491.148 210.121 487.267 211.729 484.406 214.592L389.257 309.802L294.109 214.592C291.248 211.729 287.367 210.121 283.321 210.121C279.274 210.121 275.393 211.729 272.532 214.592L267.627 219.501C266.21 220.919 265.086 222.602 264.32 224.454C263.553 226.306 263.158 228.291 263.158 230.296C263.158 232.301 263.553 234.286 264.32 236.138C265.086 237.991 266.21 239.674 267.627 241.091L362.775 336.3L267.627 431.51C266.21 432.927 265.086 434.61 264.32 436.462C263.553 438.315 263.158 440.3 263.158 442.305C263.158 444.31 263.553 446.295 264.32 448.147C265.086 449.999 266.21 451.682 267.627 453.1L272.532 458.008C275.393 460.871 279.274 462.48 283.321 462.48C287.367 462.48 291.248 460.871 294.109 458.008L389.257 362.799L484.406 458.008C487.267 460.871 491.148 462.48 495.194 462.48C499.24 462.48 503.121 460.871 505.982 458.008L510.888 453.1C513.749 450.237 515.356 446.354 515.356 442.305C515.356 438.256 513.749 434.373 510.888 431.51L415.739 336.3L510.888 241.091C513.749 238.228 515.356 234.345 515.356 230.296C515.356 226.247 513.749 222.364 510.888 219.501Z" fill="#FF6584"/>
<path opacity="0.1" d="M264.231 436.686L356.554 344.304L355.666 343.415L267.627 431.51C266.152 432.984 264.997 434.746 264.231 436.686Z" fill="black"/>
<path opacity="0.1" d="M266.311 222.596C269.173 219.733 273.053 218.125 277.1 218.125C281.146 218.125 285.027 219.733 287.888 222.596L383.036 317.805L478.185 222.596C481.046 219.733 484.927 218.125 488.973 218.125C493.019 218.125 496.9 219.733 499.761 222.596L504.667 227.505C506.771 229.611 508.214 232.287 508.817 235.204C509.421 238.12 509.158 241.149 508.062 243.919L510.888 241.091C512.305 239.674 513.428 237.991 514.195 236.138C514.962 234.286 515.356 232.301 515.356 230.296C515.356 228.291 514.962 226.306 514.195 224.454C513.428 222.602 512.305 220.919 510.888 219.501L505.982 214.592C503.121 211.729 499.24 210.121 495.194 210.121C491.148 210.121 487.267 211.729 484.406 214.592L389.257 309.802L294.109 214.592C291.248 211.729 287.367 210.121 283.321 210.121C279.274 210.121 275.394 211.729 272.532 214.592L267.627 219.501C266.152 220.975 264.997 222.737 264.231 224.677L266.311 222.596Z" fill="black"/>
<path opacity="0.1" d="M416.628 337.19L409.519 344.304L504.667 439.513C506.771 441.619 508.214 444.296 508.818 447.212C509.421 450.129 509.158 453.158 508.062 455.927L510.888 453.1C512.305 451.682 513.429 449.999 514.195 448.147C514.962 446.295 515.357 444.31 515.357 442.305C515.357 440.3 514.962 438.315 514.195 436.462C513.429 434.61 512.305 432.927 510.888 431.51L416.628 337.19Z" fill="black"/>
<path d="M110.791 400.671C110.791 440.883 86.9011 454.923 57.4312 454.923C27.9614 454.923 4.07129 440.883 4.07129 400.671C4.07129 360.459 57.4312 309.304 57.4312 309.304C57.4312 309.304 110.791 360.459 110.791 400.671Z" fill="#3ACEAA"/>
<path d="M56.0344 415.119L78.7781 373.484L56.1202 409.84L56.3661 394.707L72.0406 364.585L56.4311 390.703L56.8729 363.487L73.6574 339.506L56.9422 359.208L57.2181 309.303L55.5577 372.538L38.5608 346.504L55.3518 377.873L53.7621 408.269L53.715 407.462L34.042 379.956L53.6549 410.312L53.4562 414.114L53.4205 414.171L53.4369 414.483L49.4027 455.043H54.7928L55.4397 451.767L75.0048 421.485L55.4883 448.772L56.0344 415.119Z" fill="#3F3D56"/>
</g>
<defs>
<clipPath id="clip0_163_1535">
<rect width="772" height="535" fill="white"/>
</clipPath>
</defs>
</svg>
