<svg width="20" height="20" viewBox="0 0 14 14" fill="none" xmlns="http://www.w3.org/2000/svg">
<path d="M13 0.99994C12.8125 0.812469 12.5582 0.707153 12.293 0.707153C12.0278 0.707153 11.7735 0.812469 11.586 0.99994L7 5.58594L2.414 0.99994C2.22647 0.812469 1.97216 0.707153 1.707 0.707153C1.44184 0.707153 1.18753 0.812469 1 0.99994C0.81253 1.18747 0.707214 1.44178 0.707214 1.70694C0.707214 1.9721 0.81253 2.22641 1 2.41394L5.586 6.99994L1 11.5859C0.81253 11.7735 0.707214 12.0278 0.707214 12.2929C0.707214 12.5581 0.81253 12.8124 1 12.9999C1.18753 13.1874 1.44184 13.2927 1.707 13.2927C1.97216 13.2927 2.22647 13.1874 2.414 12.9999L7 8.41394L11.586 12.9999C11.7735 13.1874 12.0278 13.2927 12.293 13.2927C12.5582 13.2927 12.8125 13.1874 13 12.9999C13.1875 12.8124 13.2928 12.5581 13.2928 12.2929C13.2928 12.0278 13.1875 11.7735 13 11.5859L8.414 6.99994L13 2.41394C13.1875 2.22641 13.2928 1.9721 13.2928 1.70694C13.2928 1.44178 13.1875 1.18747 13 0.99994Z" fill="black"/>
</svg>
