<svg width="681" height="316" viewBox="0 0 681 316" fill="none" xmlns="http://www.w3.org/2000/svg">
<g clip-path="url(#clip0_163_841)">
<path d="M233.259 252.586C236.389 244.924 236.842 237.967 234.272 237.047C231.702 236.128 227.081 241.594 223.952 249.257C220.822 256.919 220.369 263.876 222.939 264.796C225.51 265.715 230.13 260.249 233.259 252.586Z" fill="#2F2E41"/>
<path d="M230.598 278.112C233.407 261.918 221.655 246.659 204.352 244.031C187.048 241.403 170.744 252.401 167.936 268.595C165.128 284.79 176.879 300.049 194.183 302.677C211.487 305.305 227.79 294.307 230.598 278.112Z" fill="#2F2E41"/>
<path d="M194.446 296.668H184.803V312.837H194.446V296.668Z" fill="#2F2E41"/>
<path d="M213.732 296.668H204.089V312.837H213.732V296.668Z" fill="#2F2E41"/>
<path d="M192.839 315.845C197.277 315.845 200.874 314.582 200.874 313.025C200.874 311.467 197.277 310.205 192.839 310.205C188.401 310.205 184.803 311.467 184.803 313.025C184.803 314.582 188.401 315.845 192.839 315.845Z" fill="#2F2E41"/>
<path d="M212.124 315.469C216.562 315.469 220.16 314.206 220.16 312.649C220.16 311.091 216.562 309.829 212.124 309.829C207.686 309.829 204.089 311.091 204.089 312.649C204.089 314.206 207.686 315.469 212.124 315.469Z" fill="#2F2E41"/>
<path d="M200.389 275.982C206.378 275.817 211.09 271.14 210.914 265.535C210.738 259.93 205.741 255.52 199.752 255.685C193.763 255.85 189.051 260.527 189.227 266.132C189.403 271.736 194.401 276.146 200.389 275.982Z" fill="white"/>
<path d="M200.071 269.217C202.068 269.217 203.687 267.702 203.687 265.833C203.687 263.964 202.068 262.449 200.071 262.449C198.074 262.449 196.455 263.964 196.455 265.833C196.455 267.702 198.074 269.217 200.071 269.217Z" fill="#3F3D56"/>
<path d="M168.477 245.728C165.914 234.985 174.107 224.131 186.776 221.483C199.445 218.836 211.793 225.398 214.356 236.14C216.919 246.882 208.523 250.844 195.854 253.492C183.185 256.139 171.04 256.47 168.477 245.728Z" fill="#E6E6E6"/>
<path d="M177.855 265.935C179.035 263.608 173.571 258.872 165.651 255.357C157.731 251.842 150.356 250.878 149.176 253.205C147.997 255.532 153.461 260.268 161.381 263.783C169.3 267.298 176.676 268.262 177.855 265.935Z" fill="#2F2E41"/>
<path d="M183.676 284.071C183.676 286.978 191.675 292.719 200.551 292.719C209.427 292.719 217.749 284.534 217.749 281.627C217.749 278.719 209.427 282.191 200.551 282.191C191.675 282.191 183.676 281.163 183.676 284.071Z" fill="white"/>
<path d="M422.5 192.626L388.023 224.473L310.105 296.429L308.528 297.884L299.743 305.996L281.325 288.966L279.704 287.469L246.03 256.34H246.022L235.232 246.359L228.857 240.461L209.872 222.914L207.307 220.541L177.045 192.564C171.033 186.939 165.938 180.518 161.922 173.506C161.553 172.878 161.207 172.244 160.868 171.609C153.691 158.218 150.621 143.228 151.997 128.302C153.373 113.377 159.142 99.1006 168.664 87.0583C178.186 75.0159 191.087 65.6789 205.936 60.0839C220.784 54.4889 237 52.8548 252.781 55.3631H252.788C253.068 55.4045 253.341 55.4458 253.621 55.501C256.581 55.9899 259.512 56.6278 262.399 57.4117C269.954 59.4555 277.174 62.4562 283.86 66.3303C284.561 66.7373 285.254 67.1511 285.939 67.5719C290.84 70.6029 295.401 74.0902 299.551 77.9804L299.81 77.739L300.068 77.9804C302.582 75.6278 305.248 73.4211 308.049 71.3725C308.661 70.9241 309.28 70.4827 309.899 70.055C319.378 63.5143 330.182 58.8524 341.652 56.3547C353.122 53.8569 365.016 53.5759 376.606 55.5286C379.57 56.0173 382.503 56.6575 385.392 57.4462C386.357 57.7014 387.315 57.9773 388.266 58.2739C389.032 58.5084 389.799 58.7498 390.558 59.0119C396.878 61.1264 402.911 63.9276 408.534 67.3581C409.764 68.1099 410.978 68.8962 412.174 69.7171C422.302 76.607 430.713 85.4696 436.829 95.6943C442.945 105.919 446.62 117.263 447.602 128.945C448.583 140.626 446.847 152.369 442.514 163.362C438.18 174.356 431.352 184.34 422.5 192.626Z" fill="#3ACEAA"/>
<path opacity="0.15" d="M388.023 224.473L310.105 296.429L308.528 297.884L299.743 305.996L281.325 288.966L279.704 287.469L246.03 256.34C251.439 255.16 259.753 256.781 262.797 258.188C270.012 261.52 275.945 266.99 283.271 270.107C289.813 272.871 297.122 273.627 304.151 272.266C317.284 269.687 327.448 260.182 336.41 250.829C345.372 241.468 354.533 231.425 367.128 227.087C373.769 224.797 380.903 224.279 388.023 224.473Z" fill="black"/>
<path d="M444.669 79.3118C433.948 69.2489 420.601 61.9846 405.954 58.2394C404.981 57.9842 404.016 57.7566 403.036 57.5428C398.821 56.6004 394.537 55.9571 390.219 55.6184C389.467 55.5494 388.715 55.5011 387.956 55.4666C384.169 55.2424 380.37 55.2563 376.584 55.508C355.849 56.8065 336.29 64.9881 321.426 78.5806L321.161 78.3323L320.895 78.5806C311.184 69.7121 299.4 63.0809 286.477 59.212C285.747 58.9913 285.01 58.7775 284.273 58.5774C274.32 55.8757 263.937 54.8367 253.599 55.508C253.312 55.5218 253.024 55.5425 252.744 55.5701C233.788 56.9303 215.827 64.0515 201.595 75.8491C200.254 76.9528 198.934 78.1116 197.652 79.3118C185.604 90.6081 177.332 104.943 173.845 120.567C170.359 136.19 171.809 152.426 178.018 167.291C178.276 167.94 178.556 168.581 178.851 169.223C183.237 179.011 189.624 187.903 197.652 195.399L226.337 221.9L228.592 223.99L290.663 281.33L292.262 282.813L308.565 297.877L321.161 309.514L444.669 195.392C461.093 179.987 470.317 159.114 470.317 137.352C470.317 115.59 461.093 94.7166 444.669 79.3118ZM443.114 193.923L321.161 306.603L310.142 296.422L294.186 281.682L292.587 280.206L231.724 223.969L229.506 221.921L199.214 193.93C191.438 186.671 185.241 178.07 180.966 168.602C180.671 167.96 180.391 167.319 180.133 166.677C174.041 152.174 172.6 136.322 175.99 121.063C179.379 105.805 187.45 91.8035 199.214 80.7741C200.586 79.4911 201.988 78.2633 203.423 77.0907H203.43C217.122 65.8774 234.295 59.0694 252.427 57.667C254.837 57.4738 257.249 57.3772 259.664 57.3772C260.571 57.3772 261.47 57.391 262.377 57.4186C269.783 57.632 277.129 58.745 284.229 60.7295C284.959 60.9295 285.688 61.1434 286.411 61.371C294.091 63.714 301.372 67.0801 308.027 71.3657C312.36 74.1461 316.409 77.2957 320.122 80.7741L320.903 81.5052L321.161 81.2638L321.419 81.5052L322.2 80.7741C330.457 73.0377 340.325 66.9724 351.192 62.9547C362.059 58.937 373.692 57.0527 385.369 57.4186C386.305 57.4462 387.241 57.4876 388.177 57.5497C388.929 57.5911 389.681 57.6394 390.425 57.7083C395.176 58.1071 399.883 58.8801 404.495 60.0191C405.482 60.2536 406.463 60.5088 407.435 60.7916C421.576 64.7936 434.366 72.1577 444.559 82.1655C454.752 92.1732 461.999 104.483 465.593 117.893C469.187 131.304 469.005 145.357 465.065 158.682C461.126 172.007 453.563 184.149 443.114 193.923Z" fill="#3F3D56"/>
<path opacity="0.15" d="M271.869 60.5432C267.138 64.0403 262.06 67.2684 258.986 72.0484C256.724 75.58 255.743 79.6841 255.014 83.7399C253.599 91.6308 252.994 99.7149 250.223 107.282C247.459 114.848 242.064 122.077 234.068 124.898C229.108 126.643 223.639 126.547 218.355 126.209C205.317 125.381 192.191 123.194 180.458 117.821C173.898 114.814 167.538 110.758 160.249 110.31C158.765 110.22 157.276 110.297 155.812 110.537C162.172 91.957 175.48 76.1477 193.293 66.0122C211.106 55.8768 232.228 52.0956 252.781 55.363H252.788C253.068 55.4044 253.341 55.4458 253.621 55.501C256.582 55.9899 259.512 56.6277 262.399 57.4116C265.618 58.2831 268.78 59.3287 271.869 60.5432Z" fill="black"/>
<path d="M63.9463 279.24C67.3791 280.369 71.0648 280.652 74.6483 280.061C78.2319 279.47 81.5925 278.026 84.4063 275.867C91.5726 270.237 93.8194 260.963 95.6476 252.376L101.055 226.976L89.7341 234.272C81.5928 239.518 73.2681 244.933 67.631 252.532C61.994 260.131 59.5335 270.505 64.0626 278.727L63.9463 279.24Z" fill="#E6E6E6"/>
<path d="M64.914 309.991C63.7682 302.18 62.59 294.269 63.3937 286.374C64.1075 279.362 66.3931 272.514 71.0464 266.899C73.5163 263.924 76.5218 261.375 79.9276 259.367C80.8157 258.842 81.6332 260.16 80.7489 260.682C74.8558 264.168 70.2977 269.315 67.7318 275.381C64.8978 282.127 64.4427 289.481 64.9311 296.648C65.2264 300.981 65.8524 305.287 66.4831 309.586C66.5328 309.781 66.5018 309.986 66.3963 310.16C66.2908 310.334 66.1188 310.463 65.9148 310.523C65.7068 310.576 65.4851 310.549 65.2977 310.45C65.1103 310.35 64.9725 310.185 64.914 309.991H64.914Z" fill="#F2F2F2"/>
<path d="M75.9503 296.169C77.4226 298.263 79.4463 299.967 81.8266 301.117C84.2068 302.267 86.8633 302.824 89.5401 302.734C96.4195 302.428 102.155 297.934 107.317 293.668L122.588 281.05L112.481 280.597C105.213 280.272 97.7579 279.968 90.8354 282.066C83.9129 284.163 77.5286 289.212 76.2628 295.918L75.9503 296.169Z" fill="#E6E6E6"/>
<path d="M61.6759 314.481C67.1909 305.349 73.5878 295.198 85.018 291.954C88.1962 291.055 91.5287 290.733 94.8361 291.006C95.8785 291.09 95.6182 292.594 94.5777 292.51C89.0338 292.079 83.5006 293.449 78.9096 296.389C74.4918 299.203 71.052 303.116 68.1406 307.265C66.3573 309.807 64.7599 312.456 63.1623 315.102C62.6517 315.947 61.1593 315.337 61.6758 314.481H61.6759Z" fill="#F2F2F2"/>
<path d="M221.171 82.1635C238.701 82.1635 252.912 68.8635 252.912 52.4572C252.912 36.0508 238.701 22.7509 221.171 22.7509C203.64 22.7509 189.429 36.0508 189.429 52.4572C189.429 68.8635 203.64 82.1635 221.171 82.1635Z" fill="#2F2E41"/>
<path d="M216.349 75.771H206.706V91.9402H216.349V75.771Z" fill="#2F2E41"/>
<path d="M235.635 75.771H225.992V91.9402H235.635V75.771Z" fill="#2F2E41"/>
<path d="M214.742 94.9484C219.18 94.9484 222.778 93.6858 222.778 92.1282C222.778 90.5706 219.18 89.308 214.742 89.308C210.304 89.308 206.706 90.5706 206.706 92.1282C206.706 93.6858 210.304 94.9484 214.742 94.9484Z" fill="#2F2E41"/>
<path d="M234.028 94.5725C238.466 94.5725 242.064 93.3098 242.064 91.7522C242.064 90.1947 238.466 88.932 234.028 88.932C229.59 88.932 225.992 90.1947 225.992 91.7522C225.992 93.3098 229.59 94.5725 234.028 94.5725Z" fill="#2F2E41"/>
<path d="M221.974 55.0893C227.966 55.0893 232.822 50.5437 232.822 44.9365C232.822 39.3293 227.966 34.7837 221.974 34.7837C215.983 34.7837 211.126 39.3293 211.126 44.9365C211.126 50.5437 215.983 55.0893 221.974 55.0893Z" fill="white"/>
<path d="M228.223 49.4063C229.63 48.0905 229.622 45.9491 228.206 44.6234C226.79 43.2976 224.502 43.2896 223.095 44.6054C221.689 45.9212 221.696 48.0627 223.112 49.3884C224.528 50.7141 226.816 50.7222 228.223 49.4063Z" fill="#3F3D56"/>
<path d="M190.381 24.8311C187.818 14.0889 196.01 3.23431 208.68 0.586734C221.349 -2.06084 233.697 4.50123 236.26 15.2435C238.823 25.9857 230.427 29.9477 217.757 32.5952C205.088 35.2427 192.944 35.5734 190.381 24.8311Z" fill="#E6E6E6"/>
<path d="M476.413 254.862C478.535 253.223 475.736 246.764 470.159 240.436C464.582 234.107 458.34 230.305 456.218 231.943C454.095 233.582 456.895 240.04 462.471 246.369C468.048 252.698 474.29 256.5 476.413 254.862Z" fill="#2F2E41"/>
<path d="M499.031 302.374C516.335 299.746 528.086 284.487 525.278 268.293C522.47 252.098 506.166 241.1 488.863 243.728C471.559 246.356 459.808 261.615 462.616 277.809C465.424 294.004 481.728 305.002 499.031 302.374Z" fill="#2F2E41"/>
<path d="M508.411 296.365H498.769V312.534H508.411V296.365Z" fill="#2F2E41"/>
<path d="M489.126 296.365H479.483V312.534H489.126V296.365Z" fill="#2F2E41"/>
<path d="M500.376 315.542C504.814 315.542 508.411 314.279 508.411 312.722C508.411 311.164 504.814 309.902 500.376 309.902C495.938 309.902 492.34 311.164 492.34 312.722C492.34 314.279 495.938 315.542 500.376 315.542Z" fill="#2F2E41"/>
<path d="M481.09 315.166C485.528 315.166 489.126 313.904 489.126 312.346C489.126 310.789 485.528 309.526 481.09 309.526C476.652 309.526 473.054 310.789 473.054 312.346C473.054 313.904 476.652 315.166 481.09 315.166Z" fill="#2F2E41"/>
<path d="M505.06 257.201C495.053 249.463 489.491 242.367 496.983 233.882C504.474 225.397 518.659 224.792 528.666 232.531C538.673 240.27 540.712 253.422 533.221 261.906C525.729 270.391 515.067 264.94 505.06 257.201Z" fill="#3ACEAA"/>
<path d="M483.291 267.784C489.28 267.62 493.992 262.943 493.816 257.338C493.64 251.733 488.643 247.323 482.654 247.488C476.665 247.652 471.953 252.33 472.129 257.934C472.305 263.539 477.303 267.949 483.291 267.784Z" fill="white"/>
<path d="M479.16 258.506C481.157 258.506 482.776 256.991 482.776 255.121C482.776 253.252 481.157 251.737 479.16 251.737C477.163 251.737 475.544 253.252 475.544 255.121C475.544 256.991 477.163 258.506 479.16 258.506Z" fill="#3F3D56"/>
<path d="M466.575 265.998C464.379 268.054 462.826 274.72 465.915 277.612C469.005 280.503 478.087 277.427 480.284 275.371C482.48 273.315 476.96 273.058 473.87 270.167C470.781 267.275 468.772 263.942 466.575 265.998Z" fill="white"/>
<path d="M524.077 312.776C526.647 311.857 526.194 304.9 523.064 297.237C519.935 289.575 515.314 284.108 512.744 285.028C510.174 285.947 510.627 292.904 513.757 300.567C516.886 308.229 521.506 313.696 524.077 312.776Z" fill="#2F2E41"/>
</g>
<defs>
<clipPath id="clip0_163_841">
<rect width="681" height="316" fill="white"/>
</clipPath>
</defs>
</svg>
