<svg width="1050" height="742" viewBox="0 0 1050 742" fill="none" xmlns="http://www.w3.org/2000/svg">
<g clip-path="url(#clip0_529_732)">
<path d="M1331 520.5C1331.09 542.977 1318.31 565.293 1293.24 586.482C1293.22 586.496 1293.21 586.505 1293.19 586.519C1293.08 586.618 1292.97 586.707 1292.84 586.806V586.81C1287.49 591.304 1281.62 595.724 1275.21 600.068C1259.05 611.022 1239.59 621.514 1217.07 631.414C1211.61 633.826 1205.95 636.198 1200.11 638.531C1193.68 641.111 1187.04 643.64 1180.2 646.117C1173.89 648.401 1167.42 650.642 1160.78 652.839C1152.88 655.457 1144.76 658.007 1136.4 660.49C1116.71 666.351 1095.82 671.835 1073.83 676.91C1069.97 677.806 1066.07 678.686 1062.12 679.551C1052.95 681.577 1043.59 683.532 1034.04 685.415C1013.05 689.564 991.273 693.349 968.823 696.749C964.948 697.34 961.042 697.922 957.119 698.485C941.948 700.675 926.469 702.691 910.68 704.532C906.178 705.062 901.659 705.573 897.094 706.066C896.325 706.155 895.556 706.239 894.772 706.319C840.634 712.161 784.162 715.849 726.807 717.287C722.822 717.395 718.832 717.486 714.837 717.559C710.601 717.648 706.36 717.72 702.113 717.775C698.756 717.826 695.414 717.864 692.041 717.892C691.351 717.901 690.645 717.911 689.954 717.911C685.42 717.953 680.87 717.98 676.305 717.991C674.375 717.995 672.445 718 670.5 718C669.59 718 668.68 718 667.77 717.995C654.607 717.981 641.544 717.853 628.58 717.611C628.313 717.606 628.046 717.597 627.779 717.597C623.136 717.503 618.507 717.404 613.895 717.282C597.469 716.869 581.22 716.275 565.15 715.5C561.447 715.326 557.755 715.138 554.073 714.937C538.086 714.092 522.309 713.074 506.74 711.883C502.112 711.531 497.51 711.163 492.934 710.78C466.524 708.583 440.602 705.891 415.321 702.721C400.809 700.901 386.569 698.933 372.601 696.819C366.309 695.867 360.081 694.885 353.915 693.873C352.236 693.601 350.573 693.324 348.91 693.047C336.767 691.021 324.875 688.885 313.234 686.639C303.695 684.805 294.334 682.897 285.151 680.916C284.021 680.681 282.908 680.437 281.794 680.194C274.749 678.66 267.82 677.086 261.006 675.474C246.18 671.96 231.882 668.268 218.113 664.398C208.59 661.724 199.344 658.966 190.375 656.123C138.117 639.597 95.7797 620.501 65.2251 599.674C58.7299 595.24 52.7681 590.726 47.3398 586.13C47.3222 586.12 47.3115 586.109 47.3084 586.097C22.5357 565.021 9.92013 542.84 10.0004 520.5C10.0004 437.578 180.915 366.591 423.15 337.318C509.478 326.93 602.159 322.098 695.15 323.138C788.141 324.179 879.355 331.067 962.846 343.355C1180.98 375.598 1331 442.814 1331 520.5Z" fill="#F2F2F2"/>
<path d="M968.504 567.25H722.634C713.689 567.24 705.113 563.58 698.788 557.074C692.463 550.568 688.905 541.747 688.895 532.545V133.617C688.905 124.416 692.463 115.595 698.788 109.088C705.113 102.582 713.689 98.9225 722.634 98.9121H968.504C977.449 98.9225 986.025 102.582 992.35 109.088C998.675 115.595 1002.23 124.416 1002.24 133.617V532.545C1002.23 541.747 998.675 550.568 992.35 557.074C986.025 563.58 977.449 567.24 968.504 567.25V567.25Z" fill="#E6E6E6"/>
<path d="M972.581 119.62H722.17C719.37 119.624 716.686 120.769 714.706 122.806C712.726 124.843 711.612 127.604 711.608 130.484V534.614C711.613 537.494 712.727 540.255 714.707 542.291C716.687 544.328 719.371 545.474 722.17 545.478H972.581C975.381 545.475 978.065 544.329 980.045 542.292C982.025 540.256 983.139 537.494 983.143 534.614V130.484C983.139 127.604 982.025 124.843 980.045 122.806C978.065 120.769 975.381 119.624 972.581 119.62V119.62Z" fill="white"/>
<path d="M728.644 98.9118C728.645 98.2079 728.917 97.5331 729.401 97.0354C729.885 96.5377 730.541 96.2577 731.225 96.2568H748.777C749.461 96.2568 750.118 96.5366 750.602 97.0345C751.086 97.5324 751.358 98.2077 751.358 98.9118C751.358 99.6159 751.086 100.291 750.602 100.789C750.118 101.287 749.461 101.567 748.777 101.567H731.225C730.541 101.566 729.885 101.286 729.401 100.788C728.917 100.29 728.645 99.6157 728.644 98.9118Z" fill="#E6E6E6"/>
<path d="M757.552 98.9118C757.553 98.2079 757.825 97.5331 758.309 97.0354C758.793 96.5377 759.449 96.2577 760.133 96.2568H777.685C778.37 96.2568 779.026 96.5366 779.51 97.0345C779.994 97.5324 780.266 98.2077 780.266 98.9118C780.266 99.6159 779.994 100.291 779.51 100.789C779.026 101.287 778.37 101.567 777.685 101.567H760.133C759.449 101.566 758.793 101.286 758.309 100.788C757.825 100.291 757.553 99.6157 757.552 98.9118Z" fill="#E6E6E6"/>
<path d="M931.004 98.9118C931.005 98.2079 931.277 97.5331 931.761 97.0354C932.245 96.5377 932.901 96.2577 933.585 96.2568H951.137C951.821 96.2568 952.478 96.5366 952.962 97.0345C953.446 97.5324 953.718 98.2077 953.718 98.9118C953.718 99.6159 953.446 100.291 952.962 100.789C952.478 101.287 951.821 101.567 951.137 101.567H933.585C932.901 101.566 932.245 101.286 931.761 100.788C931.277 100.291 931.005 99.6157 931.004 98.9118V98.9118Z" fill="#E6E6E6"/>
<path d="M882.076 537.153C882.076 539.946 882.025 542.728 881.901 545.479H722.17C719.37 545.475 716.687 544.328 714.707 542.292C712.727 540.256 711.613 537.495 711.608 534.615V331.201C759.175 339.106 802.452 364.172 833.688 401.91C864.923 439.647 882.077 487.591 882.076 537.153Z" fill="#F2F2F2"/>
<path d="M876.652 223.475H817.081C814.37 223.475 812.172 225.735 812.172 228.523V234.824C812.172 237.612 814.37 239.872 817.081 239.872H876.652C879.363 239.872 881.56 237.612 881.56 234.824V228.523C881.56 225.735 879.363 223.475 876.652 223.475Z" fill="#14DFAE"/>
<path d="M914.513 256.27H779.219C776.509 256.27 774.311 258.53 774.311 261.318V267.618C774.311 270.407 776.509 272.667 779.219 272.667H914.513C917.224 272.667 919.421 270.407 919.421 267.618V261.318C919.421 258.53 917.224 256.27 914.513 256.27Z" fill="#E6E6E6"/>
<path d="M914.513 289.065H779.219C776.509 289.065 774.311 291.326 774.311 294.114V300.414C774.311 303.203 776.509 305.463 779.219 305.463H914.513C917.224 305.463 919.421 303.203 919.421 300.414V294.114C919.421 291.326 917.224 289.065 914.513 289.065Z" fill="#E6E6E6"/>
<path d="M891.346 517.859C890.571 517.896 889.803 517.687 889.146 517.259C888.49 516.832 887.978 516.208 887.678 515.471C887.379 514.734 887.307 513.92 887.472 513.139C887.637 512.359 888.031 511.65 888.601 511.107L888.861 510.046C888.827 509.961 888.792 509.876 888.758 509.791C887.976 507.893 886.667 506.274 884.994 505.138C883.321 504.003 881.359 503.401 879.354 503.409C877.35 503.416 875.393 504.033 873.728 505.181C872.063 506.33 870.765 507.959 869.998 509.863C866.929 517.465 863.023 525.079 862.061 533.116C861.637 536.669 861.816 540.27 862.589 543.76C855.382 527.59 851.64 510.015 851.616 492.226C851.614 487.762 851.855 483.302 852.338 478.866C852.737 475.229 853.29 471.618 853.998 468.033C857.861 448.582 866.154 430.351 878.197 414.836C884.026 411.565 888.739 406.535 891.703 400.423C892.777 398.226 893.535 395.88 893.956 393.46C893.298 393.548 892.63 393.604 891.972 393.648C891.768 393.659 891.552 393.67 891.347 393.682L891.27 393.685C890.547 393.718 889.831 393.536 889.206 393.16C888.582 392.785 888.077 392.231 887.751 391.567C887.425 390.902 887.294 390.155 887.371 389.416C887.449 388.676 887.732 387.975 888.188 387.397C888.472 387.038 888.756 386.678 889.04 386.319C889.472 385.765 889.914 385.222 890.345 384.667C890.395 384.615 890.441 384.559 890.485 384.501C890.981 383.869 891.477 383.248 891.972 382.616C891.067 381.171 889.85 379.961 888.415 379.079C883.446 376.086 876.591 378.159 873.001 382.783C869.401 387.406 868.722 393.892 869.973 399.669C871.202 404.584 873.236 409.248 875.987 413.461C875.718 413.816 875.437 414.16 875.168 414.515C870.242 421.03 865.949 428.026 862.349 435.403C863.225 427.139 862.18 418.779 859.301 411.011C856.384 403.772 850.916 397.674 846.1 391.416C840.316 383.898 828.454 387.179 827.435 396.709C827.425 396.801 827.416 396.893 827.406 396.985C828.122 397.401 828.822 397.841 829.507 398.307C830.368 398.899 831.034 399.744 831.42 400.732C831.806 401.72 831.892 402.804 831.669 403.844C831.445 404.883 830.921 405.829 830.165 406.557C829.41 407.285 828.459 407.761 827.436 407.923L827.331 407.94C827.586 410.591 828.036 413.219 828.678 415.801C830.539 423.007 833.827 429.741 838.336 435.579C842.845 441.417 848.478 446.234 854.882 449.728C855.302 449.95 855.712 450.172 856.132 450.382C852.516 460.923 850.248 471.903 849.385 483.046C848.896 489.619 848.925 496.223 849.471 502.792L849.439 502.559C848.059 495.255 844.27 488.664 838.713 483.899C830.46 476.925 818.799 474.357 809.895 468.752C808.949 468.127 807.849 467.793 806.724 467.79C805.599 467.787 804.498 468.115 803.548 468.736C802.599 469.356 801.842 470.242 801.367 471.291C800.891 472.339 800.717 473.505 800.865 474.652C800.876 474.733 800.889 474.815 800.901 474.896C802.228 475.453 803.521 476.093 804.771 476.815C805.486 477.23 806.186 477.67 806.871 478.136C807.732 478.728 808.399 479.573 808.784 480.561C809.17 481.549 809.257 482.633 809.033 483.673C808.809 484.712 808.285 485.658 807.53 486.386C806.774 487.114 805.823 487.59 804.8 487.752L804.695 487.769C804.62 487.78 804.555 487.791 804.48 487.802C806.748 493.372 809.931 498.499 813.89 502.959C818.78 508.356 824.691 512.67 831.26 515.635C837.829 518.599 844.917 520.153 852.09 520.199H852.101C854.048 528.903 856.869 537.375 860.519 545.479H890.593C890.7 545.135 890.797 544.78 890.894 544.436C888.111 544.616 885.316 544.445 882.573 543.926C884.804 541.11 887.036 538.272 889.267 535.456C889.317 535.403 889.363 535.347 889.407 535.289C890.539 533.848 891.681 532.418 892.813 530.976L892.814 530.975C892.874 526.556 892.381 522.149 891.347 517.86L891.346 517.859ZM856.908 448.176L856.924 448.154L856.908 448.198V448.176ZM850.247 509.944L849.988 509.345C849.999 508.912 849.999 508.48 849.988 508.037C849.988 507.915 849.967 507.793 849.967 507.671C850.064 508.436 850.15 509.201 850.258 509.966L850.247 509.944Z" fill="#CCCCCC"/>
<path d="M960.064 155.3H734.687C734.2 155.289 733.736 155.082 733.395 154.723C733.054 154.365 732.863 153.883 732.863 153.381C732.863 152.88 733.054 152.398 733.395 152.04C733.736 151.681 734.2 151.474 734.687 151.463H960.064C960.551 151.474 961.015 151.681 961.356 152.04C961.697 152.398 961.888 152.88 961.888 153.381C961.888 153.883 961.697 154.365 961.356 154.723C961.015 155.082 960.551 155.289 960.064 155.3V155.3Z" fill="#CACACA"/>
<path d="M746.712 145.915C749.74 145.915 752.194 143.334 752.194 140.15C752.194 136.967 749.74 134.386 746.712 134.386C743.684 134.386 741.23 136.967 741.23 140.15C741.23 143.334 743.684 145.915 746.712 145.915Z" fill="#3F3D56"/>
<path d="M765.65 145.915C768.678 145.915 771.132 143.334 771.132 140.15C771.132 136.967 768.678 134.386 765.65 134.386C762.622 134.386 760.168 136.967 760.168 140.15C760.168 143.334 762.622 145.915 765.65 145.915Z" fill="#3F3D56"/>
<path d="M784.588 145.915C787.616 145.915 790.07 143.334 790.07 140.15C790.07 136.967 787.616 134.386 784.588 134.386C781.561 134.386 779.106 136.967 779.106 140.15C779.106 143.334 781.561 145.915 784.588 145.915Z" fill="#3F3D56"/>
<path d="M951.255 136.612H938.986C938.743 136.617 938.511 136.72 938.341 136.899C938.171 137.077 938.075 137.318 938.075 137.568C938.075 137.818 938.171 138.058 938.341 138.237C938.511 138.416 938.743 138.518 938.986 138.523H951.255C951.498 138.518 951.729 138.416 951.9 138.237C952.07 138.058 952.165 137.818 952.165 137.568C952.165 137.318 952.07 137.077 951.9 136.899C951.729 136.72 951.498 136.617 951.255 136.612V136.612Z" fill="#3F3D56"/>
<path d="M951.255 140.199H938.986C938.743 140.204 938.511 140.307 938.341 140.486C938.171 140.664 938.075 140.905 938.075 141.155C938.075 141.405 938.171 141.645 938.341 141.824C938.511 142.002 938.743 142.105 938.986 142.11H951.255C951.498 142.105 951.729 142.002 951.9 141.824C952.07 141.645 952.165 141.405 952.165 141.155C952.165 140.905 952.07 140.664 951.9 140.486C951.729 140.307 951.498 140.204 951.255 140.199V140.199Z" fill="#3F3D56"/>
<path d="M951.255 143.781H938.986C938.743 143.786 938.511 143.889 938.341 144.068C938.171 144.246 938.075 144.487 938.075 144.737C938.075 144.987 938.171 145.227 938.341 145.406C938.511 145.584 938.743 145.687 938.986 145.692H951.255C951.498 145.687 951.729 145.584 951.9 145.406C952.07 145.227 952.165 144.987 952.165 144.737C952.165 144.487 952.07 144.246 951.9 144.068C951.729 143.889 951.498 143.786 951.255 143.781Z" fill="#3F3D56"/>
<path d="M585.582 331.353H454.915C453.066 331.355 451.295 332.113 449.989 333.459C448.684 334.806 447.952 336.63 447.954 338.531V550.854H592.562V338.531C592.562 337.589 592.382 336.655 592.031 335.784C591.681 334.912 591.167 334.121 590.519 333.454C589.87 332.787 589.101 332.259 588.254 331.898C587.407 331.537 586.499 331.352 585.582 331.353ZM520.688 451.991C516.602 451.972 512.688 450.293 509.799 447.321C506.909 444.349 505.278 440.324 505.259 436.12V411.631C505.262 407.424 506.889 403.391 509.783 400.417C512.676 397.444 516.598 395.773 520.688 395.773C524.778 395.773 528.701 397.444 531.594 400.417C534.487 403.391 536.114 407.424 536.118 411.631V436.12C536.099 440.324 534.467 444.349 531.578 447.321C528.688 450.293 524.775 451.972 520.688 451.991V451.991Z" fill="#E6E6E6"/>
<path d="M447.505 544.063V564.547C447.507 565.609 447.918 566.626 448.648 567.377C449.377 568.127 450.366 568.55 451.398 568.552H589.117C590.148 568.547 591.135 568.123 591.864 567.373C592.593 566.623 593.005 565.608 593.01 564.547V544.062L447.505 544.063Z" fill="#CCCCCC"/>
<path d="M801.956 0H243.403C238.604 0.00785286 234.004 1.9722 230.611 5.46258C227.218 8.95296 225.308 13.6847 225.3 18.6208V406.319C225.305 411.256 227.214 415.989 230.608 419.481C234.002 422.972 238.603 424.935 243.403 424.94H801.956C806.756 424.935 811.358 422.972 814.752 419.481C818.146 415.989 820.054 411.256 820.059 406.319V18.6208C820.051 13.6847 818.141 8.95296 814.748 5.46258C811.355 1.9722 806.755 0.00784979 801.956 0Z" fill="#E6E6E6"/>
<path d="M797.294 13.4497H248.07C245.5 13.4555 243.038 14.5093 241.223 16.3801C239.408 18.2509 238.389 20.7859 238.388 23.4288V401.517C238.393 404.157 239.414 406.687 241.229 408.554C243.044 410.421 245.504 411.471 248.07 411.476H797.294C799.86 411.471 802.32 410.421 804.135 408.554C805.949 406.687 806.971 404.157 806.975 401.517V23.4288C806.975 20.7859 805.955 18.2509 804.14 16.3801C802.325 14.5093 799.863 13.4555 797.294 13.4497Z" fill="white"/>
<path d="M806.975 23.4288V401.517C806.971 404.157 805.949 406.687 804.135 408.554C802.32 410.421 799.86 411.471 797.294 411.476H603.625C582.201 391.038 564.624 366.712 551.776 339.717C550.931 337.978 550.126 336.218 549.361 334.438C537.655 308.31 530.567 280.246 528.428 251.561C528.287 249.802 528.166 248.042 528.086 246.261C527.824 241.706 527.704 237.09 527.704 232.452C527.665 201.609 533.328 171.039 544.389 142.371C545.054 140.59 545.758 138.83 546.483 137.071C568.745 83.2679 608.972 39.4231 659.902 13.4497H797.294C799.863 13.4554 802.325 14.5093 804.14 16.3801C805.955 18.2509 806.975 20.7859 806.975 23.4288Z" fill="#14DFAE"/>
<path d="M769.685 65.5421H255.779C255.244 65.5304 254.735 65.3038 254.361 64.9109C253.987 64.5179 253.778 63.9899 253.778 63.44C253.778 62.8901 253.987 62.3621 254.361 61.9692C254.735 61.5762 255.244 61.3496 255.779 61.3379H769.685C770.22 61.3496 770.728 61.5762 771.102 61.9692C771.476 62.3621 771.686 62.8901 771.686 63.44C771.686 63.9899 771.476 64.5179 771.102 64.9109C770.728 65.3038 770.22 65.5304 769.685 65.5421V65.5421Z" fill="#CACACA"/>
<path d="M290.761 50.6041C297.376 50.6041 302.738 44.9656 302.738 38.0101C302.738 31.0546 297.376 25.416 290.761 25.416C284.146 25.416 278.784 31.0546 278.784 38.0101C278.784 44.9656 284.146 50.6041 290.761 50.6041Z" fill="#3F3D56"/>
<path d="M332.136 50.6041C338.75 50.6041 344.112 44.9656 344.112 38.0101C344.112 31.0546 338.75 25.416 332.136 25.416C325.521 25.416 320.159 31.0546 320.159 38.0101C320.159 44.9656 325.521 50.6041 332.136 50.6041Z" fill="#3F3D56"/>
<path d="M373.51 50.6041C380.124 50.6041 385.487 44.9656 385.487 38.0101C385.487 31.0546 380.124 25.416 373.51 25.416C366.895 25.416 361.533 31.0546 361.533 38.0101C361.533 44.9656 366.895 50.6041 373.51 50.6041Z" fill="#3F3D56"/>
<path d="M744.774 28.5376H715.384C714.801 28.5495 714.247 28.7958 713.839 29.2238C713.431 29.6518 713.202 30.2273 713.202 30.8266C713.202 31.426 713.431 32.0015 713.839 32.4295C714.247 32.8575 714.801 33.1038 715.384 33.1157H744.774C745.357 33.1038 745.912 32.8575 746.32 32.4295C746.728 32.0015 746.956 31.426 746.956 30.8266C746.956 30.2273 746.728 29.6518 746.32 29.2238C745.912 28.7958 745.357 28.5495 744.774 28.5376V28.5376Z" fill="#3F3D56"/>
<path d="M744.774 37.1299H715.384C714.801 37.1417 714.247 37.3881 713.839 37.8161C713.431 38.2441 713.202 38.8196 713.202 39.4189C713.202 40.0183 713.431 40.5938 713.839 41.0218C714.247 41.4497 714.801 41.6961 715.384 41.708H744.774C745.357 41.6961 745.912 41.4497 746.32 41.0218C746.728 40.5938 746.956 40.0183 746.956 39.4189C746.956 38.8196 746.728 38.2441 746.32 37.8161C745.912 37.3881 745.357 37.1417 744.774 37.1299V37.1299Z" fill="#3F3D56"/>
<path d="M744.774 45.7109H715.384C714.801 45.7228 714.247 45.9692 713.839 46.3972C713.431 46.8252 713.202 47.4006 713.202 48C713.202 48.5993 713.431 49.1748 713.839 49.6028C714.247 50.0308 714.801 50.2772 715.384 50.289H744.774C745.357 50.2772 745.912 50.0308 746.32 49.6028C746.728 49.1748 746.956 48.5993 746.956 48C746.956 47.4006 746.728 46.8252 746.32 46.3972C745.912 45.9692 745.357 45.7228 744.774 45.7109V45.7109Z" fill="#3F3D56"/>
<path d="M413.131 188.351H341.265C338.554 188.351 336.357 190.611 336.357 193.399V201.268C336.357 204.057 338.554 206.317 341.265 206.317H413.131C415.841 206.317 418.039 204.057 418.039 201.268V193.399C418.039 190.611 415.841 188.351 413.131 188.351Z" fill="#14DFAE"/>
<path d="M454.614 224.284H299.782C297.071 224.284 294.873 226.545 294.873 229.333V237.202C294.873 239.99 297.071 242.251 299.782 242.251H454.614C457.325 242.251 459.522 239.99 459.522 237.202V229.333C459.522 226.545 457.325 224.284 454.614 224.284Z" fill="#E6E6E6"/>
<path d="M454.614 260.217H299.782C297.071 260.217 294.873 262.477 294.873 265.266V273.134C294.873 275.923 297.071 278.183 299.782 278.183H454.614C457.325 278.183 459.522 275.923 459.522 273.134V265.266C459.522 262.477 457.325 260.217 454.614 260.217Z" fill="#E6E6E6"/>
<path d="M308.312 389.799C308.324 397.2 307.042 404.542 304.528 411.476H248.07C245.504 411.471 243.044 410.421 241.229 408.554C239.414 406.687 238.393 404.157 238.388 401.517V328.475C241.543 327.95 244.733 327.687 247.929 327.688C255.859 327.688 263.711 329.294 271.037 332.415C278.363 335.537 285.02 340.112 290.627 345.879C296.234 351.647 300.682 358.494 303.717 366.03C306.751 373.566 308.312 381.643 308.312 389.799V389.799Z" fill="#14DFAE"/>
<path opacity="0.2" d="M807.478 142.371V137.071H721.11V75.6436H715.978V137.071H616.99V75.6436H611.857V137.071H546.483C545.758 138.831 545.054 140.591 544.389 142.371H611.857V246.262H528.086C528.166 248.042 528.287 249.802 528.428 251.562H611.857V334.438H549.361C550.126 336.219 550.931 337.978 551.776 339.718H611.857V409.385H616.99V339.717H715.978V409.385H721.11V339.717H807.478V334.438H721.11V334.438C721.11 323.555 723.194 312.778 727.243 302.723C731.293 292.668 737.227 283.531 744.709 275.836C752.191 268.14 761.073 262.035 770.848 257.87C780.624 253.705 791.101 251.562 801.681 251.562H807.478V246.262H721.11V142.371H807.478ZM715.978 334.438H616.99V251.562H715.978V334.438ZM715.978 246.262H616.99V244.191C616.99 217.187 627.419 191.288 645.983 172.193C664.546 153.099 689.724 142.371 715.978 142.371H715.978V246.262Z" fill="black"/>
<path d="M737.939 372.251C736.837 372.303 735.747 372.005 734.815 371.398C733.883 370.792 733.155 369.905 732.73 368.858C732.304 367.812 732.202 366.656 732.436 365.547C732.671 364.439 733.231 363.431 734.041 362.661C734.176 362.107 734.274 361.709 734.409 361.154C734.361 361.034 734.312 360.913 734.263 360.792C729.311 348.647 712.529 348.731 707.619 360.894C703.262 371.69 697.713 382.504 696.347 393.919C695.746 398.964 695.999 404.079 697.097 409.035C686.862 386.07 681.547 361.109 681.513 335.846C681.511 329.506 681.854 323.171 682.539 316.871C683.105 311.706 683.891 306.578 684.897 301.487C690.382 273.862 702.161 247.969 719.264 225.935C727.542 221.289 734.237 214.145 738.445 205.465C739.97 202.345 741.048 199.014 741.645 195.576C740.711 195.702 739.762 195.781 738.828 195.844C738.537 195.86 738.231 195.875 737.94 195.891L737.83 195.896C736.804 195.944 735.786 195.685 734.9 195.151C734.013 194.617 733.295 193.831 732.833 192.888C732.371 191.944 732.183 190.883 732.293 189.832C732.403 188.782 732.806 187.786 733.454 186.966C733.857 186.455 734.26 185.945 734.664 185.435C735.277 184.648 735.904 183.876 736.516 183.089C736.587 183.014 736.654 182.936 736.715 182.853C737.42 181.955 738.124 181.074 738.828 180.176C737.543 178.124 735.814 176.405 733.776 175.153C726.719 170.901 716.983 173.846 711.885 180.412C706.772 186.978 705.808 196.19 707.583 204.394C709.099 211.417 712.406 217.857 716.126 223.983C715.743 224.487 715.345 224.975 714.962 225.479C707.966 234.732 701.869 244.668 696.757 255.145C698 243.408 696.516 231.535 692.428 220.503C688.285 210.221 680.518 201.562 673.679 192.673C665.464 181.997 648.619 186.657 647.172 200.191C647.158 200.322 647.144 200.453 647.13 200.584C648.146 201.173 649.141 201.799 650.114 202.461C651.336 203.301 652.283 204.501 652.831 205.904C653.379 207.307 653.502 208.848 653.184 210.324C652.866 211.8 652.122 213.143 651.049 214.177C649.976 215.211 648.625 215.887 647.172 216.117L647.023 216.141C647.385 219.907 648.025 223.639 648.937 227.305C651.579 237.54 656.249 247.103 662.653 255.395C669.057 263.686 677.057 270.527 686.152 275.49C686.749 275.804 687.331 276.119 687.928 276.419C682.792 291.389 679.571 306.983 678.344 322.808C677.65 332.144 677.691 341.523 678.467 350.852L678.421 350.521C676.461 340.147 671.081 330.787 663.189 324.02C651.467 314.116 634.906 310.468 622.261 302.507C616.173 298.675 608.373 303.627 609.435 310.886C609.452 311.002 609.47 311.118 609.487 311.234C611.372 312.024 613.208 312.934 614.983 313.958C615.999 314.548 616.993 315.173 617.966 315.835C619.188 316.675 620.135 317.875 620.683 319.278C621.231 320.682 621.354 322.222 621.036 323.698C620.718 325.175 619.974 326.518 618.901 327.551C617.828 328.585 616.477 329.262 615.024 329.492L614.875 329.516C614.768 329.531 614.676 329.547 614.569 329.563C617.79 337.474 622.311 344.755 627.934 351.088C634.879 358.754 643.274 364.881 652.603 369.091C661.932 373.302 671.999 375.508 682.187 375.574H682.202C684.968 387.935 688.974 399.967 694.158 411.476H736.869C737.022 410.988 737.159 410.484 737.297 409.996C733.344 410.251 729.375 410.008 725.479 409.272C728.648 405.272 731.817 401.241 734.986 397.241C735.056 397.166 735.123 397.088 735.185 397.005C736.792 394.958 738.415 392.927 740.022 390.88L740.023 390.877C740.109 384.602 739.409 378.342 737.94 372.252L737.939 372.251ZM689.03 273.285L689.052 273.254L689.03 273.316V273.285ZM679.569 361.009L679.202 360.158C679.217 359.544 679.217 358.93 679.202 358.3C679.202 358.127 679.171 357.954 679.171 357.781C679.309 358.867 679.431 359.954 679.584 361.04L679.569 361.009Z" fill="#2F2E41"/>
<path d="M357.616 269.501V210.456C357.616 201.393 354.116 192.701 347.886 186.292C341.655 179.884 333.205 176.283 324.394 176.283H202.78C193.968 176.283 185.518 179.884 179.288 186.292C173.057 192.701 169.557 201.393 169.557 210.456V534.379C169.557 543.442 173.057 552.134 179.288 558.543C185.518 564.952 193.968 568.552 202.78 568.552H324.394C328.757 568.552 333.077 567.668 337.107 565.951C341.138 564.233 344.801 561.716 347.886 558.543C350.971 555.37 353.418 551.602 355.087 547.456C356.757 543.31 357.616 538.866 357.616 534.379V311.53C358.172 311.53 358.705 311.303 359.098 310.898C359.491 310.494 359.712 309.946 359.712 309.374V271.656C359.712 271.085 359.491 270.536 359.098 270.132C358.705 269.728 358.172 269.501 357.616 269.501V269.501Z" fill="#E6E6E6"/>
<path d="M350.546 210.691V534.146C350.547 540.864 347.97 547.312 343.376 552.088C338.782 556.863 332.541 559.582 326.01 559.652C325.919 559.661 325.829 559.665 325.738 559.663H203.532C196.953 559.663 190.643 556.974 185.991 552.189C181.339 547.403 178.725 540.913 178.724 534.146V210.691C178.725 203.924 181.339 197.434 185.991 192.648C190.643 187.863 196.953 185.174 203.532 185.174H218.362C217.633 187.015 217.355 189.013 217.553 190.991C217.751 192.969 218.418 194.867 219.497 196.517C220.575 198.168 222.031 199.52 223.737 200.456C225.442 201.391 227.346 201.882 229.279 201.883H298.951C300.882 201.878 302.783 201.385 304.486 200.448C306.189 199.511 307.642 198.158 308.719 196.508C309.795 194.859 310.462 192.963 310.66 190.987C310.858 189.011 310.582 187.015 309.856 185.174H325.738C332.317 185.174 338.627 187.863 343.279 192.648C347.931 197.434 350.545 203.924 350.546 210.691Z" fill="white"/>
<path d="M326.315 549.679C326.315 553.03 326.213 556.354 326.01 559.651C325.919 559.661 325.829 559.665 325.738 559.663H203.532C196.953 559.662 190.643 556.974 185.991 552.188C181.339 547.403 178.725 540.913 178.724 534.145V390C218.541 392.065 256.064 409.79 283.534 439.51C311.004 469.23 326.32 508.671 326.315 549.679V549.679Z" fill="#F2F2F2"/>
<path d="M170.229 302.533C169.479 302.532 168.76 302.225 168.23 301.68C167.7 301.134 167.402 300.395 167.401 299.624V279.843C167.401 279.071 167.699 278.331 168.229 277.786C168.76 277.24 169.479 276.934 170.229 276.934C170.979 276.934 171.698 277.24 172.229 277.786C172.759 278.331 173.057 279.071 173.057 279.843V299.624C173.056 300.395 172.758 301.134 172.228 301.68C171.698 302.225 170.979 302.532 170.229 302.533Z" fill="#E6E6E6"/>
<path d="M279.64 286.738H249.63C246.919 286.738 244.722 288.999 244.722 291.787V299.656C244.722 302.444 246.919 304.705 249.63 304.705H279.64C282.351 304.705 284.548 302.444 284.548 299.656V291.787C284.548 288.999 282.351 286.738 279.64 286.738Z" fill="#14DFAE"/>
<path d="M321.124 322.671H208.147C205.436 322.671 203.238 324.931 203.238 327.72V335.589C203.238 338.377 205.436 340.637 208.147 340.637H321.124C323.834 340.637 326.032 338.377 326.032 335.589V327.72C326.032 324.931 323.834 322.671 321.124 322.671Z" fill="#E6E6E6"/>
<path d="M321.124 358.604H208.147C205.436 358.604 203.238 360.865 203.238 363.653V371.522C203.238 374.311 205.436 376.571 208.147 376.571H321.124C323.834 376.571 326.032 374.311 326.032 371.522V363.653C326.032 360.865 323.834 358.604 321.124 358.604Z" fill="#E6E6E6"/>
<path d="M293.94 541.256C293.423 541.281 292.911 541.141 292.474 540.856C292.036 540.572 291.695 540.156 291.495 539.664C291.296 539.173 291.248 538.631 291.358 538.111C291.468 537.591 291.73 537.118 292.11 536.756L292.283 536.049C292.261 535.992 292.238 535.936 292.215 535.879C291.694 534.614 290.821 533.535 289.706 532.778C288.591 532.021 287.284 531.62 285.948 531.625C284.612 531.631 283.307 532.042 282.198 532.807C281.088 533.572 280.223 534.658 279.712 535.927C277.667 540.993 275.063 546.068 274.422 551.424C274.14 553.792 274.259 556.192 274.774 558.518C269.971 547.741 267.477 536.028 267.461 524.173C267.46 521.198 267.621 518.225 267.942 515.269C268.208 512.845 268.577 510.438 269.049 508.049C271.623 495.086 277.15 482.935 285.176 472.595C289.061 470.415 292.202 467.063 294.177 462.989C294.893 461.525 295.399 459.962 295.679 458.349C295.241 458.408 294.795 458.445 294.357 458.474C294.221 458.482 294.077 458.489 293.94 458.497L293.889 458.499C293.407 458.521 292.93 458.4 292.514 458.149C292.098 457.899 291.761 457.53 291.544 457.087C291.327 456.644 291.239 456.146 291.29 455.653C291.342 455.16 291.531 454.693 291.835 454.308C292.024 454.069 292.214 453.829 292.403 453.59C292.69 453.221 292.985 452.859 293.272 452.489C293.305 452.454 293.337 452.417 293.366 452.378C293.696 451.957 294.027 451.543 294.357 451.122C293.754 450.159 292.943 449.352 291.986 448.765C288.675 446.77 284.106 448.152 281.714 451.233C279.314 454.314 278.862 458.637 279.695 462.487C280.514 465.763 281.87 468.871 283.704 471.679C283.524 471.915 283.337 472.145 283.158 472.381C279.875 476.723 277.013 481.386 274.614 486.303C275.198 480.795 274.502 475.223 272.583 470.046C270.639 465.221 266.994 461.158 263.785 456.987C262.936 455.866 261.783 455.03 260.472 454.583C259.161 454.136 257.751 454.099 256.42 454.477C255.089 454.854 253.896 455.63 252.993 456.704C252.09 457.779 251.516 459.105 251.346 460.514C251.339 460.576 251.333 460.637 251.326 460.699C251.803 460.975 252.27 461.269 252.726 461.579C253.3 461.974 253.744 462.537 254.001 463.195C254.258 463.854 254.316 464.577 254.167 465.269C254.018 465.962 253.669 466.592 253.165 467.077C252.662 467.563 252.028 467.88 251.346 467.988L251.276 467.999C251.446 469.766 251.746 471.518 252.174 473.238C253.414 478.041 255.605 482.529 258.611 486.42C261.616 490.311 265.37 493.521 269.638 495.85C269.918 495.997 270.191 496.145 270.471 496.285C268.061 503.311 266.549 510.628 265.974 518.054C265.648 522.436 265.668 526.837 266.032 531.215L266.01 531.059C265.09 526.191 262.566 521.799 258.862 518.623C253.361 513.975 245.59 512.264 239.656 508.528C239.025 508.111 238.292 507.889 237.542 507.887C236.793 507.885 236.059 508.104 235.426 508.517C234.793 508.931 234.289 509.521 233.972 510.22C233.655 510.919 233.539 511.696 233.637 512.46L233.662 512.623C234.546 512.994 235.407 513.421 236.241 513.902C236.717 514.178 237.184 514.472 237.64 514.782C238.214 515.177 238.658 515.74 238.915 516.398C239.173 517.057 239.23 517.78 239.081 518.472C238.932 519.165 238.583 519.795 238.079 520.28C237.576 520.766 236.942 521.083 236.26 521.191L236.19 521.202C236.14 521.21 236.097 521.217 236.047 521.224C237.558 524.937 239.679 528.354 242.318 531.326C245.577 534.923 249.517 537.798 253.895 539.774C258.272 541.749 262.996 542.785 267.777 542.816H267.784C269.082 548.616 270.962 554.263 273.395 559.663H293.437C293.509 559.434 293.574 559.198 293.639 558.969C291.783 559.089 289.921 558.975 288.093 558.629C289.58 556.752 291.067 554.86 292.554 552.983C292.587 552.948 292.618 552.911 292.647 552.873C293.402 551.912 294.163 550.959 294.917 549.998L294.918 549.997C294.958 547.053 294.629 544.115 293.94 541.257L293.94 541.256ZM270.988 494.815L270.999 494.8L270.988 494.83V494.815ZM266.549 535.981L266.376 535.582C266.384 535.294 266.384 535.005 266.376 534.71C266.376 534.628 266.362 534.547 266.362 534.466C266.427 534.976 266.484 535.486 266.556 535.996L266.549 535.981Z" fill="#CCCCCC"/>
<path d="M169.663 264.134C168.913 264.133 168.195 263.826 167.664 263.281C167.134 262.736 166.836 261.996 166.835 261.225V241.444C166.835 240.673 167.133 239.933 167.664 239.387C168.194 238.842 168.913 238.535 169.663 238.535C170.413 238.535 171.133 238.842 171.663 239.387C172.193 239.933 172.491 240.673 172.491 241.444V261.225C172.49 261.996 172.192 262.736 171.662 263.281C171.132 263.826 170.413 264.133 169.663 264.134V264.134Z" fill="#E6E6E6"/>
<path d="M244.89 188.501C244.891 187.73 245.189 186.99 245.719 186.445C246.249 185.899 246.968 185.593 247.718 185.592H266.948C267.699 185.592 268.418 185.898 268.948 186.444C269.479 186.989 269.777 187.729 269.777 188.501C269.777 189.272 269.479 190.012 268.948 190.558C268.418 191.103 267.699 191.41 266.948 191.41H247.718C246.968 191.409 246.249 191.102 245.719 190.557C245.189 190.011 244.891 189.272 244.89 188.501Z" fill="white"/>
<path d="M170.229 336.277C169.479 336.276 168.76 335.969 168.23 335.424C167.7 334.878 167.402 334.139 167.401 333.368V313.587C167.401 312.815 167.699 312.075 168.229 311.53C168.76 310.984 169.479 310.678 170.229 310.678C170.979 310.678 171.698 310.984 172.229 311.53C172.759 312.075 173.057 312.815 173.057 313.587V333.368C173.056 334.139 172.758 334.878 172.228 335.424C171.698 335.969 170.979 336.276 170.229 336.277V336.277Z" fill="#E6E6E6"/>
<path d="M277.695 191.41C279.257 191.41 280.523 190.107 280.523 188.501C280.523 186.894 279.257 185.592 277.695 185.592C276.133 185.592 274.867 186.894 274.867 188.501C274.867 190.107 276.133 191.41 277.695 191.41Z" fill="white"/>
<path d="M473.902 263.095L468.799 264.22C468.765 262.024 468.499 259.838 468.005 257.701C467.541 260.318 466.563 262.81 465.132 265.025L435.86 271.455L407.757 240.948C407.714 225.695 415.948 214.103 430.713 214.103C431.603 214.103 432.525 214.147 433.458 214.236C441.435 212.862 449.619 214.726 456.287 219.435C462.955 224.144 467.586 231.33 469.206 239.481C479.671 250.08 475.875 256.312 473.902 263.095Z" fill="#2F2E41"/>
<path d="M488.293 619.856H498.911L503.963 577.729L488.291 577.73L488.293 619.856Z" fill="#FFB6B6"/>
<path d="M485.66 614.469L502.445 613.438V620.836L518.402 632.172C519.191 632.732 519.784 633.536 520.097 634.467C520.409 635.399 520.424 636.408 520.139 637.349C519.854 638.29 519.284 639.112 518.512 639.696C517.741 640.28 516.808 640.595 515.85 640.594H495.867L492.423 633.278L491.078 640.594H483.544L485.66 614.469Z" fill="#2F2E41"/>
<path d="M363.899 607.968L373.135 613.358L397.739 579.282L384.109 571.328L363.899 607.968Z" fill="#FFB6B6"/>
<path d="M364.194 601.945L379.287 609.569L375.738 616.003L384.178 633.963C384.595 634.85 384.726 635.851 384.551 636.819C384.375 637.788 383.904 638.674 383.205 639.347C382.505 640.02 381.615 640.446 380.664 640.562C379.713 640.679 378.751 640.479 377.917 639.993L360.537 629.849L361.052 621.737L356.372 627.418L349.819 623.594L364.194 601.945Z" fill="#2F2E41"/>
<path d="M527.541 270.476C526.18 270.678 524.879 271.185 523.73 271.96C522.58 272.736 521.61 273.761 520.888 274.964C520.165 276.167 519.708 277.519 519.548 278.923C519.388 280.327 519.529 281.751 519.962 283.093L503.714 297.559L509.852 309.859L532.518 289.099C534.662 288.202 536.411 286.527 537.435 284.392C538.459 282.257 538.685 279.809 538.071 277.514C537.458 275.218 536.047 273.234 534.106 271.936C532.166 270.639 529.83 270.12 527.541 270.476H527.541Z" fill="#FFB6B6"/>
<path d="M511.179 320.219C505.759 328.663 493.612 336.817 475.585 344.046C474.59 344.456 473.524 344.649 472.453 344.613C471.383 344.577 470.331 344.313 469.365 343.837C462.562 340.652 458.202 328.813 457.792 327.664L444.616 309.381C444.382 309.115 438.221 301.922 438.925 294.851C439.084 293.369 439.553 291.94 440.299 290.662C441.046 289.384 442.052 288.288 443.25 287.448C453.224 279.842 475.578 306.257 478.479 309.77L493.068 300.626L503.699 295.748L512.28 285.007L524.363 297.714L513.496 315.497C512.916 317.163 512.138 318.75 511.179 320.219V320.219Z" fill="#2F2E41"/>
<path d="M473.285 352.613C473.285 352.613 504.505 403.765 498.849 409.583C493.193 415.401 484.391 416.929 484.391 416.929L464.912 390.966L473.285 352.613Z" fill="#2F2E41"/>
<path d="M445.682 282.752L460.396 292.99C467.235 297.749 472.379 304.672 475.047 312.71C477.716 320.747 477.764 329.461 475.183 337.528L471.041 350.48L445.682 282.752Z" fill="#2F2E41"/>
<path d="M419.663 422.383L417.696 429.431L410.983 514.421L377.447 578.709L393.453 590.468L439.185 529.316L457.273 468.596L485.679 603.013L507.021 601.445L492.198 415.078L464.073 362.62L419.663 422.383Z" fill="#2F2E41"/>
<path d="M443.179 285.327L463.658 302.543C468.153 306.321 471.389 311.447 472.917 317.208V317.208C473.61 319.823 473.94 322.527 473.896 325.238L473.285 362.621L492.062 414.238C492.062 414.238 441.157 434.019 434.369 416.565C427.582 399.111 443.179 285.327 443.179 285.327Z" fill="#14DFAE"/>
<path d="M449.304 425.625C423.874 425.625 417.677 425.822 417.275 425.738L416.873 425.655V409.922L423.057 381.657C422.334 372.882 420.641 361.311 420.795 351.404C421.349 315.594 419.638 280.614 419.638 280.614L433.097 267.835L439.211 271.928L450.554 283.594C463.737 316.967 474.199 348.387 474.265 350.405L475.093 385.148L471.7 399.111C456.348 410.258 470.375 425.625 449.304 425.625Z" fill="#2F2E41"/>
<path opacity="0.2" d="M425.342 311.811L422.25 331.659L443.179 340.538L425.342 311.811Z" fill="black"/>
<path d="M446.425 264.112C457.742 264.112 466.916 254.675 466.916 243.035C466.916 231.394 457.742 221.958 446.425 221.958C435.109 221.958 425.935 231.394 425.935 243.035C425.935 254.675 435.109 264.112 446.425 264.112Z" fill="#FFB6B6"/>
<path opacity="0.2" d="M412.091 349.977C417.545 356.472 424.942 360.919 433.12 362.619C441.298 364.32 449.794 363.177 457.272 359.37L461.732 357.1L412.091 349.977Z" fill="black"/>
<path d="M483.394 345.124C482.48 344.068 481.352 343.231 480.089 342.671C478.826 342.112 477.46 341.844 476.086 341.887C474.712 341.93 473.363 342.282 472.136 342.918C470.908 343.555 469.831 344.461 468.981 345.572L448.292 339.598L441.696 351.644L471.028 359.659C472.937 361.005 475.26 361.583 477.556 361.285C479.853 360.987 481.963 359.833 483.487 358.041C485.011 356.25 485.844 353.945 485.826 351.564C485.809 349.184 484.944 346.892 483.394 345.124H483.394Z" fill="#FFB6B6"/>
<path d="M434.023 358.493C424.186 358.494 410.877 352.562 395.078 341.072C394.198 340.445 393.453 339.636 392.893 338.697C392.332 337.758 391.967 336.71 391.82 335.618C390.655 328.024 397.857 317.757 398.563 316.773L406.133 295.388C406.22 295.04 408.66 285.788 414.785 282.496C416.075 281.815 417.492 281.43 418.94 281.367C420.388 281.303 421.832 281.563 423.174 282.128C434.84 286.498 425.73 320.242 424.48 324.667L439.937 332.151L449.753 338.587L463.195 340.033L459.546 357.407L439.131 357.88C437.459 358.3 435.744 358.506 434.023 358.493V358.493Z" fill="#2F2E41"/>
<path d="M470.997 229.17C469.356 231.364 463.705 233.305 456.993 234.872C457.004 234.728 457.004 234.585 457.004 234.442C456.97 232.246 456.704 230.06 456.211 227.923C455.746 230.54 454.769 233.032 453.337 235.247C453.23 235.412 453.122 235.577 453.004 235.743C447.247 236.912 441.156 237.816 436.385 238.423C439.666 250.577 452.243 260.547 450.881 267.937L414.029 275.679C414.256 272.609 414.017 269.52 413.321 266.525C412.616 270.478 410.753 274.115 407.981 276.948L404.851 277.609L403.918 272.878C395.833 252.904 407.102 232.456 425.566 221.879C428.858 216.803 433.97 213.274 439.784 212.063L444.384 211.093C447.285 210.482 450.275 210.465 453.183 211.043C456.09 211.621 458.859 212.783 461.33 214.462C463.801 216.14 465.927 218.303 467.586 220.827C469.244 223.35 470.403 226.185 470.997 229.17Z" fill="#2F2E41"/>
<path d="M559.031 611.275L559.576 598.672C565.257 595.548 571.593 593.898 578.034 593.865C569.169 601.321 570.277 615.692 564.266 625.718C562.369 628.83 559.814 631.463 556.792 633.422C553.771 635.381 550.359 636.615 546.811 637.033L539.392 641.705C538.374 635.868 538.598 629.873 540.05 624.133C541.501 618.393 544.145 613.045 547.799 608.458C549.874 605.905 552.253 603.632 554.88 601.69C556.657 606.51 559.031 611.275 559.031 611.275Z" fill="#F2F2F2"/>
</g>
<defs>
<clipPath id="clip0_529_732">
<rect width="1050" height="742" fill="white"/>
</clipPath>
</defs>
</svg>
