<svg width="150" height="150" viewBox="0 0 227 199" fill="none" xmlns="http://www.w3.org/2000/svg">
<path d="M217.849 78.8831C217.849 113.405 195.057 142.746 163.312 153.441C150.534 157.721 136.863 158.847 123.528 156.718C122.262 156.517 121.005 156.286 119.758 156.025C118.067 155.676 116.397 155.274 114.746 154.82C80.6645 145.488 55.6846 115.024 55.6846 78.8831C55.6846 35.3169 91.9862 0 136.767 0C181.548 0 217.849 35.3169 217.849 78.8831Z" fill="#E6E6E6"/>
<path d="M85.982 103.23C85.8393 103.304 85.7327 103.431 85.6856 103.581C85.6385 103.732 85.6548 103.895 85.7309 104.034L116.216 159.584C116.292 159.723 116.422 159.826 116.577 159.872C116.732 159.918 116.899 159.902 117.042 159.828L160.135 137.445C160.278 137.37 160.385 137.244 160.432 137.093C160.479 136.942 160.463 136.78 160.386 136.641L129.902 81.0908C129.825 80.952 129.695 80.8482 129.54 80.8025C129.385 80.7567 129.218 80.7725 129.075 80.8466L85.982 103.23Z" fill="#3F3D56"/>
<path d="M89.9878 104.853L117.885 155.686L156.13 135.821L128.233 84.9879L89.9878 104.853ZM87.5643 106.112L87.5697 106.109L87.5637 106.112L87.5643 106.112Z" fill="white"/>
<path d="M99.6309 110.442C99.0367 110.75 98.9102 111.651 99.3484 112.45C99.7866 113.248 100.626 113.647 101.221 113.339L129.231 98.7894C129.825 98.4808 129.952 97.5799 129.514 96.7814C129.075 95.9829 128.236 95.584 127.641 95.8926L99.6309 110.442Z" fill="#3ACEAA"/>
<path d="M103.082 116.73C102.488 117.039 102.361 117.94 102.8 118.738C103.238 119.537 104.078 119.936 104.672 119.627L132.682 105.078C133.277 104.77 133.403 103.869 132.965 103.07C132.527 102.272 131.687 101.873 131.093 102.181L103.082 116.73Z" fill="#3ACEAA"/>
<path d="M106.533 123.019C105.939 123.328 105.813 124.229 106.251 125.027C106.689 125.826 107.529 126.225 108.123 125.916L136.134 111.367C136.728 111.058 136.854 110.157 136.416 109.359C135.978 108.56 135.138 108.161 134.544 108.47L106.533 123.019Z" fill="#3ACEAA"/>
<path d="M109.984 129.308C109.39 129.616 109.263 130.517 109.702 131.316C110.14 132.114 110.98 132.513 111.574 132.205L139.585 117.655C140.179 117.347 140.305 116.446 139.867 115.647C139.429 114.849 138.589 114.45 137.995 114.759L109.984 129.308Z" fill="#3ACEAA"/>
<path d="M113.435 135.596C112.841 135.905 112.715 136.806 113.153 137.604C113.591 138.403 114.431 138.802 115.025 138.493L143.036 123.944C143.63 123.635 143.756 122.735 143.318 121.936C142.88 121.138 142.04 120.739 141.446 121.047L113.435 135.596Z" fill="#3ACEAA"/>
<path d="M118.875 79.2304L144.256 80.7382L151.364 60.1156L129.102 55.5395L118.875 79.2304Z" fill="#2F2E41"/>
<path d="M137.179 74.0155C142.785 74.0155 147.33 69.5941 147.33 64.1399C147.33 58.6858 142.785 54.2643 137.179 54.2643C131.573 54.2643 127.028 58.6858 127.028 64.1399C127.028 69.5941 131.573 74.0155 137.179 74.0155Z" fill="#FFB8B8"/>
<path d="M163.246 152.672L163.312 153.441C150.534 157.721 136.863 158.847 123.527 156.718L119.758 156.026L123.345 148.286L125.697 143.212L124.85 125.66L124.76 123.844L124.649 121.527L126.181 121.518L137.072 121.454L147.451 121.39L149.034 121.381C158.958 133.257 167.147 142.909 163.246 152.672Z" fill="#2F2E41"/>
<path d="M148.884 121.235L124.649 123.855L123.752 107.555C120.908 100.498 122.785 94.1986 128.688 88.546L129.888 83.9249C130.203 82.7119 130.854 81.6062 131.77 80.728C132.685 79.8498 133.831 79.2327 135.082 78.9439C139.049 76.7304 143.543 75.6754 148.585 75.8268C150.599 76.5917 152.306 77.9664 153.455 79.7479C154.604 81.5293 155.133 83.623 154.965 85.7196C153.923 98.53 152.051 110.522 148.884 121.235Z" fill="#3ACEAA"/>
<path d="M129.5 52.472C129.5 52.472 124.252 54.3354 124.117 61.1103C124.109 62.2503 124.266 63.3858 124.582 64.4837C124.922 65.7288 125.195 68.4304 122.906 72.0317C121.411 74.3693 120.059 76.7909 118.857 79.2838L124.767 79.8385L125.744 70.3071C126.218 65.6861 127.389 61.1581 129.219 56.8688L129.257 56.7792C129.257 56.7792 131.968 61.3639 137.121 61.2226L135.229 59.4826C135.229 59.4826 141.683 61.8472 145.193 62.322C145.593 62.3763 145.971 62.5358 146.285 62.7835C146.6 63.0311 146.838 63.3575 146.976 63.7274C147.114 64.0973 147.145 64.4968 147.067 64.8827C146.989 65.2687 146.803 65.6266 146.531 65.9178C146.511 65.9397 146.49 65.9617 146.468 65.9838C144.322 68.1929 140.05 73.3273 142.741 77.1957C145.432 81.0641 143.254 82.199 143.254 82.199L147.241 79.9394L149.05 78.8147L149.092 80.2471L158.631 78.9105C158.631 78.9105 161.197 78.4818 155.499 72.5455C155.499 72.5455 153.973 70.2214 154.552 68.165C155.031 66.6011 155.121 64.9487 154.814 63.3442C153.383 56.665 148.144 43.4515 129.5 52.472Z" fill="#2F2E41"/>
<path d="M136.767 198.272C156.926 198.272 173.269 197.36 173.269 196.235C173.269 195.109 156.926 194.197 136.767 194.197C116.607 194.197 100.265 195.109 100.265 196.235C100.265 197.36 116.607 198.272 136.767 198.272Z" fill="#E6E6E6"/>
<path d="M0.222105 93.8833C0.145471 93.9032 0.0801002 93.9519 0.0403389 94.0187C0.000577709 94.0855 -0.0103279 94.1649 0.0100202 94.2395L8.17515 124.054C8.19566 124.129 8.24572 124.192 8.31436 124.231C8.38301 124.27 8.46462 124.28 8.54129 124.26L31.6702 118.265C31.7468 118.245 31.8122 118.196 31.852 118.13C31.8917 118.063 31.9026 117.984 31.8823 117.909L23.7172 88.0944C23.6967 88.0198 23.6466 87.9562 23.578 87.9176C23.5093 87.8789 23.4277 87.8683 23.351 87.8881L0.222105 93.8833Z" fill="#F2F2F2"/>
<path d="M5.9055 98.8072C5.5866 98.8899 5.42281 99.3059 5.54018 99.7345C5.65754 100.163 6.0124 100.445 6.3313 100.362L21.3651 96.4651C21.684 96.3825 21.8478 95.9664 21.7304 95.5379C21.613 95.1093 21.2582 94.8277 20.9393 94.9103L5.9055 98.8072Z" fill="white"/>
<path d="M6.82982 102.182C6.51092 102.265 6.34713 102.681 6.46449 103.11C6.58186 103.538 6.93672 103.82 7.25562 103.737L22.2894 99.8403C22.6083 99.7577 22.7721 99.3416 22.6547 98.913C22.5374 98.4845 22.1825 98.2029 21.8636 98.2855L6.82982 102.182Z" fill="white"/>
<path d="M7.75438 105.558C7.43548 105.64 7.27169 106.056 7.38905 106.485C7.50642 106.913 7.86128 107.195 8.18017 107.112L23.214 103.216C23.5329 103.133 23.6967 102.717 23.5793 102.288C23.4619 101.86 23.1071 101.578 22.7882 101.661L7.75438 105.558Z" fill="white"/>
<path d="M8.67869 108.933C8.3598 109.016 8.196 109.432 8.31337 109.86C8.43074 110.289 8.7856 110.57 9.10449 110.488L24.1383 106.591C24.4572 106.508 24.621 106.092 24.5036 105.664C24.3862 105.235 24.0314 104.953 23.7125 105.036L8.67869 108.933Z" fill="white"/>
<path d="M9.60301 112.308C9.28411 112.391 9.12032 112.807 9.23769 113.235C9.35505 113.664 9.70991 113.946 10.0288 113.863L25.0626 109.966C25.3815 109.883 25.5453 109.467 25.4279 109.039C25.3106 108.61 24.9557 108.329 24.6368 108.411L9.60301 112.308Z" fill="white"/>
<path d="M10.5273 115.683C10.2084 115.766 10.0446 116.182 10.162 116.611C10.2794 117.039 10.6342 117.321 10.9531 117.238L25.9869 113.341C26.3058 113.259 26.4696 112.843 26.3522 112.414C26.2349 111.985 25.88 111.704 25.5611 111.786L10.5273 115.683Z" fill="white"/>
<path d="M59.3296 198.933C59.3296 198.97 59.4637 199 59.6288 199H91.3437C91.5088 199 91.6429 198.97 91.6429 198.933V193.537C91.6429 193.5 91.5088 193.469 91.3437 193.469H59.6288C59.4637 193.469 59.3296 193.5 59.3296 193.537V198.933Z" fill="#F2F2F2"/>
<path d="M65.6836 197.988C65.6836 198.063 66.0547 198.123 66.5105 198.123C66.9664 198.123 67.3375 198.063 67.3375 197.988V194.481C67.3375 194.407 66.9664 194.346 66.5105 194.346C66.0547 194.346 65.6836 194.407 65.6836 194.481V197.988Z" fill="white"/>
<path d="M69.2739 197.988C69.2739 198.063 69.645 198.123 70.1009 198.123C70.5567 198.123 70.9278 198.063 70.9278 197.988V194.481C70.9278 194.407 70.5567 194.346 70.1009 194.346C69.645 194.346 69.2739 194.407 69.2739 194.481V197.988Z" fill="white"/>
<path d="M72.8643 197.988C72.8643 198.063 73.2353 198.123 73.6912 198.123C74.1471 198.123 74.5182 198.063 74.5182 197.988V194.481C74.5182 194.407 74.1471 194.346 73.6912 194.346C73.2353 194.346 72.8643 194.407 72.8643 194.481V197.988Z" fill="white"/>
<path d="M76.4546 197.988C76.4546 198.063 76.8257 198.123 77.2815 198.123C77.7374 198.123 78.1085 198.063 78.1085 197.988V194.481C78.1085 194.407 77.7374 194.346 77.2815 194.346C76.8257 194.346 76.4546 194.407 76.4546 194.481V197.988Z" fill="white"/>
<path d="M80.0449 197.988C80.0449 198.063 80.416 198.123 80.8719 198.123C81.3277 198.123 81.6988 198.063 81.6988 197.988V194.481C81.6988 194.407 81.3277 194.346 80.8719 194.346C80.416 194.346 80.0449 194.407 80.0449 194.481V197.988Z" fill="white"/>
<path d="M83.6353 197.988C83.6353 198.063 84.0063 198.123 84.4622 198.123C84.9181 198.123 85.2891 198.063 85.2891 197.988V194.481C85.2891 194.407 84.9181 194.346 84.4622 194.346C84.0063 194.346 83.6353 194.407 83.6353 194.481V197.988Z" fill="white"/>
<path d="M1.07053 72.3679C1.00059 72.4043 0.948354 72.4662 0.925291 72.5401C0.902228 72.6139 0.910219 72.6937 0.947511 72.7618L15.8845 99.9801C15.9219 100.048 15.9855 100.099 16.0614 100.121C16.1373 100.144 16.2193 100.136 16.2893 100.1L37.4042 89.1324C37.4741 89.0959 37.5263 89.034 37.5494 88.9602C37.5725 88.8863 37.5645 88.8066 37.5272 88.7385L22.5902 61.5202C22.5528 61.4522 22.4891 61.4013 22.4132 61.3789C22.3373 61.3565 22.2554 61.3642 22.1854 61.4005L1.07053 72.3679Z" fill="#E6E6E6"/>
<path d="M3.03343 73.1633L16.7023 98.0704L35.4417 88.337L21.7729 63.4297L3.03343 73.1633ZM1.846 73.78L1.84862 73.7787L1.8457 73.7801L1.846 73.78Z" fill="white"/>
<path d="M7.75822 75.9015C7.46711 76.0528 7.40512 76.4942 7.61982 76.8854C7.83453 77.2767 8.24604 77.4722 8.53716 77.3209L22.2618 70.1921C22.5529 70.0409 22.6149 69.5995 22.4002 69.2083C22.1855 68.817 21.774 68.6215 21.4829 68.7727L7.75822 75.9015Z" fill="#3ACEAA"/>
<path d="M9.44914 78.9829C9.15802 79.1341 9.09604 79.5755 9.31074 79.9668C9.52545 80.358 9.93696 80.5535 10.2281 80.4023L23.9527 73.2735C24.2438 73.1223 24.3058 72.6808 24.0911 72.2896C23.8764 71.8983 23.4649 71.7029 23.1738 71.8541L9.44914 78.9829Z" fill="#3ACEAA"/>
<path d="M11.1403 82.0642C10.8492 82.2154 10.7872 82.6569 11.0019 83.0481C11.2166 83.4393 11.6281 83.6348 11.9192 83.4836L25.6439 76.3548C25.935 76.2036 25.997 75.7621 25.7823 75.3709C25.5676 74.9797 25.1561 74.7842 24.865 74.9354L11.1403 82.0642Z" fill="#3ACEAA"/>
<path d="M12.831 85.1455C12.5399 85.2967 12.4779 85.7381 12.6926 86.1294C12.9073 86.5206 13.3188 86.7161 13.6099 86.5649L27.3346 79.4361C27.6257 79.2849 27.6877 78.8435 27.473 78.4522C27.2583 78.061 26.8467 77.8655 26.5556 78.0167L12.831 85.1455Z" fill="#3ACEAA"/>
<path d="M14.5221 88.2268C14.231 88.378 14.169 88.8195 14.3837 89.2107C14.5985 89.6019 15.01 89.7974 15.3011 89.6462L29.0257 82.5174C29.3169 82.3662 29.3788 81.9248 29.1641 81.5335C28.9494 81.1423 28.5379 80.9468 28.2468 81.098L14.5221 88.2268Z" fill="#3ACEAA"/>
<path d="M16.2131 91.3081C15.9219 91.4594 15.86 91.9008 16.0747 92.292C16.2894 92.6833 16.7009 92.8788 16.992 92.7275L30.7167 85.5987C31.0078 85.4475 31.0698 85.0061 30.8551 84.6148C30.6404 84.2236 30.2288 84.0281 29.9377 84.1793L16.2131 91.3081Z" fill="#3ACEAA"/>
<path d="M206.246 141.924C206.178 141.885 206.097 141.874 206.02 141.893C205.943 141.912 205.877 141.96 205.837 142.027L189.702 168.59C189.661 168.656 189.65 168.736 189.67 168.81C189.689 168.885 189.739 168.949 189.807 168.988L210.414 180.835C210.482 180.875 210.564 180.886 210.64 180.867C210.717 180.847 210.783 180.799 210.823 180.733L226.958 154.17C226.999 154.103 227.01 154.024 226.991 153.949C226.971 153.875 226.921 153.81 226.853 153.771L206.246 141.924Z" fill="#E6E6E6"/>
<path d="M206.568 143.969L191.804 168.276L210.092 178.791L224.857 154.483L206.568 143.969ZM205.41 143.302L205.412 143.304L205.409 143.302L205.41 143.302Z" fill="white"/>
<path d="M206.62 149.319C206.336 149.156 205.916 149.333 205.684 149.715C205.452 150.097 205.495 150.541 205.779 150.704L219.173 158.405C219.457 158.568 219.877 158.39 220.109 158.008C220.341 157.626 220.299 157.183 220.015 157.019L206.62 149.319Z" fill="#3ACEAA"/>
<path d="M204.793 152.326C204.509 152.163 204.089 152.341 203.857 152.723C203.626 153.104 203.668 153.548 203.952 153.711L217.346 161.412C217.63 161.575 218.05 161.397 218.282 161.015C218.514 160.634 218.472 160.19 218.188 160.027L204.793 152.326Z" fill="#3ACEAA"/>
<path d="M202.967 155.333C202.683 155.17 202.263 155.348 202.031 155.73C201.799 156.112 201.841 156.555 202.125 156.719L215.52 164.419C215.804 164.582 216.224 164.404 216.456 164.023C216.688 163.641 216.645 163.197 216.361 163.034L202.967 155.333Z" fill="#3ACEAA"/>
<path d="M201.14 158.34C200.856 158.177 200.436 158.355 200.204 158.737C199.972 159.119 200.015 159.562 200.299 159.726L213.693 167.426C213.977 167.59 214.397 167.412 214.629 167.03C214.861 166.648 214.819 166.204 214.535 166.041L201.14 158.34Z" fill="#3ACEAA"/>
<path d="M199.314 161.348C199.03 161.184 198.61 161.362 198.378 161.744C198.146 162.126 198.188 162.569 198.472 162.733L211.867 170.433C212.151 170.597 212.571 170.419 212.803 170.037C213.035 169.655 212.992 169.211 212.708 169.048L199.314 161.348Z" fill="#3ACEAA"/>
<path d="M197.487 164.355C197.203 164.191 196.783 164.369 196.551 164.751C196.319 165.133 196.361 165.577 196.645 165.74L210.04 173.441C210.324 173.604 210.744 173.426 210.976 173.044C211.208 172.662 211.165 172.219 210.881 172.055L197.487 164.355Z" fill="#3ACEAA"/>
<path d="M131.83 93.5827L131.519 95.4573L128.24 115.123L126.181 121.518L125.457 123.768L124.85 125.66L117.469 148.597L115.443 153.226C114.332 153.626 113.377 154.354 112.712 155.307C112.047 156.261 111.705 157.393 111.733 158.546C111.762 159.698 112.16 160.813 112.872 161.734C113.584 162.655 114.574 163.337 115.704 163.684C116.834 164.031 118.047 164.026 119.173 163.669C120.3 163.313 121.284 162.623 121.987 161.695C122.691 160.768 123.079 159.65 123.097 158.497C123.116 157.345 122.763 156.216 122.09 155.267L136.536 122.572L137.072 121.454L138.712 118.034L141.808 95.303L142.003 93.8738L131.83 93.5827Z" fill="#FFB8B8"/>
<path d="M143.798 95.9114C139.096 94.2675 134.585 94.0928 130.334 95.9114L131.722 84.2113C131.671 82.7502 132.211 81.3281 133.227 80.2506C134.243 79.1732 135.652 78.5265 137.153 78.4497C138.672 78.3719 140.161 78.8844 141.291 79.8745C142.422 80.8645 143.102 82.251 143.182 83.7289L143.183 83.7481L143.798 95.9114Z" fill="#3ACEAA"/>
</svg>
