<svg width="421" height="444" viewBox="0 0 421 444" fill="none" xmlns="http://www.w3.org/2000/svg">
<path d="M309.108 427.508L282.912 410.793L317.033 420.559C338.469 400.087 354.171 371.724 354.171 371.724C354.171 371.724 296.76 336.678 261.396 346.03C226.031 355.382 219.245 379.665 226.105 405.591C232.965 431.517 250.874 449.268 286.239 439.916C294.11 437.835 301.842 433.298 309.108 427.508Z" fill="#F2F2F2"/>
<path d="M280.307 405.401L278.564 405.862C258.274 411.117 241.561 411.882 228.655 408.122C228.466 408.071 228.284 408.008 228.094 407.957L228.353 407.085L228.613 406.251C242.601 410.508 260.289 408.646 277.988 404.067C278.559 403.925 279.14 403.781 279.716 403.619C287.191 401.615 294.638 399.156 301.796 396.479C302.352 396.276 302.914 396.063 303.476 395.85C312.907 392.267 321.787 388.349 329.441 384.719C329.983 384.465 330.523 384.202 331.054 383.942C343.985 377.744 353.147 372.487 355.171 371.306C355.42 371.166 355.555 371.084 355.588 371.066L356.037 371.824L356.048 371.831L356.501 372.597C356.468 372.615 356.015 372.892 355.164 373.375C351.991 375.202 343.349 380.053 331.736 385.644C331.211 385.894 330.671 386.157 330.129 386.411C323.92 389.363 316.937 392.493 309.525 395.469C307.665 396.219 305.823 396.937 304.001 397.622C303.441 397.844 302.879 398.057 302.323 398.259C294.585 401.155 287.246 403.535 280.307 405.401Z" fill="white"/>
<path d="M331.736 385.644C331.505 385.087 331.272 384.521 331.054 383.942C330.46 382.369 329.947 380.767 329.516 379.142C327.675 372.219 327.41 364.971 328.742 357.932C328.189 357.691 327.636 357.449 327.072 357.202C325.601 364.625 325.847 372.285 327.79 379.599C328.25 381.333 328.801 383.042 329.441 384.719C329.656 385.29 329.889 385.856 330.129 386.411C332.076 391.001 334.709 395.269 337.938 399.069C338.314 398.572 338.684 398.087 339.048 397.612C336.034 394.004 333.57 389.972 331.736 385.644Z" fill="white"/>
<path d="M304.001 397.622C303.809 397.036 303.634 396.445 303.476 395.85C303.42 395.671 303.37 395.481 303.322 395.3C301.336 387.796 301.195 379.923 302.91 372.352C304.626 364.781 308.147 357.738 313.174 351.822C312.573 351.611 311.973 351.401 311.366 351.201C306.314 357.318 302.793 364.55 301.094 372.298C299.395 380.046 299.567 388.088 301.596 395.756C301.66 395.998 301.724 396.239 301.796 396.479C301.965 397.08 302.139 397.671 302.323 398.259C305.232 407.345 310.698 415.402 318.066 421.465C318.502 421.054 318.938 420.643 319.372 420.224C312.157 414.346 306.815 406.491 304.001 397.622Z" fill="white"/>
<path d="M280.307 405.401C280.096 404.811 279.901 404.216 279.716 403.619C279.519 402.979 279.33 402.337 279.159 401.69C276.502 391.603 277.185 380.927 281.106 371.261C285.026 361.595 291.973 353.458 300.907 348.069C300.105 347.866 299.312 347.66 298.515 347.474C289.699 353.215 282.917 361.588 279.132 371.403C275.348 381.217 274.753 391.974 277.433 402.146C277.604 402.793 277.784 403.438 277.988 404.067C278.167 404.675 278.361 405.27 278.564 405.862C282.746 417.807 291.313 427.717 302.529 433.585C303.12 433.235 303.695 432.862 304.279 432.486C293.069 426.917 284.471 417.202 280.307 405.401Z" fill="white"/>
<path d="M245.647 440.773L116.106 388.647C108.343 385.513 102.141 379.429 98.8601 371.729C95.579 364.029 95.487 355.343 98.6043 347.576L230.589 19.7805C233.724 12.0202 239.81 5.81986 247.512 2.53975C255.214 -0.740361 263.903 -0.832364 271.673 2.28392L401.213 54.4102C408.976 57.5441 415.178 63.6282 418.459 71.3279C421.741 79.0275 421.833 87.7138 418.715 95.4812L286.731 423.276C283.596 431.037 277.51 437.237 269.808 440.517C262.106 443.797 253.417 443.889 245.647 440.773Z" fill="#3F3D56"/>
<path d="M396.103 62.9178L381.684 57.1156C380.397 56.599 378.957 56.6141 377.681 57.1577C376.404 57.7012 375.396 58.7287 374.877 60.0147C373.815 62.644 371.753 64.7448 369.144 65.8561C366.535 66.9674 363.591 66.9983 360.959 65.942L290.437 37.5645C287.807 36.5033 285.705 34.4422 284.594 31.8337C283.482 29.2251 283.451 26.2822 284.508 23.6509C285.024 22.3639 285.009 20.9245 284.466 19.6486C283.922 18.3728 282.894 17.3647 281.608 16.8456L268.893 11.7294C263 9.36685 256.411 9.4371 250.569 11.9248C244.728 14.4125 240.112 19.1145 237.734 24.9997L106.687 350.465C104.324 356.356 104.394 362.944 106.883 368.783C109.371 374.623 114.074 379.238 119.961 381.615L247.171 432.803C253.064 435.166 259.654 435.096 265.496 432.608C271.337 430.12 275.953 425.418 278.331 419.533L409.378 94.068C411.741 88.1768 411.671 81.589 409.182 75.7495C406.694 69.91 401.99 65.2954 396.103 62.9178Z" fill="white"/>
<path d="M346.776 50.6616L306.991 34.6524C306.614 34.5008 306.313 34.2057 306.154 33.8321C305.995 33.4585 305.991 33.0369 306.142 32.6602C306.294 32.2835 306.589 31.9824 306.963 31.8232C307.337 31.6641 307.758 31.6599 308.135 31.8115L347.92 47.8207C348.107 47.8958 348.277 48.0069 348.42 48.1476C348.564 48.2884 348.678 48.4561 348.757 48.641C348.836 48.826 348.878 49.0248 348.88 49.2258C348.882 49.4269 348.844 49.6264 348.769 49.8129C348.694 49.9995 348.583 50.1694 348.442 50.313C348.301 50.4566 348.133 50.5711 347.948 50.6499C347.763 50.7287 347.565 50.7703 347.363 50.7723C347.162 50.7743 346.963 50.7367 346.776 50.6616Z" fill="white"/>
<path d="M353.6 52.9819C354.277 52.9819 354.825 52.4334 354.825 51.7569C354.825 51.0804 354.277 50.5319 353.6 50.5319C352.923 50.5319 352.375 51.0804 352.375 51.7569C352.375 52.4334 352.923 52.9819 353.6 52.9819Z" fill="white"/>
<path d="M379.597 195.916C378.919 195.642 378.377 195.111 378.091 194.439C377.804 193.767 377.796 193.008 378.069 192.33L398.201 142.33C398.474 141.653 399.006 141.112 399.678 140.826C400.35 140.54 401.109 140.532 401.787 140.805C402.465 141.078 403.006 141.609 403.293 142.28C403.58 142.952 403.588 143.71 403.316 144.388L383.184 194.388C382.91 195.066 382.379 195.607 381.706 195.894C381.034 196.18 380.275 196.188 379.597 195.916Z" fill="#3F3D56"/>
<path d="M205.204 82.8261C204.526 82.5525 203.985 82.0213 203.698 81.349C203.412 80.6768 203.404 79.9183 203.676 79.2402L208.252 67.8765C208.386 67.5402 208.586 67.2337 208.839 66.9746C209.093 66.7155 209.395 66.5089 209.728 66.3666C210.062 66.2243 210.42 66.1491 210.782 66.1453C211.145 66.1415 211.504 66.2092 211.84 66.3445C212.177 66.4798 212.483 66.6801 212.742 66.9338C213 67.1875 213.207 67.4898 213.348 67.8233C213.49 68.1568 213.565 68.5149 213.568 68.8772C213.571 69.2396 213.503 69.599 213.367 69.9349L208.791 81.2985C208.518 81.9761 207.986 82.5174 207.314 82.8038C206.641 83.0902 205.883 83.0982 205.204 82.8261Z" fill="#3F3D56"/>
<path d="M196.74 103.849C196.062 103.575 195.52 103.044 195.234 102.372C194.947 101.699 194.939 100.941 195.211 100.263L199.787 88.8992C199.922 88.5628 200.121 88.2562 200.375 87.997C200.628 87.7379 200.93 87.5312 201.264 87.3888C201.597 87.2465 201.955 87.1713 202.318 87.1674C202.68 87.1636 203.04 87.2313 203.376 87.3667C203.712 87.502 204.019 87.7023 204.277 87.956C204.536 88.2098 204.742 88.5122 204.884 88.8457C205.026 89.1792 205.1 89.5374 205.103 89.8998C205.107 90.2622 205.038 90.6216 204.902 90.9576L200.327 102.321C200.053 102.999 199.522 103.54 198.849 103.827C198.177 104.113 197.418 104.121 196.74 103.849Z" fill="#3F3D56"/>
<path d="M318.29 152.109L263.26 129.965C262.132 129.508 261.231 128.624 260.754 127.505C260.277 126.386 260.263 125.124 260.714 123.994L273.922 91.1924C274.379 90.0653 275.264 89.1649 276.383 88.6881C277.502 88.2112 278.765 88.1968 279.894 88.6479L334.925 110.792C336.052 111.249 336.953 112.133 337.43 113.252C337.907 114.371 337.921 115.633 337.47 116.762L324.263 149.564C323.806 150.691 322.921 151.592 321.802 152.068C320.683 152.545 319.42 152.56 318.29 152.109ZM278.967 90.9555C278.449 90.749 277.87 90.7558 277.357 90.9744C276.844 91.193 276.439 91.6056 276.229 92.1222L263.023 124.922C262.816 125.439 262.823 126.018 263.042 126.531C263.26 127.044 263.673 127.449 264.19 127.659L319.216 149.801C319.734 150.008 320.313 150.001 320.827 149.782C321.34 149.564 321.746 149.151 321.956 148.634L335.162 115.835C335.368 115.317 335.362 114.739 335.143 114.226C334.924 113.713 334.511 113.308 333.995 113.098L278.967 90.9555Z" fill="#3F3D56"/>
<path d="M318.617 131.236L318.614 131.235L276.134 114.142C275.542 113.902 275.038 113.485 274.69 112.949C274.343 112.412 274.17 111.782 274.194 111.144L274.995 91.2539C275.016 90.7583 275.154 90.2747 275.4 89.8438C275.646 89.4129 275.992 89.0472 276.408 88.7776C276.824 88.5079 277.3 88.3421 277.794 88.2941C278.287 88.2462 278.786 88.3174 279.246 88.5018L335.465 111.013C336.224 111.317 336.833 111.91 337.157 112.661C337.482 113.413 337.496 114.262 337.196 115.024L337.38 115.208L335.618 116.963L335.617 116.963L321.96 130.557C321.531 130.986 320.985 131.278 320.39 131.399C319.796 131.52 319.179 131.463 318.617 131.236Z" fill="#3F3D56"/>
<path d="M286.718 132.683L267.824 125.081C267.359 124.893 266.988 124.529 266.791 124.067C266.595 123.606 266.589 123.085 266.777 122.62C266.964 122.155 267.328 121.783 267.79 121.586C268.251 121.39 268.772 121.384 269.238 121.571L288.131 129.174C288.596 129.361 288.967 129.726 289.164 130.187C289.36 130.649 289.366 131.169 289.178 131.634C288.991 132.1 288.627 132.471 288.165 132.668C287.704 132.865 287.183 132.87 286.718 132.683V132.683Z" fill="#3F3D56"/>
<path d="M298.414 126.39C300.969 126.39 303.039 124.32 303.039 121.767C303.039 119.214 300.969 117.144 298.414 117.144C295.86 117.144 293.79 119.214 293.79 121.767C293.79 124.32 295.86 126.39 298.414 126.39Z" fill="white"/>
<path d="M236.231 355.909L181.201 333.766C180.073 333.309 179.173 332.424 178.696 331.305C178.219 330.186 178.204 328.924 178.656 327.794L191.863 294.993C192.32 293.866 193.205 292.965 194.324 292.488C195.443 292.011 196.706 291.997 197.836 292.448L252.866 314.592C253.993 315.049 254.894 315.933 255.371 317.052C255.848 318.171 255.863 319.433 255.412 320.562L242.204 353.365C241.747 354.492 240.862 355.392 239.743 355.869C238.624 356.346 237.361 356.36 236.231 355.909ZM196.908 294.756C196.39 294.549 195.811 294.556 195.298 294.775C194.785 294.993 194.38 295.406 194.17 295.922L180.964 328.722C180.757 329.24 180.764 329.818 180.983 330.331C181.201 330.844 181.614 331.249 182.131 331.459L237.157 353.601C237.676 353.808 238.255 353.801 238.768 353.583C239.281 353.364 239.687 352.951 239.897 352.434L253.103 319.635C253.31 319.117 253.303 318.539 253.084 318.026C252.865 317.513 252.452 317.108 251.936 316.899L196.908 294.756Z" fill="#3F3D56"/>
<path d="M236.558 335.037L236.555 335.035L194.075 317.942C193.483 317.702 192.979 317.285 192.631 316.749C192.284 316.213 192.111 315.582 192.134 314.944L192.936 295.054C192.956 294.559 193.095 294.075 193.341 293.644C193.587 293.213 193.932 292.847 194.349 292.578C194.765 292.308 195.241 292.142 195.734 292.094C196.228 292.046 196.727 292.118 197.187 292.302L253.406 314.813C254.165 315.118 254.774 315.71 255.098 316.462C255.423 317.213 255.437 318.062 255.137 318.824L255.321 319.009L253.559 320.764L253.558 320.763L239.901 334.357C239.472 334.786 238.926 335.079 238.331 335.199C237.737 335.32 237.12 335.264 236.558 335.037Z" fill="#3F3D56"/>
<path d="M204.659 336.483L185.766 328.881C185.3 328.693 184.929 328.329 184.732 327.867C184.536 327.406 184.531 326.886 184.718 326.42C184.905 325.955 185.27 325.583 185.731 325.387C186.193 325.19 186.713 325.185 187.179 325.372L206.072 332.974C206.302 333.067 206.512 333.204 206.69 333.378C206.867 333.552 207.009 333.759 207.106 333.987C207.203 334.216 207.255 334.461 207.257 334.71C207.26 334.958 207.213 335.205 207.12 335.435C207.028 335.665 206.89 335.875 206.716 336.053C206.543 336.23 206.335 336.371 206.107 336.469C205.878 336.566 205.633 336.618 205.384 336.62C205.136 336.623 204.889 336.576 204.659 336.483Z" fill="#3F3D56"/>
<path d="M216.356 330.191C218.91 330.191 220.98 328.121 220.98 325.567C220.98 323.014 218.91 320.944 216.356 320.944C213.801 320.944 211.731 323.014 211.731 325.567C211.731 328.121 213.801 330.191 216.356 330.191Z" fill="white"/>
<path d="M258.033 272.837C285.97 272.837 308.619 250.196 308.619 222.266C308.619 194.337 285.97 171.696 258.033 171.696C230.095 171.696 207.447 194.337 207.447 222.266C207.447 250.196 230.095 272.837 258.033 272.837Z" fill="#3ACEAA"/>
<path d="M277.231 253.997L222.2 231.853C221.072 231.396 220.172 230.512 219.695 229.393C219.218 228.274 219.203 227.012 219.655 225.882L232.862 193.08C233.319 191.953 234.204 191.053 235.323 190.576C236.442 190.099 237.705 190.085 238.835 190.536L293.865 212.68C294.993 213.137 295.893 214.021 296.37 215.14C296.847 216.259 296.862 217.521 296.411 218.65L283.203 251.452C282.746 252.579 281.861 253.48 280.742 253.956C279.623 254.433 278.361 254.448 277.231 253.997ZM237.907 192.843C237.389 192.637 236.811 192.644 236.298 192.862C235.785 193.081 235.379 193.494 235.17 194.01L221.963 226.81C221.757 227.327 221.763 227.906 221.982 228.419C222.201 228.932 222.613 229.337 223.13 229.547L278.157 251.689C278.675 251.896 279.254 251.889 279.767 251.67C280.28 251.452 280.686 251.039 280.896 250.522L294.102 217.723C294.309 217.205 294.302 216.627 294.083 216.114C293.865 215.601 293.452 215.196 292.935 214.986L237.907 192.843Z" fill="#3F3D56"/>
<path d="M277.557 233.124L277.554 233.123L235.074 216.03C234.482 215.79 233.978 215.373 233.631 214.837C233.284 214.3 233.11 213.67 233.134 213.032L233.936 193.142C233.956 192.646 234.094 192.163 234.34 191.732C234.586 191.301 234.932 190.935 235.348 190.666C235.765 190.396 236.24 190.23 236.734 190.182C237.228 190.134 237.726 190.205 238.186 190.39L294.405 212.901C295.165 213.205 295.773 213.798 296.098 214.549C296.422 215.301 296.436 216.15 296.136 216.912L296.321 217.096L294.558 218.851L294.558 218.851L280.9 232.445C280.471 232.874 279.925 233.166 279.331 233.287C278.736 233.408 278.119 233.351 277.557 233.124Z" fill="#3F3D56"/>
<path d="M245.658 234.571L226.765 226.969C226.299 226.781 225.928 226.417 225.731 225.955C225.535 225.494 225.53 224.973 225.717 224.508C225.904 224.043 226.269 223.671 226.73 223.474C227.192 223.278 227.712 223.272 228.178 223.459L247.071 231.062C247.536 231.249 247.908 231.614 248.104 232.075C248.301 232.537 248.306 233.057 248.119 233.522C247.931 233.987 247.567 234.359 247.105 234.556C246.644 234.753 246.123 234.758 245.658 234.571Z" fill="#3F3D56"/>
<path d="M121.333 259.283C121.338 258.316 121.131 257.359 120.726 256.481C120.321 255.602 119.728 254.823 118.989 254.198C118.25 253.573 117.384 253.118 116.45 252.864C115.516 252.61 114.538 252.564 113.584 252.729L102.194 232.154L96.5237 242.98L108.209 260.859C108.593 262.442 109.544 263.829 110.882 264.758C112.221 265.687 113.853 266.093 115.471 265.898C117.089 265.704 118.579 264.924 119.659 263.704C120.74 262.485 121.335 260.912 121.333 259.283H121.333Z" fill="#9E616A"/>
<path d="M113.974 176.174L102.261 175.352C102.261 175.352 100.818 175.156 96.8504 181.446C92.8826 187.736 79.2817 219.633 79.2817 219.633L103.11 254.208L110.849 246.506L97.0131 218.685L110.275 200.065L113.974 176.174Z" fill="#CACACA"/>
<path d="M243.101 213.552C242.316 213.851 241.475 213.975 240.637 213.914C239.799 213.853 238.985 213.609 238.251 213.2C237.518 212.79 236.883 212.225 236.392 211.544C235.9 210.863 235.564 210.082 235.407 209.257L215.203 206.283L222.273 198.372L240.376 202.408C241.78 202.237 243.198 202.586 244.362 203.39C245.526 204.194 246.354 205.396 246.69 206.77C247.026 208.144 246.846 209.593 246.184 210.843C245.523 212.093 244.426 213.057 243.101 213.552Z" fill="#9E616A"/>
<path d="M165.436 434.801H174.07L178.177 401.509L165.435 401.51L165.436 434.801Z" fill="#9E616A"/>
<path d="M163.234 431.983L165.664 431.983L175.152 428.126L180.237 431.983H180.238C183.112 431.983 185.868 433.124 187.9 435.156C189.932 437.187 191.073 439.942 191.074 442.815V443.167L163.234 443.168L163.234 431.983Z" fill="#2F2E41"/>
<path d="M113.355 434.801H121.989L126.096 401.509L113.354 401.51L113.355 434.801Z" fill="#9E616A"/>
<path d="M111.153 431.983L113.583 431.983L123.071 428.126L128.156 431.983H128.157C131.03 431.983 133.786 433.124 135.818 435.156C137.85 437.187 138.992 439.942 138.992 442.815V443.167L111.153 443.168L111.153 431.983Z" fill="#2F2E41"/>
<path d="M116.685 270.861L110.979 305.249L112.897 415.788H126.942L148.521 298.862L164.042 413.866L178.164 413.254L185.212 297.171L178.879 267.54L116.685 270.861Z" fill="#2F2E41"/>
<path d="M168.29 168.597L153.257 166.383L150.061 158.087L128.883 158.058L124.125 168.89L102.483 175.422L120.413 236.995C120.413 236.995 110.532 259.877 112.962 259.975C115.392 260.073 116.59 263.547 114.895 265.372C113.2 267.198 109.798 266.036 111.499 268.809C112.473 270.31 113.126 271.996 113.415 273.761C113.415 273.761 185.123 289.066 181.151 269.331C180.657 266.878 174.666 232.89 174.666 232.89C174.666 232.89 179.883 227.118 177.653 224.825C175.423 222.531 176.601 198.307 176.601 198.307L168.29 168.597Z" fill="#CACACA"/>
<path d="M165.829 171.288L168.29 168.597L201.715 188.19L229.998 199.467L230.546 209.332L193.815 204.947L167.818 192.239L165.829 171.288Z" fill="#CACACA"/>
<path d="M156.535 134.295C156.535 136.618 156.078 138.918 155.188 141.064C154.299 143.21 152.996 145.16 151.353 146.803C149.71 148.445 147.759 149.748 145.613 150.637C143.466 151.526 141.165 151.984 138.841 151.984C137.448 151.982 136.059 151.819 134.703 151.5C131.471 150.724 128.523 149.055 126.197 146.683C123.87 144.31 122.258 141.331 121.546 138.086C120.833 134.84 121.049 131.46 122.169 128.332C123.289 125.204 125.267 122.454 127.877 120.397C130.487 118.34 133.624 117.059 136.928 116.702C140.232 116.344 143.57 116.923 146.561 118.373C149.551 119.823 152.072 122.086 153.836 124.902C155.6 127.717 156.536 130.973 156.535 134.295V134.295Z" fill="#9E616A"/>
<path d="M143.581 148.639L130.873 151.089C129.689 151.409 128.448 151.461 127.242 151.24C125.351 150.742 124.084 148.998 123.117 147.3C118.63 139.346 117.217 130.023 119.146 121.097C119.58 119.127 120.508 116.87 122.485 116.468C123.06 116.352 123.71 116.398 124.165 116.028C124.834 115.483 124.614 114.329 123.956 113.769C123.241 113.277 122.398 113.003 121.53 112.981C122.091 112.322 122.785 111.789 123.567 111.417C124.348 111.046 125.2 110.844 126.065 110.825L122.666 108.936C124.303 107.801 126.503 107.904 128.435 108.395C130.366 108.886 132.225 109.717 134.209 109.903C136.701 110.136 139.159 109.336 141.642 109.027C145.347 108.625 149.089 109.294 152.425 110.954C155.761 112.614 158.551 115.195 160.464 118.392C161.139 119.458 161.566 120.662 161.715 121.915C161.783 122.541 161.704 123.175 161.485 123.766C161.265 124.356 160.911 124.887 160.45 125.317C159.058 126.487 156.866 126.315 155.518 127.535C154.479 128.476 154.22 129.994 154.161 131.394C154.103 132.794 154.169 134.257 153.569 135.523C152.969 136.789 151.403 137.741 150.151 137.112C150.096 135.378 148.096 134.15 146.398 134.508C144.7 134.866 143.445 136.41 142.957 138.075C142.468 139.74 142.613 141.519 142.826 143.241C143.039 144.963 143.315 146.705 143.077 148.423" fill="#2F2E41"/>
<path d="M255.38 228.792C257.935 228.792 260.005 226.722 260.005 224.168C260.005 221.615 257.935 219.545 255.38 219.545C252.826 219.545 250.755 221.615 250.755 224.168C250.755 226.722 252.826 228.792 255.38 228.792Z" fill="#3ACEAA"/>
</svg>
