<svg width="427" height="407" viewBox="0 0 427 407" fill="none" xmlns="http://www.w3.org/2000/svg">
<g clip-path="url(#clip0_162_524)">
<path d="M177.619 353.583L182.283 336.773C176.671 329.938 169.637 324.722 161.791 321.579C169.457 335.634 162.029 353.97 165.124 370.026C166.124 375.025 168.128 379.712 170.987 383.738C173.846 387.764 177.487 391.026 181.64 393.283L188.717 402.988C192.427 395.814 194.688 387.835 195.344 379.6C196 371.366 195.034 363.072 192.515 355.29C191.063 350.94 189.121 346.81 186.736 342.997C182.53 348.469 177.619 353.583 177.619 353.583Z" fill="#F2F2F2"/>
<path d="M151.975 355.731L149.376 338.384C141.599 335.036 133.201 333.839 124.912 334.898C137.437 343.695 138.177 363.772 147.417 376.615C150.327 380.596 154.009 383.802 158.19 385.994C162.372 388.186 166.945 389.309 171.571 389.279L181.817 394.472C182.247 386.22 181.055 377.962 178.323 370.269C175.592 362.575 171.386 355.628 165.996 349.906C162.943 346.73 159.54 343.991 155.869 341.756C154.31 348.729 151.975 355.731 151.975 355.731Z" fill="#F2F2F2"/>
<path d="M304.614 398.674L297.43 398.673L294.012 368.007L304.615 368.008L304.614 398.674Z" fill="#FFB6B6"/>
<path d="M306.446 406.381L283.283 406.38V406.056C283.283 403.409 284.233 400.871 285.924 399C287.614 397.129 289.907 396.078 292.298 396.077H292.299L296.53 392.525L304.424 396.078L306.446 396.078L306.446 406.381Z" fill="#2F2E41"/>
<path d="M420.657 369.674L415.759 375.49L393.159 357.348L400.388 348.765L420.657 369.674Z" fill="#FFB6B6"/>
<path d="M427 373.445L411.207 392.198L410.992 391.977C409.243 390.173 408.213 387.673 408.129 385.029C408.045 382.384 408.914 379.811 410.544 377.875L410.544 377.874L411.081 372.026L418.812 368.058L420.19 366.421L427 373.445Z" fill="#2F2E41"/>
<path d="M410.027 352.439L402.434 370.015L355.809 335.848L349.026 325.619L326.785 292.081L317.744 307.958L311.454 324.555C309.404 326.035 307.676 328.001 306.396 330.31C305.116 332.618 304.315 335.213 304.051 337.907L303.763 340.845L307.738 380.395L292.629 385.529L283.952 332.399L286.789 320.887L289.709 304.726L304.412 253.658H343.758L366.325 306.822L367.974 317.654L374.373 325.782L410.027 352.439Z" fill="#2F2E41"/>
<path d="M328.26 170.106L334.883 175.688L342.871 178.405C342.871 178.405 346.173 229.814 349.149 233.107C352.124 236.4 349.441 236.489 350.038 240.767C350.636 245.045 352.09 253.814 352.09 253.814C332.005 265.581 314.69 265.897 300.782 252.128C300.604 251.276 300.694 250.382 301.038 249.595C301.382 248.808 301.958 248.175 302.672 247.8C305.261 246.28 300.286 239.185 302.401 237.998C304.517 236.812 301.541 226.521 301.541 226.521L303.493 205.05L301.951 201.617L305.714 180.616L312.244 177.976L314.853 171.021L328.26 170.106Z" fill="#3F3D56"/>
<path d="M332.409 261.478C332.379 260.549 332.534 259.625 332.862 258.77C333.19 257.915 333.683 257.15 334.308 256.528C334.932 255.907 335.671 255.445 336.474 255.174C337.277 254.904 338.124 254.831 338.955 254.962L348.289 234.881L353.49 245.108L343.828 262.609C343.538 264.139 342.749 265.498 341.613 266.429C340.477 267.359 339.073 267.796 337.665 267.657C336.257 267.517 334.945 266.812 333.976 265.673C333.008 264.534 332.45 263.041 332.409 261.478H332.409Z" fill="#FFB6B6"/>
<path d="M348.129 256.566L368.15 222.223L368.084 222.065C368.008 221.884 363.475 211.047 359.082 201.121C358.405 199.592 357.732 198.085 357.079 196.642C356.797 196.019 356.52 195.409 356.246 194.812C354.401 190.787 352.789 187.459 351.827 185.879C349.698 182.305 346.53 179.644 342.847 178.339L342.754 178.312L342.666 178.353C340.864 179.195 339.375 180.69 338.445 182.594C337.515 184.497 337.198 186.695 337.547 188.824C339.284 199.094 343.154 208.777 348.851 217.108L352.097 221.843L340.817 248.984L348.129 256.566Z" fill="#3F3D56"/>
<path d="M279.283 124.924C279.834 125.624 280.24 126.45 280.471 127.343C280.703 128.236 280.755 129.174 280.624 130.092C280.493 131.009 280.181 131.884 279.711 132.653C279.241 133.423 278.625 134.07 277.905 134.548L282.078 156.652L272.22 152.332L269.768 132.004C269.123 130.612 268.962 129.007 269.315 127.492C269.668 125.978 270.511 124.659 271.684 123.786C272.857 122.914 274.278 122.547 275.679 122.757C277.079 122.967 278.361 123.737 279.283 124.924H279.283Z" fill="#FFB6B6"/>
<path d="M269.866 139.695L273.852 180.327L273.994 180.404C274.11 180.467 279.161 183.209 285.36 186.474C286.406 187.025 286.256 189.411 287.349 189.982C288.102 190.374 290.091 188.949 290.851 189.343C297.628 192.85 304.48 196.261 307.211 197.185C310.898 198.477 314.873 198.336 318.477 196.783L318.564 196.739L318.61 196.646C319.53 194.737 319.836 192.537 319.476 190.41C319.115 188.283 318.111 186.355 316.628 184.945C309.436 178.177 300.921 173.352 291.755 170.85L286.539 169.434L279.86 140.489L269.866 139.695Z" fill="#3F3D56"/>
<path d="M321.198 167.804C328.434 167.804 334.299 161.312 334.299 153.304C334.299 145.296 328.434 138.804 321.198 138.804C313.963 138.804 308.097 145.296 308.097 153.304C308.097 161.312 313.963 167.804 321.198 167.804Z" fill="#FFB6B6"/>
<path d="M308.191 143.588C309.268 140.119 314.632 137.713 323.327 137.378C332.021 137.044 334.227 148.384 334.227 148.384C340.031 153.595 328.029 167.547 327.448 167.045L327.709 164.424C328.141 160.082 329.978 156.694 327.642 152.169L325.399 152.197C322.501 152.814 319.604 153.431 316.707 154.047L320.137 150.705L320.04 150.539C318.581 151.38 316.993 151.914 315.358 152.113C313.514 152.232 311.499 151.42 310.616 149.625C310.38 149.132 310.236 148.591 310.192 148.035C307.706 149.134 306.569 152.526 306.569 152.526C306.569 152.526 307.114 147.057 308.191 143.588Z" fill="#2F2E41"/>
<path d="M52.7844 144.458C52.6066 144.208 52.4152 143.971 52.2112 143.748C52.261 143.672 52.3109 143.589 52.3607 143.513L52.7844 144.458Z" fill="#2F2E41"/>
<path d="M55.3324 202.776C53.1893 206.989 48.9094 209.34 44.6668 210.491C39.9015 211.873 34.8834 211.765 30.1699 210.181C29.5719 209.967 28.9738 209.719 28.3944 209.443C28.6729 208.625 28.8937 207.783 29.0548 206.927C29.2716 205.768 29.3802 204.587 29.3787 203.403C28.9067 204.423 28.2952 205.355 27.5658 206.168C27.0032 206.822 26.3642 207.39 25.6657 207.857C23.4992 206.402 21.6233 204.474 20.1523 202.19C20.2457 201.935 20.3392 201.679 20.4264 201.424C20.8788 200.092 21.237 198.723 21.4979 197.329C21.8519 195.444 22.0294 193.524 22.0275 191.599C21.2594 193.258 20.2631 194.774 19.0745 196.094C18.7181 196.517 18.3395 196.915 17.9407 197.287C17.323 195.211 17.0843 193.02 17.2383 190.841C17.3923 188.662 17.936 186.538 18.8378 184.594C21.3048 179.546 26.0893 176.547 30.3506 173.286C34.618 170.024 38.8855 165.612 39.2468 159.882C39.4898 156.014 37.8701 152.139 38.518 148.333C38.7904 146.728 39.4557 145.236 40.4412 144.021C41.4267 142.806 42.6947 141.913 44.107 141.44C45.5193 140.967 47.0218 140.932 48.4508 141.339C49.8798 141.746 51.1805 142.579 52.2112 143.748C49.794 147.54 47.3893 151.463 46.4112 155.972C45.4144 160.565 46.2306 165.95 49.5012 168.99C50.6226 170.038 51.9994 170.783 52.8654 172.093C54.0179 173.831 54.0241 176.147 54.211 178.285C54.5848 182.442 55.8121 186.441 56.4725 190.558C57.1391 194.667 57.1764 199.128 55.3324 202.776Z" fill="#2F2E41"/>
<path d="M11.4004 373.761L17.0863 378.623L36.7368 356.665L28.3448 349.489L11.4004 373.761Z" fill="#A0616A"/>
<path d="M11.6423 369.01L21.0447 376.103L18.0692 380.365L22.0541 394.204C22.251 394.888 22.2454 395.623 22.038 396.303C21.8306 396.982 21.4323 397.571 20.9013 397.982C20.3703 398.394 19.7344 398.606 19.0864 398.589C18.4384 398.573 17.8122 398.327 17.2993 397.888L6.59896 388.737L7.6978 382.944L4.03445 386.544L0 383.094L11.6423 369.01Z" fill="#2F2E41"/>
<path d="M40.2468 156.708C40.246 159.166 40.7905 161.588 41.8326 163.759C42.8746 165.93 44.3824 167.786 46.2234 169.161C48.0645 170.537 50.1826 171.392 52.3918 171.651C54.6009 171.909 56.8337 171.563 58.894 170.644C60.9543 169.724 62.7791 168.259 64.2083 166.377C65.6375 164.494 66.6273 162.253 67.091 159.848C67.5546 157.444 67.4778 154.95 66.8674 152.586C66.2569 150.222 65.1315 148.06 63.5898 146.289L63.5247 146.217C63.4161 146.091 63.3075 145.965 63.1935 145.845C63.1928 145.845 63.1921 145.845 63.1914 145.844C63.1907 145.844 63.1901 145.844 63.1896 145.843C63.1891 145.843 63.1887 145.842 63.1885 145.841C63.1882 145.84 63.1881 145.84 63.1881 145.839C63.0469 145.695 62.9058 145.55 62.7592 145.412C60.3706 143.093 57.0135 140.576 53.588 140.576C46.0912 140.576 40.2468 148.41 40.2468 156.708Z" fill="#2F2E41"/>
<path d="M117.602 148.994C117.667 149.795 117.573 150.602 117.325 151.359C117.078 152.115 116.684 152.802 116.17 153.372C115.657 153.941 115.037 154.379 114.355 154.655C113.672 154.93 112.943 155.037 112.219 154.967L78.6124 188.55L72.8291 178.441L107.682 148.609C107.868 147.27 108.492 146.054 109.435 145.191C110.378 144.328 111.574 143.877 112.797 143.925C114.019 143.972 115.184 144.514 116.07 145.449C116.955 146.383 117.501 147.645 117.602 148.994V148.994Z" fill="#A0616A"/>
<path d="M64.2496 198.686C64.2496 198.686 65.5 201.242 69.7712 197.296C73.1906 194.136 89.5729 180.419 93.1022 174.798C93.908 175.152 94.7972 175.198 95.6297 174.931C96.4621 174.663 97.1905 174.097 97.7001 173.321L88.0301 163.948C85.1368 164.316 85.1988 166.467 85.5001 167.689L78.2059 171.346L59.3699 184.669L63.3161 196.857L64.2496 198.686Z" fill="#3ACEAA"/>
<path d="M46.0019 222.235L45.2976 225.947L44.6995 239.641L71.0317 241.243L70.214 220.181L67.6616 215.54L46.0019 222.235Z" fill="#A0616A"/>
<path d="M57.162 172.778C63.4472 172.778 68.5423 167.139 68.5423 160.183C68.5423 153.227 63.4472 147.588 57.162 147.588C50.8769 147.588 45.7817 153.227 45.7817 160.183C45.7817 167.139 50.8769 172.778 57.162 172.778Z" fill="#A0616A"/>
<path d="M36.9577 206.64L36.8877 196.17C36.8861 192.403 38.0379 188.747 40.1553 185.797C42.2727 182.848 45.2307 180.779 48.5467 179.93L48.5897 179.918L50.84 176.563L59.9826 177.575L61.6583 181.365L68.2832 185.731L70.8339 194.806C71.9402 195.622 72.8831 196.682 73.6039 197.918C74.3248 199.154 74.8081 200.542 75.0241 201.994C75.89 208.116 72.0171 214.241 71.5564 214.944L70.3694 222.342L44.5476 227.385L44.338 227.414L36.9577 206.64Z" fill="#3ACEAA"/>
<path d="M71.0876 157.938C69.7602 158.868 68.3829 159.709 66.9634 160.454C65.5227 161.22 64.0157 161.823 62.4655 162.254C62.0219 161.177 61.4791 160.153 60.8457 159.199C61.0087 160.33 61.0129 161.481 60.8582 162.612C58.2886 163.071 55.6568 162.832 53.1892 161.916L51.0461 157.938L50.8841 162.378C49.1086 162.737 47.3393 163.074 45.5638 163.426C45.4579 163.44 45.352 163.467 45.2523 163.488C44.1496 157.986 45.7133 151.925 49.1896 148.257C50.9156 146.455 53.0686 145.232 55.398 144.732C57.7273 144.231 60.1372 144.473 62.3471 145.43C62.6275 145.554 62.914 145.692 63.1881 145.837C63.1881 145.838 63.1883 145.839 63.1886 145.84C63.1889 145.84 63.1893 145.841 63.1899 145.842C63.1905 145.842 63.1912 145.843 63.192 145.843C63.1927 145.844 63.1935 145.844 63.1944 145.844C63.3563 145.933 63.4934 146.147 63.6741 146.126C71.4489 145.168 71.6982 151.842 71.0876 157.938Z" fill="#2F2E41"/>
<path d="M52.1558 357.521L57.8504 362.369L77.4612 340.367L69.0564 333.21L52.1558 357.521Z" fill="#A0616A"/>
<path d="M52.9052 353.209L62.3205 360.28L59.3528 364.549L63.363 378.379C63.5611 379.062 63.5568 379.797 63.3506 380.477C63.1444 381.157 62.7472 381.747 62.217 382.159C61.6867 382.572 61.0512 382.786 60.4032 382.771C59.7551 382.755 59.1285 382.511 58.6148 382.073L47.8978 372.947L48.9861 367.151L45.3293 370.759L41.2886 367.318L52.9052 353.209Z" fill="#2F2E41"/>
<path d="M33.6768 330.667L33.6765 330.585L36.3755 325.437L33.6195 318.737L33.5369 301.522L33.9836 298.938C34.5845 295.462 34.4096 291.876 33.4743 288.492L33.424 278.014C33.3271 275.389 37.0014 273.08 36.1446 270.892C28.0457 250.207 44.4147 234.427 44.5253 234.3L44.8598 233.915L46.6747 235.437L48.4022 235.439L71.7135 240.14L71.8818 240.487C72.7987 242.391 74.5682 248.951 74.6731 251.92C75.8349 253.409 89.0687 270.357 90.2451 271.535C98.1948 279.496 102.746 292.672 104.752 299.818C105.25 301.584 105.35 303.458 105.044 305.277C104.738 307.096 104.035 308.804 102.996 310.253L72.9008 346.737L64.8019 338.463L81.0861 305.621L79.9119 302.289C77.805 301.859 75.8982 300.633 74.5169 298.82L71.2195 294.488C70.3066 293.292 69.7264 291.829 69.5493 290.275L67.5496 290.009L60.3867 281.685L55.4172 331.494L54.0661 335.429L30.5376 366.043L20.5698 359.148L33.6768 330.667Z" fill="#2F2E41"/>
<path d="M30.0836 116.794C29.6316 117.424 29.3098 118.156 29.141 118.938C28.9721 119.721 28.9604 120.535 29.1064 121.322C29.2525 122.11 29.5529 122.853 29.9865 123.499C30.4201 124.144 30.9762 124.677 31.6159 125.059L24.1343 149.573L30.2434 175.551L40.0944 170.622L34.0156 151.027L38.5635 122.506C39.072 121.274 39.1545 119.879 38.7955 118.584C38.4365 117.289 37.6609 116.185 36.6156 115.481C35.5704 114.777 34.3281 114.522 33.1242 114.764C31.9203 115.006 30.8384 115.729 30.0836 116.794Z" fill="#A0616A"/>
<path d="M39.1007 196.955C39.1007 196.955 36.787 198.33 35.1779 192.435C33.8897 187.716 25.1228 162.092 24.9648 155.249C24.1161 155.054 23.35 154.553 22.7873 153.823C22.2246 153.093 21.8973 152.177 21.8569 151.218L34.5898 149.268C36.8241 151.336 35.7042 153.095 34.8461 153.933L39.1828 162.063L48.2472 184.011L40.7891 195.994L39.1007 196.955Z" fill="#3ACEAA"/>
<path d="M45.5615 163.425C46.8691 159.061 49.2137 155.166 52.3495 152.15C55.4853 149.134 59.2966 147.108 63.3836 146.283C63.3999 146.278 63.4542 146.253 63.5248 146.217C63.5682 146.187 63.6225 146.157 63.6768 146.127C63.5139 146.025 63.3565 145.935 63.1936 145.845C63.1929 145.845 63.1922 145.845 63.1915 145.844C63.1909 145.844 63.1903 145.844 63.1898 145.843C63.1893 145.843 63.1889 145.842 63.1886 145.841C63.1883 145.84 63.1882 145.84 63.1882 145.839C63.0471 145.695 62.9059 145.55 62.7593 145.412L62.3468 145.43C62.3468 145.43 47.847 142.889 45.5615 163.425Z" fill="#FD6584"/>
<path d="M232.661 303.78C234.244 301.148 233.307 297.379 230.569 295.363C227.831 293.347 224.329 293.847 222.746 296.479C221.164 299.112 222.1 302.88 224.838 304.896C227.576 306.912 231.079 306.413 232.661 303.78Z" fill="#F2F2F2"/>
<path d="M200.537 205.523C202.12 202.89 201.183 199.122 198.445 197.106C195.707 195.09 192.205 195.59 190.622 198.222C189.04 200.855 189.977 204.623 192.715 206.639C195.452 208.655 198.955 208.156 200.537 205.523Z" fill="#F2F2F2"/>
<path d="M334.873 356.787C336.456 354.155 335.519 350.386 332.781 348.37C330.043 346.354 326.541 346.854 324.958 349.486C323.376 352.119 324.313 355.887 327.05 357.904C329.788 359.92 333.291 359.42 334.873 356.787Z" fill="#F2F2F2"/>
<path d="M63.2808 40.684C64.8633 38.0514 63.9266 34.283 61.1887 32.2669C58.4508 30.2509 54.9483 30.7507 53.3658 33.3832C51.7834 36.0158 52.72 39.7842 55.458 41.8003C58.1959 43.8163 61.6983 43.3165 63.2808 40.684Z" fill="#F2F2F2"/>
<path d="M190.024 9.6555C191.606 7.02294 190.67 3.25452 187.932 1.23848C185.194 -0.77756 181.692 -0.277785 180.109 2.35477C178.527 4.98733 179.463 8.75579 182.201 10.7718C184.939 12.7879 188.441 12.2881 190.024 9.6555Z" fill="#F2F2F2"/>
<path d="M130.04 269.981C131.622 267.349 130.686 263.58 127.948 261.564C125.21 259.548 121.707 260.048 120.125 262.681C118.542 265.313 119.479 269.082 122.217 271.098C124.955 273.114 128.457 272.614 130.04 269.981Z" fill="#E6E6E6"/>
<path d="M82.359 151.369C79.164 151.359 76.0845 150.045 73.7092 147.681C71.3339 145.316 69.8293 142.065 69.4832 138.55L62.0682 62.3315C61.7039 58.5473 62.7108 54.7576 64.868 51.7939C67.0251 48.8303 70.1564 46.9347 73.5748 46.5231L293.742 20.286C297.162 19.8826 300.586 20.9968 303.264 23.3842C305.942 25.7717 307.654 29.2373 308.026 33.0207L315.441 109.239C315.806 113.023 314.799 116.813 312.642 119.777C310.484 122.74 307.353 124.636 303.934 125.048L303.903 124.726L303.934 125.048L83.7669 151.285C83.2993 151.341 82.8293 151.369 82.359 151.369Z" fill="#E6E6E6"/>
<path d="M291.317 23.8242C290.904 23.8244 290.49 23.8491 290.079 23.8981L77.8495 49.1893C76.3655 49.3661 74.9275 49.8647 73.6177 50.6566C72.3078 51.4485 71.1517 52.5182 70.2154 53.8046C69.279 55.091 68.5808 56.569 68.1605 58.154C67.7403 59.7391 67.6062 61.4002 67.766 63.0427L71.5151 101.579C72.1211 107.809 73.8299 113.846 76.5439 119.345C79.2579 124.844 82.924 129.698 87.3328 133.629C91.7417 137.559 96.8069 140.491 102.239 142.255C107.672 144.019 113.365 144.582 118.994 143.911L268.227 126.127C273.838 125.459 279.276 123.573 284.23 120.579C289.183 117.584 293.555 113.539 297.096 108.674C300.637 103.809 303.277 98.2204 304.867 92.2263C306.456 86.2322 306.963 79.9503 306.359 73.7393L302.596 35.0581C302.296 31.977 300.979 29.1269 298.898 27.0538C296.817 24.9808 294.117 23.8308 291.317 23.8242V23.8242Z" fill="white"/>
<path d="M246.625 63.9298L128.007 78.0654C127.668 78.1064 127.325 78.0729 126.997 77.9669C126.67 77.861 126.364 77.6846 126.099 77.4479C125.833 77.2112 125.612 76.9189 125.448 76.5875C125.284 76.2562 125.181 75.8924 125.145 75.517C125.108 75.1416 125.139 74.7619 125.235 74.3996C125.331 74.0373 125.491 73.6995 125.705 73.4056C125.92 73.1117 126.184 72.8675 126.484 72.6868C126.783 72.5061 127.112 72.3925 127.451 72.3526L246.069 58.217C246.408 58.1761 246.751 58.2095 247.079 58.3155C247.406 58.4215 247.712 58.5978 247.977 58.8345C248.243 59.0712 248.464 59.3636 248.628 59.6949C248.792 60.0262 248.895 60.39 248.931 60.7654C248.968 61.1409 248.937 61.5206 248.841 61.8829C248.745 62.2451 248.585 62.5829 248.371 62.8768C248.157 63.1707 247.892 63.415 247.593 63.5957C247.293 63.7763 246.964 63.8899 246.625 63.9298Z" fill="#3ACEAA"/>
<path d="M248.331 81.4629L129.713 95.5985C129.028 95.6801 128.343 95.4573 127.806 94.9793C127.27 94.5013 126.928 93.8072 126.854 93.0496C126.78 92.2921 126.982 91.5331 127.413 90.9398C127.845 90.3464 128.473 89.9672 129.157 89.8857L247.775 75.75C248.459 75.6685 249.145 75.8912 249.681 76.3692C250.217 76.8472 250.56 77.5413 250.634 78.2989C250.707 79.0565 250.506 79.8154 250.074 80.4088C249.642 81.0021 249.015 81.3813 248.331 81.4629Z" fill="#3ACEAA"/>
<path d="M145.242 111.484L131.418 113.131C130.734 113.213 130.048 112.99 129.512 112.512C128.976 112.034 128.633 111.34 128.56 110.582C128.486 109.825 128.687 109.066 129.119 108.472C129.551 107.879 130.178 107.5 130.863 107.418L144.686 105.771C145.025 105.73 145.368 105.763 145.695 105.869C146.023 105.975 146.328 106.152 146.594 106.388C146.86 106.625 147.081 106.918 147.245 107.249C147.408 107.58 147.511 107.944 147.548 108.319C147.584 108.695 147.554 109.075 147.458 109.437C147.361 109.799 147.202 110.137 146.987 110.431C146.773 110.725 146.509 110.969 146.209 111.15C145.91 111.33 145.581 111.444 145.242 111.484Z" fill="#3ACEAA"/>
<path d="M77.6916 65.5476C80.2722 65.5476 82.3642 63.2322 82.3642 60.3761C82.3642 57.52 80.2722 55.2047 77.6916 55.2047C75.111 55.2047 73.019 57.52 73.019 60.3761C73.019 63.2322 75.111 65.5476 77.6916 65.5476Z" fill="#3F3D56"/>
<path d="M286.789 39.6905C289.369 39.6905 291.461 37.3752 291.461 34.5191C291.461 31.663 289.369 29.3477 286.789 29.3477C284.208 29.3477 282.116 31.663 282.116 34.5191C282.116 37.3752 284.208 39.6905 286.789 39.6905Z" fill="#3F3D56"/>
<path d="M223.618 145.858C223.188 145.44 222.848 144.922 222.622 144.341C222.396 143.761 222.29 143.131 222.312 142.499C222.546 134.988 221.429 127.5 219.023 120.471C218.82 119.88 218.737 119.246 218.782 118.616C218.827 117.985 218.999 117.374 219.284 116.826C219.558 116.299 219.932 115.845 220.381 115.496C220.83 115.146 221.342 114.91 221.882 114.803C227.313 111.175 232.881 110.157 238.434 111.777C239.329 111.631 240.242 111.843 241.009 112.375C241.776 112.907 242.346 113.724 242.618 114.68C244.866 122.757 246.116 131.135 246.335 139.583C246.356 140.597 246.046 141.585 245.462 142.366C244.877 143.147 244.058 143.668 243.154 143.834L226.723 146.838C226.172 146.94 225.607 146.905 225.07 146.736C224.533 146.566 224.037 146.266 223.618 145.858Z" fill="#3ACEAA"/>
<path d="M225.077 123.972L238.907 121.444C239.021 121.423 239.13 121.378 239.228 121.311C239.326 121.244 239.411 121.156 239.478 121.052C239.545 120.949 239.593 120.831 239.619 120.707C239.646 120.583 239.649 120.454 239.631 120.329C239.612 120.203 239.571 120.082 239.51 119.974C239.449 119.866 239.37 119.772 239.276 119.698C239.182 119.624 239.076 119.571 238.964 119.542C238.851 119.513 238.735 119.509 238.622 119.53L224.791 122.059C224.563 122.102 224.358 122.243 224.223 122.452C224.088 122.661 224.034 122.92 224.072 123.173C224.11 123.427 224.237 123.653 224.425 123.803C224.614 123.953 224.848 124.014 225.077 123.972Z" fill="white"/>
<path d="M226.22 131.626L240.05 129.097C240.279 129.055 240.484 128.914 240.619 128.705C240.755 128.496 240.809 128.236 240.771 127.982C240.734 127.729 240.606 127.502 240.417 127.352C240.228 127.202 239.993 127.142 239.764 127.184L225.934 129.712C225.82 129.733 225.711 129.778 225.613 129.845C225.515 129.912 225.43 130 225.363 130.104C225.296 130.207 225.248 130.325 225.222 130.449C225.195 130.573 225.192 130.702 225.21 130.828C225.229 130.953 225.27 131.074 225.331 131.182C225.392 131.29 225.472 131.384 225.565 131.458C225.659 131.533 225.765 131.585 225.877 131.614C225.99 131.643 226.106 131.647 226.22 131.626Z" fill="white"/>
<path d="M227.362 139.279L241.192 136.75C241.421 136.708 241.626 136.567 241.761 136.358C241.897 136.149 241.952 135.889 241.914 135.636C241.876 135.382 241.748 135.155 241.56 135.006C241.371 134.856 241.136 134.795 240.906 134.837L227.076 137.366C226.963 137.387 226.854 137.432 226.756 137.499C226.659 137.566 226.574 137.654 226.507 137.758C226.44 137.861 226.392 137.978 226.366 138.102C226.34 138.226 226.336 138.355 226.355 138.481C226.373 138.606 226.414 138.727 226.475 138.835C226.536 138.943 226.615 139.037 226.709 139.111C226.802 139.185 226.908 139.238 227.02 139.267C227.132 139.296 227.248 139.3 227.362 139.279Z" fill="white"/>
</g>
<defs>
<clipPath id="clip0_162_524">
<rect width="427" height="407" fill="white"/>
</clipPath>
</defs>
</svg>
