<svg width="483" height="527" viewBox="0 0 483 527" fill="none" xmlns="http://www.w3.org/2000/svg">
<g clip-path="url(#clip0_560_193)">
<path d="M66.3397 412.896L60.5854 389.507C50.3842 385.051 39.9473 381.192 29.3244 377.948L28.5986 388.818L25.6525 376.843C12.4784 372.966 3.51611 371.259 3.51611 371.259C3.51611 371.259 15.6245 418.71 41.0176 454.986L70.6041 460.341L47.6196 463.758C50.8151 467.72 54.2493 471.471 57.9016 474.989C94.8405 510.327 135.982 526.539 149.794 511.2C163.606 495.86 144.858 454.777 107.919 419.438C96.4678 408.483 82.0827 399.692 67.6834 392.773L66.3397 412.896Z" fill="#6C63FF"/>
<path d="M121.054 387.493L127.857 364.404C121.359 355.155 114.359 346.291 106.892 337.854L100.82 346.772L104.303 334.951C94.9698 324.613 88.1539 318.376 88.1539 318.376C88.1539 318.376 74.7242 365.448 78.2707 410.031L100.913 430.38L79.5231 421.059C80.2718 426.153 81.3307 431.194 82.6933 436.151C96.5935 486.084 123.683 521.883 143.199 516.11C162.715 510.338 167.268 465.18 153.367 415.247C149.058 399.767 141.152 384.577 132.295 370.982L121.054 387.493Z" fill="#6C63FF"/>
<path d="M241.5 527C374.877 527 483 521.301 483 514.271C483 507.24 374.877 501.541 241.5 501.541C108.123 501.541 0 507.24 0 514.271C0 521.301 108.123 527 241.5 527Z" fill="#3F3D56"/>
<path d="M382.595 122.308H379.851V44.8377C379.851 38.9495 378.726 33.119 376.54 27.679C374.354 22.2391 371.15 17.2962 367.111 13.1326C363.071 8.96905 358.276 5.66633 352.999 3.41303C347.721 1.15973 342.065 -1.76453e-05 336.352 2.0135e-10H177.123C171.41 -1.30017e-05 165.754 1.15974 160.476 3.41304C155.199 5.66634 150.403 8.96906 146.364 13.1326C142.325 17.2962 139.121 22.2391 136.935 27.679C134.749 33.119 133.624 38.9495 133.624 44.8377V469.845C133.624 475.734 134.749 481.564 136.935 487.004C139.121 492.444 142.325 497.387 146.364 501.551C150.403 505.714 155.199 509.017 160.476 511.27C165.754 513.523 171.41 514.683 177.123 514.683H336.352C342.065 514.683 347.721 513.523 352.999 511.27C358.276 509.017 363.071 505.714 367.111 501.551C371.15 497.387 374.354 492.444 376.54 487.004C378.726 481.564 379.851 475.734 379.851 469.845V177.453H382.595V122.308Z" fill="#3F3D56"/>
<path d="M370.593 45.1509V469.533C370.593 478.414 367.17 486.931 361.078 493.211C354.985 499.491 346.723 503.019 338.107 503.019H178.113C169.497 503.019 161.235 499.491 155.142 493.211C149.05 486.931 145.627 478.414 145.627 469.533V45.1509C145.627 36.2699 149.05 27.7528 155.142 21.473C161.235 15.1932 169.497 11.6652 178.113 11.665H197.522C196.569 14.0808 196.205 16.7011 196.465 19.2956C196.724 21.89 197.598 24.3789 199.009 26.5435C200.421 28.7081 202.327 30.482 204.559 31.7092C206.792 32.9364 209.283 33.5792 211.813 33.5811H303.034C305.565 33.5792 308.056 32.9363 310.288 31.7092C312.521 30.482 314.427 28.7081 315.838 26.5435C317.25 24.3789 318.124 21.8899 318.383 19.2955C318.642 16.7011 318.279 14.0808 317.325 11.665H338.107C346.723 11.6652 354.985 15.1932 361.078 21.473C367.17 27.7528 370.593 36.2699 370.593 45.1509Z" fill="white"/>
<path d="M370.593 378.354V469.533C370.593 478.414 367.17 486.931 361.078 493.211C354.985 499.491 346.723 503.019 338.107 503.019H178.113C169.497 503.019 161.235 499.491 155.142 493.211C149.05 486.931 145.627 478.414 145.627 469.533V387.244C159.348 370.642 176.26 357.154 195.296 347.633C214.331 338.112 235.076 332.765 256.218 331.929C277.361 331.094 298.441 334.788 318.128 342.779C337.815 350.77 355.679 362.884 370.593 378.354Z" fill="#E6E6E6"/>
<path d="M221.037 361.496H214.571L216.726 231.299H218.882L221.037 361.496Z" fill="#E6E6E6"/>
<path d="M226.425 149.329L236.863 132.702C233.768 123.888 230.193 115.261 226.155 106.862L219.405 112.482L224.749 103.968C219.656 93.6341 215.649 87.123 215.649 87.123C215.649 87.123 194.715 121.126 187.722 157.127L201.116 178.465L186.288 166.119C185.76 170.313 185.488 174.537 185.474 178.766C185.474 221.404 198.984 255.968 215.649 255.968C232.314 255.968 245.823 221.404 245.823 178.766C245.823 165.548 242.922 151.719 238.92 138.927L226.425 149.329Z" fill="#E6E6E6"/>
<path d="M183.512 370.69H180.376L181.421 307.546H182.466L183.512 370.69Z" fill="#E6E6E6"/>
<path d="M186.125 267.791L191.187 259.727C189.686 255.453 187.952 251.269 185.994 247.195L182.72 249.921L185.312 245.792C182.842 240.78 180.898 237.622 180.898 237.622C180.898 237.622 170.746 254.113 167.354 271.573L173.85 281.922L166.659 275.934C166.403 277.968 166.271 280.017 166.264 282.068C166.264 302.747 172.816 319.51 180.898 319.51C188.981 319.51 195.533 302.747 195.533 282.068C195.533 275.657 194.126 268.95 192.185 262.746L186.125 267.791Z" fill="#E6E6E6"/>
<path d="M265.155 370.69H262.019L263.065 307.546H264.11L265.155 370.69Z" fill="#E6E6E6"/>
<path d="M267.768 267.791L272.831 259.727C271.329 255.453 269.595 251.269 267.637 247.195L264.364 249.921L266.956 245.792C264.486 240.78 262.542 237.622 262.542 237.622C262.542 237.622 252.389 254.113 248.998 271.573L255.494 281.922L248.302 275.934C248.046 277.968 247.914 280.017 247.908 282.068C247.908 302.747 254.46 319.51 262.542 319.51C270.624 319.51 277.176 302.747 277.176 282.068C277.176 275.657 275.769 268.95 273.828 262.746L267.768 267.791Z" fill="#E6E6E6"/>
<path d="M181.125 161.378C197.039 161.378 209.94 148.08 209.94 131.676C209.94 115.272 197.039 101.974 181.125 101.974C165.211 101.974 152.31 115.272 152.31 131.676C152.31 148.08 165.211 161.378 181.125 161.378Z" fill="#E6E6E6"/>
<path d="M285.321 165.607L337.917 166.953L344.996 102.308H285.321V165.607Z" fill="#2F2E41"/>
<path d="M272.216 114.961L257.707 57.6227C257.707 57.6227 261.716 30.0983 271.411 30.5524C281.107 31.0065 268.894 57.4606 268.894 57.4606L285.321 106.991L272.216 114.961Z" fill="#FFB8B8"/>
<path d="M300.657 258.627L302.928 282.046C302.928 282.046 231.363 332.395 231.363 353.472C231.363 374.549 229.091 441.292 229.091 441.292L255.218 442.463L257.49 410.848C257.49 410.848 263.17 375.72 259.762 362.84L297.249 333.566C297.249 333.566 285.889 347.618 288.161 372.207C290.433 396.797 284.753 444.805 284.753 444.805L312.016 447.146C312.016 447.146 315.424 421.386 316.56 419.044C317.696 416.702 323.376 374.549 317.696 362.84L364.27 306.635C364.27 306.635 380.174 285.558 364.27 264.482L355.183 259.798L300.657 258.627Z" fill="#2F2E41"/>
<path d="M230.227 436.607L227.955 451.83L213.188 488.128C213.188 488.128 188.196 501.009 206.372 503.35C224.547 505.692 231.363 501.009 234.771 495.154C238.179 489.299 244.994 479.932 244.994 479.932L243.858 504.521H249.538L258.848 470.935C259.759 467.72 259.917 464.328 259.31 461.037C258.702 457.746 257.346 454.651 255.353 452.005C255.309 451.947 255.264 451.888 255.218 451.829C250.674 445.975 252.946 437.778 252.946 437.778L230.227 436.607Z" fill="#2F2E41"/>
<path d="M287.025 436.607L284.753 451.83L269.986 488.128C269.986 488.128 244.994 501.009 263.17 503.35C281.345 505.692 288.161 501.009 291.569 495.154C294.977 489.299 301.793 479.932 301.793 479.932L300.657 504.521H306.336L315.646 470.935C316.557 467.72 316.715 464.328 316.108 461.037C315.5 457.746 314.145 454.651 312.152 452.005C312.107 451.947 312.062 451.888 312.016 451.829C307.472 445.975 309.744 437.778 309.744 437.778L287.025 436.607Z" fill="#2F2E41"/>
<path d="M314.288 138.021C326.836 138.021 337.007 127.536 337.007 114.602C337.007 101.668 326.836 91.1836 314.288 91.1836C301.741 91.1836 291.569 101.668 291.569 114.602C291.569 127.536 301.741 138.021 314.288 138.021Z" fill="#FFB8B8"/>
<path d="M313.152 134.508L323.376 159.098L343.823 142.705C343.823 142.705 331.328 125.141 331.328 122.799L313.152 134.508Z" fill="#FFB8B8"/>
<path d="M315.424 148.559L320.271 151.629C320.271 151.629 335.929 143.071 339.876 137.033C339.876 137.033 354.047 132.166 359.727 143.875C365.406 155.585 356.319 236.379 356.319 236.379C356.319 236.379 361.999 244.575 360.863 248.088C359.727 251.601 364.271 257.456 364.271 257.456V264.481C364.271 264.481 299.521 265.652 299.521 259.797V241.063L292.705 238.721C292.705 238.721 285.889 253.943 283.617 252.772C281.345 251.601 269.986 242.234 269.986 242.234C269.986 242.234 288.161 180.174 298.385 169.636L310.88 147.388L315.424 148.559Z" fill="#6C63FF"/>
<path d="M313.152 149.73C313.152 149.73 310.88 145.046 307.472 143.875C304.065 142.704 287.025 118.115 287.025 118.115L289.297 105.234L266.578 101.722C266.578 101.722 267.714 114.602 272.258 122.798C276.801 130.995 301.793 173.148 301.793 173.148L314.288 149.73L313.152 149.73Z" fill="#6C63FF"/>
<path d="M330.76 242.819L317.128 284.973C317.128 284.973 288.729 317.759 304.633 317.759C320.536 317.759 328.488 288.486 328.488 288.486L347.799 246.332L330.76 242.819Z" fill="#FFB8B8"/>
<path d="M287.059 114.945C305.255 107.427 323.194 105.824 340.666 114.945V99.7921C340.666 98.496 340.418 97.2127 339.937 96.0153C339.456 94.8179 338.751 93.7299 337.861 92.8135C336.972 91.897 335.917 91.1701 334.755 90.6741C333.594 90.1781 332.349 89.9229 331.091 89.9229H294.623C293.629 89.9229 292.646 90.1245 291.728 90.5163C290.81 90.9082 289.977 91.4825 289.274 92.2065C288.572 92.9305 288.015 93.79 287.635 94.7359C287.254 95.6819 287.059 96.6957 287.059 97.7196V114.945Z" fill="#2F2E41"/>
<path d="M344.959 147.388C344.959 147.388 355.323 138.339 360.933 148.718C366.542 159.098 363.134 203.593 361.998 209.448C360.862 215.302 352.911 251.601 352.911 251.601L325.648 245.746C325.648 245.746 323.376 229.353 330.192 230.524L344.959 147.388Z" fill="#6C63FF"/>
<path d="M356.266 137.327C351.138 134.424 348.751 127.908 348.581 121.88C348.411 115.851 349.829 109.885 349.94 103.855C349.998 102.621 349.896 101.385 349.637 100.179C349.212 98.6825 348.549 97.2685 347.676 95.9947C341.007 85.461 329.414 78.0514 317.203 77.9348C315.438 77.911 313.687 78.2429 312.046 78.9119C310.784 79.4331 310.371 79.3693 310.129 80.9671C307.236 79.9835 304.099 80.0863 301.273 81.2574C298.474 82.4305 295.863 84.0333 293.529 86.0115C292.142 87.0748 290.833 88.2428 289.613 89.5059C283.16 96.397 281.674 107.017 283.544 116.399C284.151 119.45 281.235 122.394 278.822 124.268C276.409 126.141 273.623 127.861 272.438 130.726C271.298 133.481 271.924 136.632 271.695 139.618C271.437 142.441 270.419 145.133 268.756 147.391C267.093 149.649 264.85 151.383 262.282 152.397C262.806 153.043 263.489 153.532 264.261 153.812C265.032 154.091 265.862 154.151 266.663 153.985C268.336 153.622 269.9 152.854 271.228 151.745C276.223 147.93 279.796 142.464 281.352 136.261C282.061 139.583 281.786 143.011 281.76 146.413C281.822 150.209 281.144 153.98 279.765 157.501C278.363 161.039 275.795 163.954 272.513 165.732C275.679 167.33 279.167 166.172 281.849 163.815C284.531 161.458 286.115 158.037 287.221 154.588C289.021 148.967 289.751 143.041 289.371 137.135C292.315 142.244 293.391 148.27 292.405 154.125C291.375 160.095 288.351 165.505 283.858 169.418C291.692 169.349 299.397 167.349 306.328 163.584C308.118 162.748 309.696 161.496 310.937 159.926C313.168 156.736 312.64 152.386 312.014 148.508C311.52 145.441 315.237 141.008 313.108 138.806C312.476 138.161 311.631 137.787 310.742 137.757C304.257 137.114 298.252 133.756 294.79 128.067C292.365 124.08 290.759 119.527 290.759 115.268C290.761 111.915 291.465 108.603 292.823 105.556C294.181 102.509 296.161 99.8011 298.628 97.616C301.095 95.431 303.991 93.8208 307.117 92.8955C310.244 91.9703 313.527 91.7517 316.743 92.2549C319.959 92.758 323.031 93.9709 325.751 95.8108C328.47 97.6506 330.772 100.074 332.499 102.915C334.225 105.756 335.337 108.948 335.757 112.273C336.177 115.598 335.896 118.977 334.932 122.179C334.164 124.756 333.614 127.397 333.287 130.072C332.902 133.175 332.289 136.245 331.454 139.253C329.843 145.035 327.114 150.934 322.064 153.95C323.761 154.907 325.725 154.95 327.647 155.168C333.983 155.888 340.647 155.729 346.382 152.861C352.117 149.992 356.675 143.884 356.266 137.327Z" fill="#2F2E41"/>
<path opacity="0.2" d="M336.44 178.418L330.511 228.724L330.76 180.76L336.44 178.418Z" fill="black"/>
<path opacity="0.2" d="M355.919 237.824L353.479 253.357L359.159 255.699L355.919 237.824Z" fill="black"/>
</g>
<defs>
<clipPath id="clip0_560_193">
<rect width="483" height="527" fill="white"/>
</clipPath>
</defs>
</svg>
