<svg width="80" height="75" viewBox="0 0 94 121" fill="none" xmlns="http://www.w3.org/2000/svg">
<path d="M46.7375 112.243C71.7667 112.243 92.0569 91.9532 92.0569 66.924C92.0569 41.8947 71.7667 21.6045 46.7375 21.6045C21.7082 21.6045 1.41797 41.8947 1.41797 66.924C1.41797 91.9532 21.7082 112.243 46.7375 112.243Z" fill="#333333"/>
<path d="M46.7374 120.739C70.7232 120.739 90.1676 101.295 90.1676 77.3091C90.1676 53.3233 70.7232 33.8789 46.7374 33.8789C22.7515 33.8789 3.30713 53.3233 3.30713 77.3091C3.30713 101.295 22.7515 120.739 46.7374 120.739Z" fill="#FDB797"/>
<path d="M18.0582 26.3447C26.412 19.5247 39.0494 18.3089 45.3456 9.54724C47.9644 5.90717 49.8087 0.79311 54.2232 0L54.3542 9.3153L68.4917 7.86375C66.3107 14.0066 71.6642 19.9213 74.8815 25.589C77.254 29.781 78.5509 34.4956 78.6562 39.3113C73.7479 42.2593 67.6612 39.0419 62.1955 37.3248C56.8831 35.6563 51.2378 35.4842 45.6711 35.327C42.8167 35.2447 39.9286 35.1699 37.1415 35.7947C34.6985 36.3446 32.4127 37.4183 30.1007 38.3873C26.3409 39.9623 14.4667 45.9031 10.9726 42.0722C7.0145 37.7288 14.8334 28.9784 18.0582 26.3447Z" fill="#333333"/>
<path opacity="0.1" d="M20.4187 55.5288C22.7232 56.9242 25.4318 57.4741 28.0992 57.8408C39.2238 59.3603 50.5518 58.0875 61.0618 54.1371C62.7827 58.4992 66.984 61.4958 71.4508 62.9211C75.9177 64.3465 80.6876 64.4176 85.3751 64.4737C86.4077 64.4737 87.515 64.4737 88.368 63.9013C90.4555 62.4909 89.4454 59.2624 88.2296 57.0551L82.1803 46.1012C80.392 42.8615 78.5514 39.5543 75.783 37.1002C72.3113 34.0288 67.7023 32.5884 63.1568 31.6794C52.4133 29.5419 41.3214 29.9119 30.7441 32.7605C19.4385 35.802 4.91566 46.1461 20.4187 55.5288Z" fill="black"/>
<path d="M20.4187 54.5857C22.7232 55.9811 25.4318 56.5311 28.0992 56.8977C39.2238 58.4173 50.5518 57.1444 61.0618 53.194C62.7827 57.5561 66.984 60.5528 71.4508 61.9781C75.9177 63.4035 80.6876 63.4745 85.3751 63.5307C86.4077 63.5307 87.515 63.5307 88.368 62.9583C90.4555 61.5479 89.4454 58.3193 88.2296 56.1121L82.1803 45.1432C80.392 41.9034 78.5514 38.5963 75.783 36.1422C72.3113 33.0708 67.7023 31.6304 63.1568 30.7214C52.4133 28.5839 41.3214 28.9538 30.7441 31.8025C19.4385 34.8552 4.91566 45.1993 20.4187 54.5857Z" fill="#333333"/>
<path d="M89.6962 84.3913C91.783 84.3913 93.4747 81.2206 93.4747 77.3094C93.4747 73.3982 91.783 70.2275 89.6962 70.2275C87.6094 70.2275 85.9177 73.3982 85.9177 77.3094C85.9177 81.2206 87.6094 84.3913 89.6962 84.3913Z" fill="#FDB797"/>
<path d="M3.77849 84.3913C5.8653 84.3913 7.55699 81.2206 7.55699 77.3094C7.55699 73.3982 5.8653 70.2275 3.77849 70.2275C1.69169 70.2275 0 73.3982 0 77.3094C0 81.2206 1.69169 84.3913 3.77849 84.3913Z" fill="#FDB797"/>
</svg>
