<svg width="254" height="189" viewBox="0 0 254 189" fill="none" xmlns="http://www.w3.org/2000/svg">
<g clip-path="url(#clip0_163_1274)">
<path d="M216.831 187.581C219.526 181.259 221.426 174.378 220.527 167.569C220.219 165.26 219.547 163.014 218.539 160.915C217.726 159.204 216.676 157.616 215.421 156.198C214.987 155.698 214.391 155.366 213.738 155.261C213.085 155.156 212.415 155.284 211.847 155.622C211.759 155.673 211.671 155.727 211.59 155.785C211.149 156.095 210.802 156.52 210.585 157.014C210.543 157.108 210.508 157.206 210.48 157.305C210.356 157.721 210.323 158.159 210.382 158.589C210.856 162.093 210.754 165.652 210.078 169.123C209.906 170.007 209.695 170.883 209.446 171.751C208.886 171.051 208.292 170.381 207.664 169.743C206.036 168.091 204.159 166.706 202.101 165.639H202.098C202.088 165.632 202.081 165.628 202.071 165.622C199.575 164.349 196.248 164.877 194.304 165.744C194.175 165.798 194.053 165.859 193.935 165.916C192.921 166.438 192.417 167.037 192.85 167.43C192.948 167.515 193.046 167.603 193.137 167.691C196.085 170.42 198.499 173.674 200.258 177.287V177.291C200.957 178.729 201.546 180.219 202.02 181.747C202.673 183.856 203.214 186.196 204.489 187.916C204.619 188.098 204.76 188.271 204.911 188.435L216.3 188.343C216.327 188.33 216.351 188.319 216.378 188.306L216.831 188.323C216.814 188.242 216.794 188.16 216.773 188.079V188.072C216.763 188.028 216.75 187.981 216.74 187.94C216.729 187.906 216.723 187.876 216.716 187.849C216.736 187.798 216.756 187.751 216.78 187.7C216.797 187.659 216.814 187.622 216.831 187.581Z" fill="#F0F0F0"/>
<path d="M216.774 188.072C216.77 188.098 216.76 188.122 216.745 188.142C216.729 188.162 216.709 188.179 216.686 188.189C216.662 188.199 216.636 188.203 216.611 188.2C216.586 188.198 216.561 188.189 216.54 188.174C216.072 187.834 215.559 187.562 215.015 187.365C215.012 187.361 215.012 187.365 215.012 187.365C214.326 187.118 213.62 186.93 212.902 186.802C212.895 186.802 212.892 186.799 212.885 186.799C212.594 186.742 212.303 186.691 212.013 186.637C210.599 186.376 209.162 186.061 207.938 185.255C207.44 184.946 207.013 184.535 206.684 184.049C206.356 183.563 206.135 183.012 206.034 182.434C205.855 181.3 206.082 180.159 206.176 179.028C206.183 178.946 206.19 178.862 206.193 178.781C206.2 178.676 206.203 178.574 206.203 178.472C206.238 177.446 206.032 176.425 205.601 175.493C205.048 174.376 204.322 173.355 203.451 172.465C203.001 171.981 202.532 171.515 202.044 171.067H202.041C202.02 171.046 202.003 171.03 201.983 171.013C201.983 171.009 201.98 171.006 201.976 171.002C199.89 169.104 197.523 167.539 194.96 166.363C194.869 166.323 194.774 166.279 194.679 166.238C194.432 166.126 194.186 166.021 193.935 165.916C194.054 165.859 194.175 165.798 194.304 165.744C197.163 166.955 199.801 168.632 202.112 170.708C202.189 170.776 202.267 170.847 202.342 170.918C202.927 171.46 203.483 172.027 204.012 172.621C204.857 173.533 205.542 174.582 206.038 175.723C206.401 176.646 206.561 177.637 206.508 178.628C206.501 178.818 206.487 179.007 206.47 179.2C206.366 180.342 206.132 181.52 206.393 182.661C206.69 183.961 207.698 184.869 208.868 185.424C209.642 185.77 210.455 186.022 211.289 186.176C213.014 186.538 214.796 186.714 216.304 187.642H216.307C216.331 187.659 216.354 187.673 216.375 187.686C216.378 187.686 216.378 187.686 216.378 187.69C216.487 187.754 216.592 187.826 216.693 187.903C216.699 187.906 216.706 187.913 216.713 187.917C216.723 187.924 216.732 187.932 216.74 187.94C216.755 187.958 216.767 187.979 216.773 188.002C216.778 188.025 216.779 188.049 216.774 188.072Z" fill="white"/>
<path d="M202.253 171.034C202.867 170.271 203.191 169.314 203.166 168.334C203.141 167.354 202.769 166.415 202.116 165.684C201.983 165.537 201.748 165.736 201.881 165.884C202.49 166.563 202.837 167.438 202.858 168.35C202.88 169.263 202.575 170.153 201.998 170.86C201.873 171.014 202.128 171.187 202.253 171.034Z" fill="white"/>
<path d="M206.301 178.462C204.313 178.693 202.311 178.166 200.695 176.985C200.535 176.868 200.361 177.123 200.521 177.24C202.206 178.466 204.29 179.01 206.358 178.765C206.555 178.741 206.497 178.439 206.301 178.462Z" fill="white"/>
<path d="M194.98 166.326C194.973 166.34 194.967 166.35 194.96 166.363C194.774 166.706 194.513 167.003 194.198 167.233C193.883 167.463 193.52 167.619 193.137 167.691C193.046 167.603 192.948 167.515 192.85 167.43C192.865 167.42 192.883 167.415 192.901 167.413C193.269 167.373 193.622 167.245 193.931 167.041C194.241 166.836 194.497 166.561 194.679 166.238C194.696 166.211 194.713 166.181 194.727 166.153C194.738 166.137 194.752 166.122 194.769 166.111C194.786 166.1 194.805 166.092 194.825 166.089C194.844 166.085 194.865 166.085 194.885 166.089C194.904 166.093 194.923 166.101 194.94 166.113C194.972 166.137 194.994 166.172 195.002 166.211C195.009 166.251 195.002 166.292 194.98 166.326Z" fill="white"/>
<path d="M24.7729 1.84326C18.693 1.85013 12.864 4.2718 8.56488 8.577C4.26572 12.8822 1.84743 18.7193 1.84058 24.8078V112.815C1.84743 118.904 4.26572 124.741 8.56488 129.046C12.864 133.351 18.693 135.773 24.7729 135.78H229.227C235.307 135.773 241.136 133.351 245.435 129.046C249.734 124.741 252.153 118.904 252.159 112.815V24.8078C252.153 18.7193 249.734 12.8822 245.435 8.577C241.136 4.2718 235.307 1.85013 229.227 1.84326H24.7729Z" fill="white"/>
<path d="M229.227 137.623H24.7729C18.205 137.615 11.9082 134.999 7.26398 130.349C2.61976 125.698 0.00739267 119.392 0 112.815V24.8077C0.00739267 18.2305 2.61976 11.9249 7.26398 7.27418C11.9082 2.62344 18.205 0.00740304 24.7729 0H229.227C235.795 0.00739856 242.092 2.62343 246.736 7.27417C251.38 11.9249 253.993 18.2305 254 24.8077V112.815C253.993 119.392 251.38 125.698 246.736 130.349C242.092 134.999 235.795 137.615 229.227 137.623ZM24.7729 3.68631C19.181 3.69264 13.8199 5.91995 9.86576 9.87961C5.91166 13.8393 3.68747 19.2079 3.68115 24.8077V112.815C3.68747 118.415 5.91166 123.784 9.86576 127.743C13.8199 131.703 19.181 133.93 24.7729 133.936H229.227C234.819 133.93 240.18 131.703 244.134 127.743C248.088 123.784 250.312 118.415 250.319 112.815V24.8077C250.312 19.2079 248.088 13.8393 244.134 9.87961C240.18 5.91995 234.819 3.69264 229.227 3.68631H24.7729Z" fill="#E6E6E6"/>
<path d="M127.549 20.064H30.3174C28.2422 20.0675 26.253 20.8946 24.7857 22.3641C23.3183 23.8335 22.4924 25.8255 22.4888 27.9036V71.82C22.4879 72.2858 22.5311 72.7507 22.6176 73.2085C22.6483 73.4173 22.6974 73.6201 22.7465 73.8229C23.1919 75.494 24.175 76.9716 25.5437 78.0267C26.9123 79.0819 28.5901 79.6558 30.3174 79.6595H127.549C127.709 79.6595 127.868 79.6534 128.021 79.6411H128.132V79.6349C128.163 79.636 128.194 79.6339 128.224 79.6288C128.255 79.6288 128.291 79.6227 128.322 79.6227C128.333 79.6237 128.343 79.6215 128.353 79.6165C128.42 79.6104 128.488 79.6042 128.549 79.5981C128.66 79.5797 128.77 79.5674 128.874 79.549C128.888 79.5439 128.903 79.5418 128.917 79.5428C128.936 79.5334 128.957 79.5292 128.979 79.5305C128.981 79.5282 128.984 79.5264 128.987 79.5254C128.99 79.5243 128.994 79.524 128.997 79.5244C129.065 79.5121 129.132 79.4998 129.199 79.4814C129.237 79.4761 129.274 79.4679 129.31 79.4568C129.445 79.4261 129.58 79.3954 129.709 79.3524C129.77 79.3339 129.825 79.3217 129.887 79.3032C129.966 79.2786 130.052 79.2479 130.132 79.2172C130.174 79.2056 130.215 79.1913 130.255 79.1742C130.259 79.1741 130.264 79.173 130.268 79.1708C130.273 79.1687 130.276 79.1657 130.279 79.1619C130.457 79.0993 130.631 79.0275 130.801 78.9469C130.948 78.8793 131.089 78.8056 131.23 78.7318C131.285 78.7073 131.335 78.6765 131.39 78.6458C131.403 78.6398 131.416 78.6315 131.427 78.6213C131.568 78.5353 131.709 78.4492 131.844 78.3693C131.85 78.3632 131.85 78.3571 131.856 78.3571C131.857 78.3571 131.858 78.3569 131.858 78.3566C131.859 78.3563 131.86 78.3559 131.86 78.3553C131.861 78.3548 131.861 78.3541 131.862 78.3533C131.862 78.3526 131.862 78.3517 131.862 78.3509C132.007 78.2603 132.146 78.1618 132.279 78.056H132.286C132.322 78.0253 132.353 78.0007 132.384 77.9762C132.427 77.9454 132.47 77.9086 132.506 77.8778C132.58 77.8164 132.654 77.755 132.721 77.6935C132.763 77.662 132.802 77.6271 132.838 77.5891C132.942 77.4969 133.04 77.3986 133.138 77.3003C133.191 77.2502 133.24 77.1968 133.286 77.1406C133.362 77.0673 133.434 76.9893 133.5 76.9071C133.562 76.8273 133.629 76.7474 133.69 76.6675C133.763 76.5836 133.831 76.4954 133.893 76.4033C134.003 76.2559 134.102 76.1084 134.2 75.9487C134.279 75.8196 134.359 75.6845 134.433 75.5493C134.47 75.4818 134.506 75.408 134.543 75.3343C134.549 75.3343 134.549 75.3282 134.549 75.322C134.617 75.193 134.678 75.0639 134.733 74.9288C134.758 74.8735 134.783 74.8244 134.801 74.769C134.85 74.6646 134.887 74.554 134.93 74.4434C134.997 74.2407 135.065 74.0318 135.12 73.8229C135.169 73.6201 135.218 73.4174 135.249 73.2085C135.335 72.7508 135.379 72.2859 135.378 71.82V27.9036C135.374 25.8255 134.548 23.8335 133.081 22.3641C131.613 20.8946 129.624 20.0675 127.549 20.064Z" fill="#3ACEAA"/>
<path opacity="0.3" d="M135.378 32.6592H22.4888V33.2736H135.378V32.6592Z" fill="white"/>
<path opacity="0.3" d="M135.378 39.4175H22.4888V40.0319H135.378V39.4175Z" fill="white"/>
<path opacity="0.3" d="M135.378 46.1758H22.4888V46.7902H135.378V46.1758Z" fill="white"/>
<path opacity="0.3" d="M135.378 52.9341H22.4888V53.5485H135.378V52.9341Z" fill="white"/>
<path opacity="0.3" d="M135.378 59.6924H22.4888V60.3068H135.378V59.6924Z" fill="white"/>
<path opacity="0.3" d="M135.378 66.4502H22.4888V67.0646H135.378V66.4502Z" fill="white"/>
<path opacity="0.3" d="M135.249 73.2085C135.218 73.4174 135.169 73.6201 135.12 73.8229H22.5748C22.5379 73.6198 22.5133 73.4146 22.5012 73.2085H135.249Z" fill="white"/>
<g opacity="0.1">
<path opacity="0.1" d="M135.378 62.3095V71.8202C135.379 72.2861 135.335 72.751 135.249 73.2087C135.218 73.4176 135.169 73.6203 135.12 73.8231C135.065 74.032 134.997 74.2409 134.93 74.4436C134.887 74.5542 134.85 74.6648 134.801 74.7692C134.783 74.8245 134.758 74.8737 134.733 74.929C134.678 75.0641 134.617 75.1932 134.549 75.3222C134.549 75.3283 134.549 75.3345 134.543 75.3345C134.506 75.4082 134.47 75.4819 134.433 75.5495C134.359 75.6847 134.279 75.8198 134.2 75.9488C134.102 76.1086 134.003 76.256 133.893 76.4035C133.831 76.4956 133.763 76.5838 133.69 76.6677C133.629 76.7476 133.562 76.8275 133.5 76.9073C133.434 76.9895 133.362 77.0675 133.286 77.1408C133.24 77.197 133.191 77.2504 133.138 77.3005C133.04 77.3988 132.942 77.4971 132.838 77.5893C132.802 77.6273 132.763 77.6622 132.721 77.6937C132.654 77.7551 132.58 77.8166 132.506 77.878C132.47 77.9087 132.427 77.9456 132.384 77.9763C132.353 78.0009 132.322 78.0255 132.286 78.0562H132.279C132.146 78.162 132.006 78.2605 131.862 78.3511C131.862 78.3519 131.862 78.3527 131.862 78.3535C131.861 78.3542 131.861 78.3549 131.86 78.3555C131.86 78.3561 131.859 78.3565 131.858 78.3568C131.858 78.3571 131.857 78.3573 131.856 78.3573C131.85 78.3573 131.85 78.3634 131.844 78.3695C131.758 78.431 131.666 78.4863 131.574 78.5416C131.525 78.5723 131.476 78.5969 131.427 78.6215C131.416 78.6317 131.403 78.64 131.39 78.646C131.335 78.6767 131.285 78.7075 131.23 78.732C131.089 78.8057 130.948 78.8795 130.801 78.9471C130.631 79.0276 130.457 79.0994 130.279 79.1621C130.276 79.1659 130.273 79.1689 130.268 79.171C130.264 79.1731 130.259 79.1743 130.255 79.1744C130.215 79.1914 130.174 79.2058 130.132 79.2174C130.052 79.2481 129.966 79.2788 129.887 79.3034C129.825 79.3218 129.77 79.3341 129.709 79.3525C129.58 79.3955 129.445 79.4263 129.31 79.457C129.274 79.4681 129.237 79.4763 129.199 79.4815C129.132 79.5 129.065 79.5123 128.997 79.5245C128.994 79.5241 128.99 79.5245 128.987 79.5255C128.984 79.5266 128.981 79.5284 128.979 79.5307C128.957 79.5294 128.936 79.5336 128.917 79.543C128.903 79.542 128.888 79.5441 128.874 79.5491C128.77 79.5676 128.66 79.5799 128.549 79.5983C128.488 79.6044 128.42 79.6106 128.353 79.6167C128.343 79.6217 128.333 79.6238 128.322 79.6229C128.255 79.629 128.193 79.6351 128.132 79.6413H128.12C128.052 79.6474 127.985 79.6474 127.917 79.6536C127.794 79.6597 127.672 79.6597 127.549 79.6597H30.3174C28.5901 79.6559 26.9123 79.0821 25.5437 78.0269C24.175 76.9718 23.1919 75.4942 22.7465 73.8231H22.5747C22.5377 73.6199 22.5131 73.4148 22.5011 73.2087C22.4949 73.0919 22.4888 72.969 22.4888 72.8523V62.1374C23.7765 62.1755 25.0535 62.3841 26.2865 62.758C29.6241 63.7778 32.8696 65.5043 36.3544 65.5043C36.6305 65.5043 36.9189 65.492 37.2011 65.4674C40.87 65.1602 43.7229 62.8808 46.0973 60.3066C46.2875 60.1038 46.4776 59.901 46.6556 59.6922C47.1035 59.1945 47.5329 58.6846 47.9501 58.1808C49.283 56.4951 50.7769 54.9436 52.4105 53.5483C52.6743 53.3332 52.9381 53.1305 53.2081 52.9339C54.7921 51.7508 56.6576 51.0032 58.6194 50.7651C58.8709 50.7405 59.1225 50.7221 59.374 50.716C61.9999 50.6361 64.4663 51.5823 66.7118 52.9339C67.0369 53.1305 67.3621 53.3332 67.675 53.5483C68.7487 54.2772 69.7829 55.0626 70.7733 55.9014C72.3024 57.2465 73.8997 58.5117 75.5588 59.6922C75.6815 59.7782 75.8043 59.8642 75.9269 59.9379C76.1171 60.0669 76.3135 60.1898 76.5098 60.3066C78.1905 61.3884 80.0806 62.1024 82.0561 62.4016C82.1236 62.4139 82.1972 62.4262 82.2708 62.4323C85.4673 62.8071 88.4429 61.8609 91.1608 60.3066C91.4982 60.11 91.8418 59.9072 92.1731 59.6922C94.2962 58.2791 96.2861 56.6751 98.1182 54.9C98.5967 54.4514 99.0815 53.9968 99.5845 53.5483C99.8116 53.3455 100.039 53.1366 100.272 52.9339C103.916 49.7268 108.119 46.79 113.082 46.79C113.291 46.79 113.505 46.7962 113.72 46.8085C117.291 46.9805 120.426 48.7131 123.058 50.9126C123.823 51.5478 124.554 52.2225 125.248 52.9339C125.279 52.9646 125.304 52.9892 125.334 53.0199C125.506 53.1919 125.678 53.3701 125.837 53.5483C127.801 55.6065 129.61 57.806 131.746 59.6922C131.979 59.9072 132.218 60.1099 132.463 60.3065C133.2 60.9186 133.979 61.4771 134.795 61.9777C134.985 62.0944 135.181 62.205 135.378 62.3095Z" fill="black"/>
</g>
<g opacity="0.1">
<path opacity="0.1" d="M135.378 53.0259V71.82C135.379 72.2859 135.335 72.7508 135.249 73.2086C135.218 73.4174 135.169 73.6202 135.12 73.8229C135.065 74.0318 134.997 74.2407 134.93 74.4435C134.887 74.5541 134.85 74.6647 134.801 74.7691C134.783 74.8244 134.758 74.8735 134.733 74.9288C134.678 75.064 134.617 75.193 134.549 75.3221C134.549 75.3282 134.549 75.3343 134.543 75.3343C134.506 75.408 134.47 75.4818 134.433 75.5494C134.359 75.6845 134.279 75.8197 134.2 75.9487C134.102 76.1085 134.003 76.2559 133.893 76.4034C133.831 76.4955 133.763 76.5837 133.69 76.6676C133.629 76.7474 133.562 76.8273 133.5 76.9071C133.434 76.9894 133.362 77.0673 133.286 77.1406C133.24 77.1969 133.191 77.2502 133.138 77.3004C133.04 77.3987 132.942 77.497 132.838 77.5891C132.802 77.6271 132.763 77.6621 132.721 77.6936C132.654 77.755 132.58 77.8165 132.506 77.8779C132.47 77.9086 132.427 77.9455 132.384 77.9762C132.353 78.0008 132.322 78.0253 132.286 78.0561H132.279C132.146 78.1619 132.006 78.2603 131.862 78.351C131.862 78.3518 131.862 78.3526 131.862 78.3534C131.861 78.3541 131.861 78.3548 131.86 78.3554C131.86 78.3559 131.859 78.3564 131.858 78.3567C131.858 78.357 131.857 78.3571 131.856 78.3571C131.85 78.3571 131.85 78.3633 131.844 78.3694C131.758 78.4309 131.666 78.4861 131.574 78.5414C131.525 78.5721 131.476 78.5967 131.427 78.6213C131.416 78.6316 131.403 78.6399 131.39 78.6459C131.335 78.6766 131.285 78.7073 131.23 78.7319C131.089 78.8056 130.948 78.8793 130.801 78.9469C130.631 79.0275 130.457 79.0993 130.279 79.162C130.276 79.1657 130.273 79.1688 130.268 79.1709C130.264 79.173 130.259 79.1741 130.255 79.1742C130.215 79.1913 130.174 79.2057 130.132 79.2172C130.052 79.2479 129.966 79.2787 129.887 79.3032C129.825 79.3217 129.77 79.334 129.709 79.3524C129.58 79.3954 129.445 79.4261 129.31 79.4568C129.274 79.468 129.237 79.4762 129.199 79.4814C129.132 79.4999 129.065 79.5122 128.997 79.5244C128.994 79.524 128.99 79.5243 128.987 79.5254C128.984 79.5265 128.981 79.5282 128.979 79.5306C128.957 79.5292 128.936 79.5335 128.917 79.5429C128.903 79.5419 128.888 79.544 128.874 79.549C128.77 79.5674 128.66 79.5797 128.549 79.5981C128.488 79.6043 128.42 79.6104 128.353 79.6166C128.343 79.6216 128.333 79.6237 128.322 79.6227C128.291 79.6227 128.255 79.6289 128.224 79.6289C128.194 79.6339 128.163 79.636 128.132 79.635C128.106 79.6403 128.079 79.6424 128.052 79.6411H128.021C127.991 79.6473 127.954 79.6473 127.917 79.6534C127.794 79.6596 127.672 79.6596 127.549 79.6596H30.3174C28.5901 79.6558 26.9123 79.0819 25.5437 78.0268C24.175 76.9716 23.1919 75.4941 22.7465 73.8229C22.6974 73.6201 22.6483 73.4174 22.6176 73.2085C22.5311 72.7508 22.4879 72.2859 22.4888 71.82V60.8778C22.7035 60.6935 22.9121 60.5031 23.1207 60.3064C23.3355 60.1037 23.544 59.9009 23.7527 59.6921C25.5802 57.7873 27.2446 55.7321 28.7283 53.5482C28.7774 53.4806 28.8265 53.4191 28.8695 53.3516C28.9676 53.2103 29.0658 53.0751 29.1701 52.9338C30.658 50.753 32.3222 48.6981 34.1458 46.7899C34.3544 46.581 34.563 46.3783 34.7777 46.1755C37.06 44.0252 39.6614 42.4216 42.729 42.0407C46.9562 41.5123 50.8889 43.4722 54.3676 46.1755C54.6253 46.3783 54.8768 46.581 55.1284 46.7899C56.3186 47.7606 57.4475 48.8174 58.515 49.868C58.7973 50.1506 59.0857 50.4332 59.374 50.7159C60.1164 51.4592 60.8771 52.2027 61.644 52.9338C61.8649 53.1427 62.0797 53.3454 62.3005 53.5482C65.3682 56.3928 68.6873 58.8934 72.6323 59.6921C72.9022 59.7473 73.1783 59.7965 73.4544 59.8333C74.945 60.0321 76.458 59.9844 77.9332 59.6921C78.1786 59.649 78.4178 59.5937 78.6633 59.5323C82.3567 58.6169 85.7802 56.3129 88.8785 53.5482C89.0994 53.3454 89.3264 53.1427 89.5472 52.9338C91.1301 51.4654 92.6333 49.8926 94.0383 48.3443C94.5045 47.8282 94.9831 47.306 95.4616 46.7899C95.658 46.5872 95.8482 46.3844 96.0383 46.1755C98.0917 43.9347 100.338 41.8788 102.75 40.0317C103.039 39.8166 103.327 39.6139 103.615 39.4173C106.861 37.1993 110.407 35.774 114.303 36.0013C117.518 36.1856 120.457 37.5126 123.101 39.4173C123.371 39.6139 123.641 39.8166 123.911 40.0317C125.923 41.6505 127.76 43.4771 129.39 45.4813C129.58 45.7086 129.77 45.9421 129.96 46.1755C130.058 46.2923 130.15 46.4152 130.249 46.5319L130.451 46.7899C132.077 48.8235 133.641 50.937 135.304 52.9338L135.378 53.0259Z" fill="black"/>
</g>
<g opacity="0.1">
<path opacity="0.1" d="M135.378 45.2665V71.8203C135.379 72.2862 135.335 72.7511 135.249 73.2088C135.218 73.4177 135.169 73.6204 135.12 73.8232C135.065 74.0321 134.997 74.241 134.93 74.4437C134.887 74.5543 134.85 74.6649 134.801 74.7694C134.783 74.8247 134.758 74.8738 134.733 74.9291C134.678 75.0643 134.617 75.1933 134.549 75.3223C134.549 75.3285 134.549 75.3346 134.543 75.3346C134.506 75.4083 134.47 75.4821 134.433 75.5496C134.359 75.6848 134.279 75.82 134.2 75.949C134.102 76.1087 134.003 76.2562 133.893 76.4036C133.831 76.4957 133.763 76.5839 133.69 76.6678C133.629 76.7477 133.562 76.8276 133.5 76.9074C133.434 76.9896 133.362 77.0676 133.286 77.1409C133.24 77.1972 133.191 77.2505 133.138 77.3006C133.04 77.399 132.942 77.4972 132.838 77.5894C132.802 77.6274 132.763 77.6623 132.721 77.6938C132.654 77.7553 132.58 77.8167 132.506 77.8782C132.47 77.9089 132.427 77.9457 132.384 77.9765C132.353 78.001 132.322 78.0256 132.286 78.0564H132.279C132.146 78.1622 132.006 78.2606 131.862 78.3512C131.862 78.3521 131.862 78.3529 131.862 78.3536C131.861 78.3544 131.861 78.3551 131.86 78.3556C131.86 78.3562 131.859 78.3567 131.858 78.357C131.858 78.3573 131.857 78.3574 131.856 78.3574C131.85 78.3574 131.85 78.3635 131.844 78.3697C131.758 78.4311 131.666 78.4864 131.574 78.5417C131.525 78.5724 131.476 78.597 131.427 78.6216C131.416 78.6318 131.403 78.6401 131.39 78.6461C131.335 78.6769 131.285 78.7076 131.23 78.7322C131.089 78.8059 130.948 78.8796 130.801 78.9472C130.631 79.0278 130.457 79.0996 130.279 79.1622C130.276 79.166 130.273 79.169 130.268 79.1711C130.264 79.1733 130.259 79.1744 130.255 79.1745C130.215 79.1916 130.174 79.2059 130.132 79.2175C130.052 79.2482 129.966 79.279 129.887 79.3035C129.825 79.322 129.77 79.3342 129.709 79.3527C129.58 79.3957 129.445 79.4264 129.31 79.4571C129.274 79.4682 129.237 79.4764 129.199 79.4817C129.132 79.5001 129.065 79.5124 128.997 79.5247C128.994 79.5243 128.99 79.5246 128.987 79.5257C128.984 79.5267 128.981 79.5285 128.979 79.5308C128.957 79.5295 128.936 79.5337 128.917 79.5431C128.903 79.5421 128.888 79.5442 128.874 79.5493C128.77 79.5677 128.66 79.58 128.549 79.5984C128.488 79.6045 128.42 79.6107 128.353 79.6168C128.343 79.6218 128.333 79.6239 128.322 79.623C128.291 79.623 128.255 79.6291 128.224 79.6291C128.194 79.6342 128.163 79.6363 128.132 79.6352C128.129 79.6386 128.124 79.6407 128.12 79.6414H128.021C127.868 79.6537 127.709 79.6598 127.549 79.6598H30.3174C28.5901 79.656 26.9123 79.0822 25.5437 78.027C24.175 76.9719 23.1919 75.4943 22.7465 73.8232C22.6974 73.6204 22.6483 73.4176 22.6176 73.2088C22.5311 72.751 22.4879 72.2861 22.4888 71.8202V55.9568C23.1084 55.152 23.7302 54.3492 24.3539 53.5484C24.5134 53.3395 24.6729 53.1368 24.8325 52.934C25.673 51.8527 26.5197 50.7837 27.3909 49.7392C28.2252 48.7378 29.1026 47.7486 30.0168 46.7902C30.2131 46.5874 30.4094 46.3785 30.6119 46.1758C32.9394 43.7475 35.6126 41.6772 38.5448 40.0319C38.9436 39.8107 39.3485 39.608 39.7596 39.4175C41.9364 38.3768 44.2915 37.7616 46.6986 37.6051C49.8561 37.4472 53.004 38.0696 55.8647 39.4175C56.2941 39.6018 56.7174 39.8107 57.1346 40.0319C60.1348 41.5802 62.9509 43.749 65.589 46.1758C65.816 46.3724 66.0308 46.5813 66.2517 46.7902C68.3438 48.7562 70.3255 50.8636 72.2151 52.9341C72.3563 53.0877 72.4974 53.2474 72.6385 53.401C72.6814 53.4501 72.7305 53.4993 72.7735 53.5484C74.614 55.5759 76.5773 57.628 78.6633 59.5326C78.7185 59.5878 78.7799 59.637 78.8412 59.6923C79.0682 59.9012 79.2952 60.1039 79.5283 60.3067C80.3505 61.0378 81.1971 61.7382 82.0561 62.4017C84.0917 64.0073 86.3096 65.3663 88.6638 66.4506C89.1607 66.6779 89.6638 66.8806 90.173 67.065C92.9782 68.1378 96.0055 68.4967 98.9833 68.1094C100.351 67.9198 101.692 67.5692 102.977 67.065C103.468 66.8806 103.947 66.6717 104.419 66.4506C107.53 64.976 110.34 62.7458 113.002 60.3067C113.223 60.1039 113.444 59.9012 113.665 59.6923C115.18 58.2669 116.653 56.7862 118.107 55.3547C118.72 54.7526 119.346 54.1444 119.99 53.5484C120.211 53.3457 120.438 53.1429 120.665 52.9341C121.438 52.2398 122.236 51.5578 123.058 50.9127C125.068 49.2658 127.278 47.8806 129.635 46.7902C129.838 46.698 130.046 46.612 130.249 46.5321C130.561 46.4031 130.874 46.2864 131.187 46.1758C132.538 45.6909 133.947 45.3852 135.378 45.2665Z" fill="black"/>
</g>
<path d="M46.7229 41.2605C47.7394 41.2605 48.5635 40.4353 48.5635 39.4174C48.5635 38.3994 47.7394 37.5742 46.7229 37.5742C45.7064 37.5742 44.8823 38.3994 44.8823 39.4174C44.8823 40.4353 45.7064 41.2605 46.7229 41.2605Z" fill="white"/>
<path d="M74.9453 61.5354C75.9618 61.5354 76.7859 60.7102 76.7859 59.6923C76.7859 58.6743 75.9618 57.8491 74.9453 57.8491C73.9288 57.8491 73.1047 58.6743 73.1047 59.6923C73.1047 60.7102 73.9288 61.5354 74.9453 61.5354Z" fill="white"/>
<path d="M112.984 48.0188C114 48.0188 114.824 47.1936 114.824 46.1757C114.824 45.1577 114 44.3325 112.984 44.3325C111.967 44.3325 111.143 45.1577 111.143 46.1757C111.143 47.1936 111.967 48.0188 112.984 48.0188Z" fill="white"/>
<path d="M196.706 61.9019H153.305C153.1 61.9016 152.896 61.9419 152.705 62.0206C152.515 62.0992 152.342 62.2147 152.197 62.3603C152.051 62.506 151.935 62.679 151.856 62.8694C151.778 63.0598 151.737 63.2639 151.737 63.47C151.737 63.6762 151.778 63.8803 151.856 64.0707C151.935 64.2611 152.051 64.4341 152.197 64.5797C152.342 64.7254 152.515 64.8408 152.705 64.9195C152.896 64.9982 153.1 65.0385 153.305 65.0382H196.706C197.121 65.0382 197.519 64.873 197.813 64.5789C198.107 64.2848 198.272 63.8859 198.272 63.47C198.272 63.0541 198.107 62.6553 197.813 62.3612C197.519 62.0671 197.121 61.9019 196.706 61.9019Z" fill="#E6E6E6"/>
<path d="M196.706 85.6484H153.305C152.89 85.6484 152.492 85.8137 152.198 86.1077C151.904 86.4018 151.74 86.8007 151.74 87.2166C151.74 87.6325 151.904 88.0314 152.198 88.3255C152.492 88.6196 152.89 88.7848 153.305 88.7848H196.706C197.121 88.7848 197.519 88.6196 197.813 88.3255C198.107 88.0314 198.272 87.6325 198.272 87.2166C198.272 86.8007 198.107 86.4018 197.813 86.1077C197.519 85.8137 197.121 85.6484 196.706 85.6484Z" fill="#E6E6E6"/>
<path d="M196.706 109.396H153.305C152.89 109.396 152.492 109.561 152.198 109.855C151.904 110.149 151.74 110.548 151.74 110.964C151.74 111.38 151.904 111.778 152.198 112.073C152.492 112.367 152.89 112.532 153.305 112.532H196.706C197.121 112.532 197.519 112.367 197.813 112.073C198.107 111.778 198.272 111.38 198.272 110.964C198.272 110.548 198.107 110.149 197.813 109.855C197.519 109.561 197.121 109.396 196.706 109.396Z" fill="#E6E6E6"/>
<path d="M223.003 67.5034C225.163 67.5034 226.914 65.75 226.914 63.5871C226.914 61.4243 225.163 59.6709 223.003 59.6709C220.843 59.6709 219.092 61.4243 219.092 63.5871C219.092 65.75 220.843 67.5034 223.003 67.5034Z" fill="#F2F2F2"/>
<path d="M222.47 65.6254C222.402 65.6254 222.335 65.6096 222.275 65.5794C222.215 65.5491 222.162 65.5052 222.122 65.4511L221.055 64.0265C221.02 63.9807 220.995 63.9286 220.981 63.8732C220.967 63.8177 220.964 63.76 220.972 63.7034C220.98 63.6467 220.999 63.5921 221.028 63.5429C221.057 63.4936 221.096 63.4505 221.141 63.4162C221.187 63.3818 221.239 63.3569 221.294 63.3427C221.35 63.3285 221.407 63.3254 221.464 63.3335C221.521 63.3416 221.575 63.3609 221.624 63.3901C221.673 63.4193 221.716 63.4579 221.751 63.5038L222.449 64.4357L224.241 61.7428C224.305 61.6467 224.405 61.5799 224.518 61.5573C224.631 61.5346 224.749 61.5579 224.845 61.622C224.941 61.6861 225.007 61.7857 225.03 61.899C225.053 62.0123 225.029 62.13 224.965 62.2261L222.832 65.4314C222.793 65.4893 222.741 65.5372 222.68 65.5709C222.619 65.6046 222.551 65.6233 222.482 65.6252L222.47 65.6254Z" fill="white"/>
<path d="M223.003 91.2505C225.163 91.2505 226.914 89.4971 226.914 87.3342C226.914 85.1713 225.163 83.418 223.003 83.418C220.843 83.418 219.092 85.1713 219.092 87.3342C219.092 89.4971 220.843 91.2505 223.003 91.2505Z" fill="#F2F2F2"/>
<path d="M222.47 89.3724C222.402 89.3724 222.335 89.3567 222.275 89.3264C222.215 89.2962 222.162 89.2523 222.122 89.1981L221.055 87.7736C221.02 87.7278 220.995 87.6757 220.981 87.6203C220.967 87.5648 220.964 87.5071 220.972 87.4504C220.98 87.3937 220.999 87.3392 221.028 87.2899C221.057 87.2407 221.096 87.1976 221.141 87.1633C221.187 87.1289 221.239 87.1039 221.294 87.0897C221.35 87.0755 221.407 87.0724 221.464 87.0806C221.521 87.0887 221.575 87.1079 221.624 87.1371C221.673 87.1664 221.716 87.205 221.751 87.2508L222.449 88.1828L224.241 85.4899C224.273 85.4423 224.314 85.4014 224.361 85.3696C224.409 85.3377 224.462 85.3156 224.518 85.3044C224.574 85.2931 224.632 85.2931 224.688 85.3042C224.744 85.3153 224.797 85.3373 224.845 85.3691C224.892 85.4008 224.933 85.4416 224.965 85.4891C224.997 85.5367 225.019 85.59 225.03 85.6461C225.041 85.7022 225.041 85.76 225.03 85.8161C225.019 85.8722 224.997 85.9256 224.965 85.9732L222.832 89.1784C222.793 89.2364 222.741 89.2842 222.68 89.318C222.619 89.3517 222.551 89.3703 222.482 89.3723L222.47 89.3724Z" fill="white"/>
<path d="M223.003 114.997C225.163 114.997 226.914 113.244 226.914 111.081C226.914 108.918 225.163 107.165 223.003 107.165C220.843 107.165 219.092 108.918 219.092 111.081C219.092 113.244 220.843 114.997 223.003 114.997Z" fill="#F2F2F2"/>
<path d="M196.706 38.1548H153.305C152.89 38.1548 152.492 38.32 152.198 38.6141C151.904 38.9082 151.74 39.3071 151.74 39.723C151.74 40.1389 151.904 40.5378 152.198 40.8318C152.492 41.1259 152.89 41.2912 153.305 41.2912H196.706C197.121 41.2912 197.519 41.1259 197.813 40.8318C198.107 40.5378 198.272 40.1389 198.272 39.723C198.272 39.3071 198.107 38.9082 197.813 38.6141C197.519 38.32 197.121 38.1548 196.706 38.1548Z" fill="#E6E6E6"/>
<path d="M223.003 43.7568C225.163 43.7568 226.914 42.0034 226.914 39.8406C226.914 37.6777 225.163 35.9243 223.003 35.9243C220.843 35.9243 219.092 37.6777 219.092 39.8406C219.092 42.0034 220.843 43.7568 223.003 43.7568Z" fill="#3ACEAA"/>
<path d="M222.47 41.8788C222.402 41.8788 222.335 41.863 222.275 41.8328C222.215 41.8025 222.162 41.7586 222.122 41.7045L221.055 40.2799C221.02 40.2341 220.995 40.182 220.981 40.1266C220.967 40.0711 220.964 40.0134 220.972 39.9567C220.98 39.9001 220.999 39.8455 221.028 39.7963C221.057 39.747 221.096 39.704 221.141 39.6696C221.187 39.6353 221.239 39.6103 221.294 39.5961C221.35 39.5819 221.407 39.5788 221.464 39.5869C221.521 39.595 221.575 39.6143 221.624 39.6435C221.673 39.6727 221.716 39.7113 221.751 39.7572L222.449 40.6891L224.241 37.9962C224.273 37.9486 224.314 37.9077 224.361 37.8759C224.409 37.8441 224.462 37.8219 224.518 37.8107C224.574 37.7995 224.632 37.7994 224.688 37.8105C224.744 37.8216 224.797 37.8437 224.845 37.8754C224.892 37.9071 224.933 37.9479 224.965 37.9955C224.997 38.043 225.019 38.0963 225.03 38.1524C225.041 38.2085 225.041 38.2663 225.03 38.3224C225.019 38.3785 224.997 38.4319 224.965 38.4795L222.832 41.6848C222.793 41.7427 222.741 41.7906 222.68 41.8243C222.619 41.858 222.551 41.8767 222.482 41.8786L222.47 41.8788Z" fill="white"/>
<path d="M210.028 43.7568C212.188 43.7568 213.938 42.0034 213.938 39.8406C213.938 37.6777 212.188 35.9243 210.028 35.9243C207.868 35.9243 206.117 37.6777 206.117 39.8406C206.117 42.0034 207.868 43.7568 210.028 43.7568Z" fill="#F2F2F2"/>
<path d="M210.028 67.5034C212.188 67.5034 213.938 65.75 213.938 63.5871C213.938 61.4243 212.188 59.6709 210.028 59.6709C207.868 59.6709 206.117 61.4243 206.117 63.5871C206.117 65.75 207.868 67.5034 210.028 67.5034Z" fill="#F2F2F2"/>
<path d="M210.028 91.2505C212.188 91.2505 213.938 89.4971 213.938 87.3342C213.938 85.1713 212.188 83.418 210.028 83.418C207.868 83.418 206.117 85.1713 206.117 87.3342C206.117 89.4971 207.868 91.2505 210.028 91.2505Z" fill="#F2F2F2"/>
<path d="M210.028 114.997C212.188 114.997 213.938 113.244 213.938 111.081C213.938 108.918 212.188 107.165 210.028 107.165C207.868 107.165 206.117 108.918 206.117 111.081C206.117 113.244 207.868 114.997 210.028 114.997Z" fill="#F2F2F2"/>
<path d="M222.469 113.119C222.402 113.119 222.335 113.103 222.275 113.073C222.214 113.043 222.162 112.999 222.121 112.945L221.055 111.52C221.02 111.474 220.995 111.422 220.981 111.367C220.967 111.311 220.964 111.254 220.972 111.197C220.98 111.141 220.999 111.086 221.028 111.037C221.057 110.988 221.096 110.945 221.142 110.91C221.187 110.876 221.239 110.851 221.295 110.837C221.35 110.823 221.408 110.819 221.464 110.828C221.521 110.836 221.575 110.855 221.624 110.884C221.673 110.913 221.716 110.952 221.751 110.997L222.449 111.929L224.241 109.236C224.305 109.14 224.405 109.074 224.518 109.051C224.631 109.028 224.749 109.052 224.845 109.116C224.941 109.18 225.007 109.279 225.03 109.393C225.052 109.506 225.029 109.624 224.965 109.72L222.831 112.925C222.793 112.983 222.741 113.031 222.68 113.065C222.619 113.098 222.551 113.117 222.482 113.119L222.469 113.119Z" fill="white"/>
<path d="M216.831 187.581C216.832 187.603 216.828 187.626 216.82 187.646C216.811 187.667 216.797 187.685 216.78 187.7C216.754 187.72 216.722 187.732 216.689 187.737C216.655 187.744 216.62 187.738 216.591 187.719C216.562 187.701 216.542 187.672 216.533 187.639C216.067 186.067 214.924 184.862 213.842 183.68C212.868 182.62 211.911 181.503 211.421 180.125C211.208 179.577 211.114 178.991 211.144 178.404C211.175 177.818 211.329 177.244 211.597 176.722C211.765 176.409 211.961 176.112 212.182 175.834C212.665 175.218 213.24 174.669 213.757 174.087C213.811 174.026 213.865 173.962 213.916 173.901C213.987 173.823 214.051 173.742 214.112 173.66C214.757 172.862 215.206 171.922 215.421 170.918C215.652 169.693 215.687 168.439 215.526 167.203C215.458 166.546 215.365 165.894 215.245 165.246C215.238 165.215 215.235 165.188 215.228 165.161C214.706 162.382 213.757 159.701 212.415 157.214C212.364 157.122 212.317 157.031 212.266 156.943C212.05 156.55 211.826 156.164 211.59 155.785C211.671 155.727 211.759 155.673 211.847 155.622C212.622 156.879 213.297 158.196 213.865 159.56C214.6 161.31 215.152 163.131 215.512 164.995C215.536 165.097 215.553 165.202 215.57 165.303C215.712 166.085 215.817 166.878 215.881 167.667C216.008 168.905 215.923 170.155 215.631 171.365C215.365 172.324 214.896 173.215 214.254 173.975C214.139 174.121 214.018 174.263 213.889 174.402C213.375 174.964 212.807 175.509 212.344 176.122C212.107 176.43 211.906 176.764 211.745 177.118C211.201 178.337 211.458 179.671 212.06 180.815C213.149 182.898 215.225 184.317 216.331 186.359C216.535 186.735 216.7 187.131 216.824 187.54C216.828 187.554 216.83 187.567 216.831 187.581Z" fill="white"/>
<path d="M215.43 165.339C216.379 165.1 217.213 164.531 217.782 163.734C218.351 162.936 218.619 161.962 218.537 160.985C218.52 160.787 218.212 160.805 218.23 161.003C218.308 161.912 218.058 162.82 217.527 163.561C216.995 164.303 216.216 164.83 215.331 165.047C215.139 165.094 215.239 165.386 215.43 165.339Z" fill="white"/>
<path d="M214.196 173.711C212.47 172.697 211.189 171.069 210.608 169.152C210.55 168.962 210.259 169.061 210.316 169.251C210.924 171.245 212.261 172.936 214.06 173.987C214.231 174.087 214.367 173.81 214.196 173.711Z" fill="white"/>
<path d="M212.452 157.197C212.438 157.203 212.428 157.207 212.415 157.214C211.806 157.492 211.113 157.525 210.48 157.305C210.508 157.205 210.543 157.108 210.585 157.014C211.135 157.202 211.735 157.177 212.266 156.943C212.296 156.932 212.323 156.919 212.354 156.905C212.392 156.892 212.435 156.895 212.471 156.912C212.508 156.93 212.536 156.962 212.55 157C212.561 157.039 212.557 157.081 212.539 157.117C212.521 157.154 212.49 157.182 212.452 157.197Z" fill="white"/>
<path d="M195.596 105.309C195.892 104.952 196.106 104.535 196.223 104.087C196.341 103.638 196.358 103.17 196.275 102.714C196.192 102.258 196.01 101.826 195.742 101.448C195.474 101.07 195.127 100.756 194.724 100.527L196.766 89.4478L191.383 91.7301L190.269 101.901C189.93 102.603 189.86 103.406 190.072 104.157C190.284 104.908 190.764 105.554 191.421 105.975C192.078 106.395 192.866 106.559 193.635 106.436C194.405 106.313 195.102 105.912 195.596 105.309Z" fill="#FFB6B6"/>
<path d="M198.882 72.5179L197.171 66.758L185.106 47.907C184.435 47.1221 183.633 46.4598 182.736 45.9498C180.952 44.9291 178.874 44.5513 176.846 44.8793C174.818 45.2074 172.964 46.2215 171.593 47.7526C170.221 49.2837 169.415 51.2393 169.309 53.2934C169.202 55.3475 169.802 57.376 171.009 59.0408C171.257 59.3887 171.532 59.717 171.83 60.0228L187.456 76.1615L188.345 77.0825L189.752 80.6448L190.307 96.8885L190.804 97.007L195.183 98.0398L195.795 98.1854L196.819 92.8792L197.462 90.3429C198.008 88.18 198.284 85.9574 198.284 83.7263C198.284 83.0389 198.26 82.3481 198.206 81.6607L198.882 72.5179Z" fill="#3F3D56"/>
<path d="M182.296 184.53H178.106L176.113 168.347L182.297 168.348L182.296 184.53Z" fill="#FFB6B6"/>
<path d="M182.185 183.159L177.714 181.34L177.583 181.286L175.114 183.159C173.76 183.159 172.457 183.682 171.479 184.62C170.5 185.558 169.921 186.839 169.863 188.194C169.856 188.268 169.856 188.346 169.856 188.424V188.597H183.365V183.159H182.185Z" fill="#2F2E41"/>
<path d="M174.318 176.161L170.707 178.289L160.793 165.354L166.122 162.214L174.318 176.161Z" fill="#FFB6B6"/>
<path d="M176.812 178.293L176.321 177.457L174.546 174.436L173.623 174.981L173.528 175.035L168.754 175.74L168.611 175.76L167.435 178.628C166.839 178.979 166.319 179.443 165.903 179.995C165.487 180.547 165.183 181.176 165.01 181.846C164.837 182.515 164.797 183.212 164.893 183.897C164.988 184.582 165.218 185.241 165.568 185.837L165.656 185.983L177.298 179.123L176.812 178.293Z" fill="#2F2E41"/>
<path d="M187.603 85.5986C189.567 91.5312 189.359 97.9708 187.13 104.882L186.549 128.642L184.68 143.628C185.807 146.565 186.385 149.684 186.385 152.83C186.377 161.076 185.824 172.791 183.017 178.294H176.374L174.874 153.787L173.084 141.465L172.864 128.261L172.671 116.745L165.448 127.323L158.429 137.601L165.406 149.385L171.493 168.348L165.068 173.766L157.779 159.928L154.247 155.819L144.604 134.916L145.471 132.005C147.256 126.011 149.847 120.289 153.175 114.996L162.766 92.7047L187.603 85.5986Z" fill="#2F2E41"/>
<path d="M188.454 83.6181L187.358 81.4238L187.456 76.1616L187.784 58.3705C187.824 56.0661 187.397 53.7776 186.529 51.6429C185.662 49.5082 184.371 47.5716 182.736 45.9499C181.765 44.9816 180.68 44.1366 179.503 43.434L177.15 42.0253L175.959 38.998L164.983 39.2656L164.959 42.2014L164.949 43.2342L161.017 49.5122L161.02 49.5393L161.101 60.9644L161.264 83.7061L162.349 87.2311L160.709 91.3352L161.581 93.9494L162.278 93.8376L185.739 90.0823C186.805 89.7397 187.71 89.0199 188.285 88.0574C188.4 87.8692 188.501 87.6722 188.586 87.4682C188.842 86.8547 188.962 86.1931 188.939 85.5287C188.917 84.8643 188.751 84.2125 188.454 83.6181Z" fill="#3F3D56"/>
<path d="M169.465 35.2326C174.973 35.2326 179.439 30.7609 179.439 25.2447C179.439 19.7286 174.973 15.2568 169.465 15.2568C163.956 15.2568 159.491 19.7286 159.491 25.2447C159.491 30.7609 163.956 35.2326 169.465 35.2326Z" fill="#FFB6B6"/>
<path d="M175.67 33.5205C176.723 32.7782 177.79 31.3653 178.5 30.3075C179.442 28.917 180.081 27.3438 180.377 25.69C180.673 24.0362 180.618 22.3385 180.217 20.7072C180.087 20.0545 179.782 19.4496 179.334 18.9578C179.106 18.7177 178.807 18.5563 178.481 18.4967C178.155 18.4371 177.818 18.4823 177.519 18.6259C177.67 18.2042 177.733 17.756 177.704 17.3091C177.675 16.8621 177.554 16.4259 177.35 16.0273C176.936 15.2314 176.343 14.5432 175.617 14.017C174.228 12.9765 172.584 12.3319 170.859 12.1515C169.134 11.9712 167.393 12.2619 165.819 12.9928C165.2 13.2905 166.193 11.0438 165.544 11.2681C164.899 11.5283 164.179 11.5256 163.537 11.2606C162.919 10.96 160.912 12.8248 161.138 12.1756C160.676 12.3937 160.276 12.7254 159.976 13.1399C159.676 13.5543 159.486 14.0381 159.423 14.546C159.36 15.054 159.426 15.5697 159.615 16.0451C159.805 16.5205 160.112 16.94 160.507 17.2648C161.028 17.6927 161.674 17.9343 162.242 18.2959C163.239 18.9779 163.953 20.0018 164.247 21.1743C164.542 22.3468 164.398 23.5868 163.842 24.6602C164.43 24.2705 165.076 23.9783 165.757 23.7951C166.098 23.7066 166.456 23.701 166.8 23.7789C167.144 23.8567 167.465 24.0158 167.735 24.2427C167.962 24.4955 168.135 24.792 168.243 25.114C168.351 25.4361 168.393 25.7769 168.364 26.1155C168.351 26.7936 168.2 27.4635 168.191 28.1416C168.165 30.1313 167.154 33.9276 168.708 34.9634C169.935 35.7809 174.231 34.5339 175.67 33.5205Z" fill="#2F2E41"/>
<path d="M114.056 49.5384C114.292 49.9371 114.613 50.2792 114.995 50.5404C115.377 50.8017 115.812 50.9759 116.269 51.0507C116.726 51.1255 117.193 51.0991 117.639 50.9733C118.084 50.8476 118.497 50.6256 118.847 50.3229L128.581 55.9718L128.243 50.1271L119.052 45.6589C118.505 45.1029 117.773 44.7671 116.996 44.7151C116.218 44.6631 115.449 44.8985 114.833 45.3767C114.217 45.8549 113.798 46.5427 113.655 47.3097C113.512 48.0768 113.655 48.8697 114.056 49.5384Z" fill="#FFB6B6"/>
<path d="M176.916 47.7887C176.539 46.6068 175.921 45.5159 175.102 44.5845C174.283 43.6531 173.281 42.9014 172.158 42.3767C171.035 41.852 169.816 41.5655 168.577 41.5354C167.338 41.5052 166.106 41.732 164.959 42.2015C164.851 42.2455 164.743 42.2929 164.635 42.3403L143.041 52.184L134.634 51.1851L123.753 47.379L123.476 47.809L121.031 51.5914L120.689 52.1197L132.362 59.0309L133.6 59.2883C134.677 59.5116 135.7 59.9457 136.61 60.5657C137.52 61.1857 138.299 61.9794 138.902 62.9014L143.426 64.3913L161.101 60.9645L171.009 59.0411L171.57 58.9327C173.268 58.2784 174.728 57.1246 175.758 55.6232C176.789 54.1218 177.341 52.3431 177.342 50.5214C177.343 49.5939 177.199 48.6719 176.916 47.7887Z" fill="#3F3D56"/>
<path d="M100.514 94.792H29.0478C28.6329 94.7926 28.2352 94.9581 27.942 95.2521C27.6488 95.5461 27.4841 95.9447 27.4841 96.3602C27.4841 96.7757 27.6488 97.1742 27.942 97.4682C28.2352 97.7623 28.6329 97.9278 29.0478 97.9284H100.514C100.72 97.9287 100.924 97.8883 101.114 97.8097C101.304 97.731 101.477 97.6155 101.623 97.4699C101.769 97.3242 101.884 97.1513 101.963 96.9608C102.042 96.7704 102.083 96.5663 102.083 96.3602C102.083 96.1541 102.042 95.9499 101.963 95.7595C101.884 95.5691 101.769 95.3961 101.623 95.2505C101.477 95.1048 101.304 94.9894 101.114 94.9107C100.924 94.832 100.72 94.7917 100.514 94.792H100.514Z" fill="#E6E6E6"/>
<path d="M126.812 100.394C128.972 100.394 130.723 98.6402 130.723 96.4773C130.723 94.3144 128.972 92.561 126.812 92.561C124.652 92.561 122.901 94.3144 122.901 96.4773C122.901 98.6402 124.652 100.394 126.812 100.394Z" fill="#3ACEAA"/>
<path d="M126.278 98.5155C126.211 98.5155 126.144 98.4998 126.084 98.4695C126.024 98.4393 125.971 98.3953 125.931 98.3412L124.864 96.9166C124.829 96.8709 124.804 96.8188 124.79 96.7634C124.776 96.708 124.773 96.6503 124.781 96.5937C124.789 96.537 124.808 96.4825 124.837 96.4333C124.866 96.3841 124.905 96.3411 124.951 96.3068C124.996 96.2724 125.048 96.2475 125.104 96.2333C125.159 96.2191 125.217 96.2159 125.273 96.224C125.33 96.2321 125.384 96.2513 125.433 96.2804C125.482 96.3096 125.525 96.3481 125.56 96.3939L126.258 97.3258L128.05 94.633C128.082 94.5854 128.123 94.5445 128.17 94.5126C128.218 94.4808 128.271 94.4586 128.327 94.4474C128.383 94.4362 128.441 94.4361 128.497 94.4472C128.553 94.4584 128.606 94.4804 128.654 94.5121C128.701 94.5439 128.742 94.5847 128.774 94.6322C128.806 94.6797 128.828 94.7331 128.839 94.7892C128.85 94.8453 128.85 94.903 128.839 94.9591C128.828 95.0153 128.806 95.0687 128.774 95.1163L126.641 98.3215C126.602 98.3795 126.55 98.4273 126.489 98.4611C126.428 98.4948 126.36 98.5134 126.291 98.5154L126.278 98.5155Z" fill="white"/>
<path d="M113.837 100.394C115.996 100.394 117.747 98.6402 117.747 96.4773C117.747 94.3144 115.996 92.561 113.837 92.561C111.677 92.561 109.926 94.3144 109.926 96.4773C109.926 98.6402 111.677 100.394 113.837 100.394Z" fill="#F2F2F2"/>
<path d="M100.176 113.755H28.7097C28.2948 113.755 27.897 113.921 27.6039 114.215C27.3107 114.509 27.146 114.908 27.146 115.323C27.146 115.739 27.3107 116.137 27.6039 116.431C27.897 116.725 28.2948 116.891 28.7097 116.891H100.176C100.591 116.891 100.99 116.726 101.283 116.432C101.577 116.138 101.742 115.739 101.742 115.323C101.742 114.907 101.577 114.508 101.283 114.214C100.99 113.92 100.591 113.755 100.176 113.755H100.176Z" fill="#E6E6E6"/>
<path d="M126.474 119.356C128.634 119.356 130.384 117.603 130.384 115.44C130.384 113.277 128.634 111.524 126.474 111.524C124.314 111.524 122.563 113.277 122.563 115.44C122.563 117.603 124.314 119.356 126.474 119.356Z" fill="#F2F2F2"/>
<path d="M125.94 117.478C125.873 117.478 125.806 117.463 125.746 117.432C125.685 117.402 125.633 117.358 125.592 117.304L124.525 115.879C124.456 115.787 124.427 115.671 124.443 115.557C124.459 115.442 124.52 115.339 124.613 115.27C124.705 115.2 124.821 115.171 124.935 115.187C125.049 115.203 125.152 115.264 125.222 115.357L125.92 116.289L127.712 113.596C127.744 113.548 127.785 113.507 127.832 113.476C127.88 113.444 127.933 113.422 127.989 113.41C128.045 113.399 128.103 113.399 128.159 113.41C128.215 113.421 128.268 113.443 128.316 113.475C128.363 113.507 128.404 113.548 128.436 113.595C128.467 113.643 128.49 113.696 128.501 113.752C128.512 113.808 128.512 113.866 128.501 113.922C128.49 113.978 128.468 114.032 128.436 114.079L126.302 117.284C126.264 117.342 126.212 117.39 126.151 117.424C126.09 117.458 126.022 117.476 125.952 117.478L125.94 117.478Z" fill="white"/>
<path d="M113.498 119.356C115.658 119.356 117.409 117.603 117.409 115.44C117.409 113.277 115.658 111.524 113.498 111.524C111.339 111.524 109.588 113.277 109.588 115.44C109.588 117.603 111.339 119.356 113.498 119.356Z" fill="#F2F2F2"/>
</g>
<defs>
<clipPath id="clip0_163_1274">
<rect width="254" height="189" fill="white"/>
</clipPath>
</defs>
</svg>
