<svg width="335" height="280" viewBox="0 0 335 349" fill="none" xmlns="http://www.w3.org/2000/svg">
<g clip-path="url(#clip0_225_739)">
<path d="M307.25 298.581L291.905 312.708L304.1 292.245C294.492 274.821 278.778 259.762 278.778 259.762C278.778 259.762 246.178 290.997 246.178 315.551C246.178 340.104 260.774 348.677 278.778 348.677C296.783 348.677 311.378 340.104 311.378 315.551C311.378 310.085 309.761 304.29 307.25 298.581Z" fill="#F2F2F2"/>
<path d="M287.958 313.473V314.683C287.887 328.751 285.514 339.727 280.859 347.456C280.793 347.57 280.721 347.678 280.655 347.792L280.134 347.474L279.637 347.163C284.801 338.817 286.628 327.02 286.694 314.749C286.7 314.354 286.706 313.952 286.7 313.551C286.682 308.356 286.365 303.102 285.856 297.997C285.82 297.602 285.778 297.2 285.736 296.799C285.029 290.065 284.01 283.63 282.968 278.04C282.896 277.644 282.818 277.249 282.74 276.859C280.937 267.405 279.098 260.557 278.678 259.041C278.63 258.855 278.6 258.753 278.594 258.729L279.164 258.568L279.17 258.562L279.745 258.4C279.751 258.424 279.853 258.765 280.02 259.4C280.661 261.773 282.327 268.214 283.962 276.71C284.034 277.093 284.112 277.489 284.184 277.884C285.035 282.419 285.868 287.488 286.527 292.809C286.694 294.145 286.844 295.463 286.976 296.763C287.024 297.164 287.066 297.566 287.102 297.961C287.653 303.479 287.938 308.65 287.958 313.473Z" fill="white"/>
<path d="M283.962 276.71C283.561 276.764 283.154 276.818 282.74 276.86C281.618 276.975 280.49 277.033 279.361 277.034C274.552 277.04 269.802 275.967 265.462 273.894C265.211 274.212 264.959 274.529 264.701 274.853C269.267 277.081 274.281 278.237 279.361 278.232C280.566 278.231 281.77 278.167 282.968 278.04C283.375 277.998 283.783 277.944 284.184 277.884C287.497 277.409 290.719 276.433 293.74 274.99C293.482 274.661 293.23 274.337 292.985 274.02C290.126 275.356 287.086 276.262 283.962 276.71Z" fill="white"/>
<path d="M286.976 296.763C286.562 296.787 286.149 296.799 285.736 296.799C285.61 296.805 285.478 296.805 285.352 296.805C280.141 296.805 275.007 295.545 270.388 293.132C265.768 290.719 261.801 287.224 258.824 282.947C258.585 283.3 258.345 283.654 258.111 284.013C261.214 288.342 265.304 291.868 270.041 294.301C274.778 296.734 280.027 298.003 285.352 298.003C285.52 298.003 285.688 298.003 285.856 297.997C286.275 297.991 286.688 297.979 287.102 297.961C293.498 297.634 299.665 295.47 304.865 291.73C304.673 291.377 304.481 291.023 304.284 290.67C299.23 294.342 293.215 296.459 286.976 296.763Z" fill="white"/>
<path d="M287.958 313.473C287.539 313.509 287.12 313.533 286.7 313.551C286.251 313.569 285.802 313.581 285.352 313.581C278.35 313.573 271.538 311.296 265.937 307.093C260.336 302.889 256.247 296.984 254.283 290.262C254.014 290.748 253.744 291.227 253.486 291.712C255.7 298.419 259.97 304.257 265.69 308.398C271.411 312.539 278.291 314.772 285.352 314.779C285.802 314.779 286.251 314.773 286.694 314.749C287.12 314.737 287.539 314.713 287.958 314.683C296.429 314.02 304.331 310.163 310.065 303.893C309.939 303.449 309.796 303.012 309.652 302.569C304.114 308.886 296.332 312.798 287.958 313.473Z" fill="white"/>
<path d="M252.068 75.461L85.1668 54.1808C84.7172 54.1231 84.2644 54.0937 83.811 54.0928C83.3642 54.092 82.9179 54.1202 82.4747 54.1772C82.0323 54.234 81.5941 54.3198 81.1629 54.4339C80.7266 54.5504 80.2983 54.6949 79.8807 54.8667C79.4715 55.0346 79.073 55.2273 78.6872 55.4436C78.2961 55.6615 77.9183 55.9023 77.5557 56.1648C77.1847 56.4342 76.8293 56.7243 76.4912 57.0339C76.1422 57.3525 75.8105 57.6895 75.4975 58.0436C75.1763 58.4082 74.874 58.789 74.5917 59.1846C74.3066 59.5851 74.039 60.0017 73.789 60.4345C73.5391 60.8686 73.3071 61.3201 73.0931 61.7889C72.8792 62.2577 72.684 62.7423 72.5075 63.2429C72.3248 63.7602 72.1647 64.2891 72.0272 64.8295C71.8897 65.37 71.7748 65.9198 71.6825 66.479C71.5921 67.0377 71.5229 67.6055 71.4748 68.1825C71.4268 68.7595 71.4027 69.3434 71.4027 69.9343C71.4046 70.5247 71.4287 71.1133 71.4748 71.6998C71.521 72.2864 71.5902 72.8682 71.6825 73.4452C71.7758 74.0246 71.8912 74.5982 72.0287 75.166C72.1662 75.7339 72.3263 76.2952 72.509 76.85C72.6854 77.3862 72.8806 77.91 73.0945 78.4216C73.3085 78.9337 73.5405 79.4318 73.7905 79.916C74.0405 80.4001 74.308 80.8704 74.5931 81.3267C74.8778 81.7849 75.1797 82.2258 75.4989 82.6494C75.8181 83.073 76.1494 83.4771 76.4927 83.8617C76.836 84.244 77.1908 84.6046 77.5571 84.9436C77.9235 85.2825 78.3006 85.5991 78.6886 85.8934C79.0724 86.1847 79.4707 86.4562 79.8821 86.7069C80.2964 86.9597 80.7245 87.1892 81.1644 87.3942C81.5911 87.5931 82.0291 87.7667 82.4762 87.9142C82.914 88.0588 83.3603 88.1766 83.8125 88.2669C84.2602 88.3561 84.713 88.4176 85.1683 88.4508L252.07 100.66C252.555 100.696 253.043 100.647 253.512 100.516C253.751 100.45 253.984 100.364 254.208 100.259C254.443 100.15 254.668 100.024 254.884 99.8806C255.102 99.7357 255.311 99.5767 255.508 99.4046C255.716 99.224 255.912 99.0313 256.097 98.8276C256.292 98.6124 256.476 98.3871 256.647 98.1526C256.824 97.9112 256.995 97.654 257.158 97.3809C257.322 97.1078 257.476 96.8229 257.622 96.5262C257.768 96.2296 257.904 95.9214 258.031 95.6016C258.158 95.2824 258.276 94.9521 258.384 94.6107C258.493 94.2693 258.591 93.9178 258.68 93.5563C258.774 93.1822 258.855 92.8014 258.922 92.4139C258.99 92.0263 259.048 91.633 259.096 91.234C259.143 90.8349 259.178 90.4305 259.201 90.0209C259.224 89.6112 259.235 89.197 259.235 88.7782C259.234 88.3599 259.222 87.9435 259.201 87.5291C259.179 87.1146 259.144 86.7033 259.096 86.2951C259.049 85.8869 258.992 85.482 258.922 85.0805C258.853 84.6791 258.772 84.2819 258.68 83.8891C258.591 83.5093 258.493 83.1381 258.384 82.7755C258.277 82.4178 258.159 82.0654 258.031 81.7182C257.903 81.3711 257.766 81.0345 257.622 80.7085C257.477 80.383 257.322 80.0671 257.158 79.7609C256.994 79.4546 256.824 79.1632 256.647 78.8867C256.47 78.6102 256.287 78.3482 256.097 78.1006C255.907 77.853 255.711 77.6212 255.508 77.4053C255.311 77.1938 255.103 76.993 254.884 76.8038C254.67 76.6185 254.444 76.4467 254.208 76.2896C253.986 76.1412 253.753 76.0087 253.512 75.8929C253.282 75.7823 253.043 75.6898 252.798 75.616C252.56 75.5444 252.316 75.4926 252.068 75.4609" fill="#3ACEAA"/>
<path d="M252.068 123.456L85.1668 119.458C84.2614 119.436 83.3569 119.528 82.4747 119.733C82.0297 119.837 81.5916 119.968 81.1629 120.126C80.7246 120.288 80.2964 120.476 79.8807 120.689C79.4702 120.899 79.0717 121.132 78.6872 121.387C78.2952 121.646 77.9175 121.927 77.5557 122.227C77.1844 122.535 76.8291 122.862 76.4912 123.207C76.1475 123.557 75.8162 123.929 75.4975 124.323C75.1787 124.718 74.8768 125.13 74.5917 125.558C74.3066 125.987 74.039 126.431 73.789 126.891C73.539 127.351 73.3071 127.827 73.0931 128.318C72.8792 128.809 72.684 129.313 72.5075 129.832C72.3248 130.369 72.1647 130.915 72.0272 131.469C71.8897 132.024 71.7748 132.585 71.6825 133.154C71.5921 133.723 71.5229 134.298 71.4748 134.88C71.4267 135.462 71.4027 136.048 71.4027 136.639C71.4046 137.23 71.4287 137.816 71.4748 138.397C71.521 138.979 71.5902 139.554 71.6825 140.122C71.7758 140.687 71.8912 141.247 72.0287 141.8C72.1662 142.354 72.3262 142.898 72.5089 143.434C72.6854 143.955 72.8806 144.46 73.0945 144.949C73.3085 145.438 73.5405 145.913 73.7905 146.371C74.0405 146.83 74.308 147.272 74.5931 147.699C74.8777 148.124 75.1797 148.533 75.4989 148.925C75.8181 149.317 76.1494 149.687 76.4927 150.035C76.8305 150.377 77.1858 150.702 77.5571 151.008C77.919 151.306 78.2967 151.584 78.6886 151.841C79.0733 152.093 79.4717 152.324 79.8821 152.531C80.298 152.742 80.7261 152.927 81.1644 153.086C81.5932 153.241 82.0313 153.369 82.4762 153.47C82.9166 153.57 83.3629 153.643 83.8125 153.687C84.263 153.73 84.7159 153.744 85.1683 153.731L252.068 148.652C252.314 148.645 252.558 148.617 252.798 148.568C253.041 148.519 253.28 148.449 253.512 148.361C253.752 148.269 253.985 148.159 254.208 148.032C254.443 147.898 254.669 147.748 254.884 147.584C255.102 147.416 255.311 147.235 255.508 147.043C255.716 146.841 255.912 146.628 256.097 146.405C256.286 146.178 256.47 145.934 256.647 145.673C256.824 145.412 256.995 145.137 257.158 144.849C257.322 144.558 257.476 144.257 257.622 143.946C257.768 143.634 257.904 143.312 258.031 142.979C258.158 142.641 258.276 142.297 258.384 141.947C258.493 141.597 258.591 141.237 258.68 140.865C258.774 140.486 258.855 140.098 258.922 139.704C258.99 139.309 259.048 138.91 259.096 138.506C259.143 138.1 259.178 137.692 259.201 137.28C259.224 136.868 259.235 136.452 259.235 136.033C259.234 135.618 259.222 135.204 259.201 134.79C259.179 134.376 259.144 133.967 259.096 133.564C259.05 133.159 258.992 132.76 258.922 132.367C258.853 131.975 258.772 131.586 258.68 131.201C258.591 130.83 258.492 130.468 258.384 130.116C258.275 129.765 258.158 129.423 258.031 129.091C257.905 128.759 257.768 128.438 257.623 128.127C257.477 127.816 257.323 127.516 257.159 127.227C256.995 126.938 256.825 126.664 256.648 126.405C256.471 126.146 256.287 125.903 256.098 125.676C255.913 125.454 255.716 125.243 255.509 125.042C255.312 124.851 255.103 124.672 254.885 124.505C254.67 124.342 254.444 124.194 254.209 124.061C253.985 123.936 253.752 123.828 253.512 123.738C253.28 123.651 253.041 123.583 252.798 123.535C252.558 123.488 252.313 123.462 252.068 123.456Z" fill="#E4E4E4"/>
<path d="M252.068 168.451L85.1668 180.658C84.7115 180.691 84.2587 180.753 83.811 180.842C83.3589 180.932 82.9126 181.05 82.4747 181.195C82.0276 181.342 81.5896 181.516 81.1629 181.715C80.7231 181.92 80.295 182.149 79.8807 182.402C79.4693 182.653 79.0709 182.924 78.6872 183.215C78.2987 183.512 77.9215 183.829 77.5557 184.165C77.1898 184.503 76.835 184.864 76.4912 185.247C76.1475 185.63 75.8162 186.034 75.4975 186.459C75.1787 186.886 74.8768 187.327 74.5917 187.784C74.3066 188.24 74.039 188.71 73.789 189.194C73.5391 189.679 73.3071 190.177 73.0931 190.689C72.8792 191.2 72.684 191.724 72.5075 192.26C72.3248 192.814 72.1647 193.375 72.0272 193.944C71.8897 194.513 71.7748 195.086 71.6825 195.663C71.5921 196.241 71.5229 196.823 71.4748 197.409C71.4268 197.995 71.4027 198.584 71.4027 199.174C71.4046 199.765 71.4287 200.349 71.4748 200.926C71.521 201.503 71.5902 202.071 71.6825 202.631C71.7758 203.191 71.8912 203.741 72.0287 204.281C72.1662 204.82 72.3263 205.349 72.509 205.867C72.6854 206.368 72.8806 206.853 73.0945 207.321C73.3085 207.79 73.5405 208.242 73.7905 208.676C74.0405 209.11 74.308 209.527 74.5931 209.926C74.8754 210.321 75.1777 210.702 75.4989 211.067C75.8119 211.421 76.1436 211.758 76.4927 212.076C76.8308 212.386 77.1862 212.676 77.5571 212.945C77.9197 213.208 78.2976 213.449 78.6886 213.667C79.0744 213.883 79.473 214.076 79.8821 214.244C80.2998 214.415 80.7281 214.56 81.1644 214.676C81.5956 214.79 82.0338 214.876 82.4762 214.933C82.9193 214.99 83.3657 215.018 83.8125 215.017C84.2658 215.016 84.7186 214.987 85.1683 214.929L252.068 193.654C252.316 193.623 252.56 193.571 252.798 193.499C253.043 193.425 253.282 193.333 253.512 193.222C253.753 193.107 253.986 192.974 254.208 192.826C254.444 192.668 254.67 192.497 254.884 192.311C255.103 192.122 255.311 191.921 255.508 191.71C255.708 191.493 255.904 191.262 256.097 191.015C256.286 190.767 256.47 190.505 256.647 190.228C256.824 189.952 256.995 189.66 257.158 189.354C257.322 189.05 257.476 188.735 257.622 188.407C257.768 188.079 257.904 187.742 258.031 187.397C258.158 187.05 258.276 186.696 258.384 186.333C258.493 185.971 258.591 185.599 258.68 185.22C258.774 184.826 258.855 184.429 258.922 184.027C258.99 183.626 259.048 183.221 259.096 182.813C259.143 182.405 259.178 181.993 259.201 181.579C259.224 181.165 259.235 180.748 259.235 180.329C259.233 179.913 259.222 179.5 259.2 179.09C259.178 178.68 259.143 178.276 259.095 177.877C259.049 177.476 258.992 177.082 258.922 176.695C258.853 176.307 258.772 175.927 258.68 175.552C258.591 175.19 258.492 174.839 258.384 174.498C258.278 174.157 258.16 173.827 258.032 173.507C257.903 173.187 257.767 172.879 257.623 172.582C257.476 172.288 257.321 172.004 257.157 171.73C256.993 171.456 256.823 171.199 256.646 170.958C256.474 170.724 256.29 170.498 256.095 170.283C255.911 170.08 255.714 169.887 255.507 169.706C255.309 169.534 255.101 169.375 254.882 169.23C254.667 169.087 254.441 168.961 254.207 168.852C253.982 168.747 253.749 168.661 253.511 168.595C253.042 168.464 252.554 168.415 252.068 168.451" fill="#E4E4E4"/>
<path d="M161.098 170.687C162.155 172.445 163.821 173.754 165.779 174.364C167.738 174.975 169.852 174.845 171.721 173.999C173.59 173.154 175.083 171.651 175.917 169.777C176.752 167.903 176.869 165.788 176.247 163.833L208.594 97.3734L193.111 87.9863L165.175 158.58C165.068 158.622 164.963 158.665 164.86 158.711C164.756 158.756 164.653 158.804 164.55 158.853C164.447 158.903 164.345 158.955 164.244 159.01C164.143 159.064 164.042 159.122 163.943 159.182C162.04 160.33 160.672 162.188 160.138 164.345C159.604 166.502 159.949 168.783 161.097 170.686L161.098 170.687Z" fill="#9E616A"/>
<path d="M202.419 123.001L179.44 117.11C179.44 117.11 180.19 115.414 181.409 112.604C182.629 109.794 184.333 105.876 186.249 101.427C188.166 96.978 190.292 92.0071 192.369 87.0935C194.446 82.1799 196.466 77.3251 198.167 73.1171C199.868 68.9091 201.801 66.3889 203.743 64.9765C205.351 63.7546 207.376 63.2163 209.378 63.4785C210.934 63.7103 212.421 64.2765 213.738 65.1382C214.361 65.526 214.947 65.9707 215.488 66.4667L220.816 76.1567L202.419 123.001Z" fill="#CCCCCC"/>
<path d="M18.5133 117.738C17.9568 117.779 17.403 117.851 16.8546 117.954C16.3026 118.057 15.7568 118.191 15.2197 118.355C14.6744 118.521 14.1385 118.717 13.6144 118.942C13.078 119.172 12.554 119.429 12.0444 119.714C11.5459 119.994 11.0586 120.299 10.5826 120.628C10.1067 120.958 9.64439 121.311 9.19583 121.69C8.74775 122.067 8.31289 122.47 7.89125 122.897C7.46961 123.325 7.06337 123.775 6.67251 124.249C6.28163 124.723 5.91119 125.215 5.56117 125.723C5.21116 126.231 4.88279 126.755 4.57607 127.294C4.27222 127.834 3.98807 128.388 3.72364 128.957C3.45922 129.527 3.21884 130.109 3.00249 130.705C2.77701 131.323 2.57965 131.947 2.41041 132.578C2.24117 133.209 2.10006 133.845 1.98708 134.486C1.87362 135.128 1.78853 135.773 1.7318 136.423C1.67507 137.074 1.64671 137.726 1.64673 138.382C1.64673 139.037 1.67508 139.684 1.7318 140.322C1.78851 140.961 1.8736 141.59 1.98708 142.208C2.10007 142.827 2.24118 143.435 2.41041 144.032C2.57964 144.628 2.77629 145.213 3.00033 145.785C3.2186 146.337 3.45898 146.872 3.72148 147.388C3.98096 147.899 4.26593 148.397 4.57534 148.88C4.8799 149.353 5.20872 149.81 5.56046 150.25C5.90885 150.687 6.28003 151.105 6.67249 151.503C7.05845 151.894 7.4653 152.263 7.89125 152.61C8.30835 152.95 8.74413 153.266 9.19655 153.557C10.0894 154.132 11.0452 154.603 12.0451 154.959C13.0703 155.326 14.1355 155.568 15.2183 155.681C15.7613 155.737 16.3072 155.761 16.8531 155.753C17.4078 155.745 17.9616 155.706 18.5118 155.635C19.067 155.565 19.6178 155.463 20.1618 155.332C20.7075 155.2 21.2455 155.038 21.7736 154.848C22.3077 154.655 22.8313 154.434 23.3422 154.186C23.8627 153.934 24.3701 153.655 24.8624 153.351C25.3417 153.052 25.8085 152.731 26.2629 152.389C26.7172 152.047 27.1573 151.682 27.5833 151.294C28.0093 150.907 28.4206 150.498 28.8172 150.068C29.2139 149.638 29.5951 149.187 29.961 148.715C30.3293 148.244 30.6759 147.758 31.0009 147.258C31.3259 146.758 31.6302 146.244 31.9139 145.718C32.1976 145.191 32.4601 144.653 32.7014 144.102C32.9428 143.551 33.1627 142.988 33.3613 142.414C33.5671 141.82 33.7471 141.22 33.9015 140.616C34.0558 140.012 34.1846 139.403 34.288 138.79C34.3909 138.176 34.4683 137.56 34.5202 136.94C34.5721 136.32 34.5981 135.698 34.5981 135.073C34.5976 134.448 34.5716 133.83 34.5202 133.221C34.4688 132.611 34.3914 132.01 34.288 131.418C34.1851 130.826 34.0563 130.243 33.9015 129.669C33.7466 129.095 33.5666 128.532 33.3613 127.98C33.1618 127.445 32.9418 126.926 32.7014 126.424C32.4577 125.923 32.194 125.437 31.9103 124.966C31.3488 124.034 30.6958 123.161 29.961 122.36C29.6004 121.966 29.2196 121.59 28.8201 121.235C28.4267 120.887 28.0148 120.561 27.5862 120.257C27.1617 119.956 26.7209 119.679 26.2658 119.427C25.811 119.175 25.3424 118.948 24.8624 118.749C23.8712 118.336 22.8347 118.042 21.7744 117.872C21.2407 117.787 20.7025 117.734 20.1626 117.712C19.6125 117.689 19.0616 117.698 18.5126 117.739" fill="#E4E4E4"/>
<path d="M18.5133 185.532C17.9568 185.573 17.403 185.645 16.8546 185.748C16.3026 185.851 15.7568 185.985 15.2197 186.149C14.6744 186.315 14.1385 186.511 13.6144 186.736C13.078 186.966 12.554 187.223 12.0444 187.508C11.5459 187.788 11.0586 188.093 10.5826 188.422C10.1067 188.751 9.64439 189.105 9.19583 189.484C8.74775 189.861 8.31289 190.264 7.89125 190.691C7.46961 191.119 7.06337 191.569 6.67251 192.043C6.28163 192.517 5.91119 193.009 5.56117 193.517C5.21116 194.025 4.88279 194.549 4.57607 195.088C4.27222 195.628 3.98807 196.182 3.72364 196.751C3.45922 197.321 3.21884 197.903 3.00249 198.499C2.77701 199.117 2.57965 199.741 2.41041 200.372C2.24117 201.003 2.10006 201.639 1.98708 202.28C1.87362 202.922 1.78853 203.567 1.7318 204.217C1.67507 204.867 1.64671 205.52 1.64673 206.176C1.64673 206.831 1.67508 207.478 1.7318 208.116C1.78851 208.755 1.8736 209.383 1.98708 210.002C2.10007 210.621 2.24118 211.229 2.41041 211.826C2.57964 212.422 2.77629 213.007 3.00033 213.579C3.2186 214.131 3.45898 214.666 3.72148 215.182C3.98096 215.693 4.26593 216.191 4.57534 216.674C4.8799 217.147 5.20872 217.604 5.56046 218.044C5.90885 218.481 6.28003 218.899 6.67249 219.297C7.05845 219.688 7.46531 220.057 7.89125 220.404C8.30836 220.744 8.74413 221.06 9.19655 221.351C10.0894 221.926 11.0452 222.396 12.0451 222.753C13.0702 223.12 14.1355 223.362 15.2183 223.475C15.7613 223.531 16.3072 223.555 16.8531 223.547C17.4078 223.539 17.9616 223.5 18.5118 223.429C19.067 223.358 19.6178 223.257 20.1618 223.126C20.7075 222.994 21.2455 222.832 21.7736 222.642C22.3077 222.449 22.8313 222.228 23.3422 221.98C23.8627 221.728 24.3701 221.449 24.8624 221.145C25.3417 220.846 25.8085 220.525 26.2629 220.183C26.7172 219.841 27.1573 219.476 27.5833 219.088C28.0093 218.701 28.4206 218.292 28.8172 217.862C29.2139 217.432 29.5951 216.981 29.961 216.509C30.3293 216.037 30.6759 215.552 31.0009 215.052C31.3259 214.552 31.6302 214.038 31.9139 213.512C32.1976 212.985 32.4601 212.447 32.7014 211.896C32.9428 211.345 33.1627 210.782 33.3613 210.208C33.5671 209.614 33.7471 209.014 33.9015 208.41C34.0558 207.805 34.1846 207.197 34.288 206.584C34.3909 205.97 34.4683 205.354 34.5202 204.734C34.5721 204.114 34.5981 203.492 34.5981 202.867C34.5976 202.242 34.5716 201.624 34.5202 201.015C34.4688 200.405 34.3914 199.804 34.288 199.211C34.1851 198.62 34.0563 198.037 33.9015 197.463C33.7466 196.889 33.5666 196.326 33.3613 195.773C33.1618 195.239 32.9418 194.72 32.7014 194.218C32.4577 193.717 32.194 193.231 31.9103 192.759C31.3488 191.828 30.6958 190.955 29.961 190.154C29.6004 189.759 29.2196 189.384 28.8201 189.029C28.4267 188.681 28.0148 188.354 27.5862 188.051C27.1617 187.75 26.7209 187.473 26.2658 187.221C25.811 186.969 25.3424 186.742 24.8624 186.543C23.8712 186.13 22.8347 185.836 21.7744 185.666C21.2407 185.581 20.7025 185.528 20.1626 185.506C19.6125 185.483 19.0616 185.492 18.5126 185.533" fill="#E4E4E4"/>
<path d="M18.5162 44.2944C17.9627 44.281 17.409 44.299 16.8575 44.3485C16.3084 44.3979 15.7625 44.4788 15.2227 44.5909C14.6797 44.7043 14.1438 44.8488 13.6174 45.0236C13.0829 45.2005 12.5587 45.4074 12.0474 45.6431C11.5469 45.8737 11.059 46.1305 10.5856 46.4126C10.1076 46.6975 9.64466 47.0071 9.19879 47.3401C8.74572 47.6784 8.31007 48.0395 7.89349 48.4219C7.46993 48.8109 7.06296 49.2232 6.67257 49.6588C6.2817 50.0949 5.91125 50.5502 5.56124 51.0248C5.21123 51.4994 4.88286 51.9912 4.57613 52.5004C4.27084 53.0163 3.98597 53.545 3.72155 54.0863C3.45713 54.6277 3.21675 55.1869 3.0004 55.7639C2.77636 56.3586 2.57971 56.9632 2.41048 57.5777C2.24124 58.1922 2.10013 58.8146 1.98715 59.445C1.87369 60.0772 1.7886 60.7148 1.73187 61.3576C1.67514 62.0005 1.64678 62.6496 1.6468 63.3049C1.6468 63.9593 1.67515 64.6084 1.73187 65.2522C1.78858 65.896 1.87367 66.5328 1.98715 67.1627C2.10013 67.7926 2.24124 68.414 2.41048 69.0271C2.57971 69.6401 2.77635 70.2435 3.0004 70.8373C3.21866 71.4109 3.45904 71.9686 3.72155 72.5105C3.98598 73.0505 4.27155 73.5743 4.57826 74.0821C4.88497 74.5898 5.21335 75.0795 5.56338 75.5512C5.91291 76.0243 6.28334 76.4772 6.67469 76.9099C7.06605 77.3427 7.47231 77.7514 7.89346 78.136C8.30785 78.517 8.74134 78.8766 9.19226 79.2135C9.6382 79.5435 10.1011 79.85 10.5791 80.1316C11.0525 80.4107 11.5405 80.6644 12.0409 80.8917C12.5523 81.1242 13.0765 81.3277 13.6108 81.5012C14.6623 81.8415 15.7496 82.0593 16.851 82.1503C17.9539 82.2417 19.0636 82.2081 20.159 82.05C20.702 81.9715 21.2402 81.8622 21.7708 81.7226C22.3028 81.5824 22.8264 81.4124 23.3393 81.2134C23.8582 81.0122 24.3657 80.7828 24.8595 80.5261C25.3411 80.276 25.8095 80.0013 26.2629 79.7032C26.719 79.4031 27.1597 79.0803 27.5834 78.736C28.0093 78.3899 28.4206 78.0211 28.8173 77.6297C29.2139 77.2383 29.5952 76.8243 29.961 76.3878C30.3293 75.9512 30.676 75.4988 31.001 75.0304C31.326 74.5621 31.6303 74.0784 31.914 73.5793C32.1986 73.0803 32.4611 72.567 32.7015 72.0396C32.9419 71.5121 33.1618 70.9719 33.3614 70.419C33.5671 69.8449 33.7472 69.2631 33.9015 68.6736C34.0558 68.0842 34.1847 67.488 34.288 66.885C34.3909 66.2797 34.4683 65.6695 34.5203 65.0546C34.5722 64.4396 34.5981 63.8196 34.5981 63.1946C34.5977 62.57 34.5717 61.9502 34.5203 61.3353C34.4688 60.7203 34.3914 60.1119 34.288 59.5099C34.1852 58.9074 34.0563 58.3117 33.9015 57.7227C33.7467 57.1337 33.5666 56.5529 33.3614 55.9802C33.1618 55.4268 32.9419 54.8871 32.7015 54.3611C32.4611 53.8351 32.1974 53.3228 31.9104 52.8242C31.6267 52.3299 31.3224 51.8491 30.9973 51.3818C30.6723 50.9144 30.3269 50.4644 29.961 50.0317C29.5976 49.5994 29.2173 49.1885 28.8202 48.7991C28.423 48.4096 28.0117 48.0435 27.5862 47.7007C27.1628 47.3584 26.7223 47.0378 26.2665 46.74C25.813 46.4447 25.3446 46.1729 24.8631 45.9258C24.3692 45.6721 23.8617 45.4458 23.3429 45.2479C22.8299 45.0521 22.3062 44.8855 21.7744 44.7488C21.2436 44.6124 20.7055 44.5065 20.1626 44.4314C19.6155 44.356 19.0646 44.3117 18.5126 44.2987L18.5162 44.2944ZM18.5126 42.4942C20.9352 42.5606 23.3111 43.1756 25.4617 44.293C27.5988 45.4105 29.4931 46.9409 31.0349 48.7955C32.6465 50.7283 33.9016 52.9322 34.7416 55.3045C36.5406 60.4105 36.5406 65.978 34.7416 71.084C33.9007 73.463 32.6458 75.6747 31.0349 77.6167C29.4929 79.4801 27.5988 81.0214 25.461 82.1525C23.3132 83.2832 20.9376 83.9136 18.5119 83.9966C16.0711 84.0767 13.6448 83.5929 11.4214 82.583C9.17675 81.5548 7.16867 80.074 5.52299 78.2334C3.77544 76.2843 2.4077 74.0255 1.49026 71.5737C-0.496752 66.236 -0.496752 60.3616 1.49026 55.0239C2.40859 52.5647 3.77607 50.2976 5.52299 48.3383C7.16817 46.4874 9.17573 44.9939 11.4214 43.9504C13.6431 42.9262 16.0707 42.427 18.5162 42.4914L18.5126 42.4942Z" fill="#3ACEAA"/>
<path d="M18.5147 68.3464L12.8341 56.5113L14.1827 55.6328L18.8616 65.3555L38.5075 42.2622L39.6967 43.5294L18.5147 68.3464Z" fill="#3ACEAA"/>
<path d="M225.255 302.004L211.192 301.949L215.727 338.697L225.255 338.744V302.004Z" fill="#9E616A"/>
<path d="M227.684 347.991L196.979 347.829V347.441C196.978 346.653 197.055 345.866 197.208 345.093C197.51 343.568 198.112 342.118 198.978 340.827C199.859 339.519 200.987 338.396 202.299 337.523C203.594 336.662 205.047 336.066 206.574 335.771C207.348 335.622 208.134 335.55 208.923 335.554L227.684 335.647V347.991Z" fill="#2F2E41"/>
<path d="M180.227 301.829L166.205 301.774L170.725 338.473L180.227 338.52V301.829Z" fill="#9E616A"/>
<path d="M182.651 347.753L152.026 347.592V347.204C152.026 346.417 152.102 345.632 152.255 344.86C152.556 343.337 153.156 341.889 154.021 340.6C154.898 339.293 156.024 338.171 157.333 337.298C158.625 336.439 160.074 335.845 161.597 335.551C162.369 335.402 163.154 335.329 163.94 335.334L182.651 335.426V347.753Z" fill="#2F2E41"/>
<path d="M179.632 151.63L156.052 239.635L164.683 323.993L183.794 324.52L179.633 248.349L203.474 210.337L208.644 325.039L225.98 323.813L235.623 225.192C238.898 217.492 241.3 209.448 242.784 201.213C243.95 194.748 244.517 188.19 244.478 181.621C244.458 177.198 244.119 172.783 243.461 168.41C243.226 166.78 242.908 165.164 242.509 163.566L235.478 156.439L179.632 151.63Z" fill="#2F2E41"/>
<path d="M210.873 166.349C206.908 166.349 203.187 166.222 199.813 165.971C196.367 165.734 192.938 165.283 189.548 164.619C186.661 164.08 183.85 163.195 181.175 161.983C179.022 161.053 177.15 159.575 175.745 157.697L175.584 157.463L182.029 115.515L188.98 68.3501C189.437 65.2289 191.026 62.3849 193.444 60.3595C195.863 58.334 198.941 57.2686 202.094 57.366L223.861 58.033C225.493 58.0831 227.099 58.4604 228.583 59.1425C230.066 59.8247 231.398 60.7978 232.499 62.0043C233.6 63.2107 234.447 64.6259 234.991 66.1659C235.534 67.7059 235.763 69.3394 235.664 70.9695L232.807 117.876L243.347 164.144L242.6 164.248C242.3 164.288 241.143 164.441 239.331 164.645C236.963 164.911 234.545 165.151 232.144 165.358C228.747 165.651 225.423 165.881 222.264 166.043C218.258 166.247 214.419 166.346 210.873 166.349Z" fill="#CCCCCC"/>
<path d="M198.795 49.0308C198.789 49.0308 198.783 49.0308 198.777 49.0308C198.321 49.0305 197.868 48.9403 197.447 48.7652C197.025 48.5902 196.642 48.3338 196.319 48.0107C195.996 47.6875 195.74 47.304 195.566 46.8819C195.391 46.4599 195.302 46.0076 195.302 45.5509V26.143C195.299 22.6659 195.994 19.2236 197.348 16.0208C199.998 9.77058 204.958 4.78438 211.194 2.1013C215.138 0.409556 219.44 -0.277591 223.715 0.101384C227.989 0.480359 232.103 1.91362 235.688 4.27284C239.273 6.63206 242.217 9.84357 244.256 13.6198C246.295 17.396 247.366 21.6191 247.373 25.9108V45.3483C247.373 45.8161 247.28 46.2792 247.097 46.7099C246.74 47.5503 246.072 48.22 245.232 48.5793C244.802 48.7632 244.338 48.8586 243.87 48.8599L198.792 49.0308H198.795Z" fill="#2F2E41"/>
<path d="M233.093 19.4867C234.909 22.8035 235.701 26.5839 235.37 30.3507C235.039 34.1174 233.598 37.7015 231.232 40.6502C228.865 43.599 225.677 45.7801 222.071 46.9182C218.466 48.0562 214.603 48.1002 210.973 47.0444C208.569 46.3535 206.326 45.1924 204.373 43.6283C202.421 42.0642 200.799 40.1282 199.6 37.9326C197.789 34.6173 196.999 30.8399 197.331 27.0766C197.664 23.3133 199.103 19.7326 201.467 16.786C203.831 13.8394 207.015 11.6588 210.616 10.5191C214.218 9.37948 218.076 9.33181 221.705 10.3821C224.112 11.0705 226.357 12.2298 228.312 13.7928C230.267 15.3559 231.892 17.2915 233.093 19.4875V19.4867Z" fill="#9E616A"/>
<path d="M189.147 27.7226C189.144 24.9726 189.695 22.2502 190.765 19.7171C192.861 14.7748 196.783 10.8322 201.715 8.71133C204.245 7.6272 206.967 7.06308 209.719 7.05253L213.604 7.03306C213.647 7.03281 213.691 7.03269 213.735 7.03272C216.424 7.03437 219.087 7.56581 221.571 8.59668C224.056 9.62755 226.312 11.1377 228.213 13.0408C230.114 14.944 231.621 17.2029 232.649 19.6886C233.676 22.1743 234.205 24.838 234.203 27.5278V27.9166L225.986 27.9498L223.184 20.1217L222.624 27.9649L218.38 27.9836L216.967 24.0343L216.684 27.9887L189.15 28.112L189.147 27.7226Z" fill="#2F2E41"/>
<path d="M156.067 68.5507C154.803 68.86 153.62 69.4395 152.601 70.2494C151.805 70.8795 151.124 71.6431 150.589 72.5062C149.533 74.2143 149.068 76.222 149.265 78.2203C149.364 79.2298 149.638 80.2144 150.074 81.1302C150.611 82.2717 151.385 83.2861 152.343 84.1066C153.302 84.9271 154.423 85.5349 155.634 85.89C156.844 86.245 158.116 86.3393 159.366 86.1664C160.616 85.9936 161.815 85.5576 162.883 84.8873C162.962 84.8365 163.04 84.7849 163.117 84.7325C163.195 84.6801 163.27 84.6267 163.345 84.5722C163.42 84.5176 163.494 84.4621 163.566 84.4058C163.638 84.3495 163.71 84.2924 163.781 84.2344L209.123 100.373C210.518 100.869 212.036 100.899 213.45 100.457C214.863 100.016 216.095 99.1271 216.96 97.9249L227.709 83.0406L214.713 74.2884L207.893 82.0365L166.398 73.7816C166.353 73.674 166.306 73.567 166.257 73.4606C166.209 73.3542 166.158 73.2482 166.105 73.1426C166.052 73.0374 165.996 72.9327 165.94 72.8286C165.883 72.7245 165.823 72.6211 165.759 72.5187C164.769 70.919 163.298 69.6736 161.557 68.9608C159.816 68.2481 157.895 68.1045 156.067 68.5507Z" fill="#9E616A"/>
<path d="M208.624 77.1504C209.981 75.4575 211.877 73.2596 213.804 71.0796C215.731 68.8996 217.686 66.739 219.161 65.1227C220.636 63.5064 221.628 62.4351 221.628 62.4351C222.989 60.3765 225.021 58.8527 227.379 58.1225C229.736 57.3922 232.273 57.5006 234.56 58.4292C236.847 59.3578 238.741 61.0493 239.922 63.2165C241.103 65.3836 241.497 67.8928 241.038 70.3177C240.776 71.7137 240.234 73.0422 239.444 74.2232C239.444 74.2232 237.965 76.1591 235.732 79.0485C233.5 81.938 230.512 85.7844 227.499 89.6084C224.485 93.4323 221.442 97.2365 219.096 100.045C216.75 102.853 215.099 104.667 214.866 104.511L206.683 80.1831C206.45 80.0278 207.268 78.8432 208.624 77.1504Z" fill="#CCCCCC"/>
<path d="M213.482 48.4195C213.353 49.0469 213.403 49.6978 213.626 50.2982C213.738 50.6055 213.892 50.8957 214.085 51.1601C214.249 51.3854 214.44 51.5905 214.653 51.771C215.283 52.3038 216.083 52.5946 216.909 52.591C216.96 52.5905 217.012 52.5891 217.063 52.5867C217.115 52.5843 217.166 52.5807 217.217 52.5758C217.269 52.5715 217.321 52.5658 217.372 52.5585C217.424 52.5513 217.476 52.5431 217.527 52.534L220.444 52.0039L224.461 43.4215V51.2827L237.72 48.8955V15.5356L215.492 15.6424L216.041 16.2807C217.865 18.4223 219.063 21.0258 219.503 23.8044C219.934 26.6187 219.88 29.4862 219.343 32.2823C218.821 35.1115 218.028 37.8841 216.976 40.5618C216.056 42.934 215.001 45.2513 213.814 47.5021C213.661 47.7908 213.549 48.0996 213.482 48.4195Z" fill="#2F2E41"/>
</g>
<defs>
<clipPath id="clip0_225_739">
<rect width="335" height="349" fill="white"/>
</clipPath>
</defs>
</svg>
