<svg width="470" height="367" viewBox="0 0 470 367" fill="none" xmlns="http://www.w3.org/2000/svg">
<g clip-path="url(#clip0_162_410)">
<path d="M205.122 323.586L205.834 306.233C213.262 301.933 221.547 299.662 229.969 299.616C218.378 309.881 219.826 329.667 211.968 343.47C209.486 347.755 206.146 351.379 202.195 354.076C198.244 356.773 193.784 358.472 189.144 359.047L179.444 365.48C178.113 357.443 178.407 349.189 180.304 341.287C182.202 333.385 185.659 326.023 190.437 319.707C193.15 316.192 196.26 313.062 199.695 310.39C202.018 317.024 205.122 323.586 205.122 323.586Z" fill="#F2F2F2"/>
<path d="M266.784 82.1661C267.039 86.1109 268.112 89.9427 269.923 93.3764C273.74 100.637 280.286 105.893 287.335 109.017C296.142 112.921 305.96 113.041 315.307 112.171C323.988 111.362 332.581 109.488 341.294 109.102C348.033 108.869 354.778 109.043 361.499 109.624C374.537 110.626 387.521 112.486 400.422 114.741C403.916 115.344 407.403 115.992 410.882 116.685C411.21 116.716 411.536 116.782 411.853 116.88C411.916 116.908 412.018 116.886 412.076 116.926C412.181 116.997 411.651 116.744 411.972 117.032C412.42 117.54 412.819 118.097 413.163 118.692L417.928 125.333C419.294 127.237 420.562 129.551 422.328 131.052C423.573 132.094 425.075 132.713 426.645 132.832C428.214 132.95 429.781 132.563 431.148 131.718C432.575 130.741 433.714 129.341 434.428 127.683C435.524 125.506 436.831 123.462 438.328 121.586C443.996 114.423 451.874 110.018 458.463 103.992C461.655 101.192 464.379 97.8199 466.517 94.0216C468.34 90.5844 469.474 86.7693 469.844 82.8254C470.633 74.8163 468.364 66.6485 464.547 59.8349C460.396 52.5149 454.432 46.6027 447.334 42.77C439.359 38.3697 430.535 36.2263 421.69 35.1582C412.298 34.0242 402.798 34.0277 393.361 34.1422C382.77 34.2699 372.198 34.7743 361.645 35.6555C351.078 36.5414 340.553 37.8006 330.069 39.4331C320.01 40.9996 309.827 42.6324 299.98 45.4041C291.281 47.8528 282.607 51.6801 276.111 58.6148C270.335 64.7807 266.318 73.2184 266.784 82.1661Z" fill="#E6E6E6"/>
<path d="M312.744 49.9741C303.353 51.8506 293.526 54.1482 285.646 59.7131C277.853 65.217 273.115 73.87 273.576 81.7578C274.25 93.2793 285.559 101.895 295.859 104.153C305.725 106.314 316.002 104.85 326.883 103.3C329.291 102.957 331.78 102.602 334.244 102.293C361.027 98.94 411.317 109.268 413.445 109.71L415.656 110.168L427.362 126.485C430.027 120.059 434.66 114.344 439.58 110.086C441.832 108.137 444.182 106.327 446.455 104.576C452.252 100.111 457.728 95.8932 460.75 90.0986C467.332 77.4792 459.555 59.883 448.458 51.9833C435.956 43.0835 419.48 41.6876 403.539 41.5043C401.879 41.4852 400.218 41.4757 398.556 41.4757C369.773 41.4804 341.051 44.325 312.744 49.9741Z" fill="white"/>
<path d="M305.252 63.9204C305.252 63.5705 305.315 63.224 305.439 62.9007C305.562 62.5773 305.743 62.2834 305.971 62.0358C306.199 61.7882 306.47 61.5916 306.768 61.4574C307.067 61.3232 307.387 61.2539 307.71 61.2535H420.758C421.41 61.2535 422.036 61.5342 422.497 62.0338C422.958 62.5334 423.217 63.211 423.217 63.9176C423.217 64.6242 422.958 65.3018 422.497 65.8014C422.036 66.301 421.41 66.5817 420.758 66.5817H307.71C307.058 66.5809 306.433 66.3003 305.973 65.8014C305.512 65.3025 305.253 64.626 305.252 63.9204Z" fill="#E6E6E6"/>
<path d="M305.252 80.2727C305.252 79.9228 305.315 79.5763 305.439 79.253C305.562 78.9296 305.743 78.6357 305.971 78.3881C306.199 78.1404 306.47 77.9439 306.768 77.8097C307.067 77.6755 307.387 77.6062 307.71 77.6058H420.763C421.086 77.6062 421.405 77.6755 421.704 77.8097C422.002 77.9439 422.273 78.1405 422.501 78.3881C422.729 78.6357 422.91 78.9296 423.034 79.253C423.157 79.5763 423.22 79.9228 423.22 80.2727C423.219 80.6225 423.155 80.9689 423.032 81.292C422.908 81.615 422.726 81.9085 422.498 82.1556C422.269 82.4028 421.998 82.5987 421.699 82.7322C421.4 82.8658 421.081 82.9343 420.758 82.934H307.71C307.058 82.9332 306.433 82.6526 305.973 82.1537C305.512 81.6548 305.253 80.9783 305.252 80.2727Z" fill="#E6E6E6"/>
<path d="M405.126 96.6247C405.126 96.2749 405.189 95.9284 405.312 95.605C405.435 95.2817 405.616 94.9878 405.845 94.7401C406.073 94.4925 406.344 94.296 406.642 94.1617C406.94 94.0275 407.26 93.9583 407.583 93.9579H420.757C421.41 93.9579 422.035 94.2386 422.496 94.7382C422.958 95.2378 423.217 95.9154 423.217 96.622C423.217 97.3285 422.958 98.0061 422.496 98.5057C422.035 99.0053 421.41 99.286 420.757 99.286H407.583C406.932 99.2853 406.307 99.0047 405.846 98.5058C405.386 98.0068 405.127 97.3303 405.126 96.6247Z" fill="#E6E6E6"/>
<path d="M157.869 50.9303C156.693 47.9883 154.909 45.3783 152.654 43.3018C150.399 41.2253 147.734 39.7379 144.864 38.9544C138.492 37.1592 129.161 39.8938 124.371 43.8202C115.608 51.0024 113.47 75.6759 119.49 83.473C120.688 83.4209 124.82 83.3823 126.032 83.345L127.746 78.6455V83.2987C137.206 83.0583 147.054 83.2088 156.908 83.3645C157.791 77.844 159.895 56.2406 157.869 50.9303Z" fill="#2F2E41"/>
<path d="M156.263 348.452H164.892L168.996 312.407L156.262 312.407L156.263 348.452Z" fill="#9E616A"/>
<path d="M80.7329 342.641L89.0818 344.998L101.448 311.239L89.1254 307.761L80.7329 342.641Z" fill="#9E616A"/>
<path d="M128.28 127.066L126.326 132.571L126.717 138.076L164.979 152.43L163.08 128.336L158.779 122.83L128.28 127.066Z" fill="#FFB6B6"/>
<path d="M144.695 77.5222C152.243 77.5222 158.361 70.8954 158.361 62.721C158.361 54.5465 152.243 47.9198 144.695 47.9198C137.148 47.9198 131.03 54.5465 131.03 62.721C131.03 70.8954 137.148 77.5222 144.695 77.5222Z" fill="#9E616A"/>
<path d="M154.085 43.4473C151.459 41.7135 148.452 40.7756 145.377 40.7317C142.302 40.6878 139.272 41.5395 136.605 43.1977C133.938 44.8559 131.731 47.2597 130.216 50.1578C128.7 53.0559 127.931 56.3419 127.989 59.6721C135.438 61.7342 143.376 62.5967 151.789 60.1687L153.712 55.0714L154.845 60.1725C157.419 62.1333 159.903 62.1297 162.297 60.1619C162.399 56.8411 161.694 53.5496 160.253 50.6164C158.811 47.6833 156.685 45.2112 154.085 43.4473Z" fill="#2F2E41"/>
<path d="M154.123 343.843L167.762 342.961V349.29L180.73 358.99C181.37 359.469 181.853 360.157 182.106 360.954C182.36 361.751 182.372 362.615 182.141 363.42C181.909 364.225 181.446 364.928 180.819 365.428C180.192 365.927 179.434 366.197 178.656 366.197H162.417L159.619 359.936L158.526 366.197H152.403L154.123 343.843Z" fill="#2F2E41"/>
<path d="M78.979 337.382L92.3826 340.255L90.9086 346.38L101.198 359.309C101.706 359.947 102.012 360.745 102.072 361.585C102.132 362.426 101.943 363.265 101.531 363.981C101.12 364.696 100.508 365.25 99.7847 365.563C99.0616 365.875 98.2654 365.928 97.5122 365.716L81.7992 361.28L80.5488 354.457L78.0333 360.216L72.1089 358.544L78.979 337.382Z" fill="#2F2E41"/>
<path d="M81.7912 319.973L107.082 263.673L115.021 195.15C109.547 184.139 119.714 161.734 119.714 161.734V152.327L159.094 160.374V160.374C167.149 184.168 171.055 209.375 170.613 234.714L169.027 325.802H169.524C170.35 325.802 171.143 326.157 171.727 326.79C172.311 327.422 172.639 328.28 172.639 329.175C172.639 330.07 172.311 330.928 171.727 331.56C171.143 332.193 170.35 332.548 169.524 332.548H153.952C153.126 332.548 152.333 332.193 151.749 331.56C151.165 330.928 150.837 330.07 150.837 329.175C150.837 328.28 151.165 327.422 151.749 326.79C152.333 326.157 153.126 325.802 153.952 325.802H154.353L143.174 209.922L130.175 267.106L98.7617 319.757C99.563 319.824 100.309 320.226 100.843 320.876C101.377 321.527 101.657 322.377 101.625 323.246C101.592 324.116 101.25 324.939 100.67 325.541C100.089 326.143 99.3162 326.478 98.5125 326.476H82.9398C82.2155 326.477 81.5136 326.204 80.9552 325.705C80.3967 325.205 80.0167 324.51 79.8806 323.74C79.7445 322.969 79.8609 322.171 80.2097 321.484C80.5584 320.796 81.1178 320.262 81.7912 319.973Z" fill="#2F2E41"/>
<path d="M116.153 167.501H116.153C116.283 166.951 116.57 166.459 116.973 166.096C117.376 165.733 117.876 165.518 118.399 165.481C118.918 159.053 122.348 117.83 122.478 116.62L122.483 116.569L123.476 93.5912C123.513 92.7567 123.831 91.9659 124.371 91.3697C124.912 90.7735 125.636 90.4138 126.406 90.3593L131.651 89.988C131.723 89.9854 131.791 89.9526 131.841 89.8965C131.891 89.8404 131.919 89.7655 131.919 89.6875C131.919 89.0601 132.033 88.4389 132.255 87.8592C132.477 87.2796 132.802 86.7529 133.211 86.3093C133.621 85.8656 134.107 85.5137 134.642 85.2736C135.177 85.0335 135.751 84.9099 136.33 84.9099H151.86C152.866 84.9104 153.837 85.3084 154.591 86.0294C155.346 86.7503 155.831 87.7446 155.956 88.8256C155.963 88.9 155.996 88.9689 156.047 89.0184C156.099 89.068 156.166 89.0946 156.235 89.0928L156.237 89.0928C158.002 89.0534 159.721 89.7005 161.083 90.9166C162.445 92.1327 163.359 93.8373 163.659 95.721C165.783 109.1 170.038 139.467 167.934 156.348C167.201 162.225 167.534 171.064 167.811 175.981C167.839 176.456 167.779 176.933 167.637 177.383C167.494 177.833 167.271 178.249 166.979 178.605C167.599 178.799 168.124 179.245 168.446 179.85C168.767 180.455 168.859 181.172 168.702 181.849H168.702C168.541 182.543 168.131 183.139 167.564 183.506C166.997 183.873 166.318 183.981 165.677 183.806L117.96 170.778C117.319 170.603 116.769 170.159 116.43 169.545C116.091 168.93 115.992 168.195 116.153 167.501Z" fill="#3F3D56"/>
<path d="M118.353 206.266C118.98 205.584 119.461 204.761 119.762 203.855C120.064 202.95 120.178 201.984 120.097 201.025C120.017 200.066 119.743 199.138 119.296 198.306C118.848 197.475 118.238 196.759 117.507 196.211L127.187 144.135L116.497 147.853L108.749 198.223C107.98 199.613 107.708 201.26 107.985 202.853C108.262 204.446 109.069 205.873 110.252 206.865C111.436 207.856 112.914 208.343 114.407 208.233C115.9 208.122 117.304 207.423 118.353 206.266Z" fill="#9E616A"/>
<path d="M132.646 96.0882L126.013 90.6656C126.013 90.6656 120.162 90.2168 119.126 101.645C118.09 113.073 115.962 135.345 115.962 135.345L105.813 186.258L119.862 189.598L130.733 134.654L137.254 118.338L132.646 96.0882Z" fill="#3F3D56"/>
<path d="M218.789 110.83C217.961 110.48 217.072 110.33 216.185 110.392C215.298 110.454 214.435 110.726 213.655 111.189C212.876 111.652 212.199 112.294 211.674 113.07C211.148 113.846 210.786 114.738 210.613 115.682L162.665 126.851L170.078 135.984L215.812 123.577C217.296 123.787 218.799 123.399 220.037 122.489C221.275 121.578 222.161 120.207 222.528 118.636C222.895 117.064 222.717 115.402 222.028 113.963C221.339 112.525 220.186 111.41 218.789 110.83V110.83Z" fill="#9E616A"/>
<path d="M155.129 139.03C153.597 137.426 152.445 135.446 151.771 133.257L143.015 104.744C142.376 102.661 142.276 100.429 142.727 98.2885C143.177 96.1484 144.161 94.1831 145.571 92.6064C146.981 91.0296 148.763 89.9019 150.723 89.3457C152.684 88.7896 154.748 88.8264 156.69 89.4521C158.884 90.1617 160.821 91.5885 162.236 93.5369C163.652 95.4853 164.477 97.8601 164.598 100.336L165.67 122.774L201.052 117.162L210.248 126.319L209.752 126.502C207.798 127.223 163.078 143.642 155.675 139.445C155.476 139.335 155.292 139.195 155.129 139.03Z" fill="#3F3D56"/>
<path d="M220.189 92.6698C220.127 92.6698 220.065 92.6685 220.003 92.6659C219.276 92.6373 218.566 92.4189 217.933 92.0293C217.301 91.6397 216.764 91.0904 216.37 90.4281C213.416 85.6463 209.791 81.3933 205.626 77.8228C203.105 75.64 200.47 73.6104 197.922 71.6473C191.348 66.5849 185.158 61.8171 181.722 55.2292C174.229 40.8637 183.053 20.8549 195.657 11.8815C209.795 1.81746 228.392 0.238826 246.382 0.0319452C248.251 0.0105312 250.122 -0.000111564 251.994 8.81708e-07C284.408 0.0134623 316.754 3.21683 348.632 9.57061C359.233 11.6888 370.329 14.2838 379.245 20.5811C388.109 26.8413 393.496 36.6994 392.971 45.6968C392.204 58.8315 379.348 68.6459 367.642 71.2118C356.484 73.6555 344.893 72.0041 332.622 70.2551C329.913 69.8694 327.112 69.4701 324.342 69.1232C294.239 65.3545 237.687 76.9705 235.295 77.467L232.921 77.9592L223.711 90.7957C223.297 91.3808 222.764 91.8544 222.153 92.1795C221.542 92.5046 220.869 92.6724 220.189 92.6698Z" fill="#3ACEAA"/>
<path d="M354.243 28.5943H227.006C226.272 28.5931 225.569 28.2767 225.051 27.7145C224.533 27.1523 224.242 26.3903 224.242 25.5958C224.242 24.8014 224.533 24.0394 225.051 23.4772C225.569 22.915 226.272 22.5986 227.006 22.5974H354.243C354.977 22.5986 355.68 22.915 356.198 23.4772C356.716 24.0394 357.007 24.8014 357.007 25.5958C357.007 26.3903 356.716 27.1523 356.198 27.7145C355.68 28.2767 354.977 28.5931 354.243 28.5943Z" fill="white"/>
<path d="M354.243 46.9991H227.006C226.642 46.9999 226.282 46.9231 225.945 46.773C225.609 46.6228 225.303 46.4024 225.045 46.1242C224.788 45.846 224.583 45.5156 224.444 45.1517C224.304 44.7879 224.232 44.3978 224.231 44.0038C224.231 43.6097 224.302 43.2195 224.441 42.8553C224.58 42.4912 224.784 42.1602 225.041 41.8815C225.298 41.6027 225.604 41.3816 225.94 41.2307C226.276 41.0798 226.636 41.0022 227 41.0022H354.243C354.976 41.0034 355.68 41.3198 356.198 41.882C356.716 42.4442 357.007 43.2062 357.007 44.0006C357.007 44.7951 356.716 45.5571 356.198 46.1193C355.68 46.6814 354.976 46.9979 354.243 46.9991Z" fill="white"/>
<path d="M241.834 65.4034H227.006C226.272 65.4034 225.568 65.0875 225.049 64.5252C224.529 63.9628 224.238 63.2002 224.238 62.4049C224.238 61.6097 224.529 60.847 225.049 60.2847C225.568 59.7224 226.272 59.4065 227.006 59.4065H241.834C242.568 59.4065 243.272 59.7224 243.791 60.2847C244.311 60.847 244.602 61.6097 244.602 62.4049C244.602 63.2002 244.311 63.9628 243.791 64.5252C243.272 65.0875 242.568 65.4034 241.834 65.4034Z" fill="white"/>
</g>
<defs>
<clipPath id="clip0_162_410">
<rect width="470" height="367" fill="white"/>
</clipPath>
</defs>
</svg>
