<svg width="491" height="350" viewBox="0 0 491 411" fill="none" xmlns="http://www.w3.org/2000/svg">
<g clip-path="url(#clip0_162_637)">
<path d="M399.881 198.363C399.881 204.139 399.636 209.855 399.147 215.514C398.761 219.93 398.235 224.307 397.569 228.645C396.861 233.237 395.993 237.774 394.966 242.257V242.262C394.294 245.211 393.556 248.137 392.753 251.038C390.421 259.473 387.521 267.743 384.073 275.792C383.323 277.544 382.549 279.283 381.751 281.01C378.73 287.551 375.347 293.921 371.618 300.092C361.161 317.421 348.108 333.072 332.906 346.506C331.261 347.958 329.593 349.385 327.902 350.788C292.01 380.535 246.709 396.799 199.94 396.727C89.515 396.727 0 307.918 0 198.363C0 88.8088 89.515 -0.000242593 199.94 -0.000242593C245.098 -0.0708844 288.938 15.0939 324.263 43.0044C325.918 44.3061 327.553 45.6372 329.167 46.9975C337.044 53.625 344.395 60.8438 351.156 68.5902H351.161C382.649 104.601 399.952 150.691 399.881 198.363Z" fill="#F2F2F2"/>
<path d="M59.0221 232.628C39.9754 221.382 25.5998 200.363 27.4661 178.451C44.8794 194.986 67.6265 204.877 91.6829 206.374C100.963 206.918 111.341 206.565 118.172 212.82C122.422 216.712 124.401 222.572 124.725 228.301C125.05 234.031 123.893 239.73 122.742 245.354L123.138 246.731C100.973 246.814 78.0688 243.875 59.0221 232.628Z" fill="#E6E6E6"/>
<path d="M27.9307 178.428C35.5622 194.98 48.2565 208.726 64.2106 217.712C67.6404 219.617 71.2867 221.253 75.1616 222.012C78.9442 222.723 82.8498 222.416 86.4725 221.123C89.8746 219.984 93.2218 218.429 96.8437 218.131C100.661 217.817 104.196 219.278 106.972 221.838C110.37 224.969 112.431 229.125 114.303 233.258C116.383 237.848 118.47 242.648 122.457 245.948C122.94 246.348 122.286 247.068 121.804 246.669C114.867 240.927 113.735 231.31 108.19 224.548C105.603 221.392 102.041 218.991 97.81 219.054C94.1101 219.109 90.6571 220.71 87.2224 221.892C83.6158 223.134 80.0029 223.717 76.1954 223.17C72.3005 222.612 68.582 221.114 65.1182 219.305C57.2944 215.144 50.1787 209.788 44.0318 203.434C36.9758 196.221 31.2155 187.863 27.0001 178.723C26.7395 178.157 27.6717 177.866 27.9307 178.428H27.9307Z" fill="white"/>
<path d="M58.9019 215.119C57.0187 217.57 54.3187 219.277 51.2841 219.935C48.2494 220.593 45.0777 220.16 42.3354 218.712C41.7816 218.417 42.2173 217.55 42.7719 217.845C45.323 219.198 48.2775 219.601 51.1021 218.982C53.9267 218.363 56.4353 216.763 58.1752 214.471C58.5539 213.973 59.2784 214.624 58.9018 215.119L58.9019 215.119Z" fill="white"/>
<path d="M84.8238 221.926C84.0313 215.675 80.8932 209.95 76.0353 205.893C75.5537 205.492 76.2072 204.771 76.6882 205.172C81.7355 209.404 84.989 215.368 85.7993 221.874C85.8761 222.494 84.9002 222.542 84.8238 221.926V221.926Z" fill="white"/>
<path d="M38.1871 195.766C39.1149 194.968 39.8285 193.954 40.2638 192.815C40.6991 191.677 40.8424 190.448 40.6809 189.241C40.5962 188.622 41.5723 188.574 41.6564 189.189C41.8286 190.524 41.6686 191.88 41.1905 193.14C40.7124 194.399 39.9307 195.523 38.9137 196.414C38.825 196.506 38.7043 196.561 38.5761 196.567C38.448 196.574 38.3221 196.532 38.224 196.45C38.1282 196.364 38.0706 196.244 38.0637 196.116C38.0568 195.987 38.1011 195.862 38.1871 195.766V195.766Z" fill="white"/>
<path d="M89.1188 136C89.1828 136.385 89.2467 136.77 89.3181 137.159C90.205 142.33 91.5139 147.422 93.2319 152.383C93.3586 152.768 93.4929 153.157 93.6305 153.539C97.898 165.447 104.357 176.466 112.679 186.035C115.994 189.84 119.596 193.389 123.454 196.652C128.782 201.157 134.92 205.622 138.336 211.439C138.699 212.042 139.024 212.667 139.31 213.31L124.801 246.145C124.731 246.203 124.667 246.265 124.596 246.324L124.077 247.661C123.867 247.507 123.651 247.342 123.44 247.187C123.318 247.098 123.198 247.002 123.076 246.913C122.995 246.851 122.914 246.789 122.838 246.738C122.811 246.717 122.784 246.697 122.765 246.679C122.688 246.628 122.623 246.573 122.554 246.525C121.348 245.607 120.146 244.68 118.949 243.743C118.942 243.739 118.942 243.739 118.937 243.729C109.834 236.563 101.253 228.58 94.1663 219.559C93.9532 219.287 93.7324 219.013 93.5259 218.726C90.3543 214.642 87.5245 210.308 85.0647 205.767C83.7258 203.276 82.5149 200.719 81.4366 198.107C78.6636 191.351 76.9789 184.205 76.4442 176.93C75.3804 162.428 79.0036 147.749 88.3932 136.828C88.6336 136.549 88.8708 136.276 89.1188 136Z" fill="#E6E6E6"/>
<path d="M89.5062 136.257C85.5548 154.031 87.3489 172.589 94.6336 189.294C96.2163 192.864 98.1348 196.348 100.768 199.269C103.357 202.096 106.662 204.183 110.339 205.315C113.746 206.438 117.362 207.196 120.435 209.121C123.674 211.151 125.609 214.429 126.273 218.131C127.085 222.66 126.209 227.209 125.196 231.629C124.071 236.535 122.824 241.614 124.005 246.631C124.148 247.238 123.189 247.423 123.046 246.816C120.992 238.088 125.924 229.733 125.601 221.022C125.45 216.957 124.063 212.912 120.647 210.435C117.659 208.269 113.93 207.485 110.471 206.377C106.838 205.214 103.599 203.522 100.89 200.811C98.1197 198.039 96.0597 194.621 94.3921 191.108C90.6703 183.112 88.2389 174.586 87.1868 165.841C85.9303 155.867 86.4028 145.753 88.5838 135.937C88.7191 135.33 89.6405 135.654 89.5062 136.257Z" fill="white"/>
<path d="M91.9689 184.053C88.978 184.885 85.7863 184.635 82.9638 183.348C80.1413 182.061 77.8719 179.82 76.5608 177.026C76.2975 176.46 77.172 176.028 77.4357 176.594C78.6517 179.198 80.7659 181.285 83.3966 182.478C86.0274 183.672 89.0014 183.893 91.7819 183.101C92.3863 182.93 92.5699 183.882 91.9689 184.053H91.9689Z" fill="white"/>
<path d="M108.536 204.971C111.696 199.507 112.665 193.062 111.248 186.921C111.107 186.312 112.066 186.127 112.207 186.735C113.669 193.128 112.647 199.833 109.346 205.512C109.031 206.054 108.222 205.509 108.536 204.971Z" fill="white"/>
<path d="M87.1738 156.227C88.3987 156.145 89.5837 155.761 90.6224 155.112C91.6611 154.463 92.521 153.567 93.1248 152.507C93.4328 151.962 94.241 152.507 93.935 153.048C93.2624 154.217 92.3116 155.204 91.1656 155.924C90.0195 156.644 88.7133 157.075 87.3608 157.179C87.2342 157.199 87.1045 157.171 86.9981 157.1C86.8916 157.028 86.8165 156.92 86.7879 156.796C86.7638 156.67 86.7908 156.539 86.863 156.433C86.9353 156.326 87.047 156.253 87.1738 156.227V156.227Z" fill="white"/>
<path d="M138.5 45.975L162.972 330.189L114.029 333.84V49.591C119.861 45.7624 128.233 45.1634 138.5 45.975Z" fill="#CCCCCC"/>
<path d="M259.298 45.975L234.826 330.189L283.769 333.84V49.591C277.937 45.7624 269.565 45.1634 259.298 45.975Z" fill="#CCCCCC"/>
<path d="M276.441 345.587H120.836C118.341 345.584 115.949 344.599 114.185 342.849C112.42 341.098 111.428 338.725 111.425 336.25V53.7622C111.428 51.2868 112.42 48.9135 114.185 47.1631C115.949 45.4127 118.341 44.4281 120.836 44.4253H276.441C278.936 44.4281 281.328 45.4127 283.093 47.1631C284.857 48.9135 285.849 51.2868 285.852 53.7622V336.25C285.849 338.725 284.857 341.098 283.093 342.849C281.328 344.599 278.936 345.584 276.441 345.587ZM120.836 47.5247C119.169 47.5265 117.571 48.1843 116.393 49.3537C115.214 50.523 114.551 52.1085 114.549 53.7622V336.25C114.551 337.903 115.214 339.489 116.393 340.658C117.571 341.828 119.169 342.486 120.836 342.487H276.441C278.108 342.486 279.706 341.828 280.885 340.658C282.063 339.489 282.726 337.903 282.728 336.25V53.7622C282.726 52.1085 282.063 50.523 280.885 49.3537C279.706 48.1843 278.108 47.5266 276.441 47.5247L120.836 47.5247Z" fill="#CCCCCC"/>
<path d="M284.29 91.4331H112.987V94.5325H284.29V91.4331Z" fill="#CCCCCC"/>
<path d="M284.29 143.09H112.987V146.19H284.29V143.09Z" fill="#CCCCCC"/>
<path d="M168.577 45.9751H165.453V186.999H168.577V45.9751Z" fill="#CCCCCC"/>
<path d="M231.825 45.9751H228.701V186.999H231.825V45.9751Z" fill="#CCCCCC"/>
<path d="M303.816 354.11H98.6684C94.9399 354.11 91.3641 352.641 88.7277 350.025C86.0912 347.409 84.6101 343.862 84.6101 340.163C84.6101 336.464 86.0912 332.916 88.7277 330.3C91.3641 327.685 94.9399 326.215 98.6684 326.215H303.816C307.544 326.215 311.12 327.685 313.756 330.3C316.393 332.916 317.874 336.464 317.874 340.163C317.874 343.862 316.393 347.409 313.756 350.025C311.12 352.641 307.544 354.11 303.816 354.11Z" fill="#CCCCCC"/>
<path d="M284.29 179.767H114.029V190.099H284.29V179.767Z" fill="#CCCCCC"/>
<path d="M169.061 212.647L168.845 212.544C157.239 206.981 142.039 206.986 119.561 212.562L119.321 212.621L119.25 212.386C116.872 204.651 114.178 195.89 119.238 191.58C119.309 178.931 130.492 168.661 144.229 168.661C157.962 168.661 169.144 178.926 169.219 191.571C176.746 197.281 173.159 205.719 169.183 212.442L169.061 212.647Z" fill="#2F2E41"/>
<path d="M240.4 185.563C240.192 186.588 239.76 187.555 239.135 188.396C238.509 189.238 237.705 189.933 236.779 190.433C235.854 190.932 234.829 191.225 233.777 191.289C232.725 191.353 231.672 191.188 230.691 190.805L189.674 231.699L186.014 219.001L226.752 181.025C227.51 179.434 228.831 178.173 230.463 177.483C232.095 176.793 233.926 176.721 235.608 177.28C237.29 177.839 238.707 178.991 239.591 180.518C240.474 182.045 240.762 183.84 240.4 185.563L240.4 185.563Z" fill="#FFB6B6"/>
<path d="M139.025 224.932C139.025 224.932 135.304 233.299 144.486 238.459C153.669 243.618 185.762 236.49 190.969 235.494C196.177 234.499 215.626 205.622 215.626 205.622L212.876 191.46L187.081 213.676L139.025 224.932Z" fill="#3ACEAA"/>
<path d="M132.252 271.2L132.773 281.015C132.773 281.015 131.236 289.709 132.5 291.585C133.754 293.452 167.984 293.688 167.984 293.688C167.984 293.688 170.246 281.592 172.194 271.004L132.252 271.2Z" fill="#FFB6B6"/>
<path d="M230.668 400.974L237.824 399.54L235.776 370.863L225.214 372.98L230.668 400.974Z" fill="#FFB6B6"/>
<path d="M240.918 363.655L247.571 360.688L238.941 333.25L229.122 337.63L240.918 363.655Z" fill="#FFB6B6"/>
<path d="M246.713 348.195L234.187 355.232L203.294 305.981C181.607 320.476 160.4 327.418 139.021 331.123C131.793 332.399 124.424 331.752 123.036 324.454C122.971 324.112 122.919 323.769 122.881 323.424C122.027 315.452 132.023 305.233 133.294 295.479L160.65 293.85L164.024 298.141L195.661 278.844C202.023 274.963 210.391 277.062 214.351 283.532C214.56 283.874 214.755 284.224 214.934 284.582L246.713 348.195Z" fill="#2F2E41"/>
<path d="M239.046 381.327L224.713 382.648L198.724 329.916C172.953 334.313 148.64 335.722 127.611 330.403C120.491 328.626 116.138 321.333 117.89 314.111C117.971 313.774 118.066 313.44 118.173 313.109C120.69 305.491 127.278 300.1 132.469 291.721L170.383 292.293L166.148 306.789L202.979 302.06C210.386 301.109 217.151 306.428 218.088 313.94C218.138 314.337 218.17 314.735 218.185 315.135L239.046 381.327Z" fill="#2F2E41"/>
<path d="M147.056 205.15C155.559 205.15 162.452 198.312 162.452 189.876C162.452 181.441 155.559 174.603 147.056 174.603C138.554 174.603 131.661 181.441 131.661 189.876C131.661 198.312 138.554 205.15 147.056 205.15Z" fill="#FFB6B6"/>
<path d="M138.031 210.664L152.147 212.312C152.742 212.381 153.301 212.633 153.745 213.033C154.189 213.432 154.496 213.959 154.624 214.54L156.869 224.731L170.863 241.081C170.863 241.081 175.888 250.429 174.004 261.023C172.12 271.617 171.291 279.489 171.291 279.489C171.291 279.489 133.753 293.453 132.496 291.584C131.24 289.714 130.832 281.222 130.832 281.222L125.807 225.758C125.807 225.758 131.46 216.41 134.601 216.41C136.628 216.342 136.368 211.816 138.031 210.664Z" fill="#3ACEAA"/>
<path d="M171.673 282.9C173.653 282.9 175.257 280.989 175.257 278.632C175.257 276.276 173.653 274.365 171.673 274.365C169.694 274.365 168.089 276.276 168.089 278.632C168.089 280.989 169.694 282.9 171.673 282.9Z" fill="#3ACEAA"/>
<path d="M227.116 393.591L238.027 388.166L240.083 392.925L253.879 395.692C254.56 395.829 255.18 396.178 255.647 396.688C256.114 397.199 256.405 397.845 256.476 398.531C256.548 399.217 256.396 399.907 256.044 400.502C255.691 401.096 255.157 401.564 254.518 401.835L241.188 407.504L236.856 403.774L237.993 408.863L232.967 411L227.116 393.591Z" fill="#2F2E41"/>
<path d="M237.796 361.372L248.608 355.758L250.748 360.481L264.591 363.007C265.275 363.131 265.901 363.469 266.377 363.972C266.853 364.474 267.155 365.115 267.239 365.799C267.322 366.484 267.183 367.177 266.841 367.778C266.499 368.378 265.973 368.855 265.339 369.138L252.112 375.038L247.715 371.384L248.942 376.452L243.954 378.677L237.796 361.372Z" fill="#2F2E41"/>
<path d="M138.26 185.085C134.193 185.092 130.223 183.849 126.896 181.528L126.785 181.451V181.317C126.79 177.413 128.354 173.671 131.136 170.911C133.918 168.151 137.69 166.599 141.624 166.594H147.873C151.807 166.599 155.579 168.151 158.361 170.911C161.143 173.671 162.707 177.413 162.712 181.317C162.708 182.21 162.352 183.066 161.721 183.704C161.09 184.341 160.233 184.708 159.333 184.728L138.612 185.082C138.495 185.084 138.377 185.085 138.26 185.085Z" fill="#2F2E41"/>
<path d="M163.753 178.489C165.746 177.348 166.079 174.22 164.497 171.502C162.915 168.784 160.018 167.506 158.026 168.647C156.034 169.788 155.701 172.917 157.282 175.634C158.864 178.352 161.761 179.63 163.753 178.489Z" fill="#2F2E41"/>
<path d="M132.594 175.457C134.831 173.238 135.326 170.131 133.699 168.517C132.072 166.903 128.94 167.394 126.703 169.613C124.467 171.832 123.972 174.939 125.599 176.553C127.226 178.167 130.358 177.676 132.594 175.457Z" fill="#2F2E41"/>
<path d="M268.846 315.109H253.48C253.133 315.108 252.79 315.182 252.476 315.327C252.161 315.471 251.882 315.682 251.658 315.944C251.091 315.841 250.508 315.873 249.956 316.036C249.403 316.2 248.898 316.491 248.482 316.886C248.065 317.281 247.749 317.769 247.559 318.308C247.369 318.848 247.31 319.425 247.389 319.991C247.467 320.558 247.68 321.098 248.009 321.567C248.338 322.036 248.775 322.421 249.284 322.69C249.792 322.959 250.357 323.105 250.934 323.115C251.51 323.125 252.08 323 252.598 322.749L253.873 326.858C254.024 327.345 254.328 327.771 254.741 328.074C255.154 328.376 255.654 328.54 256.168 328.54H266.158C266.672 328.54 267.172 328.376 267.585 328.074C267.998 327.771 268.302 327.345 268.453 326.858L271.141 318.192C271.252 317.835 271.276 317.458 271.213 317.091C271.15 316.723 271.001 316.376 270.778 316.076C270.554 315.776 270.263 315.532 269.928 315.364C269.592 315.196 269.222 315.109 268.846 315.109ZM251.01 322.083C250.319 322.083 249.657 321.81 249.169 321.326C248.68 320.842 248.406 320.185 248.406 319.5C248.406 318.815 248.68 318.158 249.169 317.673C249.657 317.189 250.319 316.917 251.01 316.917C251.057 316.917 251.101 316.928 251.148 316.931C251.045 317.347 251.057 317.782 251.185 318.192L252.284 321.738C251.897 321.961 251.458 322.08 251.01 322.083Z" fill="#3F3D56"/>
<path d="M200.228 303.896C199.179 303.992 198.121 303.859 197.129 303.506C196.137 303.152 195.235 302.588 194.487 301.851C193.739 301.115 193.163 300.225 192.799 299.244C192.435 298.262 192.292 297.214 192.381 296.172L141.126 268.922L152.337 261.801L200.694 289.623C202.448 289.886 204.044 290.78 205.178 292.133C206.313 293.486 206.908 295.205 206.851 296.964C206.793 298.724 206.088 300.401 204.867 301.678C203.646 302.956 201.996 303.745 200.228 303.896Z" fill="#FFB6B6"/>
<path d="M133.128 218.844C133.128 218.844 123.982 217.708 121.634 227.915C119.287 238.122 135.378 266.578 137.833 271.242C140.288 275.906 173.751 286.105 173.751 286.105L186.636 279.428L157.785 261.287L133.128 218.844Z" fill="#3ACEAA"/>
<path d="M197.597 176.667H200.721C202.24 176.667 203.697 177.266 204.771 178.332C205.845 179.397 206.449 180.843 206.449 182.35H191.87C191.87 180.843 192.473 179.397 193.547 178.332C194.622 177.266 196.078 176.667 197.597 176.667Z" fill="#CCCCCC"/>
<path d="M98.534 70.6493C115.627 70.6493 129.484 56.9018 129.484 39.9433C129.484 22.9849 115.627 9.2373 98.534 9.2373C81.4408 9.2373 67.584 22.9849 67.584 39.9433C67.584 56.9018 81.4408 70.6493 98.534 70.6493Z" fill="#FF6584"/>
<path d="M193.296 38.3432C185.105 29.8185 175.592 22.0417 164.331 17.9321C161.194 16.7826 157.941 15.9716 154.629 15.5134C154.602 15.5098 154.577 15.5151 154.551 15.513C154.497 15.4992 154.442 15.4886 154.387 15.4811C149.755 14.8957 145.053 15.1773 140.525 16.3114C138.311 16.8626 136.151 17.6091 134.071 18.542C131.984 19.5523 129.961 20.6895 128.015 21.9471C123.896 24.3935 119.36 26.0722 114.632 26.9003C112.259 27.3242 109.856 27.5582 107.445 27.6002C105.353 27.6418 103.38 27.7139 101.398 28.4638C99.2807 29.2536 97.3789 30.5235 95.8442 32.1721C94.3096 33.8207 93.1845 35.8023 92.5589 37.9589C92.5107 38.1509 92.5252 38.3532 92.6004 38.5365C92.6756 38.7198 92.8076 38.8747 92.9772 38.9788C93.5134 39.3597 94.0361 39.792 94.5994 40.1314C95.1005 40.3589 95.6357 40.5037 96.1839 40.5601C97.0795 40.7476 97.9762 40.9296 98.8741 41.1061C102.182 41.7564 105.503 42.3319 108.839 42.8329C115.587 43.8464 122.372 44.5604 129.194 44.9748C142.86 45.796 156.572 45.3871 170.164 43.7532C177.802 42.8353 185.389 41.5335 192.894 39.8527C193.046 39.8086 193.184 39.7263 193.294 39.6138C193.405 39.5013 193.484 39.3623 193.525 39.2105C193.565 39.0586 193.565 38.8989 193.525 38.747C193.485 38.595 193.406 38.4559 193.296 38.3432Z" fill="#E6E6E6"/>
<path d="M100.003 58.8736C96.866 57.724 93.6134 56.913 90.3013 56.4548C90.2747 56.4512 90.2495 56.4565 90.223 56.4544C90.1691 56.4406 90.1145 56.43 90.0594 56.4225C85.4271 55.8371 80.7253 56.1187 76.1978 57.2528C73.9837 57.804 71.8237 58.5505 69.7437 59.4834C67.6562 60.4938 65.6337 61.631 63.6875 62.8885C59.5681 65.3349 55.0326 67.0136 50.3047 67.8417C47.9316 68.2656 45.528 68.4996 43.117 68.5416C41.0251 68.5832 39.0522 68.6553 37.0702 69.4051C34.953 70.195 33.0512 71.4649 31.5166 73.1135C29.9819 74.762 28.8569 76.7437 28.2313 78.9002C28.1831 79.0923 28.1976 79.2945 28.2728 79.4779C28.348 79.6612 28.4799 79.816 28.6496 79.9201C29.1858 80.3011 29.7084 80.7333 30.2717 81.0727C30.7729 81.3003 31.3081 81.4451 31.8562 81.5015C32.7518 81.689 33.6486 81.871 34.5464 82.0475C37.8542 82.6977 41.1757 83.2733 44.5109 83.7742C51.2596 84.7878 58.0448 85.5018 64.8665 85.9161C78.5321 86.7374 92.2447 86.3285 105.836 84.6945C113.474 83.7766 121.061 82.4748 128.566 80.794C128.718 80.7499 128.856 80.6676 128.967 80.5551C129.077 80.4426 129.156 80.3037 129.197 80.1518C129.237 80 129.237 79.8403 129.197 79.6884C129.157 79.5364 129.078 79.3973 128.968 79.2846C120.777 70.7599 111.264 62.9831 100.003 58.8736Z" fill="#E6E6E6"/>
<path d="M323.197 287.782L299.396 256.761L280.616 267.296L320.412 314.181L323.197 287.782Z" fill="#3F3D56"/>
<path d="M378.023 237.355C378.551 250.355 380.581 263.252 384.073 275.793C383.323 277.544 382.549 279.283 381.751 281.01C378.73 287.551 375.347 293.921 371.618 300.092C361.161 317.422 348.108 333.072 332.906 346.506C331.261 347.958 329.593 349.385 327.902 350.789C318.264 337.606 313.063 323.059 311.006 308.089C310.746 306.188 310.532 304.266 310.371 302.355V302.344C309.976 297.699 309.849 293.036 309.991 288.376C309.996 288.004 310.007 287.627 310.022 287.25C310.204 282.271 310.657 277.28 311.339 272.337V272.332C311.418 271.763 311.496 271.195 311.584 270.627C311.834 268.922 312.115 267.218 312.422 265.523C314.21 255.751 316.706 246.12 319.889 236.704V236.699C319.978 236.425 320.066 236.156 320.165 235.888C320.509 234.865 320.857 233.852 321.217 232.84C321.239 232.76 321.267 232.683 321.3 232.607C321.763 231.285 322.237 229.973 322.721 228.671C322.852 228.309 322.987 227.948 323.128 227.586C323.674 226.135 324.231 224.693 324.799 223.273C324.976 222.818 325.158 222.364 325.341 221.914C325.481 221.568 325.616 221.222 325.762 220.881V220.876C326.59 218.846 327.428 216.855 328.277 214.904C330.657 209.418 333.104 204.258 335.489 199.5L335.494 199.495C345.392 179.798 354.389 167.008 354.389 167.008L388.176 177.856C384.146 184.948 381.027 195.409 379.319 207.75C378.003 217.559 377.57 227.464 378.023 237.349L378.023 237.355Z" fill="#3F3D56"/>
<path d="M321.868 234.198C321.67 233.738 321.446 233.289 321.217 232.84C320.029 230.558 318.5 228.468 316.682 226.641C316.411 226.367 316.13 226.093 315.838 225.835C312.702 222.969 308.888 220.933 304.749 219.917C300.61 218.9 296.279 218.935 292.158 220.018L292.137 220.029L291.981 220.07L292.017 220.245C292.173 221.064 292.4 221.867 292.694 222.648C292.772 222.859 292.861 223.061 292.949 223.262C292.986 223.355 293.032 223.438 293.074 223.531C293.074 223.531 293.069 223.536 293.079 223.536C293.079 223.541 293.085 223.546 293.085 223.552C293.183 223.743 293.277 223.939 293.381 224.125C293.168 223.923 292.965 223.717 292.767 223.505C292.574 223.309 292.397 223.102 292.22 222.895C291.613 222.193 291.065 221.444 290.58 220.654L290.497 220.514L290.351 220.571C288.386 221.246 286.512 222.157 284.769 223.283L284.582 223.407C283.251 224.273 281.752 224.853 280.182 225.107C278.611 225.362 277.004 225.286 275.465 224.884C273.038 224.264 270.508 224.15 268.035 224.551C265.562 224.952 263.2 225.859 261.099 227.214C259.708 228.114 258.449 229.203 257.361 230.448C257.267 230.556 257.173 230.67 257.08 230.778C256.882 231.016 256.694 231.259 256.512 231.507C254.555 234.102 253.353 237.181 253.039 240.407L253.029 240.526L253.128 240.593C254.889 241.791 256.882 242.614 258.98 243.011C257.662 243.193 256.328 243.226 255.002 243.109H254.997C254.396 243.06 253.798 242.977 253.206 242.861L253.096 242.84H253.091L252.956 242.815L252.977 243.063C253.132 246.219 254.133 249.277 255.877 251.922L255.929 251.994C255.948 252.02 255.965 252.048 255.981 252.077C256.72 253.198 257.334 254.394 257.814 255.646C259.031 258.757 259.299 262.154 258.584 265.415C257.776 268.902 258.044 272.55 259.356 275.884C260.667 279.218 262.96 282.082 265.936 284.104C268.551 285.888 271.597 286.949 274.762 287.178C275.194 287.214 275.631 287.235 276.069 287.235C278.572 287.242 281.05 286.73 283.343 285.731L283.426 285.7L283.447 285.607C283.887 284.196 284.507 282.845 285.29 281.588C285.034 282.579 284.904 283.598 284.905 284.621V284.962L285.201 284.791C285.457 284.641 285.717 284.481 285.951 284.331C287.358 283.42 288.631 282.322 289.737 281.067C290.169 280.571 290.606 280.09 291.064 279.61L291.069 279.605C291.96 278.665 292.902 277.745 293.881 276.867C295.964 275.011 298.192 273.324 300.546 271.82C302.898 270.322 305.357 268.996 307.903 267.853H307.908C308.195 267.719 308.486 267.589 308.773 267.465C310.04 266.918 311.261 266.268 312.422 265.523C312.464 265.497 312.501 265.477 312.537 265.451C317.57 262.181 321.271 257.245 322.979 251.522C324.688 245.799 324.294 239.66 321.868 234.198L321.868 234.198Z" fill="#3ACEAA"/>
<path opacity="0.15" d="M259.442 272.749C259.3 273.377 259.192 274.013 259.12 274.652C258.15 271.613 258.01 268.373 258.712 265.263C258.821 264.787 258.902 264.305 258.966 263.821C259.928 266.701 260.092 269.785 259.442 272.749Z" fill="black"/>
<path opacity="0.15" d="M259.836 250.341C258.294 250.554 256.73 250.561 255.185 250.363C254.781 249.607 254.432 248.822 254.141 248.016C255.86 249.167 257.798 249.958 259.836 250.341Z" fill="black"/>
<path opacity="0.15" d="M255.062 242.943C254.492 244.388 254.114 245.899 253.936 247.44C253.461 245.973 253.181 244.45 253.102 242.911L253.089 242.663L253.335 242.71C253.906 242.816 254.483 242.894 255.062 242.943Z" fill="black"/>
<path opacity="0.15" d="M261.233 227.061C263.332 225.704 265.693 224.796 268.164 224.394C270.636 223.992 273.166 224.106 275.591 224.728C277.13 225.132 278.739 225.209 280.31 224.955C281.882 224.701 283.382 224.121 284.713 223.253L284.901 223.13C286.642 222.002 288.515 221.089 290.479 220.412L290.629 220.36L290.711 220.495C291.488 221.769 292.429 222.936 293.511 223.969C292.854 222.755 292.394 221.445 292.147 220.089L292.112 219.91L292.29 219.864C296.156 218.848 300.209 218.755 304.118 219.589C308.027 220.424 311.683 222.164 314.785 224.667C317.888 227.17 320.35 230.366 321.971 233.993C323.592 237.62 324.325 241.575 324.112 245.537C323.292 242.307 321.834 239.271 319.822 236.604C317.811 233.937 315.286 231.693 312.394 230.001C309.502 228.31 306.3 227.204 302.975 226.749C299.649 226.294 296.265 226.498 293.019 227.35L292.842 227.397L292.877 227.576C293.123 228.932 293.583 230.241 294.24 231.455C293.159 230.423 292.218 229.255 291.441 227.981L291.359 227.847L291.209 227.898C289.245 228.575 287.371 229.488 285.63 230.617L285.442 230.74C284.112 231.607 282.612 232.187 281.04 232.442C279.468 232.696 277.86 232.618 276.32 232.215C272.29 231.177 268.021 231.558 264.242 233.294C260.463 235.03 257.408 238.012 255.598 241.733C254.792 241.349 254.01 240.916 253.258 240.436L253.156 240.372L253.168 240.253C253.427 237.594 254.287 235.028 255.683 232.744C257.079 230.46 258.976 228.517 261.233 227.061Z" fill="black"/>
<path d="M454.802 95.0701L454.307 94.7446L453.948 95.2096C451.168 98.6827 448.955 102.568 447.393 106.724C447.608 101.937 448.452 97.1976 449.902 92.6267L450.059 92.1463L449.611 91.8932C443.785 88.6203 437.577 86.0667 431.127 84.2892L430.424 84.1033C425.48 82.7574 420.877 80.3927 416.916 77.1635C412.955 73.9343 409.725 69.9131 407.436 65.362C402.116 54.9172 393.712 46.3304 383.346 40.7473C372.979 35.1641 361.143 32.8503 349.417 34.1146H349.411C349.287 34.1249 349.156 34.1404 349.031 34.1559C348.818 34.1766 348.61 34.2024 348.401 34.2282C347.974 34.285 347.558 34.3419 347.141 34.4039C346.787 34.4555 346.428 34.5123 346.074 34.5743C345.886 34.6002 345.704 34.6312 345.522 34.6673C345.34 34.6983 345.152 34.7293 344.97 34.7655H344.965C341.469 35.4215 338.042 36.3986 334.728 37.6841H334.723V37.6892L333.885 38.0147C333.021 38.3659 332.163 38.7379 331.313 39.1305C331.12 39.2183 330.933 39.3113 330.74 39.3991C330.688 39.4249 330.631 39.4507 330.579 39.4817C330.032 39.74 329.49 40.0086 328.954 40.2928C328.876 40.3289 328.798 40.3702 328.72 40.4116L328.22 40.675C327.121 41.2639 326.042 41.889 324.981 42.5502C324.893 42.6018 324.809 42.6535 324.721 42.7103C324.627 42.7723 324.528 42.8343 324.435 42.8963C324.377 42.9273 324.32 42.9686 324.263 43.0048C324.101 43.1029 323.945 43.2062 323.789 43.3147C323.476 43.5162 323.164 43.7228 322.857 43.9346C322.539 44.1464 322.227 44.3685 321.914 44.5906L321.602 44.8128L321.659 45.195C321.711 45.5101 321.758 45.8252 321.816 46.1352C321.868 46.4451 321.92 46.7499 321.977 47.0547C322.065 47.5661 322.164 48.0723 322.263 48.5631C322.331 48.8885 322.394 49.2088 322.466 49.5239C322.534 49.8493 322.607 50.1748 322.685 50.5002C322.836 51.1718 322.997 51.8226 323.169 52.4632C323.253 52.7835 323.341 53.1037 323.435 53.4188C323.487 53.61 323.539 53.8011 323.596 53.9871C323.638 54.1162 323.68 54.2454 323.721 54.3745C323.732 54.4158 323.742 54.4623 323.758 54.5088C323.769 54.5526 323.783 54.5957 323.799 54.638C323.857 54.8291 323.914 55.0151 323.971 55.1959C324.002 55.294 324.034 55.3922 324.07 55.4851C324.143 55.7073 324.221 55.9346 324.299 56.1515C324.382 56.3995 324.471 56.6474 324.56 56.8902C324.58 56.9522 324.601 57.009 324.622 57.071C324.638 57.1175 324.653 57.164 324.674 57.2105C324.695 57.2621 324.716 57.319 324.737 57.3706C324.825 57.6031 324.914 57.8407 325.007 58.0732C325.039 58.1558 325.07 58.2436 325.106 58.3263C325.95 60.4307 326.987 62.4539 328.204 64.3702C326.856 63.2234 325.557 62.0077 324.31 60.7232C322.383 58.737 320.608 56.6115 318.999 54.3642C318.869 54.1885 318.738 54.0077 318.619 53.8269C318.374 53.4808 318.134 53.1347 317.9 52.7835C317.65 52.4219 317.411 52.0448 317.176 51.6728C317.02 51.4249 316.864 51.1718 316.713 50.9238C316.562 50.6862 316.421 50.4537 316.286 50.2161L315.88 49.5239H315.875V49.5291L315.302 50.0869C315.073 50.3091 314.844 50.5312 314.62 50.7533C307.622 57.739 302.553 66.3935 299.9 75.8845L299.822 76.1687L299.744 76.4631C299.593 76.99 299.442 77.5014 299.281 78.0232V78.0283C299.124 78.5449 298.958 79.0615 298.781 79.5677C298.619 80.0481 298.453 80.5234 298.276 80.9986C298.218 81.1587 298.156 81.3189 298.088 81.479C297.979 81.789 297.859 82.0937 297.739 82.4037C297.682 82.5432 297.625 82.6878 297.568 82.8273C297.427 83.1682 297.286 83.5091 297.146 83.8449C297.125 83.8966 297.099 83.9534 297.073 84.0051C297.031 84.1084 296.984 84.2117 296.943 84.3098C296.833 84.5578 296.719 84.8109 296.61 85.0589C296.531 85.219 296.459 85.3843 296.386 85.5444C296.354 85.6168 296.318 85.6891 296.287 85.7614C296.094 86.1747 295.896 86.5827 295.688 86.9857C295.454 87.4609 295.214 87.9362 294.959 88.4011C294.735 88.835 294.501 89.2586 294.256 89.6822C293.834 90.4312 293.392 91.1751 292.934 91.8983C292.757 92.1773 292.58 92.4562 292.397 92.7352C292.356 92.8023 292.314 92.8695 292.272 92.9315C292.121 93.1742 291.965 93.4067 291.804 93.6443C291.694 93.8045 291.585 93.9646 291.476 94.1196C291.293 94.3985 291.101 94.6671 290.903 94.9306C290.851 95.0132 290.794 95.0907 290.736 95.1682C290.445 95.5711 290.153 95.9637 289.856 96.3563C289.846 96.3615 289.846 96.3666 289.841 96.3718C289.83 96.3718 289.83 96.377 289.825 96.3822C289.695 96.5526 289.565 96.7231 289.429 96.8884C289.252 97.1312 289.06 97.3688 288.867 97.6013C288.555 97.9939 288.227 98.3916 287.893 98.779C287.883 98.7894 287.878 98.7997 287.867 98.8049C286.142 100.816 284.273 102.701 282.275 104.446C282.239 104.477 282.213 104.508 282.176 104.534C281.895 104.776 281.614 105.019 281.322 105.257C281.203 105.355 281.083 105.453 280.963 105.551C280.765 105.717 280.562 105.882 280.364 106.032C280.341 106.055 280.315 106.076 280.286 106.094C280.109 106.238 279.937 106.373 279.76 106.507C279.547 106.677 279.333 106.838 279.115 106.998C278.084 107.773 277.025 108.504 275.939 109.193C275.777 109.302 275.605 109.41 275.439 109.513C275.34 109.575 275.241 109.637 275.147 109.689C274.751 109.932 274.356 110.169 273.96 110.397C273.564 110.629 273.158 110.851 272.757 111.068C271.898 111.533 271.049 112.019 270.222 112.525C269.805 112.783 269.388 113.042 268.977 113.305C267.342 114.359 265.768 115.487 264.255 116.689C262.741 117.891 261.29 119.169 259.907 120.516C259.735 120.682 259.563 120.852 259.391 121.028C259.048 121.364 258.715 121.705 258.397 122.045C257.887 122.567 257.397 123.104 256.913 123.647C254.36 126.521 252.099 129.639 250.165 132.955C249.194 134.611 248.311 136.317 247.52 138.064C246.921 139.371 246.375 140.709 245.88 142.063C245.552 142.967 245.245 143.879 244.958 144.8C244.818 145.26 244.682 145.725 244.552 146.19C244.11 147.766 243.74 149.357 243.438 150.953C243.193 152.234 242.995 153.517 242.844 154.801C242.766 155.447 242.704 156.093 242.646 156.733C242.512 158.308 242.444 159.884 242.441 161.461C242.432 166.193 243.011 170.909 244.167 175.5C244.422 176.513 244.705 177.52 245.016 178.522C245.172 179.023 245.338 179.519 245.505 180.015C245.927 181.255 246.394 182.483 246.906 183.698C247.213 184.427 247.536 185.15 247.874 185.868C250.025 190.433 252.77 194.698 256.038 198.555C256.575 199.19 257.128 199.815 257.699 200.43C257.704 200.43 257.699 200.435 257.699 200.435C259.116 201.968 260.616 203.424 262.193 204.795H262.198C262.828 205.348 263.468 205.883 264.119 206.402C264.124 206.396 264.124 206.402 264.124 206.402C264.78 206.929 265.442 207.435 266.119 207.926C266.457 208.168 266.801 208.411 267.15 208.654C267.832 209.134 268.528 209.598 269.237 210.043H269.243C269.951 210.498 270.669 210.932 271.398 211.345C272.861 212.177 274.361 212.957 275.902 213.665L276.162 213.783L276.428 213.665C278.899 212.561 281.447 211.634 284.051 210.891C284.624 210.725 285.201 210.576 285.774 210.431C287.222 210.074 288.68 209.775 290.148 209.532C288.717 210.244 287.336 211.05 286.014 211.944C284.988 212.632 283.978 213.381 282.963 214.207C282.624 214.481 282.286 214.765 281.947 215.054L281.104 215.777L282.161 216.124C282.546 216.248 282.931 216.372 283.317 216.485C283.842 216.65 284.363 216.8 284.873 216.94C285.988 217.25 287.109 217.523 288.237 217.761C288.513 217.818 288.784 217.875 289.06 217.932C289.596 218.035 290.138 218.138 290.679 218.231C290.701 218.237 290.724 218.24 290.747 218.241C291.309 218.334 291.877 218.422 292.439 218.5C293.485 218.65 294.532 218.768 295.579 218.856C295.693 218.872 295.808 218.877 295.927 218.882C296.183 218.903 296.433 218.923 296.688 218.939C297.25 218.975 297.818 219.001 298.385 219.021C298.427 219.021 298.463 219.027 298.505 219.027C298.791 219.037 299.078 219.047 299.364 219.053C299.364 219.053 299.364 219.058 299.369 219.053C299.656 219.058 299.942 219.063 300.228 219.063H301.811C302.108 219.063 302.405 219.068 302.707 219.068C303.123 219.068 303.545 219.073 303.962 219.078C304.071 219.078 304.185 219.083 304.3 219.083C304.966 219.094 305.633 219.109 306.299 219.125C306.341 219.125 306.383 219.13 306.424 219.13C307.091 219.151 307.757 219.171 308.424 219.202C308.57 219.207 308.715 219.213 308.866 219.223C309.507 219.249 310.147 219.28 310.788 219.316C310.97 219.326 311.157 219.342 311.345 219.352C311.829 219.378 312.318 219.409 312.803 219.445C313.089 219.461 313.37 219.481 313.657 219.507C314.812 219.595 315.963 219.693 317.119 219.807C317.504 219.838 317.89 219.879 318.275 219.92C319.306 220.029 320.34 220.148 321.378 220.277C321.842 220.328 322.305 220.39 322.768 220.452C322.821 220.458 322.873 220.463 322.925 220.473C323.497 220.551 324.065 220.628 324.638 220.711C325.013 220.762 325.387 220.819 325.762 220.876C326.148 220.933 326.533 220.99 326.918 221.057C327.127 221.088 327.335 221.124 327.548 221.16C328.048 221.238 328.553 221.32 329.058 221.413C329.104 221.418 329.149 221.425 329.194 221.434C330.266 221.62 331.344 221.816 332.417 222.028C333.047 222.147 333.671 222.271 334.296 222.4C334.786 222.498 335.275 222.601 335.765 222.705C335.848 222.72 335.931 222.741 336.014 222.761C336.033 222.767 336.052 222.77 336.072 222.772C336.811 222.932 337.556 223.097 338.295 223.273C340.862 223.862 343.425 224.516 345.985 225.236C346.574 225.396 347.162 225.566 347.751 225.737C348 225.809 348.245 225.882 348.49 225.954C349 226.104 349.505 226.254 350.016 226.414C350.463 226.548 350.916 226.687 351.364 226.832C351.645 226.92 351.926 227.008 352.208 227.101C352.645 227.235 353.082 227.374 353.514 227.524C353.884 227.638 354.249 227.757 354.613 227.886C355.134 228.056 355.66 228.232 356.18 228.418C356.331 228.47 356.488 228.521 356.639 228.578C357.274 228.795 357.909 229.017 358.544 229.25C359.164 229.472 359.783 229.699 360.398 229.926C360.825 230.086 361.252 230.241 361.674 230.407C362.147 230.588 362.621 230.768 363.09 230.954C363.767 231.218 364.449 231.486 365.126 231.76C365.75 232.008 366.37 232.261 366.995 232.525C367.109 232.571 367.229 232.618 367.344 232.669C367.885 232.891 368.427 233.124 368.963 233.356C369.312 233.501 369.655 233.651 369.999 233.801C371.499 234.452 372.997 235.125 374.493 235.82H374.498C375.435 236.26 376.388 236.678 377.346 237.076C377.57 237.169 377.794 237.262 378.023 237.35C378.403 237.51 378.788 237.659 379.174 237.814C379.423 237.913 379.673 238.011 379.929 238.104C380.298 238.248 380.673 238.388 381.048 238.522C381.444 238.667 381.834 238.811 382.235 238.946C382.376 238.997 382.516 239.044 382.662 239.096C383.125 239.25 383.589 239.405 384.057 239.555C384.104 239.571 384.151 239.586 384.203 239.602C384.693 239.757 385.182 239.912 385.677 240.056C385.716 240.071 385.756 240.083 385.797 240.092C386.328 240.253 386.869 240.408 387.405 240.557C388.197 240.774 388.994 240.981 389.79 241.172C389.936 241.208 390.082 241.244 390.228 241.275C390.654 241.379 391.076 241.477 391.503 241.57C391.956 241.673 392.414 241.766 392.867 241.859C393.326 241.952 393.784 242.045 394.237 242.128C394.481 242.174 394.726 242.221 394.966 242.262L395.606 242.371C396.049 242.448 396.491 242.515 396.939 242.588C396.951 242.587 396.964 242.589 396.976 242.593C397.481 242.67 397.98 242.743 398.485 242.805C398.97 242.872 399.454 242.928 399.938 242.985C400.037 242.996 400.141 243.006 400.245 243.016C400.646 243.063 401.047 243.109 401.448 243.145C401.563 243.156 401.677 243.166 401.792 243.176C402.188 243.213 402.583 243.249 402.979 243.275C403.058 243.285 403.138 243.29 403.218 243.29C403.572 243.321 403.927 243.347 404.281 243.362C404.531 243.383 404.775 243.393 405.025 243.409C405.155 243.414 405.28 243.419 405.41 243.424C405.754 243.445 406.098 243.455 406.447 243.466C406.868 243.481 407.29 243.492 407.707 243.502C408.212 243.512 408.722 243.517 409.227 243.517H409.238C409.732 243.517 410.232 243.512 410.727 243.502H410.914L411.461 243.486C411.742 243.481 412.023 243.471 412.299 243.461C412.83 243.44 413.356 243.414 413.882 243.383C414.09 243.373 414.304 243.357 414.512 243.347C414.606 243.342 414.705 243.331 414.798 243.326C415.126 243.306 415.449 243.285 415.777 243.259C416.116 243.233 416.459 243.202 416.798 243.166C417.235 243.125 417.673 243.078 418.11 243.032C418.454 242.996 418.797 242.954 419.136 242.913C419.181 242.909 419.226 242.902 419.271 242.892C419.599 242.856 419.927 242.815 420.25 242.768C420.635 242.717 421.015 242.66 421.395 242.603C421.437 242.598 421.474 242.593 421.515 242.588C422.171 242.484 422.832 242.381 423.494 242.262C424.186 242.138 424.879 242.004 425.566 241.864C425.821 241.813 426.071 241.756 426.326 241.704C426.467 241.673 426.613 241.647 426.748 241.616C426.961 241.57 427.17 241.523 427.378 241.472C427.414 241.467 427.456 241.456 427.493 241.451C427.784 241.389 428.071 241.317 428.362 241.244C428.945 241.105 429.518 240.96 430.091 240.805C430.346 240.743 430.601 240.676 430.846 240.609C430.919 240.588 430.991 240.568 431.059 240.547C432.116 240.253 433.164 239.941 434.204 239.612C434.662 239.467 435.115 239.318 435.568 239.158C436.542 238.827 437.507 238.479 438.463 238.114C438.718 238.021 438.974 237.918 439.229 237.82C439.604 237.67 439.978 237.52 440.348 237.37C440.681 237.231 441.015 237.091 441.353 236.947C441.52 236.879 441.686 236.807 441.853 236.735C442.353 236.518 442.853 236.296 443.347 236.074C443.68 235.919 444.008 235.769 444.337 235.614C444.857 235.366 445.373 235.113 445.888 234.86C446.018 234.792 446.143 234.725 446.268 234.663C446.596 234.498 446.924 234.328 447.258 234.162C447.783 233.883 448.309 233.604 448.83 233.315C449.007 233.222 449.179 233.124 449.356 233.026C449.929 232.706 450.496 232.38 451.058 232.05C452.303 231.311 453.53 230.539 454.74 229.735C455.042 229.539 455.344 229.332 455.64 229.131C456.203 228.749 456.755 228.356 457.307 227.963C457.364 227.922 457.416 227.881 457.473 227.845C457.749 227.643 458.025 227.442 458.301 227.235C458.874 226.806 459.441 226.372 460.009 225.928C460.019 225.923 460.035 225.907 460.051 225.897C460.306 225.696 460.561 225.494 460.811 225.293C461.587 224.668 462.352 224.032 463.102 223.376C463.471 223.061 463.836 222.736 464.195 222.41C464.466 222.167 464.737 221.925 465.002 221.677C465.538 221.176 466.064 220.68 466.585 220.174C466.845 219.926 467.1 219.667 467.361 219.409C467.616 219.151 467.876 218.892 468.132 218.629C468.22 218.541 468.308 218.448 468.397 218.355C468.657 218.081 468.918 217.802 469.178 217.529C469.402 217.291 469.621 217.043 469.844 216.795C470.219 216.382 470.6 215.969 470.969 215.55C470.989 215.527 471.01 215.504 471.032 215.483C471.052 215.457 471.073 215.437 471.089 215.416H471.084C478.652 206.733 484.275 196.555 487.582 185.554C490.888 174.554 491.802 162.982 490.262 151.605C488.723 140.228 484.766 129.305 478.653 119.559C472.54 109.813 464.41 101.466 454.802 95.0701L454.802 95.0701Z" fill="#3ACEAA"/>
<g opacity="0.15">
<path opacity="0.15" d="M349.413 34.1104C350.451 37.8092 352.012 41.3433 354.051 44.607C350.638 41.6985 347.589 38.3949 344.969 34.7667C346.44 34.4905 347.922 34.2717 349.413 34.1104Z" fill="black"/>
<path opacity="0.15" d="M298.606 91.3142C294.752 93.4008 291.149 95.9136 287.865 98.8046C293.41 92.2998 297.462 84.6765 299.742 76.4632C299.769 76.3645 299.797 76.2652 299.824 76.1663L299.901 75.8868C302.64 66.0841 307.954 57.179 315.3 50.0822L315.877 49.5239L316.285 50.2138C318.536 54.0126 321.231 57.5352 324.313 60.7088C319.591 73.9299 310.401 84.9336 298.606 91.3142Z" fill="black"/>
<path opacity="0.15" d="M325.748 56.1278L325.671 56.4073C325.644 56.5061 325.616 56.6055 325.589 56.7041C325.437 57.2477 325.275 57.7872 325.108 58.3244C323.461 54.0918 322.304 49.687 321.66 45.1951L321.6 44.8139L321.916 44.59C325.878 41.7654 330.181 39.4445 334.725 37.6816C330.645 43.2484 327.605 49.4961 325.748 56.1278Z" fill="black"/>
<path opacity="0.15" d="M272.759 111.073C276.17 109.221 279.362 106.998 282.276 104.445C276.454 111.17 272.281 119.142 270.083 127.734C267.886 136.327 267.724 145.308 269.61 153.974C271.496 162.639 275.379 170.754 280.954 177.681C286.53 184.609 293.647 190.161 301.747 193.904L302.01 194.024L302.273 193.907C306.648 191.946 311.261 190.556 315.997 189.772C313.041 191.266 310.286 193.122 307.796 195.296L306.953 196.019L308.01 196.365C308.922 196.664 309.835 196.939 310.722 197.184C315.933 198.623 321.32 199.339 326.729 199.308C351.306 199.152 376.073 204.789 400.343 216.063C404.506 217.993 408.823 219.576 413.25 220.795C432.544 226.125 453.141 224.208 471.099 215.411C460.974 227.028 447.736 235.557 432.921 240.008C418.106 244.458 402.322 244.648 387.403 240.554C382.976 239.335 378.658 237.752 374.496 235.822C350.226 224.548 325.459 218.911 300.882 219.067C295.473 219.098 290.085 218.382 284.874 216.942C283.988 216.698 283.075 216.423 282.163 216.124L281.106 215.777L281.949 215.055C284.439 212.881 287.194 211.025 290.15 209.531C285.414 210.315 280.801 211.704 276.426 213.666L276.163 213.783L275.9 213.663C266.172 209.171 257.894 202.085 251.99 193.197C246.085 184.309 242.785 173.968 242.46 163.328C242.134 152.688 244.795 142.168 250.145 132.94C255.495 123.713 263.324 116.143 272.759 111.073L272.759 111.073Z" fill="black"/>
</g>
</g>
<defs>
<clipPath id="clip0_162_637">
<rect width="491" height="411" fill="white"/>
</clipPath>
</defs>
</svg>
