<svg width="80" height="107" viewBox="0 0 111 107" fill="none" xmlns="http://www.w3.org/2000/svg">
<path d="M107.043 52.0292L106.479 53.0469C111.504 40.6625 106.934 25.4021 97.9699 16.0639C89.0059 6.72571 76.5439 2.45659 64.2729 0.762898C55.1636 -0.494405 45.7083 -0.458074 37.0467 2.87864C24.5036 7.71064 14.9204 18.8963 6.91921 30.5325C3.25933 35.8548 -0.339029 41.9225 0.0255481 48.5747C0.364011 54.748 4.02835 59.9866 7.02917 65.2241C10.0303 70.4617 12.5363 76.9597 10.3825 82.6761C9.09912 86.0826 6.38661 88.536 4.18574 91.3226C1.98486 94.1093 0.174337 97.8758 1.23751 101.372C2.09758 104.201 4.68503 106.061 7.34601 106.681C10.0066 107.301 12.7669 106.896 15.4616 106.489L85.4058 95.9212C90.1586 95.203 94.6673 93.3462 98.5474 90.509C102.427 87.6718 105.564 83.9383 107.689 79.6269C109.815 75.3156 110.866 70.5542 110.753 65.7488C110.641 60.9433 109.368 56.2364 107.043 52.0292V52.0292Z" fill="#2F2E41"/>
<path d="M55.0176 95.4342C73.9041 95.4342 89.2147 80.1236 89.2147 61.2371C89.2147 42.3506 73.9041 27.04 55.0176 27.04C36.1311 27.04 20.8206 42.3506 20.8206 61.2371C20.8206 80.1236 36.1311 95.4342 55.0176 95.4342Z" fill="#FFB9B9"/>
<path d="M87.4543 29.4971C86.5715 24.8272 81.8086 22.6913 77.7278 21.6564C65.8911 18.6363 53.5781 17.9602 41.4819 19.666C32.6639 20.9235 23.6367 23.6964 17.2386 30.5792C12.2485 35.9474 9.22914 43.6376 8.99411 51.5775C8.85735 56.205 9.6848 61.0204 11.987 64.9176C14.2896 68.8146 18.2141 71.6413 22.2653 71.5421L22.6756 72.969C39.8449 70.5769 55.7936 59.894 65.8382 44.0578C63.9531 50.7894 60.2014 56.85 55.017 61.5392C66.6085 56.901 76.6846 49.1355 84.1225 39.1079C86.1537 36.412 88.1257 33.05 87.4543 29.4971Z" fill="#2F2E41"/>
</svg>
