<svg width="532" height="283" viewBox="0 0 532 283" fill="none" xmlns="http://www.w3.org/2000/svg">
<path d="M390.934 20.2651H106.771C105.771 20.2651 104.782 20.4626 103.858 20.8462C102.935 21.2298 102.096 21.7921 101.389 22.501C100.682 23.2099 100.122 24.0515 99.7392 24.9777C99.3567 25.9039 99.1598 26.8965 99.1598 27.8991V232.785C99.1598 233.788 99.3567 234.781 99.7392 235.707C100.122 236.633 100.682 237.474 101.389 238.183C102.096 238.892 102.935 239.455 103.858 239.838C104.782 240.222 105.771 240.419 106.771 240.419H390.934C391.933 240.419 392.923 240.222 393.846 239.838C394.77 239.455 395.609 238.892 396.315 238.183C397.022 237.474 397.583 236.633 397.965 235.707C398.348 234.781 398.545 233.788 398.545 232.785V27.8991C398.545 26.8965 398.348 25.9039 397.965 24.9777C397.583 24.0515 397.022 23.2099 396.315 22.501C395.609 21.7921 394.77 21.2298 393.846 20.8462C392.923 20.4626 391.933 20.2651 390.934 20.2651ZM114.772 32.24C114.045 32.24 113.335 32.0239 112.731 31.6191C112.127 31.2142 111.656 30.6388 111.378 29.9655C111.1 29.2922 111.027 28.5514 111.169 27.8366C111.311 27.1219 111.661 26.4654 112.174 25.9501C112.688 25.4348 113.343 25.0838 114.055 24.9417C114.768 24.7995 115.506 24.8725 116.178 25.1513C116.849 25.4302 117.423 25.9025 117.826 26.5084C118.23 27.1143 118.445 27.8267 118.445 28.5555C118.445 29.5327 118.058 30.4698 117.369 31.1608C116.68 31.8518 115.746 32.24 114.772 32.24V32.24ZM136.812 32.24C136.086 32.24 135.376 32.0239 134.772 31.6191C134.168 31.2142 133.697 30.6388 133.419 29.9655C133.141 29.2922 133.068 28.5514 133.21 27.8366C133.351 27.1219 133.701 26.4654 134.215 25.9501C134.729 25.4348 135.383 25.0838 136.096 24.9417C136.808 24.7995 137.547 24.8725 138.218 25.1513C138.889 25.4302 139.463 25.9025 139.867 26.5084C140.27 27.1143 140.486 27.8267 140.486 28.5555C140.486 29.5327 140.099 30.4698 139.41 31.1608C138.721 31.8518 137.787 32.24 136.812 32.24V32.24ZM158.853 32.24C158.127 32.24 157.416 32.0239 156.812 31.6191C156.208 31.2142 155.737 30.6388 155.459 29.9655C155.181 29.2922 155.108 28.5514 155.25 27.8366C155.392 27.1219 155.742 26.4654 156.256 25.9501C156.769 25.4348 157.424 25.0838 158.136 24.9417C158.849 24.7995 159.588 24.8725 160.259 25.1513C160.93 25.4302 161.504 25.9025 161.907 26.5084C162.311 27.1143 162.527 27.8267 162.527 28.5555C162.526 29.5327 162.139 30.4698 161.451 31.1608C160.762 31.8518 159.827 32.24 158.853 32.24L158.853 32.24ZM180.894 32.24C180.167 32.24 179.457 32.0239 178.853 31.6191C178.249 31.2142 177.778 30.6388 177.5 29.9655C177.222 29.2922 177.149 28.5514 177.291 27.8366C177.433 27.1219 177.782 26.4654 178.296 25.9501C178.81 25.4348 179.464 25.0838 180.177 24.9417C180.89 24.7995 181.628 24.8725 182.299 25.1513C182.971 25.4302 183.544 25.9025 183.948 26.5084C184.352 27.1143 184.567 27.8267 184.567 28.5555C184.567 29.5327 184.18 30.4698 183.491 31.1608C182.802 31.8518 181.868 32.24 180.894 32.24L180.894 32.24ZM202.934 32.24C202.208 32.24 201.498 32.0239 200.893 31.6191C200.289 31.2142 199.819 30.6388 199.54 29.9655C199.262 29.2922 199.19 28.5514 199.331 27.8366C199.473 27.1219 199.823 26.4654 200.337 25.9501C200.85 25.4348 201.505 25.0838 202.218 24.9417C202.93 24.7995 203.669 24.8725 204.34 25.1513C205.011 25.4302 205.585 25.9025 205.989 26.5084C206.392 27.1143 206.608 27.8267 206.608 28.5555C206.608 29.5327 206.221 30.4698 205.532 31.1608C204.843 31.8518 203.909 32.24 202.934 32.24L202.934 32.24ZM224.975 32.24C224.248 32.24 223.538 32.0239 222.934 31.6191C222.33 31.2142 221.859 30.6388 221.581 29.9655C221.303 29.2922 221.23 28.5514 221.372 27.8366C221.514 27.1219 221.864 26.4654 222.377 25.9501C222.891 25.4348 223.546 25.0838 224.258 24.9417C224.971 24.7995 225.709 24.8725 226.381 25.1513C227.052 25.4302 227.626 25.9025 228.029 26.5084C228.433 27.1143 228.648 27.8267 228.648 28.5555C228.648 29.5327 228.261 30.4698 227.572 31.1608C226.883 31.8518 225.949 32.24 224.975 32.24L224.975 32.24ZM247.015 32.24C246.289 32.24 245.579 32.0239 244.975 31.6191C244.371 31.2142 243.9 30.6388 243.622 29.9655C243.344 29.2922 243.271 28.5514 243.413 27.8366C243.554 27.1219 243.904 26.4654 244.418 25.9501C244.932 25.4348 245.586 25.0838 246.299 24.9417C247.011 24.7995 247.75 24.8725 248.421 25.1513C249.092 25.4302 249.666 25.9025 250.07 26.5084C250.473 27.1143 250.689 27.8267 250.689 28.5555C250.689 29.5327 250.302 30.4698 249.613 31.1608C248.924 31.8518 247.99 32.24 247.016 32.24L247.015 32.24ZM269.056 32.24C268.33 32.24 267.619 32.0239 267.015 31.6191C266.411 31.2142 265.94 30.6388 265.662 29.9655C265.384 29.2922 265.311 28.5514 265.453 27.8366C265.595 27.1219 265.945 26.4654 266.459 25.9501C266.972 25.4348 267.627 25.0838 268.339 24.9417C269.052 24.7995 269.791 24.8725 270.462 25.1513C271.133 25.4302 271.707 25.9025 272.11 26.5084C272.514 27.1143 272.73 27.8267 272.73 28.5555C272.729 29.5327 272.342 30.4698 271.654 31.1608C270.965 31.8518 270.03 32.24 269.056 32.24L269.056 32.24ZM291.097 32.24C290.37 32.24 289.66 32.0239 289.056 31.6191C288.452 31.2142 287.981 30.6388 287.703 29.9655C287.425 29.2922 287.352 28.5514 287.494 27.8366C287.636 27.1219 287.985 26.4654 288.499 25.9501C289.013 25.4348 289.667 25.0838 290.38 24.9417C291.093 24.7995 291.831 24.8725 292.502 25.1513C293.174 25.4302 293.747 25.9025 294.151 26.5084C294.555 27.1143 294.77 27.8267 294.77 28.5555C294.77 29.5327 294.383 30.4698 293.694 31.1608C293.005 31.8518 292.071 32.24 291.097 32.24L291.097 32.24ZM313.137 32.24C312.411 32.24 311.701 32.0239 311.096 31.6191C310.492 31.2142 310.022 30.6388 309.743 29.9655C309.465 29.2922 309.393 28.5514 309.534 27.8366C309.676 27.1219 310.026 26.4654 310.54 25.9501C311.053 25.4348 311.708 25.0838 312.421 24.9417C313.133 24.7995 313.872 24.8725 314.543 25.1513C315.214 25.4302 315.788 25.9025 316.192 26.5084C316.595 27.1143 316.811 27.8267 316.811 28.5555C316.811 29.5326 316.424 30.4698 315.735 31.1608C315.046 31.8518 314.112 32.24 313.137 32.24L313.137 32.24ZM335.178 32.24C334.451 32.24 333.741 32.0239 333.137 31.6191C332.533 31.2142 332.062 30.6388 331.784 29.9655C331.506 29.2922 331.433 28.5514 331.575 27.8366C331.717 27.1219 332.067 26.4654 332.58 25.9501C333.094 25.4348 333.749 25.0838 334.461 24.9417C335.174 24.7995 335.912 24.8725 336.584 25.1513C337.255 25.4302 337.829 25.9025 338.232 26.5084C338.636 27.1143 338.851 27.8267 338.851 28.5555C338.851 29.5326 338.464 30.4698 337.775 31.1608C337.087 31.8518 336.152 32.24 335.178 32.24L335.178 32.24ZM357.218 32.24C356.492 32.24 355.782 32.0239 355.178 31.6191C354.574 31.2142 354.103 30.6388 353.825 29.9655C353.547 29.2922 353.474 28.5514 353.616 27.8366C353.757 27.1219 354.107 26.4654 354.621 25.9501C355.135 25.4348 355.789 25.0838 356.502 24.9417C357.214 24.7995 357.953 24.8725 358.624 25.1513C359.295 25.4302 359.869 25.9025 360.273 26.5084C360.676 27.1143 360.892 27.8267 360.892 28.5555C360.892 29.5326 360.505 30.4698 359.816 31.1608C359.127 31.8518 358.193 32.24 357.219 32.24L357.218 32.24ZM379.259 32.24C378.533 32.24 377.822 32.0239 377.218 31.6191C376.614 31.2142 376.143 30.6388 375.865 29.9655C375.587 29.2922 375.514 28.5514 375.656 27.8366C375.798 27.1219 376.148 26.4654 376.662 25.9501C377.175 25.4348 377.83 25.0838 378.542 24.9417C379.255 24.7995 379.994 24.8725 380.665 25.1513C381.336 25.4302 381.91 25.9025 382.313 26.5084C382.717 27.1143 382.933 27.8267 382.933 28.5555C382.933 29.5326 382.545 30.4698 381.857 31.1608C381.168 31.8518 380.233 32.24 379.259 32.24L379.259 32.24Z" fill="#CACACA"/>
<path d="M375.774 8.47119e-10H91.611C90.6115 -1.26933e-05 89.6218 0.197434 88.6984 0.581068C87.775 0.964702 86.936 1.52701 86.2292 2.23589C85.5225 2.94476 84.9619 3.78633 84.5794 4.71252C84.1969 5.63872 84 6.63141 84 7.63392V212.52C84 213.523 84.1969 214.515 84.5794 215.442C84.9619 216.368 85.5225 217.209 86.2292 217.918C86.936 218.627 87.775 219.189 88.6984 219.573C89.6218 219.957 90.6115 220.154 91.611 220.154H375.774C376.773 220.154 377.763 219.957 378.687 219.573C379.61 219.189 380.449 218.627 381.156 217.918C381.862 217.209 382.423 216.368 382.806 215.442C383.188 214.515 383.385 213.523 383.385 212.52V7.63392C383.385 6.63141 383.188 5.63871 382.806 4.71251C382.423 3.78632 381.862 2.94475 381.156 2.23588C380.449 1.527 379.61 0.964701 378.687 0.581068C377.763 0.197435 376.773 -1.49334e-05 375.774 8.47119e-10ZM99.6121 11.9749C98.8855 11.9749 98.1753 11.7588 97.5712 11.3539C96.9671 10.9491 96.4963 10.3736 96.2183 9.70035C95.9402 9.02708 95.8675 8.28623 96.0092 7.57149C96.151 6.85675 96.5008 6.20023 97.0146 5.68493C97.5283 5.16963 98.1828 4.81871 98.8954 4.67653C99.608 4.53436 100.347 4.60733 101.018 4.88621C101.689 5.16508 102.263 5.63734 102.666 6.24327C103.07 6.8492 103.286 7.56158 103.286 8.29032C103.286 9.26752 102.898 10.2047 102.21 10.8957C101.521 11.5867 100.586 11.9749 99.6121 11.9749H99.6121ZM121.653 11.9749C120.926 11.9749 120.216 11.7588 119.612 11.3539C119.008 10.9491 118.537 10.3736 118.259 9.70035C117.981 9.02708 117.908 8.28623 118.05 7.57149C118.192 6.85675 118.541 6.20023 119.055 5.68493C119.569 5.16963 120.223 4.81871 120.936 4.67653C121.649 4.53436 122.387 4.60733 123.058 4.88621C123.73 5.16508 124.303 5.63734 124.707 6.24327C125.111 6.8492 125.326 7.56158 125.326 8.29032C125.326 9.26752 124.939 10.2047 124.25 10.8957C123.561 11.5867 122.627 11.9749 121.653 11.9749H121.653ZM143.693 11.9749C142.967 11.9749 142.257 11.7588 141.652 11.3539C141.048 10.9491 140.578 10.3736 140.299 9.70035C140.021 9.02708 139.949 8.28623 140.09 7.57149C140.232 6.85675 140.582 6.20023 141.096 5.68493C141.61 5.16963 142.264 4.81871 142.977 4.67653C143.689 4.53436 144.428 4.60733 145.099 4.88621C145.77 5.16508 146.344 5.63734 146.748 6.24327C147.151 6.8492 147.367 7.56158 147.367 8.29032C147.367 9.26752 146.98 10.2047 146.291 10.8957C145.602 11.5867 144.668 11.9749 143.693 11.9749H143.693ZM165.734 11.9749C165.007 11.9749 164.297 11.7588 163.693 11.3539C163.089 10.9491 162.618 10.3736 162.34 9.70035C162.062 9.02708 161.989 8.28623 162.131 7.57149C162.273 6.85675 162.623 6.20023 163.136 5.68493C163.65 5.16963 164.305 4.81871 165.017 4.67653C165.73 4.53436 166.468 4.60733 167.14 4.88621C167.811 5.16508 168.385 5.63734 168.788 6.24327C169.192 6.8492 169.407 7.56158 169.407 8.29032C169.407 9.26752 169.02 10.2047 168.331 10.8957C167.642 11.5867 166.708 11.9749 165.734 11.9749H165.734ZM187.774 11.9749C187.048 11.9749 186.338 11.7588 185.734 11.3539C185.13 10.9491 184.659 10.3736 184.381 9.70035C184.103 9.02708 184.03 8.28623 184.172 7.57149C184.313 6.85675 184.663 6.20023 185.177 5.68493C185.691 5.16963 186.345 4.81871 187.058 4.67653C187.77 4.53436 188.509 4.60733 189.18 4.88621C189.851 5.16508 190.425 5.63734 190.829 6.24327C191.232 6.8492 191.448 7.56158 191.448 8.29032C191.448 9.26752 191.061 10.2047 190.372 10.8957C189.683 11.5867 188.749 11.9749 187.774 11.9749H187.774ZM209.815 11.9749C209.089 11.9749 208.378 11.7588 207.774 11.3539C207.17 10.9491 206.699 10.3736 206.421 9.70035C206.143 9.02708 206.07 8.28623 206.212 7.57149C206.354 6.85675 206.704 6.20023 207.218 5.68493C207.731 5.16963 208.386 4.81871 209.098 4.67653C209.811 4.53436 210.55 4.60733 211.221 4.88621C211.892 5.16508 212.466 5.63734 212.869 6.24327C213.273 6.8492 213.489 7.56158 213.489 8.29032C213.489 9.26752 213.101 10.2047 212.413 10.8957C211.724 11.5867 210.789 11.9749 209.815 11.9749H209.815ZM231.856 11.9749C231.129 11.9749 230.419 11.7588 229.815 11.3539C229.211 10.9491 228.74 10.3736 228.462 9.70035C228.184 9.02708 228.111 8.28623 228.253 7.57149C228.395 6.85675 228.744 6.20023 229.258 5.68493C229.772 5.16963 230.426 4.81871 231.139 4.67653C231.852 4.53436 232.59 4.60733 233.261 4.88621C233.933 5.16508 234.506 5.63734 234.91 6.24327C235.314 6.8492 235.529 7.56158 235.529 8.29032C235.529 9.26752 235.142 10.2047 234.453 10.8957C233.764 11.5867 232.83 11.9749 231.856 11.9749H231.856ZM253.896 11.9749C253.17 11.9749 252.46 11.7588 251.855 11.3539C251.251 10.9491 250.781 10.3736 250.503 9.70035C250.224 9.02708 250.152 8.28623 250.293 7.57149C250.435 6.85675 250.785 6.20023 251.299 5.68493C251.813 5.16963 252.467 4.81871 253.18 4.67653C253.892 4.53436 254.631 4.60733 255.302 4.88621C255.973 5.16508 256.547 5.63734 256.951 6.24327C257.354 6.8492 257.57 7.56158 257.57 8.29032C257.57 9.26752 257.183 10.2047 256.494 10.8957C255.805 11.5867 254.871 11.9749 253.896 11.9749H253.896ZM275.937 11.9749C275.21 11.9749 274.5 11.7588 273.896 11.3539C273.292 10.9491 272.821 10.3736 272.543 9.70035C272.265 9.02708 272.192 8.28623 272.334 7.57149C272.476 6.85675 272.826 6.20023 273.339 5.68493C273.853 5.16963 274.508 4.81871 275.22 4.67653C275.933 4.53436 276.671 4.60733 277.343 4.88621C278.014 5.16508 278.588 5.63734 278.991 6.24327C279.395 6.8492 279.61 7.56158 279.61 8.29032C279.61 9.26751 279.223 10.2047 278.534 10.8957C277.846 11.5867 276.911 11.9749 275.937 11.9749H275.937ZM297.977 11.9749C297.251 11.9749 296.541 11.7588 295.937 11.3539C295.333 10.9491 294.862 10.3736 294.584 9.70035C294.306 9.02708 294.233 8.28623 294.375 7.57149C294.516 6.85675 294.866 6.20023 295.38 5.68493C295.894 5.16963 296.548 4.81871 297.261 4.67653C297.973 4.53436 298.712 4.60733 299.383 4.88621C300.054 5.16508 300.628 5.63734 301.032 6.24327C301.435 6.8492 301.651 7.56158 301.651 8.29032C301.651 9.26751 301.264 10.2047 300.575 10.8957C299.886 11.5866 298.952 11.9749 297.978 11.9749H297.977ZM320.018 11.9749C319.292 11.9749 318.581 11.7588 317.977 11.3539C317.373 10.9491 316.902 10.3736 316.624 9.70035C316.346 9.02708 316.274 8.28623 316.415 7.57149C316.557 6.85675 316.907 6.20023 317.421 5.68493C317.934 5.16963 318.589 4.81871 319.301 4.67653C320.014 4.53436 320.753 4.60733 321.424 4.88621C322.095 5.16508 322.669 5.63734 323.072 6.24327C323.476 6.8492 323.692 7.56158 323.692 8.29032C323.691 9.26751 323.305 10.2047 322.616 10.8957C321.927 11.5866 320.992 11.9749 320.018 11.9749H320.018ZM342.059 11.9749C341.332 11.9749 340.622 11.7588 340.018 11.3539C339.414 10.9491 338.943 10.3736 338.665 9.70035C338.387 9.02708 338.314 8.28623 338.456 7.57149C338.598 6.85675 338.947 6.20023 339.461 5.68493C339.975 5.16963 340.629 4.81871 341.342 4.67653C342.055 4.53436 342.793 4.60733 343.464 4.88621C344.136 5.16508 344.709 5.63734 345.113 6.24327C345.517 6.8492 345.732 7.56158 345.732 8.29032C345.732 9.26751 345.345 10.2047 344.656 10.8957C343.967 11.5866 343.033 11.9749 342.059 11.9749H342.059ZM364.099 11.9749C363.373 11.9749 362.663 11.7588 362.058 11.3539C361.454 10.9491 360.984 10.3736 360.705 9.70035C360.427 9.02708 360.355 8.28623 360.496 7.57149C360.638 6.85675 360.988 6.20023 361.502 5.68493C362.016 5.16963 362.67 4.81871 363.383 4.67653C364.095 4.53436 364.834 4.60733 365.505 4.88621C366.176 5.16508 366.75 5.63734 367.154 6.24327C367.557 6.8492 367.773 7.56158 367.773 8.29032C367.773 9.26751 367.386 10.2047 366.697 10.8957C366.008 11.5866 365.074 11.9749 364.099 11.9749H364.099Z" fill="#F0F0F0"/>
<path d="M162.162 112.762C162.147 104.633 164.158 96.3841 168.707 89.5844C170.864 86.3135 173.653 83.5089 176.908 81.3361C180.163 79.1633 183.818 77.6662 187.659 76.933C191.452 76.2218 195.36 76.4493 199.045 77.5959C202.382 78.693 205.383 80.6286 207.764 83.2183C212.322 88.1059 215.134 95.9061 212.49 102.415C211.872 103.933 210.95 105.309 209.78 106.455C208.611 107.602 207.219 108.495 205.691 109.08C202.97 110.024 199.617 109.293 198.447 106.376C197.445 103.875 198.492 100.867 200.166 98.9127C201.138 97.7503 202.433 96.9047 203.886 96.4839C205.338 96.063 206.884 96.0861 208.323 96.5501C211.905 97.5666 214.729 100.493 216.42 103.725C218.385 107.483 218.796 111.926 218.382 116.095C217.472 125.282 212.736 133.459 209.249 141.822C206.008 149.595 203.313 158.589 205.808 166.968C206.835 170.302 208.7 173.316 211.223 175.72C213.745 178.123 216.841 179.837 220.214 180.696C226.647 182.426 234.174 181.196 238.743 176.033C240.897 173.598 242.47 170.431 242.492 167.123C242.521 165.576 242.139 164.049 241.385 162.7C240.631 161.35 239.532 160.227 238.202 159.444C232.634 156.32 225.116 159.532 222.784 165.246C221.356 168.744 221.627 172.764 222.973 176.242C224.414 179.827 226.845 182.925 229.98 185.173C233.236 187.6 237.04 189.212 240.883 190.447C244.881 191.755 249.001 192.652 253.18 193.124C261.151 193.976 269.468 192.643 275.716 187.286C281.211 182.574 284.235 175.598 285.774 168.652C287.56 160.591 287.291 152.359 287.308 144.157C287.325 135.417 287.546 125.877 291.744 117.976C295.045 111.763 300.879 106.325 307.843 104.699C311.058 103.934 314.432 104.213 317.478 105.495C318.486 105.919 318.926 104.269 317.93 103.85C311.238 101.034 303.874 103.243 298.349 107.529C295.436 109.797 292.962 112.582 291.052 115.746C288.996 119.31 287.581 123.209 286.871 127.265C283.648 143.746 288.63 161.54 281.125 177.204C279.649 180.389 277.571 183.257 275.004 185.646C272.052 188.278 268.474 190.102 264.615 190.943C256.469 192.795 247.632 191.038 239.88 188.313C232.45 185.702 225.022 180.803 223.692 172.417C223.144 168.961 223.921 165.098 226.551 162.646C227.66 161.628 228.981 160.869 230.418 160.424C231.854 159.979 233.372 159.859 234.86 160.072C236.317 160.284 237.668 160.955 238.718 161.989C239.768 163.023 240.463 164.365 240.701 165.822C241.23 169.068 239.648 172.448 237.54 174.827C232.911 180.05 225.174 180.783 218.894 178.491C215.793 177.369 213.031 175.468 210.873 172.968C208.375 169.902 206.893 166.129 206.635 162.177C205.9 153.234 209.756 144.632 213.378 136.701C217.068 128.622 221.033 119.75 220.097 110.637C219.772 106.604 218.242 102.763 215.706 99.6162C213.38 96.8274 210.077 94.7324 206.397 94.5018C204.905 94.4167 203.415 94.7027 202.059 95.3343C200.703 95.966 199.524 96.9239 198.626 98.1228C196.885 100.353 195.869 103.399 196.609 106.212C197.022 107.645 197.884 108.907 199.069 109.809C200.253 110.711 201.697 111.206 203.184 111.22C206.438 111.278 209.535 109.322 211.619 106.942C216.329 101.564 215.872 93.6038 212.818 87.5196C211.199 84.2757 208.837 81.4628 205.926 79.3115C203.014 77.1602 199.635 75.7319 196.067 75.1435C188.484 73.9631 180.587 76.31 174.512 80.9263C168.041 85.8435 163.84 93.2179 161.869 101.038C160.916 104.872 160.443 108.811 160.462 112.762C160.469 112.983 160.562 113.193 160.721 113.346C160.879 113.5 161.091 113.586 161.312 113.586C161.532 113.586 161.744 113.5 161.903 113.346C162.062 113.193 162.155 112.983 162.162 112.762H162.162Z" fill="#3ACEAA"/>
<path d="M513.576 240.419C523.595 240.419 531.717 238.637 531.717 236.439C531.717 234.241 523.595 232.459 513.576 232.459C503.558 232.459 495.436 234.241 495.436 236.439C495.436 238.637 503.558 240.419 513.576 240.419Z" fill="#CACACA"/>
<path d="M513.293 158.62H512.159V234.069H513.293V158.62Z" fill="#CACACA"/>
<path d="M471.438 151.531L472.249 152.023C472.208 151.591 472.267 151.155 472.421 150.749C472.574 150.344 472.819 149.979 473.136 149.684C473.454 149.388 473.834 149.17 474.249 149.046C474.664 148.922 475.101 148.896 475.528 148.969L475.38 148.774L491.884 137.229L491.751 137.217L492.5 114.859L492.501 114.859C491.857 113.802 491.617 112.547 491.826 111.326C492.035 110.106 492.679 109.003 493.637 108.223C494.596 107.442 495.805 107.038 497.039 107.084C498.273 107.131 499.448 107.625 500.346 108.475L499.971 106.512H506.49V103.1H506.861L501.955 88.8851C501.955 86.3214 502.97 83.8628 504.778 82.05C506.585 80.2372 509.036 79.2188 511.592 79.2188C514.148 79.2188 516.599 80.2372 518.406 82.05C520.214 83.8628 521.229 86.3214 521.229 88.8851L517.261 103.1L516.694 103.132V106.512H523.213L522.935 108.387C523.845 107.567 525.02 107.103 526.244 107.08C527.467 107.058 528.658 107.477 529.598 108.263C530.539 109.048 531.166 110.147 531.365 111.358C531.564 112.569 531.322 113.812 530.683 114.859L530.684 114.859L531.433 137.217L530.398 137.311C530.731 137.583 530.997 137.927 531.176 138.318C531.356 138.709 531.443 139.136 531.432 139.567C531.421 139.997 531.312 140.419 531.113 140.8C530.914 141.181 530.63 141.512 530.284 141.766H531.433V163.671L531.189 163.66C531.493 163.969 531.722 164.345 531.857 164.757C531.993 165.169 532.033 165.607 531.973 166.036C531.913 166.466 531.755 166.876 531.511 167.235C531.267 167.594 530.944 167.891 530.567 168.104L531.433 168.49L528.315 180.004L525.197 167.754L526.331 166.216L526.396 166.245C526.287 165.745 526.316 165.225 526.48 164.741C526.645 164.256 526.938 163.826 527.33 163.498L526.331 163.456L525.197 141.766H526.914C526.602 141.538 526.34 141.247 526.146 140.913C525.951 140.579 525.828 140.208 525.783 139.824C525.738 139.439 525.773 139.05 525.886 138.679C525.998 138.309 526.186 137.966 526.437 137.672L525.197 137.785L522.955 116.031L522.958 116.03C522.573 115.689 522.242 115.292 521.975 114.852L519.245 133.237H517.828V141.197H521.513V161.667H520.358C520.838 162.201 521.137 162.874 521.211 163.59C521.285 164.305 521.131 165.026 520.77 165.647H523.124L521.813 193.927C522.289 194.655 522.465 195.54 522.305 196.395L523.124 196.337L521.895 229.158C522.378 229.627 522.712 230.23 522.854 230.889C522.996 231.548 522.94 232.235 522.693 232.862C522.446 233.49 522.019 234.03 521.467 234.414C520.914 234.798 520.26 235.009 519.588 235.021C518.916 235.033 518.255 234.844 517.689 234.48C517.124 234.115 516.678 233.59 516.41 232.972C516.141 232.353 516.062 231.669 516.181 231.005C516.3 230.341 516.613 229.728 517.079 229.242L514.993 196.921L515.739 196.867C515.551 196.316 515.511 195.725 515.621 195.154L515.62 195.154L513.86 165.647H514.885C514.525 165.026 514.371 164.305 514.445 163.59C514.519 162.874 514.818 162.201 515.298 161.667H508.453C508.933 162.201 509.232 162.874 509.306 163.59C509.381 164.305 509.226 165.026 508.866 165.647H511.219L509.909 193.927C510.384 194.655 510.561 195.54 510.401 196.395L511.219 196.337L509.99 229.158C510.473 229.627 510.807 230.23 510.949 230.889C511.091 231.548 511.035 232.235 510.788 232.862C510.542 233.49 510.115 234.03 509.562 234.414C509.009 234.798 508.356 235.009 507.683 235.021C507.011 235.033 506.35 234.844 505.785 234.48C505.219 234.115 504.774 233.59 504.505 232.972C504.237 232.353 504.157 231.669 504.276 231.005C504.395 230.341 504.708 229.728 505.175 229.242L503.089 196.921L503.834 196.867C503.647 196.316 503.606 195.725 503.716 195.154L503.715 195.154L501.955 165.647H502.981C502.62 165.026 502.466 164.305 502.54 163.59C502.614 162.874 502.913 162.201 503.393 161.667H501.672V141.197H505.356V133.237H505.073L501.47 114.365C501.173 114.999 500.75 115.566 500.226 116.03L500.229 116.031L497.987 137.785L496.747 137.672C497.175 138.171 497.413 138.805 497.42 139.463C497.427 140.121 497.202 140.76 496.785 141.267L496.86 141.374L496.383 141.672C496.345 141.703 496.31 141.737 496.271 141.766H496.232L478.474 152.849L477.869 152.051C477.824 152.561 477.64 153.049 477.338 153.461C477.036 153.874 476.627 154.195 476.156 154.391L476.217 154.428L475.608 156.24L463.807 160.682L471.438 151.531Z" fill="#E4E4E4"/>
<path d="M50.4187 108.01L38.947 104.604L37.8745 108.238L49.3463 111.644L50.4187 108.01Z" fill="#CACACA"/>
<path d="M52.1012 101.757L40.9278 98.4417C39.9408 98.1489 38.8787 98.256 37.9695 98.7399C37.0602 99.2238 36.3764 100.046 36.0647 101.03C35.7531 102.014 35.8384 103.081 36.3025 104.003C36.7665 104.924 37.5723 105.626 38.5468 105.959C38.5946 105.979 38.6438 105.996 38.694 106.01L49.8674 109.331C49.9152 109.347 49.9647 109.359 50.0149 109.365H50.0207C51.0188 109.618 52.076 109.468 52.9653 108.948C53.8547 108.428 54.5054 107.579 54.7777 106.583C55.05 105.587 54.9222 104.524 54.4218 103.622C53.9214 102.72 53.0883 102.05 52.1012 101.757Z" fill="#CACACA"/>
<path d="M50.236 110.593L49.7032 110.434L38.2292 107.028L38.0648 106.977L33.6033 108.358L23.7905 135.293L12.8837 165.225L0.196805 200.046C0.0482079 200.435 -0.0174868 200.85 0.00396998 201.265C0.0254268 201.681 0.133564 202.087 0.321374 202.457C0.505895 202.831 0.765298 203.162 1.08333 203.43C1.40136 203.698 1.77116 203.897 2.16956 204.015L27.3166 211.481C27.7101 211.597 28.123 211.632 28.5303 211.583C28.9375 211.534 29.3306 211.403 29.6858 211.197C30.041 210.991 30.3508 210.715 30.5964 210.386C30.8421 210.057 31.0185 209.681 31.1149 209.281L39.567 173.942L46.9991 142.879L53.8018 114.442L53.8244 114.357L50.236 110.593Z" fill="#E4E4E4"/>
<path d="M126.689 154.113C126.385 154.113 126.084 154.13 125.787 154.159C126.069 152.537 125.909 150.869 125.323 149.331C124.737 147.793 123.747 146.443 122.459 145.423C121.17 144.403 119.631 143.752 118.003 143.538C116.376 143.324 114.721 143.555 113.214 144.208C111.707 144.86 110.404 145.909 109.442 147.244C108.481 148.579 107.898 150.149 107.754 151.789C107.61 153.429 107.911 155.078 108.625 156.56C109.338 158.043 110.439 159.304 111.809 160.211C111.134 160.618 110.557 161.171 110.122 161.829C109.686 162.487 109.402 163.235 109.29 164.017C109.178 164.799 109.241 165.596 109.475 166.351C109.708 167.106 110.106 167.799 110.64 168.38C111.174 168.961 111.829 169.416 112.56 169.711C113.291 170.006 114.078 170.135 114.864 170.087C115.651 170.04 116.416 169.817 117.106 169.435C117.796 169.054 118.393 168.523 118.853 167.882C119.663 169.259 120.819 170.399 122.206 171.187C123.594 171.975 125.163 172.384 126.757 172.373C128.352 172.362 129.915 171.93 131.291 171.123C132.667 170.315 133.807 169.159 134.597 167.77C135.388 166.381 135.801 164.808 135.795 163.209C135.789 161.61 135.364 160.04 134.563 158.658C133.763 157.275 132.614 156.127 131.232 155.33C129.85 154.532 128.283 154.113 126.689 154.113V154.113Z" fill="#3ACEAA"/>
<path d="M120.196 169.549L107.058 161.988L104.678 166.149L117.815 173.71L120.196 169.549Z" fill="#CACACA"/>
<path d="M103.319 141.537C102.562 140.452 101.408 139.712 100.108 139.48C98.8085 139.247 97.4701 139.541 96.3862 140.297L84.2833 148.752C83.1993 149.51 82.4598 150.669 82.2275 151.973C81.9952 153.278 82.2891 154.622 83.0446 155.709C83.8001 156.797 84.9553 157.538 86.256 157.771C87.5567 158.004 88.8964 157.709 89.9804 156.952L102.084 148.496C103.165 147.736 103.903 146.577 104.135 145.273C104.366 143.968 104.073 142.625 103.319 141.537Z" fill="#CACACA"/>
<path d="M119.221 172.674L118.608 172.321L105.474 164.764L105.275 164.651L99.3851 165.049L78.7164 195.845L60.9444 222.325L36.8065 258.289C36.5153 258.727 36.3167 259.22 36.2231 259.737C36.1295 260.255 36.1429 260.787 36.2625 261.299C36.3821 261.811 36.6053 262.293 36.9183 262.716C37.2313 263.138 37.6274 263.491 38.082 263.754L66.8798 280.328C67.3304 280.589 67.8294 280.755 68.3461 280.816C68.8628 280.876 69.3865 280.83 69.8849 280.681C70.3833 280.531 70.846 280.281 71.2446 279.946C71.6432 279.61 71.9694 279.197 72.203 278.731L91.5904 240.071L105.882 211.578L122.492 178.462L122.543 178.365L119.221 172.674Z" fill="#E4E4E4"/>
<path d="M74.7067 276.408L37.8951 255.091L34.1011 261.682L70.9126 283L74.7067 276.408Z" fill="#CACACA"/>
<path d="M385.791 65.3596C387.259 60.6647 390.599 56.3587 395.218 54.7716C399.837 53.1845 406.601 55.6022 410.074 59.0736C416.426 65.4235 416.621 73.1968 412.257 80.0903C411.389 80.0443 408.394 80.0102 407.515 79.9772L406.272 75.8223V79.9362C399.415 79.7237 392.276 79.8568 385.133 79.9944C384.492 75.1137 384.322 70.0546 385.791 65.3596Z" fill="#2F2E41"/>
<path d="M355.241 139.809C354.973 139.234 354.833 138.608 354.832 137.973C354.831 137.339 354.968 136.712 355.235 136.136C355.502 135.561 355.891 135.051 356.375 134.643C356.86 134.234 357.427 133.938 358.038 133.773L376.495 98.8423L383.945 104.61L363.46 137.132C363.667 138.18 363.484 139.268 362.945 140.189C362.406 141.111 361.549 141.802 360.536 142.132C359.523 142.462 358.424 142.408 357.449 141.979C356.473 141.551 355.687 140.779 355.241 139.809Z" fill="#FFB6B6"/>
<path d="M379.494 250.986H373.239L370.263 226.787L379.495 226.787L379.494 250.986Z" fill="#FFB6B6"/>
<path d="M418.042 250.986H411.787L408.812 226.787L418.044 226.787L418.042 250.986Z" fill="#FFB6B6"/>
<path d="M404.571 113.351L405.989 117.047L405.705 120.743L378.495 117.331L379.345 114.204L382.463 110.508L404.571 113.351Z" fill="#FFB6B6"/>
<path d="M395.802 80.0905C401.273 80.0905 405.708 75.6418 405.708 70.154C405.708 64.6662 401.273 60.2175 395.802 60.2175C390.331 60.2175 385.896 64.6662 385.896 70.154C385.896 75.6418 390.331 80.0905 395.802 80.0905Z" fill="#FFB7B7"/>
<path d="M385.298 87.1944L390.966 83.7827L402.304 82.6455L412.325 84.9199L412.225 103.4L405.867 119.617L379.224 116.205L378.211 110.485C378.211 110.485 370.842 100.557 378.778 94.8706L385.298 87.1944Z" fill="#3ACEAA"/>
<path d="M405.989 119.321V125.636C405.989 125.636 413.358 135.242 409.39 142.634L420.76 241.007H408.856L388.982 157.986L380.511 239.301H370.307L368.607 148.892C368.607 148.892 369.708 125.575 375.944 121.595L378.811 116.481L405.989 119.321Z" fill="#2F2E41"/>
<path d="M388.995 57.215C390.899 56.0511 393.079 55.4214 395.308 55.392C397.537 55.3625 399.733 55.9342 401.666 57.0474C403.6 58.1606 405.2 59.7744 406.298 61.72C407.397 63.6656 407.955 65.8715 407.912 68.1072C402.375 68.3626 396.558 68.4291 390.66 68.4406L389.266 65.0186L388.444 68.4432C386.647 68.443 384.846 68.4406 383.042 68.436C382.968 66.2067 383.479 63.997 384.524 62.0279C385.569 60.0587 387.11 58.3992 388.995 57.215Z" fill="#2F2E41"/>
<path d="M324.063 110.011L319.635 108.267C319.344 108.153 319.078 107.982 318.852 107.765C318.627 107.547 318.446 107.287 318.321 107C318.196 106.712 318.128 106.403 318.122 106.089C318.116 105.776 318.172 105.464 318.286 105.172C318.401 104.88 318.571 104.614 318.789 104.388C319.006 104.162 319.265 103.982 319.552 103.856C319.839 103.731 320.147 103.664 320.46 103.659C320.773 103.653 321.083 103.71 321.374 103.825L325.802 105.57C326.388 105.802 326.859 106.258 327.11 106.837C327.361 107.417 327.373 108.073 327.143 108.661C326.912 109.249 326.459 109.722 325.881 109.975C325.304 110.228 324.65 110.241 324.063 110.011Z" fill="#3ACEAA"/>
<path d="M422.664 139.458L335.161 104.984C334.604 104.765 334.003 104.684 333.408 104.747C332.813 104.81 332.242 105.016 331.743 105.347L328.241 103.967C327.841 103.81 327.414 103.733 326.985 103.741C326.555 103.748 326.131 103.841 325.737 104.013C325.344 104.186 324.987 104.434 324.689 104.744C324.391 105.055 324.157 105.421 324 105.822L322.913 108.596C322.756 108.997 322.68 109.426 322.687 109.856C322.695 110.287 322.788 110.712 322.96 111.107C323.131 111.502 323.379 111.86 323.688 112.159C323.997 112.458 324.362 112.693 324.762 112.85L327.675 113.998C327.477 114.87 327.597 115.784 328.013 116.575C328.429 117.365 329.114 117.981 329.943 118.309L417.447 152.782C418.37 153.146 419.399 153.127 420.309 152.729C421.218 152.332 421.932 151.588 422.295 150.662L424.778 144.321C425.141 143.395 425.122 142.362 424.725 141.45C424.329 140.538 423.588 139.821 422.664 139.458Z" fill="#3F3D56"/>
<path d="M443.361 165.555L410.464 152.595L417.421 134.829L450.318 147.789C451.77 148.363 452.936 149.491 453.56 150.927C454.183 152.362 454.214 153.987 453.645 155.445L450.993 162.217C450.421 163.673 449.296 164.843 447.865 165.469C446.434 166.094 444.814 166.125 443.361 165.555Z" fill="#2F2E41"/>
<path d="M448.552 161.618L432.524 155.304C431.714 154.984 431.064 154.355 430.716 153.554C430.368 152.753 430.351 151.847 430.668 151.034L431.165 149.764C431.485 148.951 432.112 148.299 432.91 147.95C433.708 147.601 434.612 147.583 435.423 147.902L451.45 154.216C452.26 154.536 452.911 155.166 453.259 155.966C453.607 156.767 453.624 157.673 453.306 158.487L452.809 159.756C452.49 160.569 451.862 161.221 451.064 161.57C450.266 161.92 449.362 161.937 448.552 161.618Z" fill="#3ACEAA"/>
<path d="M396.566 132.378C396.794 132.429 397.018 132.499 397.236 132.586L414.53 120.645L414.134 115.545L421.731 113.939L423.306 122.901C423.433 123.625 423.323 124.371 422.992 125.026C422.661 125.682 422.126 126.212 421.469 126.537L400.046 137.134C399.965 138.036 399.612 138.891 399.034 139.587C398.457 140.282 397.682 140.785 396.812 141.027C395.943 141.27 395.02 141.242 394.168 140.946C393.315 140.65 392.572 140.1 392.038 139.371C391.504 138.641 391.204 137.765 391.178 136.861C391.153 135.956 391.402 135.065 391.893 134.305C392.385 133.546 393.095 132.955 393.93 132.611C394.764 132.267 395.684 132.185 396.566 132.378Z" fill="#FFB6B6"/>
<path d="M105.882 211.578L91.5904 240.071L60.9445 222.324L78.7164 195.844L105.882 211.578Z" fill="#3ACEAA"/>
<path d="M46.999 142.878L39.5671 173.941L12.8837 165.225L23.7906 135.293L46.999 142.878Z" fill="#CACACA"/>
<path d="M412.824 121.03L422.461 126.716C424.728 125.579 424.29 118.204 422.906 117.772L421.862 93.1647C421.295 81.7925 412.325 84.9199 412.325 84.9199L408.256 85.7728L411.091 97.7136L414.17 118.316C413.752 118.634 413.412 119.044 413.179 119.515C412.945 119.985 412.824 120.504 412.824 121.03Z" fill="#3ACEAA"/>
<path d="M385.518 87.0388C385.518 87.0388 377.736 87.1619 375.303 91.3631C373.356 94.7265 369.717 108.143 368.342 113.363C367.588 113.342 366.848 113.573 366.239 114.02C365.63 114.467 365.186 115.104 364.978 115.832L375.409 119.893C377.677 118.756 377.048 117.179 376.473 116.364L380.358 110.519L384.893 108.245L386.774 88.1166L385.518 87.0388Z" fill="#3ACEAA"/>
<path d="M382.292 262.898H377.853L377.061 258.695L375.032 262.898H363.261C362.697 262.898 362.147 262.717 361.693 262.382C361.238 262.046 360.903 261.574 360.735 261.034C360.567 260.493 360.576 259.913 360.76 259.378C360.943 258.843 361.293 258.381 361.758 258.06L371.158 251.548V247.299L381.045 247.891L382.292 262.898Z" fill="#2F2E41"/>
<path d="M421.407 262.898H416.969L416.177 258.695L414.148 262.898H402.376C401.812 262.898 401.263 262.717 400.808 262.382C400.354 262.046 400.018 261.574 399.85 261.034C399.682 260.493 399.691 259.913 399.875 259.378C400.059 258.843 400.409 258.381 400.873 258.06L410.273 251.548V247.299L420.16 247.891L421.407 262.898Z" fill="#2F2E41"/>
</svg>
