<svg width="924" height="558" viewBox="0 0 924 558" fill="none" xmlns="http://www.w3.org/2000/svg">
<path d="M822.805 202.701C802.79 202.701 783.225 196.757 766.584 185.62C749.942 174.484 736.972 158.655 729.312 140.136C721.653 121.616 719.649 101.238 723.554 81.5779C727.459 61.9179 737.096 43.859 751.249 29.6849C765.401 15.5108 783.433 5.85809 803.063 1.94746C822.692 -1.96316 843.039 0.0439132 861.531 7.71488C880.022 15.3858 895.826 28.3762 906.946 45.0432C918.065 61.7101 924 81.3052 924 101.35C923.97 128.221 913.298 153.982 894.327 172.982C875.356 191.983 849.634 202.67 822.805 202.701V202.701ZM822.805 1.58364C803.103 1.58364 783.844 7.43486 767.462 18.3974C751.081 29.3599 738.313 44.9413 730.773 63.1713C723.234 81.4013 721.261 101.461 725.105 120.814C728.948 140.167 738.436 157.944 752.367 171.896C766.298 185.849 784.048 195.351 803.371 199.2C822.694 203.05 842.723 201.074 860.925 193.523C879.128 185.972 894.685 173.184 905.631 156.778C916.577 140.371 922.419 121.082 922.419 101.35C922.389 74.8998 911.884 49.5411 893.21 30.8377C874.535 12.1343 849.215 1.61357 822.805 1.58364V1.58364Z" fill="#3F3D56"/>
<path d="M823.144 168.533C851.208 168.533 873.958 145.748 873.958 117.641C873.958 89.5348 851.208 66.75 823.144 66.75C795.081 66.75 772.331 89.5348 772.331 117.641C772.331 145.748 795.081 168.533 823.144 168.533Z" fill="#F2F2F2"/>
<path d="M826.497 101.76H50.7903V492.057H826.497V101.76Z" fill="#3F3D56"/>
<path opacity="0.1" d="M559.617 214.594H268.727V414.367H559.617V214.594Z" fill="black"/>
<path d="M892.692 66.6312C904.008 66.6312 913.181 57.4438 913.181 46.1105C913.181 34.7773 904.008 25.5898 892.692 25.5898C881.376 25.5898 872.202 34.7773 872.202 46.1105C872.202 57.4438 881.376 66.6312 892.692 66.6312Z" fill="#6C63FF"/>
<path d="M73.8769 125.806C78.9771 125.806 83.1115 121.665 83.1115 116.557C83.1115 111.449 78.9771 107.309 73.8769 107.309C68.7768 107.309 64.6423 111.449 64.6423 116.557C64.6423 121.665 68.7768 125.806 73.8769 125.806Z" fill="#6C63FF"/>
<path d="M102.504 125.806C107.604 125.806 111.739 121.665 111.739 116.557C111.739 111.449 107.604 107.309 102.504 107.309C97.404 107.309 93.2695 111.449 93.2695 116.557C93.2695 121.665 97.404 125.806 102.504 125.806Z" fill="#6C63FF"/>
<path d="M131.131 125.806C136.231 125.806 140.366 121.665 140.366 116.557C140.366 111.449 136.231 107.309 131.131 107.309C126.031 107.309 121.897 111.449 121.897 116.557C121.897 121.665 126.031 125.806 131.131 125.806Z" fill="#6C63FF"/>
<path d="M158.835 246.965H140.366V265.462H158.835V246.965Z" fill="#6C63FF"/>
<path d="M721.222 407.894H702.753V426.391H721.222V407.894Z" fill="white"/>
<path d="M656.104 279.276L641.746 290.911L653.363 305.291L667.721 293.656L656.104 279.276Z" fill="#6C63FF"/>
<path d="M591.015 530.902H11.0818V218.294H12.9286V529.052H591.015V530.902Z" fill="#3F3D56"/>
<path d="M602.096 542C599.722 542 597.401 541.295 595.426 539.973C593.452 538.652 591.914 536.775 591.005 534.578C590.096 532.381 589.859 529.963 590.322 527.631C590.785 525.299 591.928 523.156 593.607 521.475C595.286 519.793 597.425 518.648 599.754 518.184C602.083 517.72 604.497 517.958 606.69 518.868C608.884 519.778 610.759 521.319 612.078 523.297C613.397 525.274 614.101 527.598 614.101 529.976C614.097 533.164 612.831 536.22 610.581 538.474C608.33 540.728 605.279 541.996 602.096 542V542ZM602.096 519.803C600.087 519.803 598.123 520.4 596.453 521.517C594.782 522.635 593.48 524.224 592.711 526.083C591.942 527.942 591.741 529.988 592.133 531.961C592.525 533.935 593.493 535.747 594.913 537.17C596.334 538.593 598.144 539.562 600.114 539.955C602.085 540.347 604.127 540.146 605.983 539.376C607.839 538.606 609.426 537.302 610.542 535.629C611.658 533.956 612.254 531.989 612.254 529.976C612.251 527.279 611.18 524.693 609.275 522.786C607.371 520.879 604.789 519.806 602.096 519.803V519.803Z" fill="#3F3D56"/>
<path d="M12.005 219.219C9.63063 219.219 7.30959 218.513 5.33538 217.192C3.36117 215.871 1.82246 213.993 0.913831 211.796C0.00520169 209.599 -0.232537 207.182 0.230678 204.85C0.693893 202.517 1.83726 200.375 3.51619 198.693C5.19511 197.012 7.3342 195.867 9.66294 195.403C11.9917 194.939 14.4055 195.177 16.5991 196.087C18.7927 196.997 20.6677 198.538 21.9868 200.515C23.3059 202.493 24.01 204.817 24.01 207.195C24.0065 210.383 22.7405 213.439 20.4899 215.693C18.2393 217.947 15.1878 219.215 12.005 219.219V219.219ZM12.005 197.022C9.99592 197.022 8.03196 197.618 6.36148 198.736C4.69099 199.854 3.38901 201.443 2.62017 203.302C1.85133 205.161 1.65016 207.207 2.04212 209.18C2.43407 211.154 3.40153 212.966 4.82216 214.389C6.24279 215.812 8.05278 216.781 10.0233 217.173C11.9937 217.566 14.0362 217.364 15.8923 216.594C17.7485 215.824 19.3349 214.52 20.4511 212.847C21.5673 211.174 22.1631 209.207 22.1631 207.195C22.16 204.498 21.0888 201.912 19.1845 200.005C17.2801 198.098 14.6981 197.025 12.005 197.022V197.022Z" fill="#3F3D56"/>
<path d="M185.616 468.935L177.369 492.056H158.835V468.472C160.202 438.885 176.778 424.975 177.295 424.55C164.838 436.582 166.223 478.183 166.223 478.183C174.534 442.113 181.922 441.188 181.922 441.188C177.452 447.912 175.143 478.498 175.005 480.403C175.559 473.975 185.616 468.935 185.616 468.935Z" fill="#F2F2F2"/>
<path d="M759.084 488.079V508.057H744.835L737.845 488.44C737.845 488.44 745.814 492.436 746.257 497.532C746.147 495.959 744.318 471.765 740.772 466.437C740.772 466.437 746.636 467.168 753.23 495.774C753.23 495.774 754.319 462.784 744.447 453.239C744.863 453.581 758.004 464.606 759.084 488.079Z" fill="#F2F2F2"/>
<path d="M509.704 414.363H487.244L487.093 412.518L485.457 391.955V391.948L483.757 370.569L494.122 326.474L502.929 335.294V377.315C502.929 377.315 508.107 385.098 507.072 387.173C506.036 389.247 505 389.248 506.036 390.799C507.072 392.359 508.107 393.397 507.072 394.434C506.567 395.108 506.295 395.927 506.295 396.77C506.295 397.612 506.567 398.431 507.072 399.105C508.107 400.143 510.179 401.695 508.621 403.254C507.072 404.806 505 403.769 507.072 409.478C507.451 410.533 507.928 411.551 508.495 412.518C508.864 413.155 509.268 413.771 509.704 414.363V414.363Z" fill="#D0CDE1"/>
<path d="M440.507 272.258L437.399 303.385L468.997 308.054L471.327 290.156L473.659 272.258H440.507Z" fill="#FFB9B9"/>
<path opacity="0.1" d="M440.507 272.258L437.399 303.385L468.997 308.054L471.327 290.156L473.659 272.258H440.507Z" fill="black"/>
<path d="M457.86 282.375C471.592 282.375 482.724 271.226 482.724 257.473C482.724 243.72 471.592 232.571 457.86 232.571C444.128 232.571 432.996 243.72 432.996 257.473C432.996 271.226 444.128 282.375 457.86 282.375Z" fill="#FFB9B9"/>
<path d="M395.029 414.363C394.942 414.181 394.848 413.991 394.753 413.785C394.571 413.397 394.373 412.978 394.16 412.519C392.784 409.446 391.1 405.076 392.073 403.769C393.63 401.695 394.144 399.62 393.108 398.583C392.073 397.546 388.966 399.62 392.073 397.023C395.18 394.434 396.215 395.986 395.18 392.874C394.144 389.762 392.073 391.322 394.144 389.762C396.215 388.21 397.773 388.725 396.737 387.173C395.701 385.613 393.63 385.613 395.701 384.576C397.773 383.539 399.33 384.576 398.808 381.979C398.287 379.39 397.773 380.427 398.808 379.39C399.077 379.12 400.018 376.508 401.275 372.778C404.793 362.239 410.723 342.801 410.723 342.033C410.723 340.995 402.437 308.318 402.437 308.318L398.808 306.235C398.808 306.235 382.752 317.131 377.573 341.518C372.387 365.897 368.766 372.129 368.766 372.129C368.766 372.129 363.588 373.166 367.209 376.793C370.837 380.427 370.837 379.904 367.73 381.979C364.623 384.053 362.552 379.904 364.623 384.053C366.695 388.21 369.28 387.173 367.209 389.762C365.137 392.359 361.516 392.359 363.588 394.434C365.659 396.508 361.516 401.18 364.102 403.255C366.695 405.329 367.73 405.844 367.73 409.478C367.731 410.496 367.813 411.513 367.975 412.519C368.065 413.141 368.191 413.757 368.355 414.363C368.474 414.846 368.592 415.211 368.671 415.44L395.029 414.363Z" fill="#D0CDE1"/>
<path d="M395.029 414.363H397.14L397.251 413.627L394.752 413.785L385.669 414.363L368.671 415.44L395.029 414.363Z" fill="#3F3D56"/>
<path d="M406.058 392.359L401.401 376.278L401.275 372.778L398.808 306.235L429.372 295.348L434.551 291.191C434.551 291.191 435.586 279.259 437.144 278.221C437.705 277.849 438.607 278.285 439.8 279.298C441.895 281.08 444.9 284.635 448.536 288.602C454.236 294.825 466.151 293.788 469.772 291.714C470.237 291.442 470.721 291.201 471.218 290.993C473.819 289.916 474.95 290.676 474.95 290.676C477.543 292.751 471.329 299.497 471.329 299.497C471.329 299.497 473.4 304.161 486.864 308.832C500.336 313.504 502.929 335.294 502.929 335.294C502.929 335.294 486.864 378.867 487.386 381.979C487.829 384.647 485.994 390.364 485.457 391.948V391.956C485.37 392.209 485.315 392.359 485.315 392.359L486.492 412.519L486.603 414.363H408.248C408.015 413.722 407.721 413.104 407.37 412.519C407.283 412.376 407.189 412.226 407.094 412.075C402.437 404.806 406.058 392.359 406.058 392.359Z" fill="#D0CDE1"/>
<path d="M432.824 260.663C432.824 260.663 430.242 256.784 431.235 252.607C431.828 250.235 432.062 247.788 431.93 245.346C431.93 245.346 434.015 238.583 436.101 234.804C438.186 231.024 437.193 229.433 443.747 228.239C450.301 227.046 447.62 218.492 464.9 227.742C465.483 228.557 466.294 229.181 467.23 229.535C468.167 229.889 469.187 229.957 470.163 229.731C473.738 229.035 475.029 234.008 475.029 234.008C475.029 234.008 477.412 232.615 478.306 234.605C479.2 236.594 485.572 233.411 485.572 246.838C485.572 260.265 478.32 272.258 478.32 272.258C478.32 272.258 478.852 249.673 467.035 247.385C455.217 245.097 442.506 238.434 439.427 246.987C437.766 251.788 435.549 256.378 432.824 260.663Z" fill="#2F2E41"/>
<path d="M478.579 266.033C479.867 266.033 480.91 264.639 480.91 262.92C480.91 261.201 479.867 259.808 478.579 259.808C477.292 259.808 476.249 261.201 476.249 262.92C476.249 264.639 477.292 266.033 478.579 266.033Z" fill="#FFB9B9"/>
<path d="M268.725 199.794V414.364H608.559V199.794H268.725ZM606.717 412.519H270.575V201.647H606.717V412.519Z" fill="white"/>
</svg>
