<svg width="80" height="70" viewBox="0 0 97 100" fill="none" xmlns="http://www.w3.org/2000/svg">
<path d="M49.3534 99.1339C72.0125 99.1339 90.3813 80.7651 90.3813 58.106C90.3813 35.4469 72.0125 17.0781 49.3534 17.0781C26.6944 17.0781 8.32556 35.4469 8.32556 58.106C8.32556 80.7651 26.6944 99.1339 49.3534 99.1339Z" fill="#FFB8B8"/>
<path d="M10.5387 70.9429C10.5387 70.9429 14.0246 64.8212 13.2142 44.3705C12.4038 23.9199 43.5452 35.4865 69.5672 33.5356C95.5891 31.5847 90.0807 67.6785 90.0807 67.6785C90.0807 67.6785 91.9581 65.5329 95.9774 48.113C99.9967 30.6931 90.8707 13.3334 90.8707 13.3334C88.183 -4.97164 73.6978 0.895164 73.6978 0.895164C80.6737 3.6108 79.3339 9.41744 79.3339 9.41744C73.429 -0.935367 58.9439 4.93147 58.9439 4.93147C39.6249 -7.19166 20.0453 8.77299 20.0453 8.77299C-3.29303 14.0696 10.394 32.6297 10.394 32.6297C-13.0766 44.4907 10.5387 70.9429 10.5387 70.9429Z" fill="#2F2E41"/>
</svg>
