<svg width="30" height="30" viewBox="0 0 51 51" fill="none" xmlns="http://www.w3.org/2000/svg">
<path d="M50.3778 0.622182C49.9793 0.223799 49.4389 0 48.8754 0C48.3119 0 47.7715 0.223799 47.373 0.622182L25.5 22.4952L3.62699 0.622182C3.22848 0.223799 2.68807 0 2.12458 0C1.5611 0 1.02069 0.223799 0.622182 0.622182C0.223799 1.02069 0 1.5611 0 2.12458C0 2.68807 0.223799 3.22848 0.622182 3.62699L22.4952 25.5L0.622182 47.373C0.223799 47.7715 0 48.3119 0 48.8754C0 49.4389 0.223799 49.9793 0.622182 50.3778C1.02069 50.7762 1.5611 51 2.12458 51C2.68807 51 3.22848 50.7762 3.62699 50.3778L25.5 28.5048L47.373 50.3778C47.7715 50.7762 48.3119 51 48.8754 51C49.4389 51 49.9793 50.7762 50.3778 50.3778C50.7762 49.9793 51 49.4389 51 48.8754C51 48.3119 50.7762 47.7715 50.3778 47.373L28.5048 25.5L50.3778 3.62699C50.7762 3.22848 51 2.68807 51 2.12458C51 1.5611 50.7762 1.02069 50.3778 0.622182Z" fill="#FF4848"/>
</svg>
